%
M48
M72
T01C0.02362
T02C0.03937
T03C0.04000
T04C0.14173
%
T01
X180975Y95350
X231600Y106600
X247225Y98475
X272850Y77850
X297850Y92850
X308475Y96600
X315350Y95975
X310350Y86600
X311600Y76600
X350350Y72850
X267850Y46600
X220350Y35350
X345350Y115350
X311600Y157225
T02
X164100Y145350
X154100Y145350
X144100Y145350
X134100Y145350
X124100Y145350
X114100Y145350
X104100Y145350
X94100Y145350
X84100Y145350
X74100Y145350
X64100Y145350
X54100Y145350
X44100Y145350
X34100Y145350
X24100Y145350
X14100Y145350
X14100Y135350
X24100Y135350
X34100Y135350
X44100Y135350
X54100Y135350
X64100Y135350
X74100Y135350
X84100Y135350
X94100Y135350
X104100Y135350
X114100Y135350
X124100Y135350
X134100Y135350
X144100Y135350
X154100Y135350
X164100Y135350
X164100Y125350
X154100Y125350
X144100Y125350
X134100Y125350
X124100Y125350
X114100Y125350
X104100Y125350
X94100Y125350
X84100Y125350
X74100Y125350
X64100Y125350
X54100Y125350
X44100Y125350
X34100Y125350
X24100Y125350
X14100Y125350
X14100Y115350
X24100Y115350
X34100Y115350
X44100Y115350
X54100Y115350
X64100Y115350
X74100Y115350
X84100Y115350
X94100Y115350
X104100Y115350
X114100Y115350
X124100Y115350
X134100Y115350
X144100Y115350
X154100Y115350
X164100Y115350
X164100Y105350
X154100Y105350
X144100Y105350
X134100Y105350
X124100Y105350
X114100Y105350
X104100Y105350
X94100Y105350
X84100Y105350
X74100Y105350
X64100Y105350
X54100Y105350
X44100Y105350
X34100Y105350
X24100Y105350
X14100Y105350
X14100Y95350
X24100Y95350
X34100Y95350
X44100Y95350
X54100Y95350
X64100Y95350
X74100Y95350
X84100Y95350
X94100Y95350
X104100Y95350
X114100Y95350
X124100Y95350
X134100Y95350
X144100Y95350
X154100Y95350
X164100Y95350
X164100Y85350
X154100Y85350
X144100Y85350
X134100Y85350
X124100Y85350
X114100Y85350
X104100Y85350
X94100Y85350
X84100Y85350
X74100Y85350
X64100Y85350
X54100Y85350
X44100Y85350
X34100Y85350
X24100Y85350
X14100Y85350
X14100Y75350
X24100Y75350
X34100Y75350
X44100Y75350
X54100Y75350
X64100Y75350
X74100Y75350
X84100Y75350
X94100Y75350
X104100Y75350
X114100Y75350
X124100Y75350
X134100Y75350
X144100Y75350
X154100Y75350
X164100Y75350
X164100Y65350
X154100Y65350
X144100Y65350
X134100Y65350
X124100Y65350
X114100Y65350
X104100Y65350
X94100Y65350
X84100Y65350
X74100Y65350
X64100Y65350
X54100Y65350
X44100Y65350
X34100Y65350
X24100Y65350
X14100Y65350
X14100Y55350
X24100Y55350
X34100Y55350
X44100Y55350
X54100Y55350
X64100Y55350
X74100Y55350
X84100Y55350
X94100Y55350
X104100Y55350
X114100Y55350
X124100Y55350
X134100Y55350
X144100Y55350
X154100Y55350
X164100Y55350
X164100Y45350
X154100Y45350
X144100Y45350
X134100Y45350
X124100Y45350
X114100Y45350
X104100Y45350
X94100Y45350
X84100Y45350
X74100Y45350
X64100Y45350
X54100Y45350
X44100Y45350
X34100Y45350
X24100Y45350
X14100Y45350
X44100Y35350
X54100Y35350
X64100Y35350
X74100Y35350
X84100Y35350
X94100Y35350
X104100Y35350
X114100Y35350
X124100Y35350
X134100Y35350
X134100Y25350
X124100Y25350
X114100Y25350
X104100Y25350
X94100Y25350
X84100Y25350
X74100Y25350
X64100Y25350
X54100Y25350
X44100Y25350
X49100Y10350
X59100Y10350
X69100Y10350
X79100Y10350
X89100Y10350
X99100Y10350
X109100Y10350
X119100Y10350
X129100Y10350
X124100Y155350
X134100Y155350
X134100Y165350
X124100Y165350
X114100Y165350
X104100Y165350
X94100Y165350
X84100Y165350
X74100Y165350
X64100Y165350
X54100Y165350
X44100Y165350
X44100Y155350
X54100Y155350
X64100Y155350
X74100Y155350
X84100Y155350
X94100Y155350
X104100Y155350
X114100Y155350
X109100Y180350
X99100Y180350
X89100Y180350
X79100Y180350
X69100Y180350
X59100Y180350
X49100Y180350
X119100Y180350
X129100Y180350
T03
X232850Y180350
X242850Y180350
X252850Y180350
X262850Y180350
X272850Y180350
X282850Y180350
X292850Y180350
X302850Y180350
X312850Y180350
X312850Y10350
X302850Y10350
X292850Y10350
X282850Y10350
X272850Y10350
X262850Y10350
X252850Y10350
X242850Y10350
X232850Y10350
T04
X20350Y20350
X157850Y20350
X204100Y20350
X341600Y20350
X341600Y170350
X204100Y170350
X157850Y170350
X20350Y170350
M30
