G75*
%MOIN*%
%OFA0B0*%
%FSLAX25Y25*%
%IPPOS*%
%LPD*%
%AMOC8*
5,1,8,0,0,1.08239X$1,22.5*
%
%ADD10C,0.01200*%
%ADD11C,0.00000*%
%ADD12C,0.02000*%
%ADD13C,0.00900*%
%ADD14C,0.00800*%
%ADD15C,0.00600*%
%ADD16C,0.02200*%
%ADD17C,0.00500*%
%ADD18C,0.00200*%
%ADD19R,0.00984X0.00984*%
%ADD20R,0.01800X0.03000*%
%ADD21C,0.00300*%
D10*
X0004800Y0001600D02*
X0173400Y0001600D01*
X0173399Y0001601D02*
X0173517Y0001613D01*
X0173633Y0001630D01*
X0173749Y0001650D01*
X0173865Y0001674D01*
X0173979Y0001702D01*
X0174093Y0001733D01*
X0174205Y0001769D01*
X0174316Y0001808D01*
X0174426Y0001851D01*
X0174534Y0001898D01*
X0174641Y0001948D01*
X0174746Y0002002D01*
X0174849Y0002059D01*
X0174950Y0002119D01*
X0175049Y0002183D01*
X0175146Y0002250D01*
X0175240Y0002321D01*
X0175332Y0002394D01*
X0175422Y0002471D01*
X0175509Y0002550D01*
X0175593Y0002633D01*
X0175675Y0002718D01*
X0175753Y0002806D01*
X0175829Y0002896D01*
X0175901Y0002989D01*
X0175971Y0003084D01*
X0176037Y0003182D01*
X0176100Y0003281D01*
X0176159Y0003383D01*
X0176215Y0003487D01*
X0176268Y0003592D01*
X0176317Y0003699D01*
X0176363Y0003808D01*
X0176404Y0003918D01*
X0176442Y0004030D01*
X0176477Y0004142D01*
X0176507Y0004256D01*
X0176534Y0004371D01*
X0176557Y0004486D01*
X0176576Y0004603D01*
X0176591Y0004720D01*
X0176602Y0004837D01*
X0176609Y0004955D01*
X0176613Y0005072D01*
X0176612Y0005190D01*
X0176608Y0005308D01*
X0176599Y0005425D01*
X0176600Y0005425D02*
X0176600Y0080275D01*
X0176602Y0080387D01*
X0176608Y0080498D01*
X0176618Y0080609D01*
X0176631Y0080720D01*
X0176649Y0080831D01*
X0176670Y0080940D01*
X0176695Y0081049D01*
X0176724Y0081157D01*
X0176757Y0081264D01*
X0176793Y0081369D01*
X0176833Y0081474D01*
X0176877Y0081577D01*
X0176924Y0081678D01*
X0176975Y0081777D01*
X0177029Y0081875D01*
X0177086Y0081971D01*
X0177147Y0082064D01*
X0177211Y0082156D01*
X0177278Y0082245D01*
X0177349Y0082332D01*
X0177422Y0082416D01*
X0177498Y0082498D01*
X0177577Y0082577D01*
X0177659Y0082653D01*
X0177743Y0082726D01*
X0177830Y0082797D01*
X0177919Y0082864D01*
X0178011Y0082928D01*
X0178104Y0082989D01*
X0178200Y0083046D01*
X0178298Y0083100D01*
X0178397Y0083151D01*
X0178498Y0083198D01*
X0178601Y0083242D01*
X0178706Y0083282D01*
X0178811Y0083318D01*
X0178918Y0083351D01*
X0179026Y0083380D01*
X0179135Y0083405D01*
X0179244Y0083426D01*
X0179355Y0083444D01*
X0179466Y0083457D01*
X0179577Y0083467D01*
X0179688Y0083473D01*
X0179800Y0083475D01*
X0182150Y0083475D01*
X0179800Y0083475D02*
X0179725Y0083475D01*
X0182150Y0083475D02*
X0182262Y0083473D01*
X0182373Y0083467D01*
X0182484Y0083457D01*
X0182595Y0083444D01*
X0182706Y0083426D01*
X0182815Y0083405D01*
X0182924Y0083380D01*
X0183032Y0083351D01*
X0183139Y0083318D01*
X0183244Y0083282D01*
X0183349Y0083242D01*
X0183452Y0083198D01*
X0183553Y0083151D01*
X0183652Y0083100D01*
X0183750Y0083046D01*
X0183846Y0082989D01*
X0183939Y0082928D01*
X0184031Y0082864D01*
X0184120Y0082797D01*
X0184207Y0082726D01*
X0184291Y0082653D01*
X0184373Y0082577D01*
X0184452Y0082498D01*
X0184528Y0082416D01*
X0184601Y0082332D01*
X0184672Y0082245D01*
X0184739Y0082156D01*
X0184803Y0082064D01*
X0184864Y0081971D01*
X0184921Y0081875D01*
X0184975Y0081777D01*
X0185026Y0081678D01*
X0185073Y0081577D01*
X0185117Y0081474D01*
X0185157Y0081369D01*
X0185193Y0081264D01*
X0185226Y0081157D01*
X0185255Y0081049D01*
X0185280Y0080940D01*
X0185301Y0080831D01*
X0185319Y0080720D01*
X0185332Y0080609D01*
X0185342Y0080498D01*
X0185348Y0080387D01*
X0185350Y0080275D01*
X0185350Y0004800D01*
X0185352Y0004688D01*
X0185358Y0004577D01*
X0185368Y0004466D01*
X0185381Y0004355D01*
X0185399Y0004244D01*
X0185420Y0004135D01*
X0185445Y0004026D01*
X0185474Y0003918D01*
X0185507Y0003811D01*
X0185543Y0003706D01*
X0185583Y0003601D01*
X0185627Y0003498D01*
X0185674Y0003397D01*
X0185725Y0003298D01*
X0185779Y0003200D01*
X0185836Y0003104D01*
X0185897Y0003011D01*
X0185961Y0002919D01*
X0186028Y0002830D01*
X0186099Y0002743D01*
X0186172Y0002659D01*
X0186248Y0002577D01*
X0186327Y0002498D01*
X0186409Y0002422D01*
X0186493Y0002349D01*
X0186580Y0002278D01*
X0186669Y0002211D01*
X0186761Y0002147D01*
X0186854Y0002086D01*
X0186950Y0002029D01*
X0187048Y0001975D01*
X0187147Y0001924D01*
X0187248Y0001877D01*
X0187351Y0001833D01*
X0187456Y0001793D01*
X0187561Y0001757D01*
X0187668Y0001724D01*
X0187776Y0001695D01*
X0187885Y0001670D01*
X0187994Y0001649D01*
X0188105Y0001631D01*
X0188216Y0001618D01*
X0188327Y0001608D01*
X0188438Y0001602D01*
X0188550Y0001600D01*
X0357150Y0001600D01*
X0357262Y0001602D01*
X0357373Y0001608D01*
X0357484Y0001618D01*
X0357595Y0001631D01*
X0357706Y0001649D01*
X0357815Y0001670D01*
X0357924Y0001695D01*
X0358032Y0001724D01*
X0358139Y0001757D01*
X0358244Y0001793D01*
X0358349Y0001833D01*
X0358452Y0001877D01*
X0358553Y0001924D01*
X0358652Y0001975D01*
X0358750Y0002029D01*
X0358846Y0002086D01*
X0358939Y0002147D01*
X0359031Y0002211D01*
X0359120Y0002278D01*
X0359207Y0002349D01*
X0359291Y0002422D01*
X0359373Y0002498D01*
X0359452Y0002577D01*
X0359528Y0002659D01*
X0359601Y0002743D01*
X0359672Y0002830D01*
X0359739Y0002919D01*
X0359803Y0003011D01*
X0359864Y0003104D01*
X0359921Y0003200D01*
X0359975Y0003298D01*
X0360026Y0003397D01*
X0360073Y0003498D01*
X0360117Y0003601D01*
X0360157Y0003706D01*
X0360193Y0003811D01*
X0360226Y0003918D01*
X0360255Y0004026D01*
X0360280Y0004135D01*
X0360301Y0004244D01*
X0360319Y0004355D01*
X0360332Y0004466D01*
X0360342Y0004577D01*
X0360348Y0004688D01*
X0360350Y0004800D01*
X0360350Y0068400D01*
X0360352Y0068512D01*
X0360358Y0068623D01*
X0360368Y0068734D01*
X0360381Y0068845D01*
X0360399Y0068956D01*
X0360420Y0069065D01*
X0360445Y0069174D01*
X0360474Y0069282D01*
X0360507Y0069389D01*
X0360543Y0069494D01*
X0360583Y0069599D01*
X0360627Y0069702D01*
X0360674Y0069803D01*
X0360725Y0069902D01*
X0360779Y0070000D01*
X0360836Y0070096D01*
X0360897Y0070189D01*
X0360961Y0070281D01*
X0361028Y0070370D01*
X0361099Y0070457D01*
X0361172Y0070541D01*
X0361248Y0070623D01*
X0361327Y0070702D01*
X0361409Y0070778D01*
X0361493Y0070851D01*
X0361580Y0070922D01*
X0361669Y0070989D01*
X0361761Y0071053D01*
X0361854Y0071114D01*
X0361950Y0071171D01*
X0362048Y0071225D01*
X0362147Y0071276D01*
X0362248Y0071323D01*
X0362351Y0071367D01*
X0362456Y0071407D01*
X0362561Y0071443D01*
X0362668Y0071476D01*
X0362776Y0071505D01*
X0362885Y0071530D01*
X0362994Y0071551D01*
X0363105Y0071569D01*
X0363216Y0071582D01*
X0363327Y0071592D01*
X0363438Y0071598D01*
X0363550Y0071600D01*
X0391525Y0071600D01*
X0391637Y0071602D01*
X0391748Y0071608D01*
X0391859Y0071618D01*
X0391970Y0071631D01*
X0392081Y0071649D01*
X0392190Y0071670D01*
X0392299Y0071695D01*
X0392407Y0071724D01*
X0392514Y0071757D01*
X0392619Y0071793D01*
X0392724Y0071833D01*
X0392827Y0071877D01*
X0392928Y0071924D01*
X0393027Y0071975D01*
X0393125Y0072029D01*
X0393221Y0072086D01*
X0393314Y0072147D01*
X0393406Y0072211D01*
X0393495Y0072278D01*
X0393582Y0072349D01*
X0393666Y0072422D01*
X0393748Y0072498D01*
X0393827Y0072577D01*
X0393903Y0072659D01*
X0393976Y0072743D01*
X0394047Y0072830D01*
X0394114Y0072919D01*
X0394178Y0073011D01*
X0394239Y0073104D01*
X0394296Y0073200D01*
X0394350Y0073298D01*
X0394401Y0073397D01*
X0394448Y0073498D01*
X0394492Y0073601D01*
X0394532Y0073706D01*
X0394568Y0073811D01*
X0394601Y0073918D01*
X0394630Y0074026D01*
X0394655Y0074135D01*
X0394676Y0074244D01*
X0394694Y0074355D01*
X0394707Y0074466D01*
X0394717Y0074577D01*
X0394723Y0074688D01*
X0394725Y0074800D01*
X0394725Y0115900D01*
X0394723Y0116012D01*
X0394717Y0116123D01*
X0394707Y0116234D01*
X0394694Y0116345D01*
X0394676Y0116456D01*
X0394655Y0116565D01*
X0394630Y0116674D01*
X0394601Y0116782D01*
X0394568Y0116889D01*
X0394532Y0116994D01*
X0394492Y0117099D01*
X0394448Y0117202D01*
X0394401Y0117303D01*
X0394350Y0117402D01*
X0394296Y0117500D01*
X0394239Y0117596D01*
X0394178Y0117689D01*
X0394114Y0117781D01*
X0394047Y0117870D01*
X0393976Y0117957D01*
X0393903Y0118041D01*
X0393827Y0118123D01*
X0393748Y0118202D01*
X0393666Y0118278D01*
X0393582Y0118351D01*
X0393495Y0118422D01*
X0393406Y0118489D01*
X0393314Y0118553D01*
X0393221Y0118614D01*
X0393125Y0118671D01*
X0393027Y0118725D01*
X0392928Y0118776D01*
X0392827Y0118823D01*
X0392724Y0118867D01*
X0392619Y0118907D01*
X0392514Y0118943D01*
X0392407Y0118976D01*
X0392299Y0119005D01*
X0392190Y0119030D01*
X0392081Y0119051D01*
X0391970Y0119069D01*
X0391859Y0119082D01*
X0391748Y0119092D01*
X0391637Y0119098D01*
X0391525Y0119100D01*
X0363550Y0119100D01*
X0363438Y0119102D01*
X0363327Y0119108D01*
X0363216Y0119118D01*
X0363105Y0119131D01*
X0362994Y0119149D01*
X0362885Y0119170D01*
X0362776Y0119195D01*
X0362668Y0119224D01*
X0362561Y0119257D01*
X0362456Y0119293D01*
X0362351Y0119333D01*
X0362248Y0119377D01*
X0362147Y0119424D01*
X0362048Y0119475D01*
X0361950Y0119529D01*
X0361854Y0119586D01*
X0361761Y0119647D01*
X0361669Y0119711D01*
X0361580Y0119778D01*
X0361493Y0119849D01*
X0361409Y0119922D01*
X0361327Y0119998D01*
X0361248Y0120077D01*
X0361172Y0120159D01*
X0361099Y0120243D01*
X0361028Y0120330D01*
X0360961Y0120419D01*
X0360897Y0120511D01*
X0360836Y0120604D01*
X0360779Y0120700D01*
X0360725Y0120798D01*
X0360674Y0120897D01*
X0360627Y0120998D01*
X0360583Y0121101D01*
X0360543Y0121206D01*
X0360507Y0121311D01*
X0360474Y0121418D01*
X0360445Y0121526D01*
X0360420Y0121635D01*
X0360399Y0121744D01*
X0360381Y0121855D01*
X0360368Y0121966D01*
X0360358Y0122077D01*
X0360352Y0122188D01*
X0360350Y0122300D01*
X0360350Y0185900D01*
X0360348Y0186012D01*
X0360342Y0186123D01*
X0360332Y0186234D01*
X0360319Y0186345D01*
X0360301Y0186456D01*
X0360280Y0186565D01*
X0360255Y0186674D01*
X0360226Y0186782D01*
X0360193Y0186889D01*
X0360157Y0186994D01*
X0360117Y0187099D01*
X0360073Y0187202D01*
X0360026Y0187303D01*
X0359975Y0187402D01*
X0359921Y0187500D01*
X0359864Y0187596D01*
X0359803Y0187689D01*
X0359739Y0187781D01*
X0359672Y0187870D01*
X0359601Y0187957D01*
X0359528Y0188041D01*
X0359452Y0188123D01*
X0359373Y0188202D01*
X0359291Y0188278D01*
X0359207Y0188351D01*
X0359120Y0188422D01*
X0359031Y0188489D01*
X0358939Y0188553D01*
X0358846Y0188614D01*
X0358750Y0188671D01*
X0358652Y0188725D01*
X0358553Y0188776D01*
X0358452Y0188823D01*
X0358349Y0188867D01*
X0358244Y0188907D01*
X0358139Y0188943D01*
X0358032Y0188976D01*
X0357924Y0189005D01*
X0357815Y0189030D01*
X0357706Y0189051D01*
X0357595Y0189069D01*
X0357484Y0189082D01*
X0357373Y0189092D01*
X0357262Y0189098D01*
X0357150Y0189100D01*
X0188550Y0189100D01*
X0188438Y0189098D01*
X0188327Y0189092D01*
X0188216Y0189082D01*
X0188105Y0189069D01*
X0187994Y0189051D01*
X0187885Y0189030D01*
X0187776Y0189005D01*
X0187668Y0188976D01*
X0187561Y0188943D01*
X0187456Y0188907D01*
X0187351Y0188867D01*
X0187248Y0188823D01*
X0187147Y0188776D01*
X0187048Y0188725D01*
X0186950Y0188671D01*
X0186854Y0188614D01*
X0186761Y0188553D01*
X0186669Y0188489D01*
X0186580Y0188422D01*
X0186493Y0188351D01*
X0186409Y0188278D01*
X0186327Y0188202D01*
X0186248Y0188123D01*
X0186172Y0188041D01*
X0186099Y0187957D01*
X0186028Y0187870D01*
X0185961Y0187781D01*
X0185897Y0187689D01*
X0185836Y0187596D01*
X0185779Y0187500D01*
X0185725Y0187402D01*
X0185674Y0187303D01*
X0185627Y0187202D01*
X0185583Y0187099D01*
X0185543Y0186994D01*
X0185507Y0186889D01*
X0185474Y0186782D01*
X0185445Y0186674D01*
X0185420Y0186565D01*
X0185399Y0186456D01*
X0185381Y0186345D01*
X0185368Y0186234D01*
X0185358Y0186123D01*
X0185352Y0186012D01*
X0185350Y0185900D01*
X0185350Y0110425D01*
X0185348Y0110313D01*
X0185342Y0110202D01*
X0185332Y0110091D01*
X0185319Y0109980D01*
X0185301Y0109869D01*
X0185280Y0109760D01*
X0185255Y0109651D01*
X0185226Y0109543D01*
X0185193Y0109436D01*
X0185157Y0109331D01*
X0185117Y0109226D01*
X0185073Y0109123D01*
X0185026Y0109022D01*
X0184975Y0108923D01*
X0184921Y0108825D01*
X0184864Y0108729D01*
X0184803Y0108636D01*
X0184739Y0108544D01*
X0184672Y0108455D01*
X0184601Y0108368D01*
X0184528Y0108284D01*
X0184452Y0108202D01*
X0184373Y0108123D01*
X0184291Y0108047D01*
X0184207Y0107974D01*
X0184120Y0107903D01*
X0184031Y0107836D01*
X0183939Y0107772D01*
X0183846Y0107711D01*
X0183750Y0107654D01*
X0183652Y0107600D01*
X0183553Y0107549D01*
X0183452Y0107502D01*
X0183349Y0107458D01*
X0183244Y0107418D01*
X0183139Y0107382D01*
X0183032Y0107349D01*
X0182924Y0107320D01*
X0182815Y0107295D01*
X0182706Y0107274D01*
X0182595Y0107256D01*
X0182484Y0107243D01*
X0182373Y0107233D01*
X0182262Y0107227D01*
X0182150Y0107225D01*
X0179800Y0107225D01*
X0179688Y0107227D01*
X0179577Y0107233D01*
X0179466Y0107243D01*
X0179355Y0107256D01*
X0179244Y0107274D01*
X0179135Y0107295D01*
X0179026Y0107320D01*
X0178918Y0107349D01*
X0178811Y0107382D01*
X0178706Y0107418D01*
X0178601Y0107458D01*
X0178498Y0107502D01*
X0178397Y0107549D01*
X0178298Y0107600D01*
X0178200Y0107654D01*
X0178104Y0107711D01*
X0178011Y0107772D01*
X0177919Y0107836D01*
X0177830Y0107903D01*
X0177743Y0107974D01*
X0177659Y0108047D01*
X0177577Y0108123D01*
X0177498Y0108202D01*
X0177422Y0108284D01*
X0177349Y0108368D01*
X0177278Y0108455D01*
X0177211Y0108544D01*
X0177147Y0108636D01*
X0177086Y0108729D01*
X0177029Y0108825D01*
X0176975Y0108923D01*
X0176924Y0109022D01*
X0176877Y0109123D01*
X0176833Y0109226D01*
X0176793Y0109331D01*
X0176757Y0109436D01*
X0176724Y0109543D01*
X0176695Y0109651D01*
X0176670Y0109760D01*
X0176649Y0109869D01*
X0176631Y0109980D01*
X0176618Y0110091D01*
X0176608Y0110202D01*
X0176602Y0110313D01*
X0176600Y0110425D01*
X0176600Y0185275D01*
X0176599Y0185275D02*
X0176608Y0185392D01*
X0176612Y0185510D01*
X0176613Y0185628D01*
X0176609Y0185745D01*
X0176602Y0185863D01*
X0176591Y0185980D01*
X0176576Y0186097D01*
X0176557Y0186214D01*
X0176534Y0186329D01*
X0176507Y0186444D01*
X0176477Y0186558D01*
X0176442Y0186670D01*
X0176404Y0186782D01*
X0176363Y0186892D01*
X0176317Y0187001D01*
X0176268Y0187108D01*
X0176215Y0187213D01*
X0176159Y0187317D01*
X0176100Y0187419D01*
X0176037Y0187518D01*
X0175971Y0187616D01*
X0175901Y0187711D01*
X0175829Y0187804D01*
X0175753Y0187894D01*
X0175675Y0187982D01*
X0175593Y0188067D01*
X0175509Y0188150D01*
X0175422Y0188229D01*
X0175332Y0188306D01*
X0175240Y0188379D01*
X0175146Y0188450D01*
X0175049Y0188517D01*
X0174950Y0188581D01*
X0174849Y0188641D01*
X0174746Y0188698D01*
X0174641Y0188752D01*
X0174534Y0188802D01*
X0174426Y0188849D01*
X0174316Y0188892D01*
X0174205Y0188931D01*
X0174093Y0188967D01*
X0173979Y0188998D01*
X0173865Y0189026D01*
X0173749Y0189050D01*
X0173633Y0189070D01*
X0173517Y0189087D01*
X0173399Y0189099D01*
X0173400Y0189100D02*
X0009800Y0189100D01*
X0009725Y0189100D02*
X0004800Y0189100D01*
X0004688Y0189098D01*
X0004577Y0189092D01*
X0004466Y0189082D01*
X0004355Y0189069D01*
X0004244Y0189051D01*
X0004135Y0189030D01*
X0004026Y0189005D01*
X0003918Y0188976D01*
X0003811Y0188943D01*
X0003706Y0188907D01*
X0003601Y0188867D01*
X0003498Y0188823D01*
X0003397Y0188776D01*
X0003298Y0188725D01*
X0003200Y0188671D01*
X0003104Y0188614D01*
X0003011Y0188553D01*
X0002919Y0188489D01*
X0002830Y0188422D01*
X0002743Y0188351D01*
X0002659Y0188278D01*
X0002577Y0188202D01*
X0002498Y0188123D01*
X0002422Y0188041D01*
X0002349Y0187957D01*
X0002278Y0187870D01*
X0002211Y0187781D01*
X0002147Y0187689D01*
X0002086Y0187596D01*
X0002029Y0187500D01*
X0001975Y0187402D01*
X0001924Y0187303D01*
X0001877Y0187202D01*
X0001833Y0187099D01*
X0001793Y0186994D01*
X0001757Y0186889D01*
X0001724Y0186782D01*
X0001695Y0186674D01*
X0001670Y0186565D01*
X0001649Y0186456D01*
X0001631Y0186345D01*
X0001618Y0186234D01*
X0001608Y0186123D01*
X0001602Y0186012D01*
X0001600Y0185900D01*
X0001600Y0004800D01*
X0001602Y0004688D01*
X0001608Y0004577D01*
X0001618Y0004466D01*
X0001631Y0004355D01*
X0001649Y0004244D01*
X0001670Y0004135D01*
X0001695Y0004026D01*
X0001724Y0003918D01*
X0001757Y0003811D01*
X0001793Y0003706D01*
X0001833Y0003601D01*
X0001877Y0003498D01*
X0001924Y0003397D01*
X0001975Y0003298D01*
X0002029Y0003200D01*
X0002086Y0003104D01*
X0002147Y0003011D01*
X0002211Y0002919D01*
X0002278Y0002830D01*
X0002349Y0002743D01*
X0002422Y0002659D01*
X0002498Y0002577D01*
X0002577Y0002498D01*
X0002659Y0002422D01*
X0002743Y0002349D01*
X0002830Y0002278D01*
X0002919Y0002211D01*
X0003011Y0002147D01*
X0003104Y0002086D01*
X0003200Y0002029D01*
X0003298Y0001975D01*
X0003397Y0001924D01*
X0003498Y0001877D01*
X0003601Y0001833D01*
X0003706Y0001793D01*
X0003811Y0001757D01*
X0003918Y0001724D01*
X0004026Y0001695D01*
X0004135Y0001670D01*
X0004244Y0001649D01*
X0004355Y0001631D01*
X0004466Y0001618D01*
X0004577Y0001608D01*
X0004688Y0001602D01*
X0004800Y0001600D01*
D11*
X0179794Y0095350D02*
X0179796Y0095419D01*
X0179802Y0095487D01*
X0179812Y0095555D01*
X0179826Y0095622D01*
X0179844Y0095689D01*
X0179865Y0095754D01*
X0179891Y0095818D01*
X0179920Y0095880D01*
X0179952Y0095940D01*
X0179988Y0095999D01*
X0180028Y0096055D01*
X0180070Y0096109D01*
X0180116Y0096160D01*
X0180165Y0096209D01*
X0180216Y0096255D01*
X0180270Y0096297D01*
X0180326Y0096337D01*
X0180384Y0096373D01*
X0180445Y0096405D01*
X0180507Y0096434D01*
X0180571Y0096460D01*
X0180636Y0096481D01*
X0180703Y0096499D01*
X0180770Y0096513D01*
X0180838Y0096523D01*
X0180906Y0096529D01*
X0180975Y0096531D01*
X0181044Y0096529D01*
X0181112Y0096523D01*
X0181180Y0096513D01*
X0181247Y0096499D01*
X0181314Y0096481D01*
X0181379Y0096460D01*
X0181443Y0096434D01*
X0181505Y0096405D01*
X0181565Y0096373D01*
X0181624Y0096337D01*
X0181680Y0096297D01*
X0181734Y0096255D01*
X0181785Y0096209D01*
X0181834Y0096160D01*
X0181880Y0096109D01*
X0181922Y0096055D01*
X0181962Y0095999D01*
X0181998Y0095940D01*
X0182030Y0095880D01*
X0182059Y0095818D01*
X0182085Y0095754D01*
X0182106Y0095689D01*
X0182124Y0095622D01*
X0182138Y0095555D01*
X0182148Y0095487D01*
X0182154Y0095419D01*
X0182156Y0095350D01*
X0182154Y0095281D01*
X0182148Y0095213D01*
X0182138Y0095145D01*
X0182124Y0095078D01*
X0182106Y0095011D01*
X0182085Y0094946D01*
X0182059Y0094882D01*
X0182030Y0094820D01*
X0181998Y0094759D01*
X0181962Y0094701D01*
X0181922Y0094645D01*
X0181880Y0094591D01*
X0181834Y0094540D01*
X0181785Y0094491D01*
X0181734Y0094445D01*
X0181680Y0094403D01*
X0181624Y0094363D01*
X0181566Y0094327D01*
X0181505Y0094295D01*
X0181443Y0094266D01*
X0181379Y0094240D01*
X0181314Y0094219D01*
X0181247Y0094201D01*
X0181180Y0094187D01*
X0181112Y0094177D01*
X0181044Y0094171D01*
X0180975Y0094169D01*
X0180906Y0094171D01*
X0180838Y0094177D01*
X0180770Y0094187D01*
X0180703Y0094201D01*
X0180636Y0094219D01*
X0180571Y0094240D01*
X0180507Y0094266D01*
X0180445Y0094295D01*
X0180384Y0094327D01*
X0180326Y0094363D01*
X0180270Y0094403D01*
X0180216Y0094445D01*
X0180165Y0094491D01*
X0180116Y0094540D01*
X0180070Y0094591D01*
X0180028Y0094645D01*
X0179988Y0094701D01*
X0179952Y0094759D01*
X0179920Y0094820D01*
X0179891Y0094882D01*
X0179865Y0094946D01*
X0179844Y0095011D01*
X0179826Y0095078D01*
X0179812Y0095145D01*
X0179802Y0095213D01*
X0179796Y0095281D01*
X0179794Y0095350D01*
D12*
X0236600Y0119100D02*
X0236602Y0119199D01*
X0236608Y0119299D01*
X0236618Y0119398D01*
X0236632Y0119496D01*
X0236649Y0119594D01*
X0236671Y0119691D01*
X0236696Y0119787D01*
X0236725Y0119882D01*
X0236758Y0119976D01*
X0236795Y0120068D01*
X0236835Y0120159D01*
X0236879Y0120248D01*
X0236927Y0120336D01*
X0236978Y0120421D01*
X0237032Y0120504D01*
X0237089Y0120586D01*
X0237150Y0120664D01*
X0237214Y0120741D01*
X0237280Y0120814D01*
X0237350Y0120885D01*
X0237422Y0120953D01*
X0237497Y0121019D01*
X0237575Y0121081D01*
X0237655Y0121140D01*
X0237737Y0121196D01*
X0237821Y0121248D01*
X0237908Y0121297D01*
X0237996Y0121343D01*
X0238086Y0121385D01*
X0238178Y0121424D01*
X0238271Y0121459D01*
X0238365Y0121490D01*
X0238461Y0121517D01*
X0238558Y0121540D01*
X0238655Y0121560D01*
X0238753Y0121576D01*
X0238852Y0121588D01*
X0238951Y0121596D01*
X0239050Y0121600D01*
X0239150Y0121600D01*
X0239249Y0121596D01*
X0239348Y0121588D01*
X0239447Y0121576D01*
X0239545Y0121560D01*
X0239642Y0121540D01*
X0239739Y0121517D01*
X0239835Y0121490D01*
X0239929Y0121459D01*
X0240022Y0121424D01*
X0240114Y0121385D01*
X0240204Y0121343D01*
X0240292Y0121297D01*
X0240379Y0121248D01*
X0240463Y0121196D01*
X0240545Y0121140D01*
X0240625Y0121081D01*
X0240703Y0121019D01*
X0240778Y0120953D01*
X0240850Y0120885D01*
X0240920Y0120814D01*
X0240986Y0120741D01*
X0241050Y0120664D01*
X0241111Y0120586D01*
X0241168Y0120504D01*
X0241222Y0120421D01*
X0241273Y0120336D01*
X0241321Y0120248D01*
X0241365Y0120159D01*
X0241405Y0120068D01*
X0241442Y0119976D01*
X0241475Y0119882D01*
X0241504Y0119787D01*
X0241529Y0119691D01*
X0241551Y0119594D01*
X0241568Y0119496D01*
X0241582Y0119398D01*
X0241592Y0119299D01*
X0241598Y0119199D01*
X0241600Y0119100D01*
X0241598Y0119001D01*
X0241592Y0118901D01*
X0241582Y0118802D01*
X0241568Y0118704D01*
X0241551Y0118606D01*
X0241529Y0118509D01*
X0241504Y0118413D01*
X0241475Y0118318D01*
X0241442Y0118224D01*
X0241405Y0118132D01*
X0241365Y0118041D01*
X0241321Y0117952D01*
X0241273Y0117864D01*
X0241222Y0117779D01*
X0241168Y0117696D01*
X0241111Y0117614D01*
X0241050Y0117536D01*
X0240986Y0117459D01*
X0240920Y0117386D01*
X0240850Y0117315D01*
X0240778Y0117247D01*
X0240703Y0117181D01*
X0240625Y0117119D01*
X0240545Y0117060D01*
X0240463Y0117004D01*
X0240379Y0116952D01*
X0240292Y0116903D01*
X0240204Y0116857D01*
X0240114Y0116815D01*
X0240022Y0116776D01*
X0239929Y0116741D01*
X0239835Y0116710D01*
X0239739Y0116683D01*
X0239642Y0116660D01*
X0239545Y0116640D01*
X0239447Y0116624D01*
X0239348Y0116612D01*
X0239249Y0116604D01*
X0239150Y0116600D01*
X0239050Y0116600D01*
X0238951Y0116604D01*
X0238852Y0116612D01*
X0238753Y0116624D01*
X0238655Y0116640D01*
X0238558Y0116660D01*
X0238461Y0116683D01*
X0238365Y0116710D01*
X0238271Y0116741D01*
X0238178Y0116776D01*
X0238086Y0116815D01*
X0237996Y0116857D01*
X0237908Y0116903D01*
X0237821Y0116952D01*
X0237737Y0117004D01*
X0237655Y0117060D01*
X0237575Y0117119D01*
X0237497Y0117181D01*
X0237422Y0117247D01*
X0237350Y0117315D01*
X0237280Y0117386D01*
X0237214Y0117459D01*
X0237150Y0117536D01*
X0237089Y0117614D01*
X0237032Y0117696D01*
X0236978Y0117779D01*
X0236927Y0117864D01*
X0236879Y0117952D01*
X0236835Y0118041D01*
X0236795Y0118132D01*
X0236758Y0118224D01*
X0236725Y0118318D01*
X0236696Y0118413D01*
X0236671Y0118509D01*
X0236649Y0118606D01*
X0236632Y0118704D01*
X0236618Y0118802D01*
X0236608Y0118901D01*
X0236602Y0119001D01*
X0236600Y0119100D01*
X0239100Y0121600D02*
X0239100Y0127850D01*
X0261600Y0127850D01*
X0261600Y0121600D01*
X0259100Y0119100D02*
X0259102Y0119199D01*
X0259108Y0119299D01*
X0259118Y0119398D01*
X0259132Y0119496D01*
X0259149Y0119594D01*
X0259171Y0119691D01*
X0259196Y0119787D01*
X0259225Y0119882D01*
X0259258Y0119976D01*
X0259295Y0120068D01*
X0259335Y0120159D01*
X0259379Y0120248D01*
X0259427Y0120336D01*
X0259478Y0120421D01*
X0259532Y0120504D01*
X0259589Y0120586D01*
X0259650Y0120664D01*
X0259714Y0120741D01*
X0259780Y0120814D01*
X0259850Y0120885D01*
X0259922Y0120953D01*
X0259997Y0121019D01*
X0260075Y0121081D01*
X0260155Y0121140D01*
X0260237Y0121196D01*
X0260321Y0121248D01*
X0260408Y0121297D01*
X0260496Y0121343D01*
X0260586Y0121385D01*
X0260678Y0121424D01*
X0260771Y0121459D01*
X0260865Y0121490D01*
X0260961Y0121517D01*
X0261058Y0121540D01*
X0261155Y0121560D01*
X0261253Y0121576D01*
X0261352Y0121588D01*
X0261451Y0121596D01*
X0261550Y0121600D01*
X0261650Y0121600D01*
X0261749Y0121596D01*
X0261848Y0121588D01*
X0261947Y0121576D01*
X0262045Y0121560D01*
X0262142Y0121540D01*
X0262239Y0121517D01*
X0262335Y0121490D01*
X0262429Y0121459D01*
X0262522Y0121424D01*
X0262614Y0121385D01*
X0262704Y0121343D01*
X0262792Y0121297D01*
X0262879Y0121248D01*
X0262963Y0121196D01*
X0263045Y0121140D01*
X0263125Y0121081D01*
X0263203Y0121019D01*
X0263278Y0120953D01*
X0263350Y0120885D01*
X0263420Y0120814D01*
X0263486Y0120741D01*
X0263550Y0120664D01*
X0263611Y0120586D01*
X0263668Y0120504D01*
X0263722Y0120421D01*
X0263773Y0120336D01*
X0263821Y0120248D01*
X0263865Y0120159D01*
X0263905Y0120068D01*
X0263942Y0119976D01*
X0263975Y0119882D01*
X0264004Y0119787D01*
X0264029Y0119691D01*
X0264051Y0119594D01*
X0264068Y0119496D01*
X0264082Y0119398D01*
X0264092Y0119299D01*
X0264098Y0119199D01*
X0264100Y0119100D01*
X0264098Y0119001D01*
X0264092Y0118901D01*
X0264082Y0118802D01*
X0264068Y0118704D01*
X0264051Y0118606D01*
X0264029Y0118509D01*
X0264004Y0118413D01*
X0263975Y0118318D01*
X0263942Y0118224D01*
X0263905Y0118132D01*
X0263865Y0118041D01*
X0263821Y0117952D01*
X0263773Y0117864D01*
X0263722Y0117779D01*
X0263668Y0117696D01*
X0263611Y0117614D01*
X0263550Y0117536D01*
X0263486Y0117459D01*
X0263420Y0117386D01*
X0263350Y0117315D01*
X0263278Y0117247D01*
X0263203Y0117181D01*
X0263125Y0117119D01*
X0263045Y0117060D01*
X0262963Y0117004D01*
X0262879Y0116952D01*
X0262792Y0116903D01*
X0262704Y0116857D01*
X0262614Y0116815D01*
X0262522Y0116776D01*
X0262429Y0116741D01*
X0262335Y0116710D01*
X0262239Y0116683D01*
X0262142Y0116660D01*
X0262045Y0116640D01*
X0261947Y0116624D01*
X0261848Y0116612D01*
X0261749Y0116604D01*
X0261650Y0116600D01*
X0261550Y0116600D01*
X0261451Y0116604D01*
X0261352Y0116612D01*
X0261253Y0116624D01*
X0261155Y0116640D01*
X0261058Y0116660D01*
X0260961Y0116683D01*
X0260865Y0116710D01*
X0260771Y0116741D01*
X0260678Y0116776D01*
X0260586Y0116815D01*
X0260496Y0116857D01*
X0260408Y0116903D01*
X0260321Y0116952D01*
X0260237Y0117004D01*
X0260155Y0117060D01*
X0260075Y0117119D01*
X0259997Y0117181D01*
X0259922Y0117247D01*
X0259850Y0117315D01*
X0259780Y0117386D01*
X0259714Y0117459D01*
X0259650Y0117536D01*
X0259589Y0117614D01*
X0259532Y0117696D01*
X0259478Y0117779D01*
X0259427Y0117864D01*
X0259379Y0117952D01*
X0259335Y0118041D01*
X0259295Y0118132D01*
X0259258Y0118224D01*
X0259225Y0118318D01*
X0259196Y0118413D01*
X0259171Y0118509D01*
X0259149Y0118606D01*
X0259132Y0118704D01*
X0259118Y0118802D01*
X0259108Y0118901D01*
X0259102Y0119001D01*
X0259100Y0119100D01*
X0261600Y0127850D02*
X0270350Y0127850D01*
X0270350Y0139100D01*
X0270345Y0139553D01*
X0270328Y0140006D01*
X0270301Y0140458D01*
X0270262Y0140910D01*
X0270213Y0141360D01*
X0270153Y0141809D01*
X0270082Y0142257D01*
X0270001Y0142702D01*
X0269908Y0143146D01*
X0269805Y0143587D01*
X0269691Y0144026D01*
X0269567Y0144461D01*
X0269432Y0144894D01*
X0269287Y0145323D01*
X0269132Y0145749D01*
X0268966Y0146171D01*
X0268790Y0146588D01*
X0268604Y0147001D01*
X0268408Y0147410D01*
X0268202Y0147814D01*
X0267987Y0148212D01*
X0267762Y0148605D01*
X0267528Y0148993D01*
X0267284Y0149375D01*
X0267031Y0149751D01*
X0266769Y0150121D01*
X0266498Y0150484D01*
X0266219Y0150841D01*
X0265931Y0151191D01*
X0265635Y0151534D01*
X0265330Y0151869D01*
X0265017Y0152197D01*
X0264697Y0152517D01*
X0264369Y0152830D01*
X0264034Y0153135D01*
X0263691Y0153431D01*
X0263341Y0153719D01*
X0262984Y0153998D01*
X0262621Y0154269D01*
X0262251Y0154531D01*
X0261875Y0154784D01*
X0261493Y0155028D01*
X0261105Y0155262D01*
X0260712Y0155487D01*
X0260314Y0155702D01*
X0259910Y0155908D01*
X0259501Y0156104D01*
X0259088Y0156290D01*
X0258671Y0156466D01*
X0258249Y0156632D01*
X0257823Y0156787D01*
X0257394Y0156932D01*
X0256961Y0157067D01*
X0256526Y0157191D01*
X0256087Y0157305D01*
X0255646Y0157408D01*
X0255202Y0157501D01*
X0254757Y0157582D01*
X0254309Y0157653D01*
X0253860Y0157713D01*
X0253410Y0157762D01*
X0252958Y0157801D01*
X0252506Y0157828D01*
X0252053Y0157845D01*
X0251600Y0157850D01*
X0250975Y0157850D01*
X0250975Y0162850D01*
X0248398Y0165975D02*
X0248400Y0166076D01*
X0248406Y0166177D01*
X0248416Y0166278D01*
X0248430Y0166378D01*
X0248448Y0166478D01*
X0248469Y0166577D01*
X0248495Y0166675D01*
X0248524Y0166771D01*
X0248557Y0166867D01*
X0248594Y0166961D01*
X0248635Y0167054D01*
X0248679Y0167145D01*
X0248727Y0167234D01*
X0248778Y0167321D01*
X0248832Y0167407D01*
X0248890Y0167490D01*
X0248951Y0167570D01*
X0249015Y0167649D01*
X0249083Y0167724D01*
X0249153Y0167797D01*
X0249226Y0167867D01*
X0249301Y0167935D01*
X0249380Y0167999D01*
X0249460Y0168060D01*
X0249543Y0168118D01*
X0249629Y0168172D01*
X0249716Y0168223D01*
X0249805Y0168271D01*
X0249896Y0168315D01*
X0249989Y0168356D01*
X0250083Y0168393D01*
X0250179Y0168426D01*
X0250275Y0168455D01*
X0250373Y0168481D01*
X0250472Y0168502D01*
X0250572Y0168520D01*
X0250672Y0168534D01*
X0250773Y0168544D01*
X0250874Y0168550D01*
X0250975Y0168552D01*
X0251076Y0168550D01*
X0251177Y0168544D01*
X0251278Y0168534D01*
X0251378Y0168520D01*
X0251478Y0168502D01*
X0251577Y0168481D01*
X0251675Y0168455D01*
X0251771Y0168426D01*
X0251867Y0168393D01*
X0251961Y0168356D01*
X0252054Y0168315D01*
X0252145Y0168271D01*
X0252234Y0168223D01*
X0252321Y0168172D01*
X0252407Y0168118D01*
X0252490Y0168060D01*
X0252570Y0167999D01*
X0252649Y0167935D01*
X0252724Y0167867D01*
X0252797Y0167797D01*
X0252867Y0167724D01*
X0252935Y0167649D01*
X0252999Y0167570D01*
X0253060Y0167490D01*
X0253118Y0167407D01*
X0253172Y0167321D01*
X0253223Y0167234D01*
X0253271Y0167145D01*
X0253315Y0167054D01*
X0253356Y0166961D01*
X0253393Y0166867D01*
X0253426Y0166771D01*
X0253455Y0166675D01*
X0253481Y0166577D01*
X0253502Y0166478D01*
X0253520Y0166378D01*
X0253534Y0166278D01*
X0253544Y0166177D01*
X0253550Y0166076D01*
X0253552Y0165975D01*
X0253550Y0165874D01*
X0253544Y0165773D01*
X0253534Y0165672D01*
X0253520Y0165572D01*
X0253502Y0165472D01*
X0253481Y0165373D01*
X0253455Y0165275D01*
X0253426Y0165179D01*
X0253393Y0165083D01*
X0253356Y0164989D01*
X0253315Y0164896D01*
X0253271Y0164805D01*
X0253223Y0164716D01*
X0253172Y0164629D01*
X0253118Y0164543D01*
X0253060Y0164460D01*
X0252999Y0164380D01*
X0252935Y0164301D01*
X0252867Y0164226D01*
X0252797Y0164153D01*
X0252724Y0164083D01*
X0252649Y0164015D01*
X0252570Y0163951D01*
X0252490Y0163890D01*
X0252407Y0163832D01*
X0252321Y0163778D01*
X0252234Y0163727D01*
X0252145Y0163679D01*
X0252054Y0163635D01*
X0251961Y0163594D01*
X0251867Y0163557D01*
X0251771Y0163524D01*
X0251675Y0163495D01*
X0251577Y0163469D01*
X0251478Y0163448D01*
X0251378Y0163430D01*
X0251278Y0163416D01*
X0251177Y0163406D01*
X0251076Y0163400D01*
X0250975Y0163398D01*
X0250874Y0163400D01*
X0250773Y0163406D01*
X0250672Y0163416D01*
X0250572Y0163430D01*
X0250472Y0163448D01*
X0250373Y0163469D01*
X0250275Y0163495D01*
X0250179Y0163524D01*
X0250083Y0163557D01*
X0249989Y0163594D01*
X0249896Y0163635D01*
X0249805Y0163679D01*
X0249716Y0163727D01*
X0249629Y0163778D01*
X0249543Y0163832D01*
X0249460Y0163890D01*
X0249380Y0163951D01*
X0249301Y0164015D01*
X0249226Y0164083D01*
X0249153Y0164153D01*
X0249083Y0164226D01*
X0249015Y0164301D01*
X0248951Y0164380D01*
X0248890Y0164460D01*
X0248832Y0164543D01*
X0248778Y0164629D01*
X0248727Y0164716D01*
X0248679Y0164805D01*
X0248635Y0164896D01*
X0248594Y0164989D01*
X0248557Y0165083D01*
X0248524Y0165179D01*
X0248495Y0165275D01*
X0248469Y0165373D01*
X0248448Y0165472D01*
X0248430Y0165572D01*
X0248416Y0165672D01*
X0248406Y0165773D01*
X0248400Y0165874D01*
X0248398Y0165975D01*
X0250350Y0157850D02*
X0250975Y0157850D01*
X0250350Y0157850D02*
X0249867Y0157844D01*
X0249384Y0157827D01*
X0248901Y0157797D01*
X0248420Y0157757D01*
X0247939Y0157704D01*
X0247460Y0157640D01*
X0246983Y0157565D01*
X0246507Y0157477D01*
X0246034Y0157379D01*
X0245564Y0157269D01*
X0245096Y0157148D01*
X0244631Y0157015D01*
X0244170Y0156871D01*
X0243712Y0156716D01*
X0243258Y0156550D01*
X0242808Y0156373D01*
X0242363Y0156186D01*
X0241922Y0155987D01*
X0241486Y0155779D01*
X0241056Y0155559D01*
X0240630Y0155329D01*
X0240211Y0155089D01*
X0239797Y0154839D01*
X0239390Y0154579D01*
X0238989Y0154310D01*
X0238594Y0154030D01*
X0238207Y0153742D01*
X0237826Y0153443D01*
X0237453Y0153136D01*
X0237088Y0152820D01*
X0236730Y0152495D01*
X0236380Y0152162D01*
X0236038Y0151820D01*
X0235705Y0151470D01*
X0235380Y0151112D01*
X0235064Y0150747D01*
X0234757Y0150374D01*
X0234458Y0149993D01*
X0234170Y0149606D01*
X0233890Y0149211D01*
X0233621Y0148810D01*
X0233361Y0148403D01*
X0233111Y0147989D01*
X0232871Y0147570D01*
X0232641Y0147144D01*
X0232421Y0146714D01*
X0232213Y0146278D01*
X0232014Y0145837D01*
X0231827Y0145392D01*
X0231650Y0144942D01*
X0231484Y0144488D01*
X0231329Y0144030D01*
X0231185Y0143569D01*
X0231052Y0143104D01*
X0230931Y0142636D01*
X0230821Y0142166D01*
X0230723Y0141693D01*
X0230635Y0141217D01*
X0230560Y0140740D01*
X0230496Y0140261D01*
X0230443Y0139780D01*
X0230403Y0139299D01*
X0230373Y0138816D01*
X0230356Y0138333D01*
X0230350Y0137850D01*
X0230350Y0127850D01*
X0239100Y0127850D01*
D13*
X0235216Y0081143D02*
X0234282Y0081143D01*
X0233348Y0080208D01*
X0233348Y0077406D01*
X0235216Y0077406D01*
X0236150Y0078340D01*
X0236150Y0080208D01*
X0235216Y0081143D01*
X0233348Y0077406D02*
X0231479Y0079274D01*
X0230545Y0081143D01*
X0236150Y0075157D02*
X0236150Y0071421D01*
X0236150Y0073289D02*
X0230545Y0073289D01*
X0232413Y0071421D01*
X0231479Y0069363D02*
X0229611Y0069363D01*
X0231479Y0069363D02*
X0232413Y0068428D01*
X0230545Y0065372D02*
X0236150Y0065372D01*
X0236150Y0064438D02*
X0236150Y0066307D01*
X0230545Y0065372D02*
X0230545Y0064438D01*
X0230545Y0061382D02*
X0236150Y0061382D01*
X0236150Y0060448D02*
X0236150Y0062317D01*
X0230545Y0061382D02*
X0230545Y0060448D01*
X0233348Y0058200D02*
X0232413Y0057266D01*
X0232413Y0055397D01*
X0233348Y0054463D01*
X0235216Y0054463D01*
X0236150Y0055397D01*
X0236150Y0057266D01*
X0235216Y0058200D01*
X0233348Y0058200D01*
X0233348Y0052215D02*
X0234282Y0051280D01*
X0234282Y0048478D01*
X0236150Y0048478D02*
X0230545Y0048478D01*
X0230545Y0051280D01*
X0231479Y0052215D01*
X0233348Y0052215D01*
X0234282Y0050346D02*
X0236150Y0052215D01*
X0236150Y0046229D02*
X0232413Y0042493D01*
X0231479Y0042493D01*
X0230545Y0043427D01*
X0231479Y0044361D01*
X0232413Y0044361D01*
X0234282Y0042493D01*
X0235216Y0042493D01*
X0236150Y0043427D01*
X0236150Y0044361D01*
X0234282Y0046229D01*
X0236150Y0040308D02*
X0234282Y0037505D01*
X0232413Y0040308D01*
X0230545Y0037505D02*
X0236150Y0037505D01*
X0236150Y0035257D02*
X0236150Y0032454D01*
X0235216Y0031520D01*
X0233348Y0031520D01*
X0232413Y0032454D01*
X0232413Y0035257D01*
X0233348Y0029272D02*
X0236150Y0029272D01*
X0236150Y0026469D01*
X0235216Y0025535D01*
X0234282Y0026469D01*
X0234282Y0029272D01*
X0233348Y0029272D02*
X0232413Y0028337D01*
X0232413Y0026469D01*
X0233348Y0023287D02*
X0233348Y0019550D01*
X0236150Y0019550D02*
X0230545Y0019550D01*
X0230545Y0023287D02*
X0236150Y0023287D01*
D14*
X0239746Y0023492D02*
X0240613Y0022625D01*
X0241480Y0022625D01*
X0242348Y0023492D01*
X0242348Y0025227D01*
X0243215Y0026095D01*
X0244083Y0026095D01*
X0244950Y0025227D01*
X0244950Y0023492D01*
X0244083Y0022625D01*
X0239746Y0023492D02*
X0239746Y0025227D01*
X0240613Y0026095D01*
X0242348Y0028150D02*
X0244083Y0028150D01*
X0244950Y0029017D01*
X0244950Y0031619D01*
X0244950Y0033674D02*
X0239746Y0033674D01*
X0242348Y0033674D02*
X0242348Y0037144D01*
X0241480Y0039199D02*
X0241480Y0041801D01*
X0242348Y0042669D01*
X0244950Y0042669D01*
X0244950Y0044724D02*
X0239746Y0044724D01*
X0239746Y0047326D01*
X0240613Y0048193D01*
X0242348Y0048193D01*
X0243215Y0047326D01*
X0243215Y0044724D01*
X0243215Y0046459D02*
X0244950Y0048193D01*
X0244950Y0050249D02*
X0239746Y0050249D01*
X0241480Y0052851D02*
X0243215Y0050249D01*
X0244950Y0052851D01*
X0241480Y0060377D02*
X0244950Y0062112D01*
X0241480Y0063847D01*
X0240613Y0065902D02*
X0239746Y0066769D01*
X0239746Y0068504D01*
X0240613Y0069372D01*
X0244083Y0065902D01*
X0244950Y0066769D01*
X0244950Y0068504D01*
X0244083Y0069372D01*
X0240613Y0069372D01*
X0244083Y0071427D02*
X0244083Y0072294D01*
X0244950Y0072294D01*
X0244950Y0071427D01*
X0244083Y0071427D01*
X0244083Y0074189D02*
X0244950Y0075056D01*
X0244950Y0076791D01*
X0244083Y0077659D01*
X0242348Y0077659D01*
X0241480Y0076791D01*
X0241480Y0075924D01*
X0242348Y0074189D01*
X0239746Y0074189D01*
X0239746Y0077659D01*
X0240613Y0065902D02*
X0244083Y0065902D01*
X0244950Y0039199D02*
X0241480Y0039199D01*
X0239746Y0037144D02*
X0244950Y0037144D01*
X0241480Y0031619D02*
X0241480Y0029017D01*
X0242348Y0028150D01*
X0240350Y0015350D02*
X0245350Y0015350D01*
X0247850Y0012850D01*
X0250350Y0015350D01*
X0255350Y0015350D01*
X0257850Y0012850D01*
X0260350Y0015350D01*
X0265350Y0015350D01*
X0267850Y0012850D01*
X0270350Y0015350D01*
X0275350Y0015350D01*
X0277850Y0012850D01*
X0280350Y0015350D01*
X0285350Y0015350D01*
X0287850Y0012850D01*
X0290350Y0015350D01*
X0295350Y0015350D01*
X0297850Y0012850D01*
X0300350Y0015350D01*
X0305350Y0015350D01*
X0307850Y0012850D01*
X0310350Y0015350D01*
X0315350Y0015350D01*
X0317850Y0012850D01*
X0317850Y0007850D01*
X0315350Y0005350D01*
X0310350Y0005350D01*
X0307850Y0007850D01*
X0305350Y0005350D01*
X0300350Y0005350D01*
X0297850Y0007850D01*
X0295350Y0005350D01*
X0290350Y0005350D01*
X0287850Y0007850D01*
X0285350Y0005350D01*
X0280350Y0005350D01*
X0277850Y0007850D01*
X0275350Y0005350D01*
X0270350Y0005350D01*
X0267850Y0007850D01*
X0265350Y0005350D01*
X0260350Y0005350D01*
X0257850Y0007850D01*
X0255350Y0005350D01*
X0250350Y0005350D01*
X0247850Y0007850D01*
X0245350Y0005350D01*
X0240350Y0005350D01*
X0237850Y0007850D01*
X0235350Y0005350D01*
X0230350Y0005350D01*
X0227850Y0007850D01*
X0227850Y0012850D01*
X0230350Y0015350D01*
X0235350Y0015350D01*
X0237850Y0012850D01*
X0240350Y0015350D01*
X0196620Y0020350D02*
X0196622Y0020534D01*
X0196629Y0020717D01*
X0196640Y0020900D01*
X0196656Y0021083D01*
X0196676Y0021266D01*
X0196701Y0021448D01*
X0196730Y0021629D01*
X0196764Y0021809D01*
X0196802Y0021989D01*
X0196844Y0022167D01*
X0196891Y0022345D01*
X0196942Y0022521D01*
X0196998Y0022696D01*
X0197057Y0022870D01*
X0197121Y0023042D01*
X0197189Y0023212D01*
X0197262Y0023381D01*
X0197338Y0023548D01*
X0197419Y0023713D01*
X0197503Y0023876D01*
X0197592Y0024037D01*
X0197684Y0024195D01*
X0197780Y0024352D01*
X0197881Y0024506D01*
X0197984Y0024657D01*
X0198092Y0024806D01*
X0198203Y0024952D01*
X0198318Y0025095D01*
X0198436Y0025236D01*
X0198558Y0025373D01*
X0198683Y0025508D01*
X0198811Y0025639D01*
X0198942Y0025767D01*
X0199077Y0025892D01*
X0199214Y0026014D01*
X0199355Y0026132D01*
X0199498Y0026247D01*
X0199644Y0026358D01*
X0199793Y0026466D01*
X0199944Y0026569D01*
X0200098Y0026670D01*
X0200255Y0026766D01*
X0200413Y0026858D01*
X0200574Y0026947D01*
X0200737Y0027031D01*
X0200902Y0027112D01*
X0201069Y0027188D01*
X0201238Y0027261D01*
X0201408Y0027329D01*
X0201580Y0027393D01*
X0201754Y0027452D01*
X0201929Y0027508D01*
X0202105Y0027559D01*
X0202283Y0027606D01*
X0202461Y0027648D01*
X0202641Y0027686D01*
X0202821Y0027720D01*
X0203002Y0027749D01*
X0203184Y0027774D01*
X0203367Y0027794D01*
X0203550Y0027810D01*
X0203733Y0027821D01*
X0203916Y0027828D01*
X0204100Y0027830D01*
X0204284Y0027828D01*
X0204467Y0027821D01*
X0204650Y0027810D01*
X0204833Y0027794D01*
X0205016Y0027774D01*
X0205198Y0027749D01*
X0205379Y0027720D01*
X0205559Y0027686D01*
X0205739Y0027648D01*
X0205917Y0027606D01*
X0206095Y0027559D01*
X0206271Y0027508D01*
X0206446Y0027452D01*
X0206620Y0027393D01*
X0206792Y0027329D01*
X0206962Y0027261D01*
X0207131Y0027188D01*
X0207298Y0027112D01*
X0207463Y0027031D01*
X0207626Y0026947D01*
X0207787Y0026858D01*
X0207945Y0026766D01*
X0208102Y0026670D01*
X0208256Y0026569D01*
X0208407Y0026466D01*
X0208556Y0026358D01*
X0208702Y0026247D01*
X0208845Y0026132D01*
X0208986Y0026014D01*
X0209123Y0025892D01*
X0209258Y0025767D01*
X0209389Y0025639D01*
X0209517Y0025508D01*
X0209642Y0025373D01*
X0209764Y0025236D01*
X0209882Y0025095D01*
X0209997Y0024952D01*
X0210108Y0024806D01*
X0210216Y0024657D01*
X0210319Y0024506D01*
X0210420Y0024352D01*
X0210516Y0024195D01*
X0210608Y0024037D01*
X0210697Y0023876D01*
X0210781Y0023713D01*
X0210862Y0023548D01*
X0210938Y0023381D01*
X0211011Y0023212D01*
X0211079Y0023042D01*
X0211143Y0022870D01*
X0211202Y0022696D01*
X0211258Y0022521D01*
X0211309Y0022345D01*
X0211356Y0022167D01*
X0211398Y0021989D01*
X0211436Y0021809D01*
X0211470Y0021629D01*
X0211499Y0021448D01*
X0211524Y0021266D01*
X0211544Y0021083D01*
X0211560Y0020900D01*
X0211571Y0020717D01*
X0211578Y0020534D01*
X0211580Y0020350D01*
X0211578Y0020166D01*
X0211571Y0019983D01*
X0211560Y0019800D01*
X0211544Y0019617D01*
X0211524Y0019434D01*
X0211499Y0019252D01*
X0211470Y0019071D01*
X0211436Y0018891D01*
X0211398Y0018711D01*
X0211356Y0018533D01*
X0211309Y0018355D01*
X0211258Y0018179D01*
X0211202Y0018004D01*
X0211143Y0017830D01*
X0211079Y0017658D01*
X0211011Y0017488D01*
X0210938Y0017319D01*
X0210862Y0017152D01*
X0210781Y0016987D01*
X0210697Y0016824D01*
X0210608Y0016663D01*
X0210516Y0016505D01*
X0210420Y0016348D01*
X0210319Y0016194D01*
X0210216Y0016043D01*
X0210108Y0015894D01*
X0209997Y0015748D01*
X0209882Y0015605D01*
X0209764Y0015464D01*
X0209642Y0015327D01*
X0209517Y0015192D01*
X0209389Y0015061D01*
X0209258Y0014933D01*
X0209123Y0014808D01*
X0208986Y0014686D01*
X0208845Y0014568D01*
X0208702Y0014453D01*
X0208556Y0014342D01*
X0208407Y0014234D01*
X0208256Y0014131D01*
X0208102Y0014030D01*
X0207945Y0013934D01*
X0207787Y0013842D01*
X0207626Y0013753D01*
X0207463Y0013669D01*
X0207298Y0013588D01*
X0207131Y0013512D01*
X0206962Y0013439D01*
X0206792Y0013371D01*
X0206620Y0013307D01*
X0206446Y0013248D01*
X0206271Y0013192D01*
X0206095Y0013141D01*
X0205917Y0013094D01*
X0205739Y0013052D01*
X0205559Y0013014D01*
X0205379Y0012980D01*
X0205198Y0012951D01*
X0205016Y0012926D01*
X0204833Y0012906D01*
X0204650Y0012890D01*
X0204467Y0012879D01*
X0204284Y0012872D01*
X0204100Y0012870D01*
X0203916Y0012872D01*
X0203733Y0012879D01*
X0203550Y0012890D01*
X0203367Y0012906D01*
X0203184Y0012926D01*
X0203002Y0012951D01*
X0202821Y0012980D01*
X0202641Y0013014D01*
X0202461Y0013052D01*
X0202283Y0013094D01*
X0202105Y0013141D01*
X0201929Y0013192D01*
X0201754Y0013248D01*
X0201580Y0013307D01*
X0201408Y0013371D01*
X0201238Y0013439D01*
X0201069Y0013512D01*
X0200902Y0013588D01*
X0200737Y0013669D01*
X0200574Y0013753D01*
X0200413Y0013842D01*
X0200255Y0013934D01*
X0200098Y0014030D01*
X0199944Y0014131D01*
X0199793Y0014234D01*
X0199644Y0014342D01*
X0199498Y0014453D01*
X0199355Y0014568D01*
X0199214Y0014686D01*
X0199077Y0014808D01*
X0198942Y0014933D01*
X0198811Y0015061D01*
X0198683Y0015192D01*
X0198558Y0015327D01*
X0198436Y0015464D01*
X0198318Y0015605D01*
X0198203Y0015748D01*
X0198092Y0015894D01*
X0197984Y0016043D01*
X0197881Y0016194D01*
X0197780Y0016348D01*
X0197684Y0016505D01*
X0197592Y0016663D01*
X0197503Y0016824D01*
X0197419Y0016987D01*
X0197338Y0017152D01*
X0197262Y0017319D01*
X0197189Y0017488D01*
X0197121Y0017658D01*
X0197057Y0017830D01*
X0196998Y0018004D01*
X0196942Y0018179D01*
X0196891Y0018355D01*
X0196844Y0018533D01*
X0196802Y0018711D01*
X0196764Y0018891D01*
X0196730Y0019071D01*
X0196701Y0019252D01*
X0196676Y0019434D01*
X0196656Y0019617D01*
X0196640Y0019800D01*
X0196629Y0019983D01*
X0196622Y0020166D01*
X0196620Y0020350D01*
X0150370Y0020350D02*
X0150372Y0020534D01*
X0150379Y0020717D01*
X0150390Y0020900D01*
X0150406Y0021083D01*
X0150426Y0021266D01*
X0150451Y0021448D01*
X0150480Y0021629D01*
X0150514Y0021809D01*
X0150552Y0021989D01*
X0150594Y0022167D01*
X0150641Y0022345D01*
X0150692Y0022521D01*
X0150748Y0022696D01*
X0150807Y0022870D01*
X0150871Y0023042D01*
X0150939Y0023212D01*
X0151012Y0023381D01*
X0151088Y0023548D01*
X0151169Y0023713D01*
X0151253Y0023876D01*
X0151342Y0024037D01*
X0151434Y0024195D01*
X0151530Y0024352D01*
X0151631Y0024506D01*
X0151734Y0024657D01*
X0151842Y0024806D01*
X0151953Y0024952D01*
X0152068Y0025095D01*
X0152186Y0025236D01*
X0152308Y0025373D01*
X0152433Y0025508D01*
X0152561Y0025639D01*
X0152692Y0025767D01*
X0152827Y0025892D01*
X0152964Y0026014D01*
X0153105Y0026132D01*
X0153248Y0026247D01*
X0153394Y0026358D01*
X0153543Y0026466D01*
X0153694Y0026569D01*
X0153848Y0026670D01*
X0154005Y0026766D01*
X0154163Y0026858D01*
X0154324Y0026947D01*
X0154487Y0027031D01*
X0154652Y0027112D01*
X0154819Y0027188D01*
X0154988Y0027261D01*
X0155158Y0027329D01*
X0155330Y0027393D01*
X0155504Y0027452D01*
X0155679Y0027508D01*
X0155855Y0027559D01*
X0156033Y0027606D01*
X0156211Y0027648D01*
X0156391Y0027686D01*
X0156571Y0027720D01*
X0156752Y0027749D01*
X0156934Y0027774D01*
X0157117Y0027794D01*
X0157300Y0027810D01*
X0157483Y0027821D01*
X0157666Y0027828D01*
X0157850Y0027830D01*
X0158034Y0027828D01*
X0158217Y0027821D01*
X0158400Y0027810D01*
X0158583Y0027794D01*
X0158766Y0027774D01*
X0158948Y0027749D01*
X0159129Y0027720D01*
X0159309Y0027686D01*
X0159489Y0027648D01*
X0159667Y0027606D01*
X0159845Y0027559D01*
X0160021Y0027508D01*
X0160196Y0027452D01*
X0160370Y0027393D01*
X0160542Y0027329D01*
X0160712Y0027261D01*
X0160881Y0027188D01*
X0161048Y0027112D01*
X0161213Y0027031D01*
X0161376Y0026947D01*
X0161537Y0026858D01*
X0161695Y0026766D01*
X0161852Y0026670D01*
X0162006Y0026569D01*
X0162157Y0026466D01*
X0162306Y0026358D01*
X0162452Y0026247D01*
X0162595Y0026132D01*
X0162736Y0026014D01*
X0162873Y0025892D01*
X0163008Y0025767D01*
X0163139Y0025639D01*
X0163267Y0025508D01*
X0163392Y0025373D01*
X0163514Y0025236D01*
X0163632Y0025095D01*
X0163747Y0024952D01*
X0163858Y0024806D01*
X0163966Y0024657D01*
X0164069Y0024506D01*
X0164170Y0024352D01*
X0164266Y0024195D01*
X0164358Y0024037D01*
X0164447Y0023876D01*
X0164531Y0023713D01*
X0164612Y0023548D01*
X0164688Y0023381D01*
X0164761Y0023212D01*
X0164829Y0023042D01*
X0164893Y0022870D01*
X0164952Y0022696D01*
X0165008Y0022521D01*
X0165059Y0022345D01*
X0165106Y0022167D01*
X0165148Y0021989D01*
X0165186Y0021809D01*
X0165220Y0021629D01*
X0165249Y0021448D01*
X0165274Y0021266D01*
X0165294Y0021083D01*
X0165310Y0020900D01*
X0165321Y0020717D01*
X0165328Y0020534D01*
X0165330Y0020350D01*
X0165328Y0020166D01*
X0165321Y0019983D01*
X0165310Y0019800D01*
X0165294Y0019617D01*
X0165274Y0019434D01*
X0165249Y0019252D01*
X0165220Y0019071D01*
X0165186Y0018891D01*
X0165148Y0018711D01*
X0165106Y0018533D01*
X0165059Y0018355D01*
X0165008Y0018179D01*
X0164952Y0018004D01*
X0164893Y0017830D01*
X0164829Y0017658D01*
X0164761Y0017488D01*
X0164688Y0017319D01*
X0164612Y0017152D01*
X0164531Y0016987D01*
X0164447Y0016824D01*
X0164358Y0016663D01*
X0164266Y0016505D01*
X0164170Y0016348D01*
X0164069Y0016194D01*
X0163966Y0016043D01*
X0163858Y0015894D01*
X0163747Y0015748D01*
X0163632Y0015605D01*
X0163514Y0015464D01*
X0163392Y0015327D01*
X0163267Y0015192D01*
X0163139Y0015061D01*
X0163008Y0014933D01*
X0162873Y0014808D01*
X0162736Y0014686D01*
X0162595Y0014568D01*
X0162452Y0014453D01*
X0162306Y0014342D01*
X0162157Y0014234D01*
X0162006Y0014131D01*
X0161852Y0014030D01*
X0161695Y0013934D01*
X0161537Y0013842D01*
X0161376Y0013753D01*
X0161213Y0013669D01*
X0161048Y0013588D01*
X0160881Y0013512D01*
X0160712Y0013439D01*
X0160542Y0013371D01*
X0160370Y0013307D01*
X0160196Y0013248D01*
X0160021Y0013192D01*
X0159845Y0013141D01*
X0159667Y0013094D01*
X0159489Y0013052D01*
X0159309Y0013014D01*
X0159129Y0012980D01*
X0158948Y0012951D01*
X0158766Y0012926D01*
X0158583Y0012906D01*
X0158400Y0012890D01*
X0158217Y0012879D01*
X0158034Y0012872D01*
X0157850Y0012870D01*
X0157666Y0012872D01*
X0157483Y0012879D01*
X0157300Y0012890D01*
X0157117Y0012906D01*
X0156934Y0012926D01*
X0156752Y0012951D01*
X0156571Y0012980D01*
X0156391Y0013014D01*
X0156211Y0013052D01*
X0156033Y0013094D01*
X0155855Y0013141D01*
X0155679Y0013192D01*
X0155504Y0013248D01*
X0155330Y0013307D01*
X0155158Y0013371D01*
X0154988Y0013439D01*
X0154819Y0013512D01*
X0154652Y0013588D01*
X0154487Y0013669D01*
X0154324Y0013753D01*
X0154163Y0013842D01*
X0154005Y0013934D01*
X0153848Y0014030D01*
X0153694Y0014131D01*
X0153543Y0014234D01*
X0153394Y0014342D01*
X0153248Y0014453D01*
X0153105Y0014568D01*
X0152964Y0014686D01*
X0152827Y0014808D01*
X0152692Y0014933D01*
X0152561Y0015061D01*
X0152433Y0015192D01*
X0152308Y0015327D01*
X0152186Y0015464D01*
X0152068Y0015605D01*
X0151953Y0015748D01*
X0151842Y0015894D01*
X0151734Y0016043D01*
X0151631Y0016194D01*
X0151530Y0016348D01*
X0151434Y0016505D01*
X0151342Y0016663D01*
X0151253Y0016824D01*
X0151169Y0016987D01*
X0151088Y0017152D01*
X0151012Y0017319D01*
X0150939Y0017488D01*
X0150871Y0017658D01*
X0150807Y0017830D01*
X0150748Y0018004D01*
X0150692Y0018179D01*
X0150641Y0018355D01*
X0150594Y0018533D01*
X0150552Y0018711D01*
X0150514Y0018891D01*
X0150480Y0019071D01*
X0150451Y0019252D01*
X0150426Y0019434D01*
X0150406Y0019617D01*
X0150390Y0019800D01*
X0150379Y0019983D01*
X0150372Y0020166D01*
X0150370Y0020350D01*
X0012870Y0020350D02*
X0012872Y0020534D01*
X0012879Y0020717D01*
X0012890Y0020900D01*
X0012906Y0021083D01*
X0012926Y0021266D01*
X0012951Y0021448D01*
X0012980Y0021629D01*
X0013014Y0021809D01*
X0013052Y0021989D01*
X0013094Y0022167D01*
X0013141Y0022345D01*
X0013192Y0022521D01*
X0013248Y0022696D01*
X0013307Y0022870D01*
X0013371Y0023042D01*
X0013439Y0023212D01*
X0013512Y0023381D01*
X0013588Y0023548D01*
X0013669Y0023713D01*
X0013753Y0023876D01*
X0013842Y0024037D01*
X0013934Y0024195D01*
X0014030Y0024352D01*
X0014131Y0024506D01*
X0014234Y0024657D01*
X0014342Y0024806D01*
X0014453Y0024952D01*
X0014568Y0025095D01*
X0014686Y0025236D01*
X0014808Y0025373D01*
X0014933Y0025508D01*
X0015061Y0025639D01*
X0015192Y0025767D01*
X0015327Y0025892D01*
X0015464Y0026014D01*
X0015605Y0026132D01*
X0015748Y0026247D01*
X0015894Y0026358D01*
X0016043Y0026466D01*
X0016194Y0026569D01*
X0016348Y0026670D01*
X0016505Y0026766D01*
X0016663Y0026858D01*
X0016824Y0026947D01*
X0016987Y0027031D01*
X0017152Y0027112D01*
X0017319Y0027188D01*
X0017488Y0027261D01*
X0017658Y0027329D01*
X0017830Y0027393D01*
X0018004Y0027452D01*
X0018179Y0027508D01*
X0018355Y0027559D01*
X0018533Y0027606D01*
X0018711Y0027648D01*
X0018891Y0027686D01*
X0019071Y0027720D01*
X0019252Y0027749D01*
X0019434Y0027774D01*
X0019617Y0027794D01*
X0019800Y0027810D01*
X0019983Y0027821D01*
X0020166Y0027828D01*
X0020350Y0027830D01*
X0020534Y0027828D01*
X0020717Y0027821D01*
X0020900Y0027810D01*
X0021083Y0027794D01*
X0021266Y0027774D01*
X0021448Y0027749D01*
X0021629Y0027720D01*
X0021809Y0027686D01*
X0021989Y0027648D01*
X0022167Y0027606D01*
X0022345Y0027559D01*
X0022521Y0027508D01*
X0022696Y0027452D01*
X0022870Y0027393D01*
X0023042Y0027329D01*
X0023212Y0027261D01*
X0023381Y0027188D01*
X0023548Y0027112D01*
X0023713Y0027031D01*
X0023876Y0026947D01*
X0024037Y0026858D01*
X0024195Y0026766D01*
X0024352Y0026670D01*
X0024506Y0026569D01*
X0024657Y0026466D01*
X0024806Y0026358D01*
X0024952Y0026247D01*
X0025095Y0026132D01*
X0025236Y0026014D01*
X0025373Y0025892D01*
X0025508Y0025767D01*
X0025639Y0025639D01*
X0025767Y0025508D01*
X0025892Y0025373D01*
X0026014Y0025236D01*
X0026132Y0025095D01*
X0026247Y0024952D01*
X0026358Y0024806D01*
X0026466Y0024657D01*
X0026569Y0024506D01*
X0026670Y0024352D01*
X0026766Y0024195D01*
X0026858Y0024037D01*
X0026947Y0023876D01*
X0027031Y0023713D01*
X0027112Y0023548D01*
X0027188Y0023381D01*
X0027261Y0023212D01*
X0027329Y0023042D01*
X0027393Y0022870D01*
X0027452Y0022696D01*
X0027508Y0022521D01*
X0027559Y0022345D01*
X0027606Y0022167D01*
X0027648Y0021989D01*
X0027686Y0021809D01*
X0027720Y0021629D01*
X0027749Y0021448D01*
X0027774Y0021266D01*
X0027794Y0021083D01*
X0027810Y0020900D01*
X0027821Y0020717D01*
X0027828Y0020534D01*
X0027830Y0020350D01*
X0027828Y0020166D01*
X0027821Y0019983D01*
X0027810Y0019800D01*
X0027794Y0019617D01*
X0027774Y0019434D01*
X0027749Y0019252D01*
X0027720Y0019071D01*
X0027686Y0018891D01*
X0027648Y0018711D01*
X0027606Y0018533D01*
X0027559Y0018355D01*
X0027508Y0018179D01*
X0027452Y0018004D01*
X0027393Y0017830D01*
X0027329Y0017658D01*
X0027261Y0017488D01*
X0027188Y0017319D01*
X0027112Y0017152D01*
X0027031Y0016987D01*
X0026947Y0016824D01*
X0026858Y0016663D01*
X0026766Y0016505D01*
X0026670Y0016348D01*
X0026569Y0016194D01*
X0026466Y0016043D01*
X0026358Y0015894D01*
X0026247Y0015748D01*
X0026132Y0015605D01*
X0026014Y0015464D01*
X0025892Y0015327D01*
X0025767Y0015192D01*
X0025639Y0015061D01*
X0025508Y0014933D01*
X0025373Y0014808D01*
X0025236Y0014686D01*
X0025095Y0014568D01*
X0024952Y0014453D01*
X0024806Y0014342D01*
X0024657Y0014234D01*
X0024506Y0014131D01*
X0024352Y0014030D01*
X0024195Y0013934D01*
X0024037Y0013842D01*
X0023876Y0013753D01*
X0023713Y0013669D01*
X0023548Y0013588D01*
X0023381Y0013512D01*
X0023212Y0013439D01*
X0023042Y0013371D01*
X0022870Y0013307D01*
X0022696Y0013248D01*
X0022521Y0013192D01*
X0022345Y0013141D01*
X0022167Y0013094D01*
X0021989Y0013052D01*
X0021809Y0013014D01*
X0021629Y0012980D01*
X0021448Y0012951D01*
X0021266Y0012926D01*
X0021083Y0012906D01*
X0020900Y0012890D01*
X0020717Y0012879D01*
X0020534Y0012872D01*
X0020350Y0012870D01*
X0020166Y0012872D01*
X0019983Y0012879D01*
X0019800Y0012890D01*
X0019617Y0012906D01*
X0019434Y0012926D01*
X0019252Y0012951D01*
X0019071Y0012980D01*
X0018891Y0013014D01*
X0018711Y0013052D01*
X0018533Y0013094D01*
X0018355Y0013141D01*
X0018179Y0013192D01*
X0018004Y0013248D01*
X0017830Y0013307D01*
X0017658Y0013371D01*
X0017488Y0013439D01*
X0017319Y0013512D01*
X0017152Y0013588D01*
X0016987Y0013669D01*
X0016824Y0013753D01*
X0016663Y0013842D01*
X0016505Y0013934D01*
X0016348Y0014030D01*
X0016194Y0014131D01*
X0016043Y0014234D01*
X0015894Y0014342D01*
X0015748Y0014453D01*
X0015605Y0014568D01*
X0015464Y0014686D01*
X0015327Y0014808D01*
X0015192Y0014933D01*
X0015061Y0015061D01*
X0014933Y0015192D01*
X0014808Y0015327D01*
X0014686Y0015464D01*
X0014568Y0015605D01*
X0014453Y0015748D01*
X0014342Y0015894D01*
X0014234Y0016043D01*
X0014131Y0016194D01*
X0014030Y0016348D01*
X0013934Y0016505D01*
X0013842Y0016663D01*
X0013753Y0016824D01*
X0013669Y0016987D01*
X0013588Y0017152D01*
X0013512Y0017319D01*
X0013439Y0017488D01*
X0013371Y0017658D01*
X0013307Y0017830D01*
X0013248Y0018004D01*
X0013192Y0018179D01*
X0013141Y0018355D01*
X0013094Y0018533D01*
X0013052Y0018711D01*
X0013014Y0018891D01*
X0012980Y0019071D01*
X0012951Y0019252D01*
X0012926Y0019434D01*
X0012906Y0019617D01*
X0012890Y0019800D01*
X0012879Y0019983D01*
X0012872Y0020166D01*
X0012870Y0020350D01*
X0298225Y0059600D02*
X0298225Y0066100D01*
X0298227Y0066160D01*
X0298232Y0066221D01*
X0298241Y0066280D01*
X0298254Y0066339D01*
X0298270Y0066398D01*
X0298290Y0066455D01*
X0298313Y0066510D01*
X0298340Y0066565D01*
X0298369Y0066617D01*
X0298402Y0066668D01*
X0298438Y0066717D01*
X0298476Y0066763D01*
X0298518Y0066807D01*
X0298562Y0066849D01*
X0298608Y0066887D01*
X0298657Y0066923D01*
X0298708Y0066956D01*
X0298760Y0066985D01*
X0298815Y0067012D01*
X0298870Y0067035D01*
X0298927Y0067055D01*
X0298986Y0067071D01*
X0299045Y0067084D01*
X0299104Y0067093D01*
X0299165Y0067098D01*
X0299225Y0067100D01*
X0305225Y0067100D02*
X0305285Y0067098D01*
X0305346Y0067093D01*
X0305405Y0067084D01*
X0305464Y0067071D01*
X0305523Y0067055D01*
X0305580Y0067035D01*
X0305635Y0067012D01*
X0305690Y0066985D01*
X0305742Y0066956D01*
X0305793Y0066923D01*
X0305842Y0066887D01*
X0305888Y0066849D01*
X0305932Y0066807D01*
X0305974Y0066763D01*
X0306012Y0066717D01*
X0306048Y0066668D01*
X0306081Y0066617D01*
X0306110Y0066565D01*
X0306137Y0066510D01*
X0306160Y0066455D01*
X0306180Y0066398D01*
X0306196Y0066339D01*
X0306209Y0066280D01*
X0306218Y0066221D01*
X0306223Y0066160D01*
X0306225Y0066100D01*
X0306225Y0059600D01*
X0306223Y0059540D01*
X0306218Y0059479D01*
X0306209Y0059420D01*
X0306196Y0059361D01*
X0306180Y0059302D01*
X0306160Y0059245D01*
X0306137Y0059190D01*
X0306110Y0059135D01*
X0306081Y0059083D01*
X0306048Y0059032D01*
X0306012Y0058983D01*
X0305974Y0058937D01*
X0305932Y0058893D01*
X0305888Y0058851D01*
X0305842Y0058813D01*
X0305793Y0058777D01*
X0305742Y0058744D01*
X0305690Y0058715D01*
X0305635Y0058688D01*
X0305580Y0058665D01*
X0305523Y0058645D01*
X0305464Y0058629D01*
X0305405Y0058616D01*
X0305346Y0058607D01*
X0305285Y0058602D01*
X0305225Y0058600D01*
X0307600Y0059600D02*
X0307600Y0066100D01*
X0307602Y0066160D01*
X0307607Y0066221D01*
X0307616Y0066280D01*
X0307629Y0066339D01*
X0307645Y0066398D01*
X0307665Y0066455D01*
X0307688Y0066510D01*
X0307715Y0066565D01*
X0307744Y0066617D01*
X0307777Y0066668D01*
X0307813Y0066717D01*
X0307851Y0066763D01*
X0307893Y0066807D01*
X0307937Y0066849D01*
X0307983Y0066887D01*
X0308032Y0066923D01*
X0308083Y0066956D01*
X0308135Y0066985D01*
X0308190Y0067012D01*
X0308245Y0067035D01*
X0308302Y0067055D01*
X0308361Y0067071D01*
X0308420Y0067084D01*
X0308479Y0067093D01*
X0308540Y0067098D01*
X0308600Y0067100D01*
X0314600Y0067100D02*
X0314660Y0067098D01*
X0314721Y0067093D01*
X0314780Y0067084D01*
X0314839Y0067071D01*
X0314898Y0067055D01*
X0314955Y0067035D01*
X0315010Y0067012D01*
X0315065Y0066985D01*
X0315117Y0066956D01*
X0315168Y0066923D01*
X0315217Y0066887D01*
X0315263Y0066849D01*
X0315307Y0066807D01*
X0315349Y0066763D01*
X0315387Y0066717D01*
X0315423Y0066668D01*
X0315456Y0066617D01*
X0315485Y0066565D01*
X0315512Y0066510D01*
X0315535Y0066455D01*
X0315555Y0066398D01*
X0315571Y0066339D01*
X0315584Y0066280D01*
X0315593Y0066221D01*
X0315598Y0066160D01*
X0315600Y0066100D01*
X0315600Y0059600D01*
X0315598Y0059540D01*
X0315593Y0059479D01*
X0315584Y0059420D01*
X0315571Y0059361D01*
X0315555Y0059302D01*
X0315535Y0059245D01*
X0315512Y0059190D01*
X0315485Y0059135D01*
X0315456Y0059083D01*
X0315423Y0059032D01*
X0315387Y0058983D01*
X0315349Y0058937D01*
X0315307Y0058893D01*
X0315263Y0058851D01*
X0315217Y0058813D01*
X0315168Y0058777D01*
X0315117Y0058744D01*
X0315065Y0058715D01*
X0315010Y0058688D01*
X0314955Y0058665D01*
X0314898Y0058645D01*
X0314839Y0058629D01*
X0314780Y0058616D01*
X0314721Y0058607D01*
X0314660Y0058602D01*
X0314600Y0058600D01*
X0308600Y0058600D02*
X0308540Y0058602D01*
X0308479Y0058607D01*
X0308420Y0058616D01*
X0308361Y0058629D01*
X0308302Y0058645D01*
X0308245Y0058665D01*
X0308190Y0058688D01*
X0308135Y0058715D01*
X0308083Y0058744D01*
X0308032Y0058777D01*
X0307983Y0058813D01*
X0307937Y0058851D01*
X0307893Y0058893D01*
X0307851Y0058937D01*
X0307813Y0058983D01*
X0307777Y0059032D01*
X0307744Y0059083D01*
X0307715Y0059135D01*
X0307688Y0059190D01*
X0307665Y0059245D01*
X0307645Y0059302D01*
X0307629Y0059361D01*
X0307616Y0059420D01*
X0307607Y0059479D01*
X0307602Y0059540D01*
X0307600Y0059600D01*
X0299225Y0058600D02*
X0299165Y0058602D01*
X0299104Y0058607D01*
X0299045Y0058616D01*
X0298986Y0058629D01*
X0298927Y0058645D01*
X0298870Y0058665D01*
X0298815Y0058688D01*
X0298760Y0058715D01*
X0298708Y0058744D01*
X0298657Y0058777D01*
X0298608Y0058813D01*
X0298562Y0058851D01*
X0298518Y0058893D01*
X0298476Y0058937D01*
X0298438Y0058983D01*
X0298402Y0059032D01*
X0298369Y0059083D01*
X0298340Y0059135D01*
X0298313Y0059190D01*
X0298290Y0059245D01*
X0298270Y0059302D01*
X0298254Y0059361D01*
X0298241Y0059420D01*
X0298232Y0059479D01*
X0298227Y0059540D01*
X0298225Y0059600D01*
X0328350Y0077600D02*
X0334850Y0077600D01*
X0334910Y0077602D01*
X0334971Y0077607D01*
X0335030Y0077616D01*
X0335089Y0077629D01*
X0335148Y0077645D01*
X0335205Y0077665D01*
X0335260Y0077688D01*
X0335315Y0077715D01*
X0335367Y0077744D01*
X0335418Y0077777D01*
X0335467Y0077813D01*
X0335513Y0077851D01*
X0335557Y0077893D01*
X0335599Y0077937D01*
X0335637Y0077983D01*
X0335673Y0078032D01*
X0335706Y0078083D01*
X0335735Y0078135D01*
X0335762Y0078190D01*
X0335785Y0078245D01*
X0335805Y0078302D01*
X0335821Y0078361D01*
X0335834Y0078420D01*
X0335843Y0078479D01*
X0335848Y0078540D01*
X0335850Y0078600D01*
X0328350Y0077600D02*
X0328290Y0077602D01*
X0328229Y0077607D01*
X0328170Y0077616D01*
X0328111Y0077629D01*
X0328052Y0077645D01*
X0327995Y0077665D01*
X0327940Y0077688D01*
X0327885Y0077715D01*
X0327833Y0077744D01*
X0327782Y0077777D01*
X0327733Y0077813D01*
X0327687Y0077851D01*
X0327643Y0077893D01*
X0327601Y0077937D01*
X0327563Y0077983D01*
X0327527Y0078032D01*
X0327494Y0078083D01*
X0327465Y0078135D01*
X0327438Y0078190D01*
X0327415Y0078245D01*
X0327395Y0078302D01*
X0327379Y0078361D01*
X0327366Y0078420D01*
X0327357Y0078479D01*
X0327352Y0078540D01*
X0327350Y0078600D01*
X0327350Y0084600D02*
X0327352Y0084660D01*
X0327357Y0084721D01*
X0327366Y0084780D01*
X0327379Y0084839D01*
X0327395Y0084898D01*
X0327415Y0084955D01*
X0327438Y0085010D01*
X0327465Y0085065D01*
X0327494Y0085117D01*
X0327527Y0085168D01*
X0327563Y0085217D01*
X0327601Y0085263D01*
X0327643Y0085307D01*
X0327687Y0085349D01*
X0327733Y0085387D01*
X0327782Y0085423D01*
X0327833Y0085456D01*
X0327885Y0085485D01*
X0327940Y0085512D01*
X0327995Y0085535D01*
X0328052Y0085555D01*
X0328111Y0085571D01*
X0328170Y0085584D01*
X0328229Y0085593D01*
X0328290Y0085598D01*
X0328350Y0085600D01*
X0334850Y0085600D01*
X0334910Y0085598D01*
X0334971Y0085593D01*
X0335030Y0085584D01*
X0335089Y0085571D01*
X0335148Y0085555D01*
X0335205Y0085535D01*
X0335260Y0085512D01*
X0335315Y0085485D01*
X0335367Y0085456D01*
X0335418Y0085423D01*
X0335467Y0085387D01*
X0335513Y0085349D01*
X0335557Y0085307D01*
X0335599Y0085263D01*
X0335637Y0085217D01*
X0335673Y0085168D01*
X0335706Y0085117D01*
X0335735Y0085065D01*
X0335762Y0085010D01*
X0335785Y0084955D01*
X0335805Y0084898D01*
X0335821Y0084839D01*
X0335834Y0084780D01*
X0335843Y0084721D01*
X0335848Y0084660D01*
X0335850Y0084600D01*
X0334850Y0105100D02*
X0328350Y0105100D01*
X0328290Y0105102D01*
X0328229Y0105107D01*
X0328170Y0105116D01*
X0328111Y0105129D01*
X0328052Y0105145D01*
X0327995Y0105165D01*
X0327940Y0105188D01*
X0327885Y0105215D01*
X0327833Y0105244D01*
X0327782Y0105277D01*
X0327733Y0105313D01*
X0327687Y0105351D01*
X0327643Y0105393D01*
X0327601Y0105437D01*
X0327563Y0105483D01*
X0327527Y0105532D01*
X0327494Y0105583D01*
X0327465Y0105635D01*
X0327438Y0105690D01*
X0327415Y0105745D01*
X0327395Y0105802D01*
X0327379Y0105861D01*
X0327366Y0105920D01*
X0327357Y0105979D01*
X0327352Y0106040D01*
X0327350Y0106100D01*
X0334850Y0105100D02*
X0334910Y0105102D01*
X0334971Y0105107D01*
X0335030Y0105116D01*
X0335089Y0105129D01*
X0335148Y0105145D01*
X0335205Y0105165D01*
X0335260Y0105188D01*
X0335315Y0105215D01*
X0335367Y0105244D01*
X0335418Y0105277D01*
X0335467Y0105313D01*
X0335513Y0105351D01*
X0335557Y0105393D01*
X0335599Y0105437D01*
X0335637Y0105483D01*
X0335673Y0105532D01*
X0335706Y0105583D01*
X0335735Y0105635D01*
X0335762Y0105690D01*
X0335785Y0105745D01*
X0335805Y0105802D01*
X0335821Y0105861D01*
X0335834Y0105920D01*
X0335843Y0105979D01*
X0335848Y0106040D01*
X0335850Y0106100D01*
X0335850Y0112100D02*
X0335848Y0112160D01*
X0335843Y0112221D01*
X0335834Y0112280D01*
X0335821Y0112339D01*
X0335805Y0112398D01*
X0335785Y0112455D01*
X0335762Y0112510D01*
X0335735Y0112565D01*
X0335706Y0112617D01*
X0335673Y0112668D01*
X0335637Y0112717D01*
X0335599Y0112763D01*
X0335557Y0112807D01*
X0335513Y0112849D01*
X0335467Y0112887D01*
X0335418Y0112923D01*
X0335367Y0112956D01*
X0335315Y0112985D01*
X0335260Y0113012D01*
X0335205Y0113035D01*
X0335148Y0113055D01*
X0335089Y0113071D01*
X0335030Y0113084D01*
X0334971Y0113093D01*
X0334910Y0113098D01*
X0334850Y0113100D01*
X0328350Y0113100D01*
X0328290Y0113098D01*
X0328229Y0113093D01*
X0328170Y0113084D01*
X0328111Y0113071D01*
X0328052Y0113055D01*
X0327995Y0113035D01*
X0327940Y0113012D01*
X0327885Y0112985D01*
X0327833Y0112956D01*
X0327782Y0112923D01*
X0327733Y0112887D01*
X0327687Y0112849D01*
X0327643Y0112807D01*
X0327601Y0112763D01*
X0327563Y0112717D01*
X0327527Y0112668D01*
X0327494Y0112617D01*
X0327465Y0112565D01*
X0327438Y0112510D01*
X0327415Y0112455D01*
X0327395Y0112398D01*
X0327379Y0112339D01*
X0327366Y0112280D01*
X0327357Y0112221D01*
X0327352Y0112160D01*
X0327350Y0112100D01*
X0322975Y0156975D02*
X0316475Y0156975D01*
X0316415Y0156977D01*
X0316354Y0156982D01*
X0316295Y0156991D01*
X0316236Y0157004D01*
X0316177Y0157020D01*
X0316120Y0157040D01*
X0316065Y0157063D01*
X0316010Y0157090D01*
X0315958Y0157119D01*
X0315907Y0157152D01*
X0315858Y0157188D01*
X0315812Y0157226D01*
X0315768Y0157268D01*
X0315726Y0157312D01*
X0315688Y0157358D01*
X0315652Y0157407D01*
X0315619Y0157458D01*
X0315590Y0157510D01*
X0315563Y0157565D01*
X0315540Y0157620D01*
X0315520Y0157677D01*
X0315504Y0157736D01*
X0315491Y0157795D01*
X0315482Y0157854D01*
X0315477Y0157915D01*
X0315475Y0157975D01*
X0322975Y0156975D02*
X0323035Y0156977D01*
X0323096Y0156982D01*
X0323155Y0156991D01*
X0323214Y0157004D01*
X0323273Y0157020D01*
X0323330Y0157040D01*
X0323385Y0157063D01*
X0323440Y0157090D01*
X0323492Y0157119D01*
X0323543Y0157152D01*
X0323592Y0157188D01*
X0323638Y0157226D01*
X0323682Y0157268D01*
X0323724Y0157312D01*
X0323762Y0157358D01*
X0323798Y0157407D01*
X0323831Y0157458D01*
X0323860Y0157510D01*
X0323887Y0157565D01*
X0323910Y0157620D01*
X0323930Y0157677D01*
X0323946Y0157736D01*
X0323959Y0157795D01*
X0323968Y0157854D01*
X0323973Y0157915D01*
X0323975Y0157975D01*
X0323975Y0163975D02*
X0323973Y0164035D01*
X0323968Y0164096D01*
X0323959Y0164155D01*
X0323946Y0164214D01*
X0323930Y0164273D01*
X0323910Y0164330D01*
X0323887Y0164385D01*
X0323860Y0164440D01*
X0323831Y0164492D01*
X0323798Y0164543D01*
X0323762Y0164592D01*
X0323724Y0164638D01*
X0323682Y0164682D01*
X0323638Y0164724D01*
X0323592Y0164762D01*
X0323543Y0164798D01*
X0323492Y0164831D01*
X0323440Y0164860D01*
X0323385Y0164887D01*
X0323330Y0164910D01*
X0323273Y0164930D01*
X0323214Y0164946D01*
X0323155Y0164959D01*
X0323096Y0164968D01*
X0323035Y0164973D01*
X0322975Y0164975D01*
X0316475Y0164975D01*
X0316415Y0164973D01*
X0316354Y0164968D01*
X0316295Y0164959D01*
X0316236Y0164946D01*
X0316177Y0164930D01*
X0316120Y0164910D01*
X0316065Y0164887D01*
X0316010Y0164860D01*
X0315958Y0164831D01*
X0315907Y0164798D01*
X0315858Y0164762D01*
X0315812Y0164724D01*
X0315768Y0164682D01*
X0315726Y0164638D01*
X0315688Y0164592D01*
X0315652Y0164543D01*
X0315619Y0164492D01*
X0315590Y0164440D01*
X0315563Y0164385D01*
X0315540Y0164330D01*
X0315520Y0164273D01*
X0315504Y0164214D01*
X0315491Y0164155D01*
X0315482Y0164096D01*
X0315477Y0164035D01*
X0315475Y0163975D01*
X0315350Y0175350D02*
X0310350Y0175350D01*
X0307850Y0177850D01*
X0305350Y0175350D01*
X0300350Y0175350D01*
X0297850Y0177850D01*
X0295350Y0175350D01*
X0290350Y0175350D01*
X0287850Y0177850D01*
X0285350Y0175350D01*
X0280350Y0175350D01*
X0277850Y0177850D01*
X0275350Y0175350D01*
X0270350Y0175350D01*
X0267850Y0177850D01*
X0265350Y0175350D01*
X0260350Y0175350D01*
X0257850Y0177850D01*
X0255350Y0175350D01*
X0250350Y0175350D01*
X0247850Y0177850D01*
X0245350Y0175350D01*
X0240350Y0175350D01*
X0237850Y0177850D01*
X0235350Y0175350D01*
X0230350Y0175350D01*
X0227850Y0177850D01*
X0227850Y0182850D01*
X0230350Y0185350D01*
X0235350Y0185350D01*
X0237850Y0182850D01*
X0240350Y0185350D01*
X0245350Y0185350D01*
X0247850Y0182850D01*
X0250350Y0185350D01*
X0255350Y0185350D01*
X0257850Y0182850D01*
X0260350Y0185350D01*
X0265350Y0185350D01*
X0267850Y0182850D01*
X0270350Y0185350D01*
X0275350Y0185350D01*
X0277850Y0182850D01*
X0280350Y0185350D01*
X0285350Y0185350D01*
X0287850Y0182850D01*
X0290350Y0185350D01*
X0295350Y0185350D01*
X0297850Y0182850D01*
X0300350Y0185350D01*
X0305350Y0185350D01*
X0307850Y0182850D01*
X0310350Y0185350D01*
X0315350Y0185350D01*
X0317850Y0182850D01*
X0317850Y0177850D01*
X0315350Y0175350D01*
X0334120Y0170350D02*
X0334122Y0170534D01*
X0334129Y0170717D01*
X0334140Y0170900D01*
X0334156Y0171083D01*
X0334176Y0171266D01*
X0334201Y0171448D01*
X0334230Y0171629D01*
X0334264Y0171809D01*
X0334302Y0171989D01*
X0334344Y0172167D01*
X0334391Y0172345D01*
X0334442Y0172521D01*
X0334498Y0172696D01*
X0334557Y0172870D01*
X0334621Y0173042D01*
X0334689Y0173212D01*
X0334762Y0173381D01*
X0334838Y0173548D01*
X0334919Y0173713D01*
X0335003Y0173876D01*
X0335092Y0174037D01*
X0335184Y0174195D01*
X0335280Y0174352D01*
X0335381Y0174506D01*
X0335484Y0174657D01*
X0335592Y0174806D01*
X0335703Y0174952D01*
X0335818Y0175095D01*
X0335936Y0175236D01*
X0336058Y0175373D01*
X0336183Y0175508D01*
X0336311Y0175639D01*
X0336442Y0175767D01*
X0336577Y0175892D01*
X0336714Y0176014D01*
X0336855Y0176132D01*
X0336998Y0176247D01*
X0337144Y0176358D01*
X0337293Y0176466D01*
X0337444Y0176569D01*
X0337598Y0176670D01*
X0337755Y0176766D01*
X0337913Y0176858D01*
X0338074Y0176947D01*
X0338237Y0177031D01*
X0338402Y0177112D01*
X0338569Y0177188D01*
X0338738Y0177261D01*
X0338908Y0177329D01*
X0339080Y0177393D01*
X0339254Y0177452D01*
X0339429Y0177508D01*
X0339605Y0177559D01*
X0339783Y0177606D01*
X0339961Y0177648D01*
X0340141Y0177686D01*
X0340321Y0177720D01*
X0340502Y0177749D01*
X0340684Y0177774D01*
X0340867Y0177794D01*
X0341050Y0177810D01*
X0341233Y0177821D01*
X0341416Y0177828D01*
X0341600Y0177830D01*
X0341784Y0177828D01*
X0341967Y0177821D01*
X0342150Y0177810D01*
X0342333Y0177794D01*
X0342516Y0177774D01*
X0342698Y0177749D01*
X0342879Y0177720D01*
X0343059Y0177686D01*
X0343239Y0177648D01*
X0343417Y0177606D01*
X0343595Y0177559D01*
X0343771Y0177508D01*
X0343946Y0177452D01*
X0344120Y0177393D01*
X0344292Y0177329D01*
X0344462Y0177261D01*
X0344631Y0177188D01*
X0344798Y0177112D01*
X0344963Y0177031D01*
X0345126Y0176947D01*
X0345287Y0176858D01*
X0345445Y0176766D01*
X0345602Y0176670D01*
X0345756Y0176569D01*
X0345907Y0176466D01*
X0346056Y0176358D01*
X0346202Y0176247D01*
X0346345Y0176132D01*
X0346486Y0176014D01*
X0346623Y0175892D01*
X0346758Y0175767D01*
X0346889Y0175639D01*
X0347017Y0175508D01*
X0347142Y0175373D01*
X0347264Y0175236D01*
X0347382Y0175095D01*
X0347497Y0174952D01*
X0347608Y0174806D01*
X0347716Y0174657D01*
X0347819Y0174506D01*
X0347920Y0174352D01*
X0348016Y0174195D01*
X0348108Y0174037D01*
X0348197Y0173876D01*
X0348281Y0173713D01*
X0348362Y0173548D01*
X0348438Y0173381D01*
X0348511Y0173212D01*
X0348579Y0173042D01*
X0348643Y0172870D01*
X0348702Y0172696D01*
X0348758Y0172521D01*
X0348809Y0172345D01*
X0348856Y0172167D01*
X0348898Y0171989D01*
X0348936Y0171809D01*
X0348970Y0171629D01*
X0348999Y0171448D01*
X0349024Y0171266D01*
X0349044Y0171083D01*
X0349060Y0170900D01*
X0349071Y0170717D01*
X0349078Y0170534D01*
X0349080Y0170350D01*
X0349078Y0170166D01*
X0349071Y0169983D01*
X0349060Y0169800D01*
X0349044Y0169617D01*
X0349024Y0169434D01*
X0348999Y0169252D01*
X0348970Y0169071D01*
X0348936Y0168891D01*
X0348898Y0168711D01*
X0348856Y0168533D01*
X0348809Y0168355D01*
X0348758Y0168179D01*
X0348702Y0168004D01*
X0348643Y0167830D01*
X0348579Y0167658D01*
X0348511Y0167488D01*
X0348438Y0167319D01*
X0348362Y0167152D01*
X0348281Y0166987D01*
X0348197Y0166824D01*
X0348108Y0166663D01*
X0348016Y0166505D01*
X0347920Y0166348D01*
X0347819Y0166194D01*
X0347716Y0166043D01*
X0347608Y0165894D01*
X0347497Y0165748D01*
X0347382Y0165605D01*
X0347264Y0165464D01*
X0347142Y0165327D01*
X0347017Y0165192D01*
X0346889Y0165061D01*
X0346758Y0164933D01*
X0346623Y0164808D01*
X0346486Y0164686D01*
X0346345Y0164568D01*
X0346202Y0164453D01*
X0346056Y0164342D01*
X0345907Y0164234D01*
X0345756Y0164131D01*
X0345602Y0164030D01*
X0345445Y0163934D01*
X0345287Y0163842D01*
X0345126Y0163753D01*
X0344963Y0163669D01*
X0344798Y0163588D01*
X0344631Y0163512D01*
X0344462Y0163439D01*
X0344292Y0163371D01*
X0344120Y0163307D01*
X0343946Y0163248D01*
X0343771Y0163192D01*
X0343595Y0163141D01*
X0343417Y0163094D01*
X0343239Y0163052D01*
X0343059Y0163014D01*
X0342879Y0162980D01*
X0342698Y0162951D01*
X0342516Y0162926D01*
X0342333Y0162906D01*
X0342150Y0162890D01*
X0341967Y0162879D01*
X0341784Y0162872D01*
X0341600Y0162870D01*
X0341416Y0162872D01*
X0341233Y0162879D01*
X0341050Y0162890D01*
X0340867Y0162906D01*
X0340684Y0162926D01*
X0340502Y0162951D01*
X0340321Y0162980D01*
X0340141Y0163014D01*
X0339961Y0163052D01*
X0339783Y0163094D01*
X0339605Y0163141D01*
X0339429Y0163192D01*
X0339254Y0163248D01*
X0339080Y0163307D01*
X0338908Y0163371D01*
X0338738Y0163439D01*
X0338569Y0163512D01*
X0338402Y0163588D01*
X0338237Y0163669D01*
X0338074Y0163753D01*
X0337913Y0163842D01*
X0337755Y0163934D01*
X0337598Y0164030D01*
X0337444Y0164131D01*
X0337293Y0164234D01*
X0337144Y0164342D01*
X0336998Y0164453D01*
X0336855Y0164568D01*
X0336714Y0164686D01*
X0336577Y0164808D01*
X0336442Y0164933D01*
X0336311Y0165061D01*
X0336183Y0165192D01*
X0336058Y0165327D01*
X0335936Y0165464D01*
X0335818Y0165605D01*
X0335703Y0165748D01*
X0335592Y0165894D01*
X0335484Y0166043D01*
X0335381Y0166194D01*
X0335280Y0166348D01*
X0335184Y0166505D01*
X0335092Y0166663D01*
X0335003Y0166824D01*
X0334919Y0166987D01*
X0334838Y0167152D01*
X0334762Y0167319D01*
X0334689Y0167488D01*
X0334621Y0167658D01*
X0334557Y0167830D01*
X0334498Y0168004D01*
X0334442Y0168179D01*
X0334391Y0168355D01*
X0334344Y0168533D01*
X0334302Y0168711D01*
X0334264Y0168891D01*
X0334230Y0169071D01*
X0334201Y0169252D01*
X0334176Y0169434D01*
X0334156Y0169617D01*
X0334140Y0169800D01*
X0334129Y0169983D01*
X0334122Y0170166D01*
X0334120Y0170350D01*
X0196620Y0170350D02*
X0196622Y0170534D01*
X0196629Y0170717D01*
X0196640Y0170900D01*
X0196656Y0171083D01*
X0196676Y0171266D01*
X0196701Y0171448D01*
X0196730Y0171629D01*
X0196764Y0171809D01*
X0196802Y0171989D01*
X0196844Y0172167D01*
X0196891Y0172345D01*
X0196942Y0172521D01*
X0196998Y0172696D01*
X0197057Y0172870D01*
X0197121Y0173042D01*
X0197189Y0173212D01*
X0197262Y0173381D01*
X0197338Y0173548D01*
X0197419Y0173713D01*
X0197503Y0173876D01*
X0197592Y0174037D01*
X0197684Y0174195D01*
X0197780Y0174352D01*
X0197881Y0174506D01*
X0197984Y0174657D01*
X0198092Y0174806D01*
X0198203Y0174952D01*
X0198318Y0175095D01*
X0198436Y0175236D01*
X0198558Y0175373D01*
X0198683Y0175508D01*
X0198811Y0175639D01*
X0198942Y0175767D01*
X0199077Y0175892D01*
X0199214Y0176014D01*
X0199355Y0176132D01*
X0199498Y0176247D01*
X0199644Y0176358D01*
X0199793Y0176466D01*
X0199944Y0176569D01*
X0200098Y0176670D01*
X0200255Y0176766D01*
X0200413Y0176858D01*
X0200574Y0176947D01*
X0200737Y0177031D01*
X0200902Y0177112D01*
X0201069Y0177188D01*
X0201238Y0177261D01*
X0201408Y0177329D01*
X0201580Y0177393D01*
X0201754Y0177452D01*
X0201929Y0177508D01*
X0202105Y0177559D01*
X0202283Y0177606D01*
X0202461Y0177648D01*
X0202641Y0177686D01*
X0202821Y0177720D01*
X0203002Y0177749D01*
X0203184Y0177774D01*
X0203367Y0177794D01*
X0203550Y0177810D01*
X0203733Y0177821D01*
X0203916Y0177828D01*
X0204100Y0177830D01*
X0204284Y0177828D01*
X0204467Y0177821D01*
X0204650Y0177810D01*
X0204833Y0177794D01*
X0205016Y0177774D01*
X0205198Y0177749D01*
X0205379Y0177720D01*
X0205559Y0177686D01*
X0205739Y0177648D01*
X0205917Y0177606D01*
X0206095Y0177559D01*
X0206271Y0177508D01*
X0206446Y0177452D01*
X0206620Y0177393D01*
X0206792Y0177329D01*
X0206962Y0177261D01*
X0207131Y0177188D01*
X0207298Y0177112D01*
X0207463Y0177031D01*
X0207626Y0176947D01*
X0207787Y0176858D01*
X0207945Y0176766D01*
X0208102Y0176670D01*
X0208256Y0176569D01*
X0208407Y0176466D01*
X0208556Y0176358D01*
X0208702Y0176247D01*
X0208845Y0176132D01*
X0208986Y0176014D01*
X0209123Y0175892D01*
X0209258Y0175767D01*
X0209389Y0175639D01*
X0209517Y0175508D01*
X0209642Y0175373D01*
X0209764Y0175236D01*
X0209882Y0175095D01*
X0209997Y0174952D01*
X0210108Y0174806D01*
X0210216Y0174657D01*
X0210319Y0174506D01*
X0210420Y0174352D01*
X0210516Y0174195D01*
X0210608Y0174037D01*
X0210697Y0173876D01*
X0210781Y0173713D01*
X0210862Y0173548D01*
X0210938Y0173381D01*
X0211011Y0173212D01*
X0211079Y0173042D01*
X0211143Y0172870D01*
X0211202Y0172696D01*
X0211258Y0172521D01*
X0211309Y0172345D01*
X0211356Y0172167D01*
X0211398Y0171989D01*
X0211436Y0171809D01*
X0211470Y0171629D01*
X0211499Y0171448D01*
X0211524Y0171266D01*
X0211544Y0171083D01*
X0211560Y0170900D01*
X0211571Y0170717D01*
X0211578Y0170534D01*
X0211580Y0170350D01*
X0211578Y0170166D01*
X0211571Y0169983D01*
X0211560Y0169800D01*
X0211544Y0169617D01*
X0211524Y0169434D01*
X0211499Y0169252D01*
X0211470Y0169071D01*
X0211436Y0168891D01*
X0211398Y0168711D01*
X0211356Y0168533D01*
X0211309Y0168355D01*
X0211258Y0168179D01*
X0211202Y0168004D01*
X0211143Y0167830D01*
X0211079Y0167658D01*
X0211011Y0167488D01*
X0210938Y0167319D01*
X0210862Y0167152D01*
X0210781Y0166987D01*
X0210697Y0166824D01*
X0210608Y0166663D01*
X0210516Y0166505D01*
X0210420Y0166348D01*
X0210319Y0166194D01*
X0210216Y0166043D01*
X0210108Y0165894D01*
X0209997Y0165748D01*
X0209882Y0165605D01*
X0209764Y0165464D01*
X0209642Y0165327D01*
X0209517Y0165192D01*
X0209389Y0165061D01*
X0209258Y0164933D01*
X0209123Y0164808D01*
X0208986Y0164686D01*
X0208845Y0164568D01*
X0208702Y0164453D01*
X0208556Y0164342D01*
X0208407Y0164234D01*
X0208256Y0164131D01*
X0208102Y0164030D01*
X0207945Y0163934D01*
X0207787Y0163842D01*
X0207626Y0163753D01*
X0207463Y0163669D01*
X0207298Y0163588D01*
X0207131Y0163512D01*
X0206962Y0163439D01*
X0206792Y0163371D01*
X0206620Y0163307D01*
X0206446Y0163248D01*
X0206271Y0163192D01*
X0206095Y0163141D01*
X0205917Y0163094D01*
X0205739Y0163052D01*
X0205559Y0163014D01*
X0205379Y0162980D01*
X0205198Y0162951D01*
X0205016Y0162926D01*
X0204833Y0162906D01*
X0204650Y0162890D01*
X0204467Y0162879D01*
X0204284Y0162872D01*
X0204100Y0162870D01*
X0203916Y0162872D01*
X0203733Y0162879D01*
X0203550Y0162890D01*
X0203367Y0162906D01*
X0203184Y0162926D01*
X0203002Y0162951D01*
X0202821Y0162980D01*
X0202641Y0163014D01*
X0202461Y0163052D01*
X0202283Y0163094D01*
X0202105Y0163141D01*
X0201929Y0163192D01*
X0201754Y0163248D01*
X0201580Y0163307D01*
X0201408Y0163371D01*
X0201238Y0163439D01*
X0201069Y0163512D01*
X0200902Y0163588D01*
X0200737Y0163669D01*
X0200574Y0163753D01*
X0200413Y0163842D01*
X0200255Y0163934D01*
X0200098Y0164030D01*
X0199944Y0164131D01*
X0199793Y0164234D01*
X0199644Y0164342D01*
X0199498Y0164453D01*
X0199355Y0164568D01*
X0199214Y0164686D01*
X0199077Y0164808D01*
X0198942Y0164933D01*
X0198811Y0165061D01*
X0198683Y0165192D01*
X0198558Y0165327D01*
X0198436Y0165464D01*
X0198318Y0165605D01*
X0198203Y0165748D01*
X0198092Y0165894D01*
X0197984Y0166043D01*
X0197881Y0166194D01*
X0197780Y0166348D01*
X0197684Y0166505D01*
X0197592Y0166663D01*
X0197503Y0166824D01*
X0197419Y0166987D01*
X0197338Y0167152D01*
X0197262Y0167319D01*
X0197189Y0167488D01*
X0197121Y0167658D01*
X0197057Y0167830D01*
X0196998Y0168004D01*
X0196942Y0168179D01*
X0196891Y0168355D01*
X0196844Y0168533D01*
X0196802Y0168711D01*
X0196764Y0168891D01*
X0196730Y0169071D01*
X0196701Y0169252D01*
X0196676Y0169434D01*
X0196656Y0169617D01*
X0196640Y0169800D01*
X0196629Y0169983D01*
X0196622Y0170166D01*
X0196620Y0170350D01*
X0150370Y0170350D02*
X0150372Y0170534D01*
X0150379Y0170717D01*
X0150390Y0170900D01*
X0150406Y0171083D01*
X0150426Y0171266D01*
X0150451Y0171448D01*
X0150480Y0171629D01*
X0150514Y0171809D01*
X0150552Y0171989D01*
X0150594Y0172167D01*
X0150641Y0172345D01*
X0150692Y0172521D01*
X0150748Y0172696D01*
X0150807Y0172870D01*
X0150871Y0173042D01*
X0150939Y0173212D01*
X0151012Y0173381D01*
X0151088Y0173548D01*
X0151169Y0173713D01*
X0151253Y0173876D01*
X0151342Y0174037D01*
X0151434Y0174195D01*
X0151530Y0174352D01*
X0151631Y0174506D01*
X0151734Y0174657D01*
X0151842Y0174806D01*
X0151953Y0174952D01*
X0152068Y0175095D01*
X0152186Y0175236D01*
X0152308Y0175373D01*
X0152433Y0175508D01*
X0152561Y0175639D01*
X0152692Y0175767D01*
X0152827Y0175892D01*
X0152964Y0176014D01*
X0153105Y0176132D01*
X0153248Y0176247D01*
X0153394Y0176358D01*
X0153543Y0176466D01*
X0153694Y0176569D01*
X0153848Y0176670D01*
X0154005Y0176766D01*
X0154163Y0176858D01*
X0154324Y0176947D01*
X0154487Y0177031D01*
X0154652Y0177112D01*
X0154819Y0177188D01*
X0154988Y0177261D01*
X0155158Y0177329D01*
X0155330Y0177393D01*
X0155504Y0177452D01*
X0155679Y0177508D01*
X0155855Y0177559D01*
X0156033Y0177606D01*
X0156211Y0177648D01*
X0156391Y0177686D01*
X0156571Y0177720D01*
X0156752Y0177749D01*
X0156934Y0177774D01*
X0157117Y0177794D01*
X0157300Y0177810D01*
X0157483Y0177821D01*
X0157666Y0177828D01*
X0157850Y0177830D01*
X0158034Y0177828D01*
X0158217Y0177821D01*
X0158400Y0177810D01*
X0158583Y0177794D01*
X0158766Y0177774D01*
X0158948Y0177749D01*
X0159129Y0177720D01*
X0159309Y0177686D01*
X0159489Y0177648D01*
X0159667Y0177606D01*
X0159845Y0177559D01*
X0160021Y0177508D01*
X0160196Y0177452D01*
X0160370Y0177393D01*
X0160542Y0177329D01*
X0160712Y0177261D01*
X0160881Y0177188D01*
X0161048Y0177112D01*
X0161213Y0177031D01*
X0161376Y0176947D01*
X0161537Y0176858D01*
X0161695Y0176766D01*
X0161852Y0176670D01*
X0162006Y0176569D01*
X0162157Y0176466D01*
X0162306Y0176358D01*
X0162452Y0176247D01*
X0162595Y0176132D01*
X0162736Y0176014D01*
X0162873Y0175892D01*
X0163008Y0175767D01*
X0163139Y0175639D01*
X0163267Y0175508D01*
X0163392Y0175373D01*
X0163514Y0175236D01*
X0163632Y0175095D01*
X0163747Y0174952D01*
X0163858Y0174806D01*
X0163966Y0174657D01*
X0164069Y0174506D01*
X0164170Y0174352D01*
X0164266Y0174195D01*
X0164358Y0174037D01*
X0164447Y0173876D01*
X0164531Y0173713D01*
X0164612Y0173548D01*
X0164688Y0173381D01*
X0164761Y0173212D01*
X0164829Y0173042D01*
X0164893Y0172870D01*
X0164952Y0172696D01*
X0165008Y0172521D01*
X0165059Y0172345D01*
X0165106Y0172167D01*
X0165148Y0171989D01*
X0165186Y0171809D01*
X0165220Y0171629D01*
X0165249Y0171448D01*
X0165274Y0171266D01*
X0165294Y0171083D01*
X0165310Y0170900D01*
X0165321Y0170717D01*
X0165328Y0170534D01*
X0165330Y0170350D01*
X0165328Y0170166D01*
X0165321Y0169983D01*
X0165310Y0169800D01*
X0165294Y0169617D01*
X0165274Y0169434D01*
X0165249Y0169252D01*
X0165220Y0169071D01*
X0165186Y0168891D01*
X0165148Y0168711D01*
X0165106Y0168533D01*
X0165059Y0168355D01*
X0165008Y0168179D01*
X0164952Y0168004D01*
X0164893Y0167830D01*
X0164829Y0167658D01*
X0164761Y0167488D01*
X0164688Y0167319D01*
X0164612Y0167152D01*
X0164531Y0166987D01*
X0164447Y0166824D01*
X0164358Y0166663D01*
X0164266Y0166505D01*
X0164170Y0166348D01*
X0164069Y0166194D01*
X0163966Y0166043D01*
X0163858Y0165894D01*
X0163747Y0165748D01*
X0163632Y0165605D01*
X0163514Y0165464D01*
X0163392Y0165327D01*
X0163267Y0165192D01*
X0163139Y0165061D01*
X0163008Y0164933D01*
X0162873Y0164808D01*
X0162736Y0164686D01*
X0162595Y0164568D01*
X0162452Y0164453D01*
X0162306Y0164342D01*
X0162157Y0164234D01*
X0162006Y0164131D01*
X0161852Y0164030D01*
X0161695Y0163934D01*
X0161537Y0163842D01*
X0161376Y0163753D01*
X0161213Y0163669D01*
X0161048Y0163588D01*
X0160881Y0163512D01*
X0160712Y0163439D01*
X0160542Y0163371D01*
X0160370Y0163307D01*
X0160196Y0163248D01*
X0160021Y0163192D01*
X0159845Y0163141D01*
X0159667Y0163094D01*
X0159489Y0163052D01*
X0159309Y0163014D01*
X0159129Y0162980D01*
X0158948Y0162951D01*
X0158766Y0162926D01*
X0158583Y0162906D01*
X0158400Y0162890D01*
X0158217Y0162879D01*
X0158034Y0162872D01*
X0157850Y0162870D01*
X0157666Y0162872D01*
X0157483Y0162879D01*
X0157300Y0162890D01*
X0157117Y0162906D01*
X0156934Y0162926D01*
X0156752Y0162951D01*
X0156571Y0162980D01*
X0156391Y0163014D01*
X0156211Y0163052D01*
X0156033Y0163094D01*
X0155855Y0163141D01*
X0155679Y0163192D01*
X0155504Y0163248D01*
X0155330Y0163307D01*
X0155158Y0163371D01*
X0154988Y0163439D01*
X0154819Y0163512D01*
X0154652Y0163588D01*
X0154487Y0163669D01*
X0154324Y0163753D01*
X0154163Y0163842D01*
X0154005Y0163934D01*
X0153848Y0164030D01*
X0153694Y0164131D01*
X0153543Y0164234D01*
X0153394Y0164342D01*
X0153248Y0164453D01*
X0153105Y0164568D01*
X0152964Y0164686D01*
X0152827Y0164808D01*
X0152692Y0164933D01*
X0152561Y0165061D01*
X0152433Y0165192D01*
X0152308Y0165327D01*
X0152186Y0165464D01*
X0152068Y0165605D01*
X0151953Y0165748D01*
X0151842Y0165894D01*
X0151734Y0166043D01*
X0151631Y0166194D01*
X0151530Y0166348D01*
X0151434Y0166505D01*
X0151342Y0166663D01*
X0151253Y0166824D01*
X0151169Y0166987D01*
X0151088Y0167152D01*
X0151012Y0167319D01*
X0150939Y0167488D01*
X0150871Y0167658D01*
X0150807Y0167830D01*
X0150748Y0168004D01*
X0150692Y0168179D01*
X0150641Y0168355D01*
X0150594Y0168533D01*
X0150552Y0168711D01*
X0150514Y0168891D01*
X0150480Y0169071D01*
X0150451Y0169252D01*
X0150426Y0169434D01*
X0150406Y0169617D01*
X0150390Y0169800D01*
X0150379Y0169983D01*
X0150372Y0170166D01*
X0150370Y0170350D01*
X0012870Y0170350D02*
X0012872Y0170534D01*
X0012879Y0170717D01*
X0012890Y0170900D01*
X0012906Y0171083D01*
X0012926Y0171266D01*
X0012951Y0171448D01*
X0012980Y0171629D01*
X0013014Y0171809D01*
X0013052Y0171989D01*
X0013094Y0172167D01*
X0013141Y0172345D01*
X0013192Y0172521D01*
X0013248Y0172696D01*
X0013307Y0172870D01*
X0013371Y0173042D01*
X0013439Y0173212D01*
X0013512Y0173381D01*
X0013588Y0173548D01*
X0013669Y0173713D01*
X0013753Y0173876D01*
X0013842Y0174037D01*
X0013934Y0174195D01*
X0014030Y0174352D01*
X0014131Y0174506D01*
X0014234Y0174657D01*
X0014342Y0174806D01*
X0014453Y0174952D01*
X0014568Y0175095D01*
X0014686Y0175236D01*
X0014808Y0175373D01*
X0014933Y0175508D01*
X0015061Y0175639D01*
X0015192Y0175767D01*
X0015327Y0175892D01*
X0015464Y0176014D01*
X0015605Y0176132D01*
X0015748Y0176247D01*
X0015894Y0176358D01*
X0016043Y0176466D01*
X0016194Y0176569D01*
X0016348Y0176670D01*
X0016505Y0176766D01*
X0016663Y0176858D01*
X0016824Y0176947D01*
X0016987Y0177031D01*
X0017152Y0177112D01*
X0017319Y0177188D01*
X0017488Y0177261D01*
X0017658Y0177329D01*
X0017830Y0177393D01*
X0018004Y0177452D01*
X0018179Y0177508D01*
X0018355Y0177559D01*
X0018533Y0177606D01*
X0018711Y0177648D01*
X0018891Y0177686D01*
X0019071Y0177720D01*
X0019252Y0177749D01*
X0019434Y0177774D01*
X0019617Y0177794D01*
X0019800Y0177810D01*
X0019983Y0177821D01*
X0020166Y0177828D01*
X0020350Y0177830D01*
X0020534Y0177828D01*
X0020717Y0177821D01*
X0020900Y0177810D01*
X0021083Y0177794D01*
X0021266Y0177774D01*
X0021448Y0177749D01*
X0021629Y0177720D01*
X0021809Y0177686D01*
X0021989Y0177648D01*
X0022167Y0177606D01*
X0022345Y0177559D01*
X0022521Y0177508D01*
X0022696Y0177452D01*
X0022870Y0177393D01*
X0023042Y0177329D01*
X0023212Y0177261D01*
X0023381Y0177188D01*
X0023548Y0177112D01*
X0023713Y0177031D01*
X0023876Y0176947D01*
X0024037Y0176858D01*
X0024195Y0176766D01*
X0024352Y0176670D01*
X0024506Y0176569D01*
X0024657Y0176466D01*
X0024806Y0176358D01*
X0024952Y0176247D01*
X0025095Y0176132D01*
X0025236Y0176014D01*
X0025373Y0175892D01*
X0025508Y0175767D01*
X0025639Y0175639D01*
X0025767Y0175508D01*
X0025892Y0175373D01*
X0026014Y0175236D01*
X0026132Y0175095D01*
X0026247Y0174952D01*
X0026358Y0174806D01*
X0026466Y0174657D01*
X0026569Y0174506D01*
X0026670Y0174352D01*
X0026766Y0174195D01*
X0026858Y0174037D01*
X0026947Y0173876D01*
X0027031Y0173713D01*
X0027112Y0173548D01*
X0027188Y0173381D01*
X0027261Y0173212D01*
X0027329Y0173042D01*
X0027393Y0172870D01*
X0027452Y0172696D01*
X0027508Y0172521D01*
X0027559Y0172345D01*
X0027606Y0172167D01*
X0027648Y0171989D01*
X0027686Y0171809D01*
X0027720Y0171629D01*
X0027749Y0171448D01*
X0027774Y0171266D01*
X0027794Y0171083D01*
X0027810Y0170900D01*
X0027821Y0170717D01*
X0027828Y0170534D01*
X0027830Y0170350D01*
X0027828Y0170166D01*
X0027821Y0169983D01*
X0027810Y0169800D01*
X0027794Y0169617D01*
X0027774Y0169434D01*
X0027749Y0169252D01*
X0027720Y0169071D01*
X0027686Y0168891D01*
X0027648Y0168711D01*
X0027606Y0168533D01*
X0027559Y0168355D01*
X0027508Y0168179D01*
X0027452Y0168004D01*
X0027393Y0167830D01*
X0027329Y0167658D01*
X0027261Y0167488D01*
X0027188Y0167319D01*
X0027112Y0167152D01*
X0027031Y0166987D01*
X0026947Y0166824D01*
X0026858Y0166663D01*
X0026766Y0166505D01*
X0026670Y0166348D01*
X0026569Y0166194D01*
X0026466Y0166043D01*
X0026358Y0165894D01*
X0026247Y0165748D01*
X0026132Y0165605D01*
X0026014Y0165464D01*
X0025892Y0165327D01*
X0025767Y0165192D01*
X0025639Y0165061D01*
X0025508Y0164933D01*
X0025373Y0164808D01*
X0025236Y0164686D01*
X0025095Y0164568D01*
X0024952Y0164453D01*
X0024806Y0164342D01*
X0024657Y0164234D01*
X0024506Y0164131D01*
X0024352Y0164030D01*
X0024195Y0163934D01*
X0024037Y0163842D01*
X0023876Y0163753D01*
X0023713Y0163669D01*
X0023548Y0163588D01*
X0023381Y0163512D01*
X0023212Y0163439D01*
X0023042Y0163371D01*
X0022870Y0163307D01*
X0022696Y0163248D01*
X0022521Y0163192D01*
X0022345Y0163141D01*
X0022167Y0163094D01*
X0021989Y0163052D01*
X0021809Y0163014D01*
X0021629Y0162980D01*
X0021448Y0162951D01*
X0021266Y0162926D01*
X0021083Y0162906D01*
X0020900Y0162890D01*
X0020717Y0162879D01*
X0020534Y0162872D01*
X0020350Y0162870D01*
X0020166Y0162872D01*
X0019983Y0162879D01*
X0019800Y0162890D01*
X0019617Y0162906D01*
X0019434Y0162926D01*
X0019252Y0162951D01*
X0019071Y0162980D01*
X0018891Y0163014D01*
X0018711Y0163052D01*
X0018533Y0163094D01*
X0018355Y0163141D01*
X0018179Y0163192D01*
X0018004Y0163248D01*
X0017830Y0163307D01*
X0017658Y0163371D01*
X0017488Y0163439D01*
X0017319Y0163512D01*
X0017152Y0163588D01*
X0016987Y0163669D01*
X0016824Y0163753D01*
X0016663Y0163842D01*
X0016505Y0163934D01*
X0016348Y0164030D01*
X0016194Y0164131D01*
X0016043Y0164234D01*
X0015894Y0164342D01*
X0015748Y0164453D01*
X0015605Y0164568D01*
X0015464Y0164686D01*
X0015327Y0164808D01*
X0015192Y0164933D01*
X0015061Y0165061D01*
X0014933Y0165192D01*
X0014808Y0165327D01*
X0014686Y0165464D01*
X0014568Y0165605D01*
X0014453Y0165748D01*
X0014342Y0165894D01*
X0014234Y0166043D01*
X0014131Y0166194D01*
X0014030Y0166348D01*
X0013934Y0166505D01*
X0013842Y0166663D01*
X0013753Y0166824D01*
X0013669Y0166987D01*
X0013588Y0167152D01*
X0013512Y0167319D01*
X0013439Y0167488D01*
X0013371Y0167658D01*
X0013307Y0167830D01*
X0013248Y0168004D01*
X0013192Y0168179D01*
X0013141Y0168355D01*
X0013094Y0168533D01*
X0013052Y0168711D01*
X0013014Y0168891D01*
X0012980Y0169071D01*
X0012951Y0169252D01*
X0012926Y0169434D01*
X0012906Y0169617D01*
X0012890Y0169800D01*
X0012879Y0169983D01*
X0012872Y0170166D01*
X0012870Y0170350D01*
X0316475Y0033725D02*
X0322975Y0033725D01*
X0323035Y0033723D01*
X0323096Y0033718D01*
X0323155Y0033709D01*
X0323214Y0033696D01*
X0323273Y0033680D01*
X0323330Y0033660D01*
X0323385Y0033637D01*
X0323440Y0033610D01*
X0323492Y0033581D01*
X0323543Y0033548D01*
X0323592Y0033512D01*
X0323638Y0033474D01*
X0323682Y0033432D01*
X0323724Y0033388D01*
X0323762Y0033342D01*
X0323798Y0033293D01*
X0323831Y0033242D01*
X0323860Y0033190D01*
X0323887Y0033135D01*
X0323910Y0033080D01*
X0323930Y0033023D01*
X0323946Y0032964D01*
X0323959Y0032905D01*
X0323968Y0032846D01*
X0323973Y0032785D01*
X0323975Y0032725D01*
X0316475Y0033725D02*
X0316415Y0033723D01*
X0316354Y0033718D01*
X0316295Y0033709D01*
X0316236Y0033696D01*
X0316177Y0033680D01*
X0316120Y0033660D01*
X0316065Y0033637D01*
X0316010Y0033610D01*
X0315958Y0033581D01*
X0315907Y0033548D01*
X0315858Y0033512D01*
X0315812Y0033474D01*
X0315768Y0033432D01*
X0315726Y0033388D01*
X0315688Y0033342D01*
X0315652Y0033293D01*
X0315619Y0033242D01*
X0315590Y0033190D01*
X0315563Y0033135D01*
X0315540Y0033080D01*
X0315520Y0033023D01*
X0315504Y0032964D01*
X0315491Y0032905D01*
X0315482Y0032846D01*
X0315477Y0032785D01*
X0315475Y0032725D01*
X0315475Y0026725D02*
X0315477Y0026665D01*
X0315482Y0026604D01*
X0315491Y0026545D01*
X0315504Y0026486D01*
X0315520Y0026427D01*
X0315540Y0026370D01*
X0315563Y0026315D01*
X0315590Y0026260D01*
X0315619Y0026208D01*
X0315652Y0026157D01*
X0315688Y0026108D01*
X0315726Y0026062D01*
X0315768Y0026018D01*
X0315812Y0025976D01*
X0315858Y0025938D01*
X0315907Y0025902D01*
X0315958Y0025869D01*
X0316010Y0025840D01*
X0316065Y0025813D01*
X0316120Y0025790D01*
X0316177Y0025770D01*
X0316236Y0025754D01*
X0316295Y0025741D01*
X0316354Y0025732D01*
X0316415Y0025727D01*
X0316475Y0025725D01*
X0322975Y0025725D01*
X0323035Y0025727D01*
X0323096Y0025732D01*
X0323155Y0025741D01*
X0323214Y0025754D01*
X0323273Y0025770D01*
X0323330Y0025790D01*
X0323385Y0025813D01*
X0323440Y0025840D01*
X0323492Y0025869D01*
X0323543Y0025902D01*
X0323592Y0025938D01*
X0323638Y0025976D01*
X0323682Y0026018D01*
X0323724Y0026062D01*
X0323762Y0026108D01*
X0323798Y0026157D01*
X0323831Y0026208D01*
X0323860Y0026260D01*
X0323887Y0026315D01*
X0323910Y0026370D01*
X0323930Y0026427D01*
X0323946Y0026486D01*
X0323959Y0026545D01*
X0323968Y0026604D01*
X0323973Y0026665D01*
X0323975Y0026725D01*
X0334120Y0020350D02*
X0334122Y0020534D01*
X0334129Y0020717D01*
X0334140Y0020900D01*
X0334156Y0021083D01*
X0334176Y0021266D01*
X0334201Y0021448D01*
X0334230Y0021629D01*
X0334264Y0021809D01*
X0334302Y0021989D01*
X0334344Y0022167D01*
X0334391Y0022345D01*
X0334442Y0022521D01*
X0334498Y0022696D01*
X0334557Y0022870D01*
X0334621Y0023042D01*
X0334689Y0023212D01*
X0334762Y0023381D01*
X0334838Y0023548D01*
X0334919Y0023713D01*
X0335003Y0023876D01*
X0335092Y0024037D01*
X0335184Y0024195D01*
X0335280Y0024352D01*
X0335381Y0024506D01*
X0335484Y0024657D01*
X0335592Y0024806D01*
X0335703Y0024952D01*
X0335818Y0025095D01*
X0335936Y0025236D01*
X0336058Y0025373D01*
X0336183Y0025508D01*
X0336311Y0025639D01*
X0336442Y0025767D01*
X0336577Y0025892D01*
X0336714Y0026014D01*
X0336855Y0026132D01*
X0336998Y0026247D01*
X0337144Y0026358D01*
X0337293Y0026466D01*
X0337444Y0026569D01*
X0337598Y0026670D01*
X0337755Y0026766D01*
X0337913Y0026858D01*
X0338074Y0026947D01*
X0338237Y0027031D01*
X0338402Y0027112D01*
X0338569Y0027188D01*
X0338738Y0027261D01*
X0338908Y0027329D01*
X0339080Y0027393D01*
X0339254Y0027452D01*
X0339429Y0027508D01*
X0339605Y0027559D01*
X0339783Y0027606D01*
X0339961Y0027648D01*
X0340141Y0027686D01*
X0340321Y0027720D01*
X0340502Y0027749D01*
X0340684Y0027774D01*
X0340867Y0027794D01*
X0341050Y0027810D01*
X0341233Y0027821D01*
X0341416Y0027828D01*
X0341600Y0027830D01*
X0341784Y0027828D01*
X0341967Y0027821D01*
X0342150Y0027810D01*
X0342333Y0027794D01*
X0342516Y0027774D01*
X0342698Y0027749D01*
X0342879Y0027720D01*
X0343059Y0027686D01*
X0343239Y0027648D01*
X0343417Y0027606D01*
X0343595Y0027559D01*
X0343771Y0027508D01*
X0343946Y0027452D01*
X0344120Y0027393D01*
X0344292Y0027329D01*
X0344462Y0027261D01*
X0344631Y0027188D01*
X0344798Y0027112D01*
X0344963Y0027031D01*
X0345126Y0026947D01*
X0345287Y0026858D01*
X0345445Y0026766D01*
X0345602Y0026670D01*
X0345756Y0026569D01*
X0345907Y0026466D01*
X0346056Y0026358D01*
X0346202Y0026247D01*
X0346345Y0026132D01*
X0346486Y0026014D01*
X0346623Y0025892D01*
X0346758Y0025767D01*
X0346889Y0025639D01*
X0347017Y0025508D01*
X0347142Y0025373D01*
X0347264Y0025236D01*
X0347382Y0025095D01*
X0347497Y0024952D01*
X0347608Y0024806D01*
X0347716Y0024657D01*
X0347819Y0024506D01*
X0347920Y0024352D01*
X0348016Y0024195D01*
X0348108Y0024037D01*
X0348197Y0023876D01*
X0348281Y0023713D01*
X0348362Y0023548D01*
X0348438Y0023381D01*
X0348511Y0023212D01*
X0348579Y0023042D01*
X0348643Y0022870D01*
X0348702Y0022696D01*
X0348758Y0022521D01*
X0348809Y0022345D01*
X0348856Y0022167D01*
X0348898Y0021989D01*
X0348936Y0021809D01*
X0348970Y0021629D01*
X0348999Y0021448D01*
X0349024Y0021266D01*
X0349044Y0021083D01*
X0349060Y0020900D01*
X0349071Y0020717D01*
X0349078Y0020534D01*
X0349080Y0020350D01*
X0349078Y0020166D01*
X0349071Y0019983D01*
X0349060Y0019800D01*
X0349044Y0019617D01*
X0349024Y0019434D01*
X0348999Y0019252D01*
X0348970Y0019071D01*
X0348936Y0018891D01*
X0348898Y0018711D01*
X0348856Y0018533D01*
X0348809Y0018355D01*
X0348758Y0018179D01*
X0348702Y0018004D01*
X0348643Y0017830D01*
X0348579Y0017658D01*
X0348511Y0017488D01*
X0348438Y0017319D01*
X0348362Y0017152D01*
X0348281Y0016987D01*
X0348197Y0016824D01*
X0348108Y0016663D01*
X0348016Y0016505D01*
X0347920Y0016348D01*
X0347819Y0016194D01*
X0347716Y0016043D01*
X0347608Y0015894D01*
X0347497Y0015748D01*
X0347382Y0015605D01*
X0347264Y0015464D01*
X0347142Y0015327D01*
X0347017Y0015192D01*
X0346889Y0015061D01*
X0346758Y0014933D01*
X0346623Y0014808D01*
X0346486Y0014686D01*
X0346345Y0014568D01*
X0346202Y0014453D01*
X0346056Y0014342D01*
X0345907Y0014234D01*
X0345756Y0014131D01*
X0345602Y0014030D01*
X0345445Y0013934D01*
X0345287Y0013842D01*
X0345126Y0013753D01*
X0344963Y0013669D01*
X0344798Y0013588D01*
X0344631Y0013512D01*
X0344462Y0013439D01*
X0344292Y0013371D01*
X0344120Y0013307D01*
X0343946Y0013248D01*
X0343771Y0013192D01*
X0343595Y0013141D01*
X0343417Y0013094D01*
X0343239Y0013052D01*
X0343059Y0013014D01*
X0342879Y0012980D01*
X0342698Y0012951D01*
X0342516Y0012926D01*
X0342333Y0012906D01*
X0342150Y0012890D01*
X0341967Y0012879D01*
X0341784Y0012872D01*
X0341600Y0012870D01*
X0341416Y0012872D01*
X0341233Y0012879D01*
X0341050Y0012890D01*
X0340867Y0012906D01*
X0340684Y0012926D01*
X0340502Y0012951D01*
X0340321Y0012980D01*
X0340141Y0013014D01*
X0339961Y0013052D01*
X0339783Y0013094D01*
X0339605Y0013141D01*
X0339429Y0013192D01*
X0339254Y0013248D01*
X0339080Y0013307D01*
X0338908Y0013371D01*
X0338738Y0013439D01*
X0338569Y0013512D01*
X0338402Y0013588D01*
X0338237Y0013669D01*
X0338074Y0013753D01*
X0337913Y0013842D01*
X0337755Y0013934D01*
X0337598Y0014030D01*
X0337444Y0014131D01*
X0337293Y0014234D01*
X0337144Y0014342D01*
X0336998Y0014453D01*
X0336855Y0014568D01*
X0336714Y0014686D01*
X0336577Y0014808D01*
X0336442Y0014933D01*
X0336311Y0015061D01*
X0336183Y0015192D01*
X0336058Y0015327D01*
X0335936Y0015464D01*
X0335818Y0015605D01*
X0335703Y0015748D01*
X0335592Y0015894D01*
X0335484Y0016043D01*
X0335381Y0016194D01*
X0335280Y0016348D01*
X0335184Y0016505D01*
X0335092Y0016663D01*
X0335003Y0016824D01*
X0334919Y0016987D01*
X0334838Y0017152D01*
X0334762Y0017319D01*
X0334689Y0017488D01*
X0334621Y0017658D01*
X0334557Y0017830D01*
X0334498Y0018004D01*
X0334442Y0018179D01*
X0334391Y0018355D01*
X0334344Y0018533D01*
X0334302Y0018711D01*
X0334264Y0018891D01*
X0334230Y0019071D01*
X0334201Y0019252D01*
X0334176Y0019434D01*
X0334156Y0019617D01*
X0334140Y0019800D01*
X0334129Y0019983D01*
X0334122Y0020166D01*
X0334120Y0020350D01*
D15*
X0328100Y0020350D02*
X0328104Y0020681D01*
X0328116Y0021012D01*
X0328137Y0021343D01*
X0328165Y0021673D01*
X0328202Y0022003D01*
X0328246Y0022331D01*
X0328299Y0022658D01*
X0328359Y0022984D01*
X0328428Y0023308D01*
X0328505Y0023630D01*
X0328589Y0023951D01*
X0328681Y0024269D01*
X0328781Y0024585D01*
X0328889Y0024898D01*
X0329005Y0025209D01*
X0329128Y0025516D01*
X0329258Y0025821D01*
X0329396Y0026122D01*
X0329541Y0026420D01*
X0329694Y0026714D01*
X0329854Y0027004D01*
X0330021Y0027290D01*
X0330194Y0027572D01*
X0330375Y0027850D01*
X0330563Y0028123D01*
X0330757Y0028392D01*
X0330957Y0028656D01*
X0331164Y0028914D01*
X0331378Y0029168D01*
X0331597Y0029416D01*
X0331823Y0029659D01*
X0332054Y0029896D01*
X0332291Y0030127D01*
X0332534Y0030353D01*
X0332782Y0030572D01*
X0333036Y0030786D01*
X0333294Y0030993D01*
X0333558Y0031193D01*
X0333827Y0031387D01*
X0334100Y0031575D01*
X0334378Y0031756D01*
X0334660Y0031929D01*
X0334946Y0032096D01*
X0335236Y0032256D01*
X0335530Y0032409D01*
X0335828Y0032554D01*
X0336129Y0032692D01*
X0336434Y0032822D01*
X0336741Y0032945D01*
X0337052Y0033061D01*
X0337365Y0033169D01*
X0337681Y0033269D01*
X0337999Y0033361D01*
X0338320Y0033445D01*
X0338642Y0033522D01*
X0338966Y0033591D01*
X0339292Y0033651D01*
X0339619Y0033704D01*
X0339947Y0033748D01*
X0340277Y0033785D01*
X0340607Y0033813D01*
X0340938Y0033834D01*
X0341269Y0033846D01*
X0341600Y0033850D01*
X0341931Y0033846D01*
X0342262Y0033834D01*
X0342593Y0033813D01*
X0342923Y0033785D01*
X0343253Y0033748D01*
X0343581Y0033704D01*
X0343908Y0033651D01*
X0344234Y0033591D01*
X0344558Y0033522D01*
X0344880Y0033445D01*
X0345201Y0033361D01*
X0345519Y0033269D01*
X0345835Y0033169D01*
X0346148Y0033061D01*
X0346459Y0032945D01*
X0346766Y0032822D01*
X0347071Y0032692D01*
X0347372Y0032554D01*
X0347670Y0032409D01*
X0347964Y0032256D01*
X0348254Y0032096D01*
X0348540Y0031929D01*
X0348822Y0031756D01*
X0349100Y0031575D01*
X0349373Y0031387D01*
X0349642Y0031193D01*
X0349906Y0030993D01*
X0350164Y0030786D01*
X0350418Y0030572D01*
X0350666Y0030353D01*
X0350909Y0030127D01*
X0351146Y0029896D01*
X0351377Y0029659D01*
X0351603Y0029416D01*
X0351822Y0029168D01*
X0352036Y0028914D01*
X0352243Y0028656D01*
X0352443Y0028392D01*
X0352637Y0028123D01*
X0352825Y0027850D01*
X0353006Y0027572D01*
X0353179Y0027290D01*
X0353346Y0027004D01*
X0353506Y0026714D01*
X0353659Y0026420D01*
X0353804Y0026122D01*
X0353942Y0025821D01*
X0354072Y0025516D01*
X0354195Y0025209D01*
X0354311Y0024898D01*
X0354419Y0024585D01*
X0354519Y0024269D01*
X0354611Y0023951D01*
X0354695Y0023630D01*
X0354772Y0023308D01*
X0354841Y0022984D01*
X0354901Y0022658D01*
X0354954Y0022331D01*
X0354998Y0022003D01*
X0355035Y0021673D01*
X0355063Y0021343D01*
X0355084Y0021012D01*
X0355096Y0020681D01*
X0355100Y0020350D01*
X0355096Y0020019D01*
X0355084Y0019688D01*
X0355063Y0019357D01*
X0355035Y0019027D01*
X0354998Y0018697D01*
X0354954Y0018369D01*
X0354901Y0018042D01*
X0354841Y0017716D01*
X0354772Y0017392D01*
X0354695Y0017070D01*
X0354611Y0016749D01*
X0354519Y0016431D01*
X0354419Y0016115D01*
X0354311Y0015802D01*
X0354195Y0015491D01*
X0354072Y0015184D01*
X0353942Y0014879D01*
X0353804Y0014578D01*
X0353659Y0014280D01*
X0353506Y0013986D01*
X0353346Y0013696D01*
X0353179Y0013410D01*
X0353006Y0013128D01*
X0352825Y0012850D01*
X0352637Y0012577D01*
X0352443Y0012308D01*
X0352243Y0012044D01*
X0352036Y0011786D01*
X0351822Y0011532D01*
X0351603Y0011284D01*
X0351377Y0011041D01*
X0351146Y0010804D01*
X0350909Y0010573D01*
X0350666Y0010347D01*
X0350418Y0010128D01*
X0350164Y0009914D01*
X0349906Y0009707D01*
X0349642Y0009507D01*
X0349373Y0009313D01*
X0349100Y0009125D01*
X0348822Y0008944D01*
X0348540Y0008771D01*
X0348254Y0008604D01*
X0347964Y0008444D01*
X0347670Y0008291D01*
X0347372Y0008146D01*
X0347071Y0008008D01*
X0346766Y0007878D01*
X0346459Y0007755D01*
X0346148Y0007639D01*
X0345835Y0007531D01*
X0345519Y0007431D01*
X0345201Y0007339D01*
X0344880Y0007255D01*
X0344558Y0007178D01*
X0344234Y0007109D01*
X0343908Y0007049D01*
X0343581Y0006996D01*
X0343253Y0006952D01*
X0342923Y0006915D01*
X0342593Y0006887D01*
X0342262Y0006866D01*
X0341931Y0006854D01*
X0341600Y0006850D01*
X0341269Y0006854D01*
X0340938Y0006866D01*
X0340607Y0006887D01*
X0340277Y0006915D01*
X0339947Y0006952D01*
X0339619Y0006996D01*
X0339292Y0007049D01*
X0338966Y0007109D01*
X0338642Y0007178D01*
X0338320Y0007255D01*
X0337999Y0007339D01*
X0337681Y0007431D01*
X0337365Y0007531D01*
X0337052Y0007639D01*
X0336741Y0007755D01*
X0336434Y0007878D01*
X0336129Y0008008D01*
X0335828Y0008146D01*
X0335530Y0008291D01*
X0335236Y0008444D01*
X0334946Y0008604D01*
X0334660Y0008771D01*
X0334378Y0008944D01*
X0334100Y0009125D01*
X0333827Y0009313D01*
X0333558Y0009507D01*
X0333294Y0009707D01*
X0333036Y0009914D01*
X0332782Y0010128D01*
X0332534Y0010347D01*
X0332291Y0010573D01*
X0332054Y0010804D01*
X0331823Y0011041D01*
X0331597Y0011284D01*
X0331378Y0011532D01*
X0331164Y0011786D01*
X0330957Y0012044D01*
X0330757Y0012308D01*
X0330563Y0012577D01*
X0330375Y0012850D01*
X0330194Y0013128D01*
X0330021Y0013410D01*
X0329854Y0013696D01*
X0329694Y0013986D01*
X0329541Y0014280D01*
X0329396Y0014578D01*
X0329258Y0014879D01*
X0329128Y0015184D01*
X0329005Y0015491D01*
X0328889Y0015802D01*
X0328781Y0016115D01*
X0328681Y0016431D01*
X0328589Y0016749D01*
X0328505Y0017070D01*
X0328428Y0017392D01*
X0328359Y0017716D01*
X0328299Y0018042D01*
X0328246Y0018369D01*
X0328202Y0018697D01*
X0328165Y0019027D01*
X0328137Y0019357D01*
X0328116Y0019688D01*
X0328104Y0020019D01*
X0328100Y0020350D01*
X0321300Y0021208D02*
X0319031Y0023477D01*
X0318464Y0023477D01*
X0317897Y0022910D01*
X0317897Y0021775D01*
X0318464Y0021208D01*
X0317897Y0019794D02*
X0317897Y0018659D01*
X0317897Y0019226D02*
X0320733Y0019226D01*
X0321300Y0018659D01*
X0321300Y0018092D01*
X0320733Y0017525D01*
X0321300Y0021208D02*
X0321300Y0023477D01*
X0320050Y0035650D02*
X0316647Y0035650D01*
X0316647Y0037351D01*
X0317214Y0037919D01*
X0318349Y0037919D01*
X0318916Y0037351D01*
X0318916Y0035650D01*
X0313962Y0037919D02*
X0313962Y0040281D01*
X0316647Y0039333D02*
X0320050Y0039333D01*
X0318916Y0040467D01*
X0320050Y0041602D01*
X0316647Y0041602D01*
X0316647Y0043016D02*
X0316647Y0044718D01*
X0317214Y0045285D01*
X0318349Y0045285D01*
X0318916Y0044718D01*
X0318916Y0043016D01*
X0320050Y0043016D02*
X0316647Y0043016D01*
X0318916Y0044151D02*
X0320050Y0045285D01*
X0309238Y0040281D02*
X0309238Y0037919D01*
X0304587Y0037919D02*
X0304587Y0040281D01*
X0299863Y0040281D02*
X0299863Y0037919D01*
X0297550Y0037342D02*
X0294147Y0037342D01*
X0294147Y0036208D02*
X0294147Y0038477D01*
X0295281Y0039891D02*
X0294147Y0041026D01*
X0295281Y0042160D01*
X0297550Y0042160D01*
X0295849Y0042160D02*
X0295849Y0039891D01*
X0295281Y0039891D02*
X0297550Y0039891D01*
X0294147Y0043574D02*
X0294147Y0045843D01*
X0294147Y0044709D02*
X0297550Y0044709D01*
X0296983Y0034794D02*
X0297550Y0034226D01*
X0297550Y0033092D01*
X0296983Y0032525D01*
X0295849Y0033092D02*
X0295849Y0034226D01*
X0296416Y0034794D01*
X0296983Y0034794D01*
X0295849Y0033092D02*
X0295281Y0032525D01*
X0294714Y0032525D01*
X0294147Y0033092D01*
X0294147Y0034226D01*
X0294714Y0034794D01*
X0295733Y0060025D02*
X0296300Y0060592D01*
X0296300Y0061159D01*
X0295733Y0061726D01*
X0292897Y0061726D01*
X0292897Y0061159D02*
X0292897Y0062294D01*
X0294599Y0063708D02*
X0294599Y0065410D01*
X0295166Y0065977D01*
X0295733Y0065977D01*
X0296300Y0065410D01*
X0296300Y0064275D01*
X0295733Y0063708D01*
X0294599Y0063708D01*
X0293464Y0064842D01*
X0292897Y0065977D01*
X0317272Y0065977D02*
X0317272Y0063708D01*
X0318974Y0063708D01*
X0318406Y0064842D01*
X0318406Y0065410D01*
X0318974Y0065977D01*
X0320108Y0065977D01*
X0320675Y0065410D01*
X0320675Y0064275D01*
X0320108Y0063708D01*
X0320108Y0061726D02*
X0317272Y0061726D01*
X0317272Y0061159D02*
X0317272Y0062294D01*
X0320108Y0061726D02*
X0320675Y0061159D01*
X0320675Y0060592D01*
X0320108Y0060025D01*
X0324483Y0078775D02*
X0325050Y0079342D01*
X0325050Y0079909D01*
X0324483Y0080476D01*
X0321647Y0080476D01*
X0321647Y0079909D02*
X0321647Y0081044D01*
X0322214Y0082458D02*
X0321647Y0083025D01*
X0321647Y0084160D01*
X0322214Y0084727D01*
X0322781Y0084727D01*
X0323349Y0084160D01*
X0323916Y0084727D01*
X0324483Y0084727D01*
X0325050Y0084160D01*
X0325050Y0083025D01*
X0324483Y0082458D01*
X0323349Y0083592D02*
X0323349Y0084160D01*
X0313406Y0100488D02*
X0311044Y0100488D01*
X0311044Y0105212D02*
X0313406Y0105212D01*
X0321647Y0107409D02*
X0321647Y0108544D01*
X0321647Y0107976D02*
X0324483Y0107976D01*
X0325050Y0107409D01*
X0325050Y0106842D01*
X0324483Y0106275D01*
X0323349Y0109958D02*
X0323349Y0112227D01*
X0325050Y0111660D02*
X0321647Y0111660D01*
X0323349Y0109958D01*
X0319031Y0114863D02*
X0316669Y0114863D01*
X0316669Y0119587D02*
X0319031Y0119587D01*
X0305025Y0114875D02*
X0305025Y0112075D01*
X0299425Y0111075D02*
X0299425Y0107575D01*
X0301025Y0107575D01*
X0303625Y0107575D01*
X0303024Y0108475D02*
X0302971Y0108517D01*
X0302915Y0108556D01*
X0302857Y0108592D01*
X0302797Y0108624D01*
X0302736Y0108653D01*
X0302673Y0108679D01*
X0302608Y0108701D01*
X0302543Y0108720D01*
X0302476Y0108735D01*
X0302409Y0108746D01*
X0302341Y0108753D01*
X0302273Y0108757D01*
X0302205Y0108756D01*
X0302137Y0108752D01*
X0302069Y0108744D01*
X0302002Y0108733D01*
X0301936Y0108717D01*
X0301870Y0108698D01*
X0301806Y0108676D01*
X0301743Y0108650D01*
X0301682Y0108620D01*
X0301622Y0108587D01*
X0301565Y0108550D01*
X0301509Y0108511D01*
X0301456Y0108468D01*
X0301405Y0108423D01*
X0301357Y0108375D01*
X0301312Y0108324D01*
X0301269Y0108271D01*
X0301230Y0108215D01*
X0301194Y0108158D01*
X0301161Y0108098D01*
X0301131Y0108037D01*
X0301105Y0107974D01*
X0301082Y0107909D01*
X0301063Y0107844D01*
X0301048Y0107778D01*
X0301036Y0107710D01*
X0301029Y0107643D01*
X0301025Y0107575D01*
X0299425Y0115875D02*
X0299425Y0119375D01*
X0303625Y0119375D01*
X0299656Y0126738D02*
X0297294Y0126738D01*
X0297294Y0131462D02*
X0299656Y0131462D01*
X0299925Y0135900D02*
X0299925Y0162300D01*
X0314525Y0162300D01*
X0314525Y0135900D01*
X0299925Y0135900D01*
X0306669Y0165488D02*
X0309031Y0165488D01*
X0309031Y0170212D02*
X0306669Y0170212D01*
X0317897Y0169169D02*
X0317897Y0168034D01*
X0317897Y0168601D02*
X0320733Y0168601D01*
X0321300Y0168034D01*
X0321300Y0167467D01*
X0320733Y0166900D01*
X0321300Y0170583D02*
X0321300Y0172852D01*
X0321300Y0171717D02*
X0317897Y0171717D01*
X0319031Y0170583D01*
X0328100Y0170350D02*
X0328104Y0170681D01*
X0328116Y0171012D01*
X0328137Y0171343D01*
X0328165Y0171673D01*
X0328202Y0172003D01*
X0328246Y0172331D01*
X0328299Y0172658D01*
X0328359Y0172984D01*
X0328428Y0173308D01*
X0328505Y0173630D01*
X0328589Y0173951D01*
X0328681Y0174269D01*
X0328781Y0174585D01*
X0328889Y0174898D01*
X0329005Y0175209D01*
X0329128Y0175516D01*
X0329258Y0175821D01*
X0329396Y0176122D01*
X0329541Y0176420D01*
X0329694Y0176714D01*
X0329854Y0177004D01*
X0330021Y0177290D01*
X0330194Y0177572D01*
X0330375Y0177850D01*
X0330563Y0178123D01*
X0330757Y0178392D01*
X0330957Y0178656D01*
X0331164Y0178914D01*
X0331378Y0179168D01*
X0331597Y0179416D01*
X0331823Y0179659D01*
X0332054Y0179896D01*
X0332291Y0180127D01*
X0332534Y0180353D01*
X0332782Y0180572D01*
X0333036Y0180786D01*
X0333294Y0180993D01*
X0333558Y0181193D01*
X0333827Y0181387D01*
X0334100Y0181575D01*
X0334378Y0181756D01*
X0334660Y0181929D01*
X0334946Y0182096D01*
X0335236Y0182256D01*
X0335530Y0182409D01*
X0335828Y0182554D01*
X0336129Y0182692D01*
X0336434Y0182822D01*
X0336741Y0182945D01*
X0337052Y0183061D01*
X0337365Y0183169D01*
X0337681Y0183269D01*
X0337999Y0183361D01*
X0338320Y0183445D01*
X0338642Y0183522D01*
X0338966Y0183591D01*
X0339292Y0183651D01*
X0339619Y0183704D01*
X0339947Y0183748D01*
X0340277Y0183785D01*
X0340607Y0183813D01*
X0340938Y0183834D01*
X0341269Y0183846D01*
X0341600Y0183850D01*
X0341931Y0183846D01*
X0342262Y0183834D01*
X0342593Y0183813D01*
X0342923Y0183785D01*
X0343253Y0183748D01*
X0343581Y0183704D01*
X0343908Y0183651D01*
X0344234Y0183591D01*
X0344558Y0183522D01*
X0344880Y0183445D01*
X0345201Y0183361D01*
X0345519Y0183269D01*
X0345835Y0183169D01*
X0346148Y0183061D01*
X0346459Y0182945D01*
X0346766Y0182822D01*
X0347071Y0182692D01*
X0347372Y0182554D01*
X0347670Y0182409D01*
X0347964Y0182256D01*
X0348254Y0182096D01*
X0348540Y0181929D01*
X0348822Y0181756D01*
X0349100Y0181575D01*
X0349373Y0181387D01*
X0349642Y0181193D01*
X0349906Y0180993D01*
X0350164Y0180786D01*
X0350418Y0180572D01*
X0350666Y0180353D01*
X0350909Y0180127D01*
X0351146Y0179896D01*
X0351377Y0179659D01*
X0351603Y0179416D01*
X0351822Y0179168D01*
X0352036Y0178914D01*
X0352243Y0178656D01*
X0352443Y0178392D01*
X0352637Y0178123D01*
X0352825Y0177850D01*
X0353006Y0177572D01*
X0353179Y0177290D01*
X0353346Y0177004D01*
X0353506Y0176714D01*
X0353659Y0176420D01*
X0353804Y0176122D01*
X0353942Y0175821D01*
X0354072Y0175516D01*
X0354195Y0175209D01*
X0354311Y0174898D01*
X0354419Y0174585D01*
X0354519Y0174269D01*
X0354611Y0173951D01*
X0354695Y0173630D01*
X0354772Y0173308D01*
X0354841Y0172984D01*
X0354901Y0172658D01*
X0354954Y0172331D01*
X0354998Y0172003D01*
X0355035Y0171673D01*
X0355063Y0171343D01*
X0355084Y0171012D01*
X0355096Y0170681D01*
X0355100Y0170350D01*
X0355096Y0170019D01*
X0355084Y0169688D01*
X0355063Y0169357D01*
X0355035Y0169027D01*
X0354998Y0168697D01*
X0354954Y0168369D01*
X0354901Y0168042D01*
X0354841Y0167716D01*
X0354772Y0167392D01*
X0354695Y0167070D01*
X0354611Y0166749D01*
X0354519Y0166431D01*
X0354419Y0166115D01*
X0354311Y0165802D01*
X0354195Y0165491D01*
X0354072Y0165184D01*
X0353942Y0164879D01*
X0353804Y0164578D01*
X0353659Y0164280D01*
X0353506Y0163986D01*
X0353346Y0163696D01*
X0353179Y0163410D01*
X0353006Y0163128D01*
X0352825Y0162850D01*
X0352637Y0162577D01*
X0352443Y0162308D01*
X0352243Y0162044D01*
X0352036Y0161786D01*
X0351822Y0161532D01*
X0351603Y0161284D01*
X0351377Y0161041D01*
X0351146Y0160804D01*
X0350909Y0160573D01*
X0350666Y0160347D01*
X0350418Y0160128D01*
X0350164Y0159914D01*
X0349906Y0159707D01*
X0349642Y0159507D01*
X0349373Y0159313D01*
X0349100Y0159125D01*
X0348822Y0158944D01*
X0348540Y0158771D01*
X0348254Y0158604D01*
X0347964Y0158444D01*
X0347670Y0158291D01*
X0347372Y0158146D01*
X0347071Y0158008D01*
X0346766Y0157878D01*
X0346459Y0157755D01*
X0346148Y0157639D01*
X0345835Y0157531D01*
X0345519Y0157431D01*
X0345201Y0157339D01*
X0344880Y0157255D01*
X0344558Y0157178D01*
X0344234Y0157109D01*
X0343908Y0157049D01*
X0343581Y0156996D01*
X0343253Y0156952D01*
X0342923Y0156915D01*
X0342593Y0156887D01*
X0342262Y0156866D01*
X0341931Y0156854D01*
X0341600Y0156850D01*
X0341269Y0156854D01*
X0340938Y0156866D01*
X0340607Y0156887D01*
X0340277Y0156915D01*
X0339947Y0156952D01*
X0339619Y0156996D01*
X0339292Y0157049D01*
X0338966Y0157109D01*
X0338642Y0157178D01*
X0338320Y0157255D01*
X0337999Y0157339D01*
X0337681Y0157431D01*
X0337365Y0157531D01*
X0337052Y0157639D01*
X0336741Y0157755D01*
X0336434Y0157878D01*
X0336129Y0158008D01*
X0335828Y0158146D01*
X0335530Y0158291D01*
X0335236Y0158444D01*
X0334946Y0158604D01*
X0334660Y0158771D01*
X0334378Y0158944D01*
X0334100Y0159125D01*
X0333827Y0159313D01*
X0333558Y0159507D01*
X0333294Y0159707D01*
X0333036Y0159914D01*
X0332782Y0160128D01*
X0332534Y0160347D01*
X0332291Y0160573D01*
X0332054Y0160804D01*
X0331823Y0161041D01*
X0331597Y0161284D01*
X0331378Y0161532D01*
X0331164Y0161786D01*
X0330957Y0162044D01*
X0330757Y0162308D01*
X0330563Y0162577D01*
X0330375Y0162850D01*
X0330194Y0163128D01*
X0330021Y0163410D01*
X0329854Y0163696D01*
X0329694Y0163986D01*
X0329541Y0164280D01*
X0329396Y0164578D01*
X0329258Y0164879D01*
X0329128Y0165184D01*
X0329005Y0165491D01*
X0328889Y0165802D01*
X0328781Y0166115D01*
X0328681Y0166431D01*
X0328589Y0166749D01*
X0328505Y0167070D01*
X0328428Y0167392D01*
X0328359Y0167716D01*
X0328299Y0168042D01*
X0328246Y0168369D01*
X0328202Y0168697D01*
X0328165Y0169027D01*
X0328137Y0169357D01*
X0328116Y0169688D01*
X0328104Y0170019D01*
X0328100Y0170350D01*
X0190600Y0170350D02*
X0190604Y0170681D01*
X0190616Y0171012D01*
X0190637Y0171343D01*
X0190665Y0171673D01*
X0190702Y0172003D01*
X0190746Y0172331D01*
X0190799Y0172658D01*
X0190859Y0172984D01*
X0190928Y0173308D01*
X0191005Y0173630D01*
X0191089Y0173951D01*
X0191181Y0174269D01*
X0191281Y0174585D01*
X0191389Y0174898D01*
X0191505Y0175209D01*
X0191628Y0175516D01*
X0191758Y0175821D01*
X0191896Y0176122D01*
X0192041Y0176420D01*
X0192194Y0176714D01*
X0192354Y0177004D01*
X0192521Y0177290D01*
X0192694Y0177572D01*
X0192875Y0177850D01*
X0193063Y0178123D01*
X0193257Y0178392D01*
X0193457Y0178656D01*
X0193664Y0178914D01*
X0193878Y0179168D01*
X0194097Y0179416D01*
X0194323Y0179659D01*
X0194554Y0179896D01*
X0194791Y0180127D01*
X0195034Y0180353D01*
X0195282Y0180572D01*
X0195536Y0180786D01*
X0195794Y0180993D01*
X0196058Y0181193D01*
X0196327Y0181387D01*
X0196600Y0181575D01*
X0196878Y0181756D01*
X0197160Y0181929D01*
X0197446Y0182096D01*
X0197736Y0182256D01*
X0198030Y0182409D01*
X0198328Y0182554D01*
X0198629Y0182692D01*
X0198934Y0182822D01*
X0199241Y0182945D01*
X0199552Y0183061D01*
X0199865Y0183169D01*
X0200181Y0183269D01*
X0200499Y0183361D01*
X0200820Y0183445D01*
X0201142Y0183522D01*
X0201466Y0183591D01*
X0201792Y0183651D01*
X0202119Y0183704D01*
X0202447Y0183748D01*
X0202777Y0183785D01*
X0203107Y0183813D01*
X0203438Y0183834D01*
X0203769Y0183846D01*
X0204100Y0183850D01*
X0204431Y0183846D01*
X0204762Y0183834D01*
X0205093Y0183813D01*
X0205423Y0183785D01*
X0205753Y0183748D01*
X0206081Y0183704D01*
X0206408Y0183651D01*
X0206734Y0183591D01*
X0207058Y0183522D01*
X0207380Y0183445D01*
X0207701Y0183361D01*
X0208019Y0183269D01*
X0208335Y0183169D01*
X0208648Y0183061D01*
X0208959Y0182945D01*
X0209266Y0182822D01*
X0209571Y0182692D01*
X0209872Y0182554D01*
X0210170Y0182409D01*
X0210464Y0182256D01*
X0210754Y0182096D01*
X0211040Y0181929D01*
X0211322Y0181756D01*
X0211600Y0181575D01*
X0211873Y0181387D01*
X0212142Y0181193D01*
X0212406Y0180993D01*
X0212664Y0180786D01*
X0212918Y0180572D01*
X0213166Y0180353D01*
X0213409Y0180127D01*
X0213646Y0179896D01*
X0213877Y0179659D01*
X0214103Y0179416D01*
X0214322Y0179168D01*
X0214536Y0178914D01*
X0214743Y0178656D01*
X0214943Y0178392D01*
X0215137Y0178123D01*
X0215325Y0177850D01*
X0215506Y0177572D01*
X0215679Y0177290D01*
X0215846Y0177004D01*
X0216006Y0176714D01*
X0216159Y0176420D01*
X0216304Y0176122D01*
X0216442Y0175821D01*
X0216572Y0175516D01*
X0216695Y0175209D01*
X0216811Y0174898D01*
X0216919Y0174585D01*
X0217019Y0174269D01*
X0217111Y0173951D01*
X0217195Y0173630D01*
X0217272Y0173308D01*
X0217341Y0172984D01*
X0217401Y0172658D01*
X0217454Y0172331D01*
X0217498Y0172003D01*
X0217535Y0171673D01*
X0217563Y0171343D01*
X0217584Y0171012D01*
X0217596Y0170681D01*
X0217600Y0170350D01*
X0217596Y0170019D01*
X0217584Y0169688D01*
X0217563Y0169357D01*
X0217535Y0169027D01*
X0217498Y0168697D01*
X0217454Y0168369D01*
X0217401Y0168042D01*
X0217341Y0167716D01*
X0217272Y0167392D01*
X0217195Y0167070D01*
X0217111Y0166749D01*
X0217019Y0166431D01*
X0216919Y0166115D01*
X0216811Y0165802D01*
X0216695Y0165491D01*
X0216572Y0165184D01*
X0216442Y0164879D01*
X0216304Y0164578D01*
X0216159Y0164280D01*
X0216006Y0163986D01*
X0215846Y0163696D01*
X0215679Y0163410D01*
X0215506Y0163128D01*
X0215325Y0162850D01*
X0215137Y0162577D01*
X0214943Y0162308D01*
X0214743Y0162044D01*
X0214536Y0161786D01*
X0214322Y0161532D01*
X0214103Y0161284D01*
X0213877Y0161041D01*
X0213646Y0160804D01*
X0213409Y0160573D01*
X0213166Y0160347D01*
X0212918Y0160128D01*
X0212664Y0159914D01*
X0212406Y0159707D01*
X0212142Y0159507D01*
X0211873Y0159313D01*
X0211600Y0159125D01*
X0211322Y0158944D01*
X0211040Y0158771D01*
X0210754Y0158604D01*
X0210464Y0158444D01*
X0210170Y0158291D01*
X0209872Y0158146D01*
X0209571Y0158008D01*
X0209266Y0157878D01*
X0208959Y0157755D01*
X0208648Y0157639D01*
X0208335Y0157531D01*
X0208019Y0157431D01*
X0207701Y0157339D01*
X0207380Y0157255D01*
X0207058Y0157178D01*
X0206734Y0157109D01*
X0206408Y0157049D01*
X0206081Y0156996D01*
X0205753Y0156952D01*
X0205423Y0156915D01*
X0205093Y0156887D01*
X0204762Y0156866D01*
X0204431Y0156854D01*
X0204100Y0156850D01*
X0203769Y0156854D01*
X0203438Y0156866D01*
X0203107Y0156887D01*
X0202777Y0156915D01*
X0202447Y0156952D01*
X0202119Y0156996D01*
X0201792Y0157049D01*
X0201466Y0157109D01*
X0201142Y0157178D01*
X0200820Y0157255D01*
X0200499Y0157339D01*
X0200181Y0157431D01*
X0199865Y0157531D01*
X0199552Y0157639D01*
X0199241Y0157755D01*
X0198934Y0157878D01*
X0198629Y0158008D01*
X0198328Y0158146D01*
X0198030Y0158291D01*
X0197736Y0158444D01*
X0197446Y0158604D01*
X0197160Y0158771D01*
X0196878Y0158944D01*
X0196600Y0159125D01*
X0196327Y0159313D01*
X0196058Y0159507D01*
X0195794Y0159707D01*
X0195536Y0159914D01*
X0195282Y0160128D01*
X0195034Y0160347D01*
X0194791Y0160573D01*
X0194554Y0160804D01*
X0194323Y0161041D01*
X0194097Y0161284D01*
X0193878Y0161532D01*
X0193664Y0161786D01*
X0193457Y0162044D01*
X0193257Y0162308D01*
X0193063Y0162577D01*
X0192875Y0162850D01*
X0192694Y0163128D01*
X0192521Y0163410D01*
X0192354Y0163696D01*
X0192194Y0163986D01*
X0192041Y0164280D01*
X0191896Y0164578D01*
X0191758Y0164879D01*
X0191628Y0165184D01*
X0191505Y0165491D01*
X0191389Y0165802D01*
X0191281Y0166115D01*
X0191181Y0166431D01*
X0191089Y0166749D01*
X0191005Y0167070D01*
X0190928Y0167392D01*
X0190859Y0167716D01*
X0190799Y0168042D01*
X0190746Y0168369D01*
X0190702Y0168697D01*
X0190665Y0169027D01*
X0190637Y0169357D01*
X0190616Y0169688D01*
X0190604Y0170019D01*
X0190600Y0170350D01*
X0144350Y0170350D02*
X0144354Y0170681D01*
X0144366Y0171012D01*
X0144387Y0171343D01*
X0144415Y0171673D01*
X0144452Y0172003D01*
X0144496Y0172331D01*
X0144549Y0172658D01*
X0144609Y0172984D01*
X0144678Y0173308D01*
X0144755Y0173630D01*
X0144839Y0173951D01*
X0144931Y0174269D01*
X0145031Y0174585D01*
X0145139Y0174898D01*
X0145255Y0175209D01*
X0145378Y0175516D01*
X0145508Y0175821D01*
X0145646Y0176122D01*
X0145791Y0176420D01*
X0145944Y0176714D01*
X0146104Y0177004D01*
X0146271Y0177290D01*
X0146444Y0177572D01*
X0146625Y0177850D01*
X0146813Y0178123D01*
X0147007Y0178392D01*
X0147207Y0178656D01*
X0147414Y0178914D01*
X0147628Y0179168D01*
X0147847Y0179416D01*
X0148073Y0179659D01*
X0148304Y0179896D01*
X0148541Y0180127D01*
X0148784Y0180353D01*
X0149032Y0180572D01*
X0149286Y0180786D01*
X0149544Y0180993D01*
X0149808Y0181193D01*
X0150077Y0181387D01*
X0150350Y0181575D01*
X0150628Y0181756D01*
X0150910Y0181929D01*
X0151196Y0182096D01*
X0151486Y0182256D01*
X0151780Y0182409D01*
X0152078Y0182554D01*
X0152379Y0182692D01*
X0152684Y0182822D01*
X0152991Y0182945D01*
X0153302Y0183061D01*
X0153615Y0183169D01*
X0153931Y0183269D01*
X0154249Y0183361D01*
X0154570Y0183445D01*
X0154892Y0183522D01*
X0155216Y0183591D01*
X0155542Y0183651D01*
X0155869Y0183704D01*
X0156197Y0183748D01*
X0156527Y0183785D01*
X0156857Y0183813D01*
X0157188Y0183834D01*
X0157519Y0183846D01*
X0157850Y0183850D01*
X0158181Y0183846D01*
X0158512Y0183834D01*
X0158843Y0183813D01*
X0159173Y0183785D01*
X0159503Y0183748D01*
X0159831Y0183704D01*
X0160158Y0183651D01*
X0160484Y0183591D01*
X0160808Y0183522D01*
X0161130Y0183445D01*
X0161451Y0183361D01*
X0161769Y0183269D01*
X0162085Y0183169D01*
X0162398Y0183061D01*
X0162709Y0182945D01*
X0163016Y0182822D01*
X0163321Y0182692D01*
X0163622Y0182554D01*
X0163920Y0182409D01*
X0164214Y0182256D01*
X0164504Y0182096D01*
X0164790Y0181929D01*
X0165072Y0181756D01*
X0165350Y0181575D01*
X0165623Y0181387D01*
X0165892Y0181193D01*
X0166156Y0180993D01*
X0166414Y0180786D01*
X0166668Y0180572D01*
X0166916Y0180353D01*
X0167159Y0180127D01*
X0167396Y0179896D01*
X0167627Y0179659D01*
X0167853Y0179416D01*
X0168072Y0179168D01*
X0168286Y0178914D01*
X0168493Y0178656D01*
X0168693Y0178392D01*
X0168887Y0178123D01*
X0169075Y0177850D01*
X0169256Y0177572D01*
X0169429Y0177290D01*
X0169596Y0177004D01*
X0169756Y0176714D01*
X0169909Y0176420D01*
X0170054Y0176122D01*
X0170192Y0175821D01*
X0170322Y0175516D01*
X0170445Y0175209D01*
X0170561Y0174898D01*
X0170669Y0174585D01*
X0170769Y0174269D01*
X0170861Y0173951D01*
X0170945Y0173630D01*
X0171022Y0173308D01*
X0171091Y0172984D01*
X0171151Y0172658D01*
X0171204Y0172331D01*
X0171248Y0172003D01*
X0171285Y0171673D01*
X0171313Y0171343D01*
X0171334Y0171012D01*
X0171346Y0170681D01*
X0171350Y0170350D01*
X0171346Y0170019D01*
X0171334Y0169688D01*
X0171313Y0169357D01*
X0171285Y0169027D01*
X0171248Y0168697D01*
X0171204Y0168369D01*
X0171151Y0168042D01*
X0171091Y0167716D01*
X0171022Y0167392D01*
X0170945Y0167070D01*
X0170861Y0166749D01*
X0170769Y0166431D01*
X0170669Y0166115D01*
X0170561Y0165802D01*
X0170445Y0165491D01*
X0170322Y0165184D01*
X0170192Y0164879D01*
X0170054Y0164578D01*
X0169909Y0164280D01*
X0169756Y0163986D01*
X0169596Y0163696D01*
X0169429Y0163410D01*
X0169256Y0163128D01*
X0169075Y0162850D01*
X0168887Y0162577D01*
X0168693Y0162308D01*
X0168493Y0162044D01*
X0168286Y0161786D01*
X0168072Y0161532D01*
X0167853Y0161284D01*
X0167627Y0161041D01*
X0167396Y0160804D01*
X0167159Y0160573D01*
X0166916Y0160347D01*
X0166668Y0160128D01*
X0166414Y0159914D01*
X0166156Y0159707D01*
X0165892Y0159507D01*
X0165623Y0159313D01*
X0165350Y0159125D01*
X0165072Y0158944D01*
X0164790Y0158771D01*
X0164504Y0158604D01*
X0164214Y0158444D01*
X0163920Y0158291D01*
X0163622Y0158146D01*
X0163321Y0158008D01*
X0163016Y0157878D01*
X0162709Y0157755D01*
X0162398Y0157639D01*
X0162085Y0157531D01*
X0161769Y0157431D01*
X0161451Y0157339D01*
X0161130Y0157255D01*
X0160808Y0157178D01*
X0160484Y0157109D01*
X0160158Y0157049D01*
X0159831Y0156996D01*
X0159503Y0156952D01*
X0159173Y0156915D01*
X0158843Y0156887D01*
X0158512Y0156866D01*
X0158181Y0156854D01*
X0157850Y0156850D01*
X0157519Y0156854D01*
X0157188Y0156866D01*
X0156857Y0156887D01*
X0156527Y0156915D01*
X0156197Y0156952D01*
X0155869Y0156996D01*
X0155542Y0157049D01*
X0155216Y0157109D01*
X0154892Y0157178D01*
X0154570Y0157255D01*
X0154249Y0157339D01*
X0153931Y0157431D01*
X0153615Y0157531D01*
X0153302Y0157639D01*
X0152991Y0157755D01*
X0152684Y0157878D01*
X0152379Y0158008D01*
X0152078Y0158146D01*
X0151780Y0158291D01*
X0151486Y0158444D01*
X0151196Y0158604D01*
X0150910Y0158771D01*
X0150628Y0158944D01*
X0150350Y0159125D01*
X0150077Y0159313D01*
X0149808Y0159507D01*
X0149544Y0159707D01*
X0149286Y0159914D01*
X0149032Y0160128D01*
X0148784Y0160347D01*
X0148541Y0160573D01*
X0148304Y0160804D01*
X0148073Y0161041D01*
X0147847Y0161284D01*
X0147628Y0161532D01*
X0147414Y0161786D01*
X0147207Y0162044D01*
X0147007Y0162308D01*
X0146813Y0162577D01*
X0146625Y0162850D01*
X0146444Y0163128D01*
X0146271Y0163410D01*
X0146104Y0163696D01*
X0145944Y0163986D01*
X0145791Y0164280D01*
X0145646Y0164578D01*
X0145508Y0164879D01*
X0145378Y0165184D01*
X0145255Y0165491D01*
X0145139Y0165802D01*
X0145031Y0166115D01*
X0144931Y0166431D01*
X0144839Y0166749D01*
X0144755Y0167070D01*
X0144678Y0167392D01*
X0144609Y0167716D01*
X0144549Y0168042D01*
X0144496Y0168369D01*
X0144452Y0168697D01*
X0144415Y0169027D01*
X0144387Y0169357D01*
X0144366Y0169688D01*
X0144354Y0170019D01*
X0144350Y0170350D01*
X0006850Y0170350D02*
X0006854Y0170681D01*
X0006866Y0171012D01*
X0006887Y0171343D01*
X0006915Y0171673D01*
X0006952Y0172003D01*
X0006996Y0172331D01*
X0007049Y0172658D01*
X0007109Y0172984D01*
X0007178Y0173308D01*
X0007255Y0173630D01*
X0007339Y0173951D01*
X0007431Y0174269D01*
X0007531Y0174585D01*
X0007639Y0174898D01*
X0007755Y0175209D01*
X0007878Y0175516D01*
X0008008Y0175821D01*
X0008146Y0176122D01*
X0008291Y0176420D01*
X0008444Y0176714D01*
X0008604Y0177004D01*
X0008771Y0177290D01*
X0008944Y0177572D01*
X0009125Y0177850D01*
X0009313Y0178123D01*
X0009507Y0178392D01*
X0009707Y0178656D01*
X0009914Y0178914D01*
X0010128Y0179168D01*
X0010347Y0179416D01*
X0010573Y0179659D01*
X0010804Y0179896D01*
X0011041Y0180127D01*
X0011284Y0180353D01*
X0011532Y0180572D01*
X0011786Y0180786D01*
X0012044Y0180993D01*
X0012308Y0181193D01*
X0012577Y0181387D01*
X0012850Y0181575D01*
X0013128Y0181756D01*
X0013410Y0181929D01*
X0013696Y0182096D01*
X0013986Y0182256D01*
X0014280Y0182409D01*
X0014578Y0182554D01*
X0014879Y0182692D01*
X0015184Y0182822D01*
X0015491Y0182945D01*
X0015802Y0183061D01*
X0016115Y0183169D01*
X0016431Y0183269D01*
X0016749Y0183361D01*
X0017070Y0183445D01*
X0017392Y0183522D01*
X0017716Y0183591D01*
X0018042Y0183651D01*
X0018369Y0183704D01*
X0018697Y0183748D01*
X0019027Y0183785D01*
X0019357Y0183813D01*
X0019688Y0183834D01*
X0020019Y0183846D01*
X0020350Y0183850D01*
X0020681Y0183846D01*
X0021012Y0183834D01*
X0021343Y0183813D01*
X0021673Y0183785D01*
X0022003Y0183748D01*
X0022331Y0183704D01*
X0022658Y0183651D01*
X0022984Y0183591D01*
X0023308Y0183522D01*
X0023630Y0183445D01*
X0023951Y0183361D01*
X0024269Y0183269D01*
X0024585Y0183169D01*
X0024898Y0183061D01*
X0025209Y0182945D01*
X0025516Y0182822D01*
X0025821Y0182692D01*
X0026122Y0182554D01*
X0026420Y0182409D01*
X0026714Y0182256D01*
X0027004Y0182096D01*
X0027290Y0181929D01*
X0027572Y0181756D01*
X0027850Y0181575D01*
X0028123Y0181387D01*
X0028392Y0181193D01*
X0028656Y0180993D01*
X0028914Y0180786D01*
X0029168Y0180572D01*
X0029416Y0180353D01*
X0029659Y0180127D01*
X0029896Y0179896D01*
X0030127Y0179659D01*
X0030353Y0179416D01*
X0030572Y0179168D01*
X0030786Y0178914D01*
X0030993Y0178656D01*
X0031193Y0178392D01*
X0031387Y0178123D01*
X0031575Y0177850D01*
X0031756Y0177572D01*
X0031929Y0177290D01*
X0032096Y0177004D01*
X0032256Y0176714D01*
X0032409Y0176420D01*
X0032554Y0176122D01*
X0032692Y0175821D01*
X0032822Y0175516D01*
X0032945Y0175209D01*
X0033061Y0174898D01*
X0033169Y0174585D01*
X0033269Y0174269D01*
X0033361Y0173951D01*
X0033445Y0173630D01*
X0033522Y0173308D01*
X0033591Y0172984D01*
X0033651Y0172658D01*
X0033704Y0172331D01*
X0033748Y0172003D01*
X0033785Y0171673D01*
X0033813Y0171343D01*
X0033834Y0171012D01*
X0033846Y0170681D01*
X0033850Y0170350D01*
X0033846Y0170019D01*
X0033834Y0169688D01*
X0033813Y0169357D01*
X0033785Y0169027D01*
X0033748Y0168697D01*
X0033704Y0168369D01*
X0033651Y0168042D01*
X0033591Y0167716D01*
X0033522Y0167392D01*
X0033445Y0167070D01*
X0033361Y0166749D01*
X0033269Y0166431D01*
X0033169Y0166115D01*
X0033061Y0165802D01*
X0032945Y0165491D01*
X0032822Y0165184D01*
X0032692Y0164879D01*
X0032554Y0164578D01*
X0032409Y0164280D01*
X0032256Y0163986D01*
X0032096Y0163696D01*
X0031929Y0163410D01*
X0031756Y0163128D01*
X0031575Y0162850D01*
X0031387Y0162577D01*
X0031193Y0162308D01*
X0030993Y0162044D01*
X0030786Y0161786D01*
X0030572Y0161532D01*
X0030353Y0161284D01*
X0030127Y0161041D01*
X0029896Y0160804D01*
X0029659Y0160573D01*
X0029416Y0160347D01*
X0029168Y0160128D01*
X0028914Y0159914D01*
X0028656Y0159707D01*
X0028392Y0159507D01*
X0028123Y0159313D01*
X0027850Y0159125D01*
X0027572Y0158944D01*
X0027290Y0158771D01*
X0027004Y0158604D01*
X0026714Y0158444D01*
X0026420Y0158291D01*
X0026122Y0158146D01*
X0025821Y0158008D01*
X0025516Y0157878D01*
X0025209Y0157755D01*
X0024898Y0157639D01*
X0024585Y0157531D01*
X0024269Y0157431D01*
X0023951Y0157339D01*
X0023630Y0157255D01*
X0023308Y0157178D01*
X0022984Y0157109D01*
X0022658Y0157049D01*
X0022331Y0156996D01*
X0022003Y0156952D01*
X0021673Y0156915D01*
X0021343Y0156887D01*
X0021012Y0156866D01*
X0020681Y0156854D01*
X0020350Y0156850D01*
X0020019Y0156854D01*
X0019688Y0156866D01*
X0019357Y0156887D01*
X0019027Y0156915D01*
X0018697Y0156952D01*
X0018369Y0156996D01*
X0018042Y0157049D01*
X0017716Y0157109D01*
X0017392Y0157178D01*
X0017070Y0157255D01*
X0016749Y0157339D01*
X0016431Y0157431D01*
X0016115Y0157531D01*
X0015802Y0157639D01*
X0015491Y0157755D01*
X0015184Y0157878D01*
X0014879Y0158008D01*
X0014578Y0158146D01*
X0014280Y0158291D01*
X0013986Y0158444D01*
X0013696Y0158604D01*
X0013410Y0158771D01*
X0013128Y0158944D01*
X0012850Y0159125D01*
X0012577Y0159313D01*
X0012308Y0159507D01*
X0012044Y0159707D01*
X0011786Y0159914D01*
X0011532Y0160128D01*
X0011284Y0160347D01*
X0011041Y0160573D01*
X0010804Y0160804D01*
X0010573Y0161041D01*
X0010347Y0161284D01*
X0010128Y0161532D01*
X0009914Y0161786D01*
X0009707Y0162044D01*
X0009507Y0162308D01*
X0009313Y0162577D01*
X0009125Y0162850D01*
X0008944Y0163128D01*
X0008771Y0163410D01*
X0008604Y0163696D01*
X0008444Y0163986D01*
X0008291Y0164280D01*
X0008146Y0164578D01*
X0008008Y0164879D01*
X0007878Y0165184D01*
X0007755Y0165491D01*
X0007639Y0165802D01*
X0007531Y0166115D01*
X0007431Y0166431D01*
X0007339Y0166749D01*
X0007255Y0167070D01*
X0007178Y0167392D01*
X0007109Y0167716D01*
X0007049Y0168042D01*
X0006996Y0168369D01*
X0006952Y0168697D01*
X0006915Y0169027D01*
X0006887Y0169357D01*
X0006866Y0169688D01*
X0006854Y0170019D01*
X0006850Y0170350D01*
X0260391Y0104337D02*
X0260391Y0086363D01*
X0285309Y0086363D01*
X0285309Y0104337D01*
X0260391Y0104337D01*
X0280009Y0100150D02*
X0280011Y0100234D01*
X0280017Y0100319D01*
X0280027Y0100402D01*
X0280041Y0100486D01*
X0280058Y0100568D01*
X0280080Y0100650D01*
X0280105Y0100730D01*
X0280134Y0100809D01*
X0280167Y0100887D01*
X0280203Y0100963D01*
X0280243Y0101038D01*
X0280287Y0101110D01*
X0280333Y0101181D01*
X0280383Y0101249D01*
X0280436Y0101314D01*
X0280492Y0101377D01*
X0280551Y0101438D01*
X0280613Y0101495D01*
X0280677Y0101550D01*
X0280744Y0101601D01*
X0280813Y0101650D01*
X0280885Y0101695D01*
X0280958Y0101736D01*
X0281033Y0101774D01*
X0281110Y0101809D01*
X0281189Y0101840D01*
X0281269Y0101867D01*
X0281350Y0101890D01*
X0281432Y0101910D01*
X0281515Y0101926D01*
X0281598Y0101938D01*
X0281683Y0101946D01*
X0281767Y0101950D01*
X0281851Y0101950D01*
X0281935Y0101946D01*
X0282020Y0101938D01*
X0282103Y0101926D01*
X0282186Y0101910D01*
X0282268Y0101890D01*
X0282349Y0101867D01*
X0282429Y0101840D01*
X0282508Y0101809D01*
X0282585Y0101774D01*
X0282660Y0101736D01*
X0282733Y0101695D01*
X0282805Y0101650D01*
X0282874Y0101601D01*
X0282941Y0101550D01*
X0283005Y0101495D01*
X0283067Y0101438D01*
X0283126Y0101377D01*
X0283182Y0101314D01*
X0283235Y0101249D01*
X0283285Y0101181D01*
X0283331Y0101110D01*
X0283375Y0101038D01*
X0283415Y0100963D01*
X0283451Y0100887D01*
X0283484Y0100809D01*
X0283513Y0100730D01*
X0283538Y0100650D01*
X0283560Y0100568D01*
X0283577Y0100486D01*
X0283591Y0100402D01*
X0283601Y0100319D01*
X0283607Y0100234D01*
X0283609Y0100150D01*
X0283607Y0100066D01*
X0283601Y0099981D01*
X0283591Y0099898D01*
X0283577Y0099814D01*
X0283560Y0099732D01*
X0283538Y0099650D01*
X0283513Y0099570D01*
X0283484Y0099491D01*
X0283451Y0099413D01*
X0283415Y0099337D01*
X0283375Y0099262D01*
X0283331Y0099190D01*
X0283285Y0099119D01*
X0283235Y0099051D01*
X0283182Y0098986D01*
X0283126Y0098923D01*
X0283067Y0098862D01*
X0283005Y0098805D01*
X0282941Y0098750D01*
X0282874Y0098699D01*
X0282805Y0098650D01*
X0282733Y0098605D01*
X0282660Y0098564D01*
X0282585Y0098526D01*
X0282508Y0098491D01*
X0282429Y0098460D01*
X0282349Y0098433D01*
X0282268Y0098410D01*
X0282186Y0098390D01*
X0282103Y0098374D01*
X0282020Y0098362D01*
X0281935Y0098354D01*
X0281851Y0098350D01*
X0281767Y0098350D01*
X0281683Y0098354D01*
X0281598Y0098362D01*
X0281515Y0098374D01*
X0281432Y0098390D01*
X0281350Y0098410D01*
X0281269Y0098433D01*
X0281189Y0098460D01*
X0281110Y0098491D01*
X0281033Y0098526D01*
X0280958Y0098564D01*
X0280885Y0098605D01*
X0280813Y0098650D01*
X0280744Y0098699D01*
X0280677Y0098750D01*
X0280613Y0098805D01*
X0280551Y0098862D01*
X0280492Y0098923D01*
X0280436Y0098986D01*
X0280383Y0099051D01*
X0280333Y0099119D01*
X0280287Y0099190D01*
X0280243Y0099262D01*
X0280203Y0099337D01*
X0280167Y0099413D01*
X0280134Y0099491D01*
X0280105Y0099570D01*
X0280080Y0099650D01*
X0280058Y0099732D01*
X0280041Y0099814D01*
X0280027Y0099898D01*
X0280017Y0099981D01*
X0280011Y0100066D01*
X0280009Y0100150D01*
X0190600Y0020350D02*
X0190604Y0020681D01*
X0190616Y0021012D01*
X0190637Y0021343D01*
X0190665Y0021673D01*
X0190702Y0022003D01*
X0190746Y0022331D01*
X0190799Y0022658D01*
X0190859Y0022984D01*
X0190928Y0023308D01*
X0191005Y0023630D01*
X0191089Y0023951D01*
X0191181Y0024269D01*
X0191281Y0024585D01*
X0191389Y0024898D01*
X0191505Y0025209D01*
X0191628Y0025516D01*
X0191758Y0025821D01*
X0191896Y0026122D01*
X0192041Y0026420D01*
X0192194Y0026714D01*
X0192354Y0027004D01*
X0192521Y0027290D01*
X0192694Y0027572D01*
X0192875Y0027850D01*
X0193063Y0028123D01*
X0193257Y0028392D01*
X0193457Y0028656D01*
X0193664Y0028914D01*
X0193878Y0029168D01*
X0194097Y0029416D01*
X0194323Y0029659D01*
X0194554Y0029896D01*
X0194791Y0030127D01*
X0195034Y0030353D01*
X0195282Y0030572D01*
X0195536Y0030786D01*
X0195794Y0030993D01*
X0196058Y0031193D01*
X0196327Y0031387D01*
X0196600Y0031575D01*
X0196878Y0031756D01*
X0197160Y0031929D01*
X0197446Y0032096D01*
X0197736Y0032256D01*
X0198030Y0032409D01*
X0198328Y0032554D01*
X0198629Y0032692D01*
X0198934Y0032822D01*
X0199241Y0032945D01*
X0199552Y0033061D01*
X0199865Y0033169D01*
X0200181Y0033269D01*
X0200499Y0033361D01*
X0200820Y0033445D01*
X0201142Y0033522D01*
X0201466Y0033591D01*
X0201792Y0033651D01*
X0202119Y0033704D01*
X0202447Y0033748D01*
X0202777Y0033785D01*
X0203107Y0033813D01*
X0203438Y0033834D01*
X0203769Y0033846D01*
X0204100Y0033850D01*
X0204431Y0033846D01*
X0204762Y0033834D01*
X0205093Y0033813D01*
X0205423Y0033785D01*
X0205753Y0033748D01*
X0206081Y0033704D01*
X0206408Y0033651D01*
X0206734Y0033591D01*
X0207058Y0033522D01*
X0207380Y0033445D01*
X0207701Y0033361D01*
X0208019Y0033269D01*
X0208335Y0033169D01*
X0208648Y0033061D01*
X0208959Y0032945D01*
X0209266Y0032822D01*
X0209571Y0032692D01*
X0209872Y0032554D01*
X0210170Y0032409D01*
X0210464Y0032256D01*
X0210754Y0032096D01*
X0211040Y0031929D01*
X0211322Y0031756D01*
X0211600Y0031575D01*
X0211873Y0031387D01*
X0212142Y0031193D01*
X0212406Y0030993D01*
X0212664Y0030786D01*
X0212918Y0030572D01*
X0213166Y0030353D01*
X0213409Y0030127D01*
X0213646Y0029896D01*
X0213877Y0029659D01*
X0214103Y0029416D01*
X0214322Y0029168D01*
X0214536Y0028914D01*
X0214743Y0028656D01*
X0214943Y0028392D01*
X0215137Y0028123D01*
X0215325Y0027850D01*
X0215506Y0027572D01*
X0215679Y0027290D01*
X0215846Y0027004D01*
X0216006Y0026714D01*
X0216159Y0026420D01*
X0216304Y0026122D01*
X0216442Y0025821D01*
X0216572Y0025516D01*
X0216695Y0025209D01*
X0216811Y0024898D01*
X0216919Y0024585D01*
X0217019Y0024269D01*
X0217111Y0023951D01*
X0217195Y0023630D01*
X0217272Y0023308D01*
X0217341Y0022984D01*
X0217401Y0022658D01*
X0217454Y0022331D01*
X0217498Y0022003D01*
X0217535Y0021673D01*
X0217563Y0021343D01*
X0217584Y0021012D01*
X0217596Y0020681D01*
X0217600Y0020350D01*
X0217596Y0020019D01*
X0217584Y0019688D01*
X0217563Y0019357D01*
X0217535Y0019027D01*
X0217498Y0018697D01*
X0217454Y0018369D01*
X0217401Y0018042D01*
X0217341Y0017716D01*
X0217272Y0017392D01*
X0217195Y0017070D01*
X0217111Y0016749D01*
X0217019Y0016431D01*
X0216919Y0016115D01*
X0216811Y0015802D01*
X0216695Y0015491D01*
X0216572Y0015184D01*
X0216442Y0014879D01*
X0216304Y0014578D01*
X0216159Y0014280D01*
X0216006Y0013986D01*
X0215846Y0013696D01*
X0215679Y0013410D01*
X0215506Y0013128D01*
X0215325Y0012850D01*
X0215137Y0012577D01*
X0214943Y0012308D01*
X0214743Y0012044D01*
X0214536Y0011786D01*
X0214322Y0011532D01*
X0214103Y0011284D01*
X0213877Y0011041D01*
X0213646Y0010804D01*
X0213409Y0010573D01*
X0213166Y0010347D01*
X0212918Y0010128D01*
X0212664Y0009914D01*
X0212406Y0009707D01*
X0212142Y0009507D01*
X0211873Y0009313D01*
X0211600Y0009125D01*
X0211322Y0008944D01*
X0211040Y0008771D01*
X0210754Y0008604D01*
X0210464Y0008444D01*
X0210170Y0008291D01*
X0209872Y0008146D01*
X0209571Y0008008D01*
X0209266Y0007878D01*
X0208959Y0007755D01*
X0208648Y0007639D01*
X0208335Y0007531D01*
X0208019Y0007431D01*
X0207701Y0007339D01*
X0207380Y0007255D01*
X0207058Y0007178D01*
X0206734Y0007109D01*
X0206408Y0007049D01*
X0206081Y0006996D01*
X0205753Y0006952D01*
X0205423Y0006915D01*
X0205093Y0006887D01*
X0204762Y0006866D01*
X0204431Y0006854D01*
X0204100Y0006850D01*
X0203769Y0006854D01*
X0203438Y0006866D01*
X0203107Y0006887D01*
X0202777Y0006915D01*
X0202447Y0006952D01*
X0202119Y0006996D01*
X0201792Y0007049D01*
X0201466Y0007109D01*
X0201142Y0007178D01*
X0200820Y0007255D01*
X0200499Y0007339D01*
X0200181Y0007431D01*
X0199865Y0007531D01*
X0199552Y0007639D01*
X0199241Y0007755D01*
X0198934Y0007878D01*
X0198629Y0008008D01*
X0198328Y0008146D01*
X0198030Y0008291D01*
X0197736Y0008444D01*
X0197446Y0008604D01*
X0197160Y0008771D01*
X0196878Y0008944D01*
X0196600Y0009125D01*
X0196327Y0009313D01*
X0196058Y0009507D01*
X0195794Y0009707D01*
X0195536Y0009914D01*
X0195282Y0010128D01*
X0195034Y0010347D01*
X0194791Y0010573D01*
X0194554Y0010804D01*
X0194323Y0011041D01*
X0194097Y0011284D01*
X0193878Y0011532D01*
X0193664Y0011786D01*
X0193457Y0012044D01*
X0193257Y0012308D01*
X0193063Y0012577D01*
X0192875Y0012850D01*
X0192694Y0013128D01*
X0192521Y0013410D01*
X0192354Y0013696D01*
X0192194Y0013986D01*
X0192041Y0014280D01*
X0191896Y0014578D01*
X0191758Y0014879D01*
X0191628Y0015184D01*
X0191505Y0015491D01*
X0191389Y0015802D01*
X0191281Y0016115D01*
X0191181Y0016431D01*
X0191089Y0016749D01*
X0191005Y0017070D01*
X0190928Y0017392D01*
X0190859Y0017716D01*
X0190799Y0018042D01*
X0190746Y0018369D01*
X0190702Y0018697D01*
X0190665Y0019027D01*
X0190637Y0019357D01*
X0190616Y0019688D01*
X0190604Y0020019D01*
X0190600Y0020350D01*
X0144350Y0020350D02*
X0144354Y0020681D01*
X0144366Y0021012D01*
X0144387Y0021343D01*
X0144415Y0021673D01*
X0144452Y0022003D01*
X0144496Y0022331D01*
X0144549Y0022658D01*
X0144609Y0022984D01*
X0144678Y0023308D01*
X0144755Y0023630D01*
X0144839Y0023951D01*
X0144931Y0024269D01*
X0145031Y0024585D01*
X0145139Y0024898D01*
X0145255Y0025209D01*
X0145378Y0025516D01*
X0145508Y0025821D01*
X0145646Y0026122D01*
X0145791Y0026420D01*
X0145944Y0026714D01*
X0146104Y0027004D01*
X0146271Y0027290D01*
X0146444Y0027572D01*
X0146625Y0027850D01*
X0146813Y0028123D01*
X0147007Y0028392D01*
X0147207Y0028656D01*
X0147414Y0028914D01*
X0147628Y0029168D01*
X0147847Y0029416D01*
X0148073Y0029659D01*
X0148304Y0029896D01*
X0148541Y0030127D01*
X0148784Y0030353D01*
X0149032Y0030572D01*
X0149286Y0030786D01*
X0149544Y0030993D01*
X0149808Y0031193D01*
X0150077Y0031387D01*
X0150350Y0031575D01*
X0150628Y0031756D01*
X0150910Y0031929D01*
X0151196Y0032096D01*
X0151486Y0032256D01*
X0151780Y0032409D01*
X0152078Y0032554D01*
X0152379Y0032692D01*
X0152684Y0032822D01*
X0152991Y0032945D01*
X0153302Y0033061D01*
X0153615Y0033169D01*
X0153931Y0033269D01*
X0154249Y0033361D01*
X0154570Y0033445D01*
X0154892Y0033522D01*
X0155216Y0033591D01*
X0155542Y0033651D01*
X0155869Y0033704D01*
X0156197Y0033748D01*
X0156527Y0033785D01*
X0156857Y0033813D01*
X0157188Y0033834D01*
X0157519Y0033846D01*
X0157850Y0033850D01*
X0158181Y0033846D01*
X0158512Y0033834D01*
X0158843Y0033813D01*
X0159173Y0033785D01*
X0159503Y0033748D01*
X0159831Y0033704D01*
X0160158Y0033651D01*
X0160484Y0033591D01*
X0160808Y0033522D01*
X0161130Y0033445D01*
X0161451Y0033361D01*
X0161769Y0033269D01*
X0162085Y0033169D01*
X0162398Y0033061D01*
X0162709Y0032945D01*
X0163016Y0032822D01*
X0163321Y0032692D01*
X0163622Y0032554D01*
X0163920Y0032409D01*
X0164214Y0032256D01*
X0164504Y0032096D01*
X0164790Y0031929D01*
X0165072Y0031756D01*
X0165350Y0031575D01*
X0165623Y0031387D01*
X0165892Y0031193D01*
X0166156Y0030993D01*
X0166414Y0030786D01*
X0166668Y0030572D01*
X0166916Y0030353D01*
X0167159Y0030127D01*
X0167396Y0029896D01*
X0167627Y0029659D01*
X0167853Y0029416D01*
X0168072Y0029168D01*
X0168286Y0028914D01*
X0168493Y0028656D01*
X0168693Y0028392D01*
X0168887Y0028123D01*
X0169075Y0027850D01*
X0169256Y0027572D01*
X0169429Y0027290D01*
X0169596Y0027004D01*
X0169756Y0026714D01*
X0169909Y0026420D01*
X0170054Y0026122D01*
X0170192Y0025821D01*
X0170322Y0025516D01*
X0170445Y0025209D01*
X0170561Y0024898D01*
X0170669Y0024585D01*
X0170769Y0024269D01*
X0170861Y0023951D01*
X0170945Y0023630D01*
X0171022Y0023308D01*
X0171091Y0022984D01*
X0171151Y0022658D01*
X0171204Y0022331D01*
X0171248Y0022003D01*
X0171285Y0021673D01*
X0171313Y0021343D01*
X0171334Y0021012D01*
X0171346Y0020681D01*
X0171350Y0020350D01*
X0171346Y0020019D01*
X0171334Y0019688D01*
X0171313Y0019357D01*
X0171285Y0019027D01*
X0171248Y0018697D01*
X0171204Y0018369D01*
X0171151Y0018042D01*
X0171091Y0017716D01*
X0171022Y0017392D01*
X0170945Y0017070D01*
X0170861Y0016749D01*
X0170769Y0016431D01*
X0170669Y0016115D01*
X0170561Y0015802D01*
X0170445Y0015491D01*
X0170322Y0015184D01*
X0170192Y0014879D01*
X0170054Y0014578D01*
X0169909Y0014280D01*
X0169756Y0013986D01*
X0169596Y0013696D01*
X0169429Y0013410D01*
X0169256Y0013128D01*
X0169075Y0012850D01*
X0168887Y0012577D01*
X0168693Y0012308D01*
X0168493Y0012044D01*
X0168286Y0011786D01*
X0168072Y0011532D01*
X0167853Y0011284D01*
X0167627Y0011041D01*
X0167396Y0010804D01*
X0167159Y0010573D01*
X0166916Y0010347D01*
X0166668Y0010128D01*
X0166414Y0009914D01*
X0166156Y0009707D01*
X0165892Y0009507D01*
X0165623Y0009313D01*
X0165350Y0009125D01*
X0165072Y0008944D01*
X0164790Y0008771D01*
X0164504Y0008604D01*
X0164214Y0008444D01*
X0163920Y0008291D01*
X0163622Y0008146D01*
X0163321Y0008008D01*
X0163016Y0007878D01*
X0162709Y0007755D01*
X0162398Y0007639D01*
X0162085Y0007531D01*
X0161769Y0007431D01*
X0161451Y0007339D01*
X0161130Y0007255D01*
X0160808Y0007178D01*
X0160484Y0007109D01*
X0160158Y0007049D01*
X0159831Y0006996D01*
X0159503Y0006952D01*
X0159173Y0006915D01*
X0158843Y0006887D01*
X0158512Y0006866D01*
X0158181Y0006854D01*
X0157850Y0006850D01*
X0157519Y0006854D01*
X0157188Y0006866D01*
X0156857Y0006887D01*
X0156527Y0006915D01*
X0156197Y0006952D01*
X0155869Y0006996D01*
X0155542Y0007049D01*
X0155216Y0007109D01*
X0154892Y0007178D01*
X0154570Y0007255D01*
X0154249Y0007339D01*
X0153931Y0007431D01*
X0153615Y0007531D01*
X0153302Y0007639D01*
X0152991Y0007755D01*
X0152684Y0007878D01*
X0152379Y0008008D01*
X0152078Y0008146D01*
X0151780Y0008291D01*
X0151486Y0008444D01*
X0151196Y0008604D01*
X0150910Y0008771D01*
X0150628Y0008944D01*
X0150350Y0009125D01*
X0150077Y0009313D01*
X0149808Y0009507D01*
X0149544Y0009707D01*
X0149286Y0009914D01*
X0149032Y0010128D01*
X0148784Y0010347D01*
X0148541Y0010573D01*
X0148304Y0010804D01*
X0148073Y0011041D01*
X0147847Y0011284D01*
X0147628Y0011532D01*
X0147414Y0011786D01*
X0147207Y0012044D01*
X0147007Y0012308D01*
X0146813Y0012577D01*
X0146625Y0012850D01*
X0146444Y0013128D01*
X0146271Y0013410D01*
X0146104Y0013696D01*
X0145944Y0013986D01*
X0145791Y0014280D01*
X0145646Y0014578D01*
X0145508Y0014879D01*
X0145378Y0015184D01*
X0145255Y0015491D01*
X0145139Y0015802D01*
X0145031Y0016115D01*
X0144931Y0016431D01*
X0144839Y0016749D01*
X0144755Y0017070D01*
X0144678Y0017392D01*
X0144609Y0017716D01*
X0144549Y0018042D01*
X0144496Y0018369D01*
X0144452Y0018697D01*
X0144415Y0019027D01*
X0144387Y0019357D01*
X0144366Y0019688D01*
X0144354Y0020019D01*
X0144350Y0020350D01*
X0006850Y0020350D02*
X0006854Y0020681D01*
X0006866Y0021012D01*
X0006887Y0021343D01*
X0006915Y0021673D01*
X0006952Y0022003D01*
X0006996Y0022331D01*
X0007049Y0022658D01*
X0007109Y0022984D01*
X0007178Y0023308D01*
X0007255Y0023630D01*
X0007339Y0023951D01*
X0007431Y0024269D01*
X0007531Y0024585D01*
X0007639Y0024898D01*
X0007755Y0025209D01*
X0007878Y0025516D01*
X0008008Y0025821D01*
X0008146Y0026122D01*
X0008291Y0026420D01*
X0008444Y0026714D01*
X0008604Y0027004D01*
X0008771Y0027290D01*
X0008944Y0027572D01*
X0009125Y0027850D01*
X0009313Y0028123D01*
X0009507Y0028392D01*
X0009707Y0028656D01*
X0009914Y0028914D01*
X0010128Y0029168D01*
X0010347Y0029416D01*
X0010573Y0029659D01*
X0010804Y0029896D01*
X0011041Y0030127D01*
X0011284Y0030353D01*
X0011532Y0030572D01*
X0011786Y0030786D01*
X0012044Y0030993D01*
X0012308Y0031193D01*
X0012577Y0031387D01*
X0012850Y0031575D01*
X0013128Y0031756D01*
X0013410Y0031929D01*
X0013696Y0032096D01*
X0013986Y0032256D01*
X0014280Y0032409D01*
X0014578Y0032554D01*
X0014879Y0032692D01*
X0015184Y0032822D01*
X0015491Y0032945D01*
X0015802Y0033061D01*
X0016115Y0033169D01*
X0016431Y0033269D01*
X0016749Y0033361D01*
X0017070Y0033445D01*
X0017392Y0033522D01*
X0017716Y0033591D01*
X0018042Y0033651D01*
X0018369Y0033704D01*
X0018697Y0033748D01*
X0019027Y0033785D01*
X0019357Y0033813D01*
X0019688Y0033834D01*
X0020019Y0033846D01*
X0020350Y0033850D01*
X0020681Y0033846D01*
X0021012Y0033834D01*
X0021343Y0033813D01*
X0021673Y0033785D01*
X0022003Y0033748D01*
X0022331Y0033704D01*
X0022658Y0033651D01*
X0022984Y0033591D01*
X0023308Y0033522D01*
X0023630Y0033445D01*
X0023951Y0033361D01*
X0024269Y0033269D01*
X0024585Y0033169D01*
X0024898Y0033061D01*
X0025209Y0032945D01*
X0025516Y0032822D01*
X0025821Y0032692D01*
X0026122Y0032554D01*
X0026420Y0032409D01*
X0026714Y0032256D01*
X0027004Y0032096D01*
X0027290Y0031929D01*
X0027572Y0031756D01*
X0027850Y0031575D01*
X0028123Y0031387D01*
X0028392Y0031193D01*
X0028656Y0030993D01*
X0028914Y0030786D01*
X0029168Y0030572D01*
X0029416Y0030353D01*
X0029659Y0030127D01*
X0029896Y0029896D01*
X0030127Y0029659D01*
X0030353Y0029416D01*
X0030572Y0029168D01*
X0030786Y0028914D01*
X0030993Y0028656D01*
X0031193Y0028392D01*
X0031387Y0028123D01*
X0031575Y0027850D01*
X0031756Y0027572D01*
X0031929Y0027290D01*
X0032096Y0027004D01*
X0032256Y0026714D01*
X0032409Y0026420D01*
X0032554Y0026122D01*
X0032692Y0025821D01*
X0032822Y0025516D01*
X0032945Y0025209D01*
X0033061Y0024898D01*
X0033169Y0024585D01*
X0033269Y0024269D01*
X0033361Y0023951D01*
X0033445Y0023630D01*
X0033522Y0023308D01*
X0033591Y0022984D01*
X0033651Y0022658D01*
X0033704Y0022331D01*
X0033748Y0022003D01*
X0033785Y0021673D01*
X0033813Y0021343D01*
X0033834Y0021012D01*
X0033846Y0020681D01*
X0033850Y0020350D01*
X0033846Y0020019D01*
X0033834Y0019688D01*
X0033813Y0019357D01*
X0033785Y0019027D01*
X0033748Y0018697D01*
X0033704Y0018369D01*
X0033651Y0018042D01*
X0033591Y0017716D01*
X0033522Y0017392D01*
X0033445Y0017070D01*
X0033361Y0016749D01*
X0033269Y0016431D01*
X0033169Y0016115D01*
X0033061Y0015802D01*
X0032945Y0015491D01*
X0032822Y0015184D01*
X0032692Y0014879D01*
X0032554Y0014578D01*
X0032409Y0014280D01*
X0032256Y0013986D01*
X0032096Y0013696D01*
X0031929Y0013410D01*
X0031756Y0013128D01*
X0031575Y0012850D01*
X0031387Y0012577D01*
X0031193Y0012308D01*
X0030993Y0012044D01*
X0030786Y0011786D01*
X0030572Y0011532D01*
X0030353Y0011284D01*
X0030127Y0011041D01*
X0029896Y0010804D01*
X0029659Y0010573D01*
X0029416Y0010347D01*
X0029168Y0010128D01*
X0028914Y0009914D01*
X0028656Y0009707D01*
X0028392Y0009507D01*
X0028123Y0009313D01*
X0027850Y0009125D01*
X0027572Y0008944D01*
X0027290Y0008771D01*
X0027004Y0008604D01*
X0026714Y0008444D01*
X0026420Y0008291D01*
X0026122Y0008146D01*
X0025821Y0008008D01*
X0025516Y0007878D01*
X0025209Y0007755D01*
X0024898Y0007639D01*
X0024585Y0007531D01*
X0024269Y0007431D01*
X0023951Y0007339D01*
X0023630Y0007255D01*
X0023308Y0007178D01*
X0022984Y0007109D01*
X0022658Y0007049D01*
X0022331Y0006996D01*
X0022003Y0006952D01*
X0021673Y0006915D01*
X0021343Y0006887D01*
X0021012Y0006866D01*
X0020681Y0006854D01*
X0020350Y0006850D01*
X0020019Y0006854D01*
X0019688Y0006866D01*
X0019357Y0006887D01*
X0019027Y0006915D01*
X0018697Y0006952D01*
X0018369Y0006996D01*
X0018042Y0007049D01*
X0017716Y0007109D01*
X0017392Y0007178D01*
X0017070Y0007255D01*
X0016749Y0007339D01*
X0016431Y0007431D01*
X0016115Y0007531D01*
X0015802Y0007639D01*
X0015491Y0007755D01*
X0015184Y0007878D01*
X0014879Y0008008D01*
X0014578Y0008146D01*
X0014280Y0008291D01*
X0013986Y0008444D01*
X0013696Y0008604D01*
X0013410Y0008771D01*
X0013128Y0008944D01*
X0012850Y0009125D01*
X0012577Y0009313D01*
X0012308Y0009507D01*
X0012044Y0009707D01*
X0011786Y0009914D01*
X0011532Y0010128D01*
X0011284Y0010347D01*
X0011041Y0010573D01*
X0010804Y0010804D01*
X0010573Y0011041D01*
X0010347Y0011284D01*
X0010128Y0011532D01*
X0009914Y0011786D01*
X0009707Y0012044D01*
X0009507Y0012308D01*
X0009313Y0012577D01*
X0009125Y0012850D01*
X0008944Y0013128D01*
X0008771Y0013410D01*
X0008604Y0013696D01*
X0008444Y0013986D01*
X0008291Y0014280D01*
X0008146Y0014578D01*
X0008008Y0014879D01*
X0007878Y0015184D01*
X0007755Y0015491D01*
X0007639Y0015802D01*
X0007531Y0016115D01*
X0007431Y0016431D01*
X0007339Y0016749D01*
X0007255Y0017070D01*
X0007178Y0017392D01*
X0007109Y0017716D01*
X0007049Y0018042D01*
X0006996Y0018369D01*
X0006952Y0018697D01*
X0006915Y0019027D01*
X0006887Y0019357D01*
X0006866Y0019688D01*
X0006854Y0020019D01*
X0006850Y0020350D01*
D16*
X0260350Y0055230D02*
X0260350Y0055470D01*
X0275350Y0055470D02*
X0275350Y0055230D01*
D17*
X0276850Y0058975D02*
X0276850Y0072975D01*
X0258850Y0072975D01*
X0258850Y0058975D01*
X0276850Y0058975D01*
X0329100Y0052225D02*
X0331600Y0049725D01*
X0329100Y0047225D01*
X0334100Y0042225D02*
X0339100Y0042225D01*
X0344100Y0047225D02*
X0344100Y0052225D01*
X0334100Y0049725D02*
X0334102Y0049824D01*
X0334108Y0049924D01*
X0334118Y0050023D01*
X0334132Y0050121D01*
X0334149Y0050219D01*
X0334171Y0050316D01*
X0334196Y0050412D01*
X0334225Y0050507D01*
X0334258Y0050601D01*
X0334295Y0050693D01*
X0334335Y0050784D01*
X0334379Y0050873D01*
X0334427Y0050961D01*
X0334478Y0051046D01*
X0334532Y0051129D01*
X0334589Y0051211D01*
X0334650Y0051289D01*
X0334714Y0051366D01*
X0334780Y0051439D01*
X0334850Y0051510D01*
X0334922Y0051578D01*
X0334997Y0051644D01*
X0335075Y0051706D01*
X0335155Y0051765D01*
X0335237Y0051821D01*
X0335321Y0051873D01*
X0335408Y0051922D01*
X0335496Y0051968D01*
X0335586Y0052010D01*
X0335678Y0052049D01*
X0335771Y0052084D01*
X0335865Y0052115D01*
X0335961Y0052142D01*
X0336058Y0052165D01*
X0336155Y0052185D01*
X0336253Y0052201D01*
X0336352Y0052213D01*
X0336451Y0052221D01*
X0336550Y0052225D01*
X0336650Y0052225D01*
X0336749Y0052221D01*
X0336848Y0052213D01*
X0336947Y0052201D01*
X0337045Y0052185D01*
X0337142Y0052165D01*
X0337239Y0052142D01*
X0337335Y0052115D01*
X0337429Y0052084D01*
X0337522Y0052049D01*
X0337614Y0052010D01*
X0337704Y0051968D01*
X0337792Y0051922D01*
X0337879Y0051873D01*
X0337963Y0051821D01*
X0338045Y0051765D01*
X0338125Y0051706D01*
X0338203Y0051644D01*
X0338278Y0051578D01*
X0338350Y0051510D01*
X0338420Y0051439D01*
X0338486Y0051366D01*
X0338550Y0051289D01*
X0338611Y0051211D01*
X0338668Y0051129D01*
X0338722Y0051046D01*
X0338773Y0050961D01*
X0338821Y0050873D01*
X0338865Y0050784D01*
X0338905Y0050693D01*
X0338942Y0050601D01*
X0338975Y0050507D01*
X0339004Y0050412D01*
X0339029Y0050316D01*
X0339051Y0050219D01*
X0339068Y0050121D01*
X0339082Y0050023D01*
X0339092Y0049924D01*
X0339098Y0049824D01*
X0339100Y0049725D01*
X0339098Y0049626D01*
X0339092Y0049526D01*
X0339082Y0049427D01*
X0339068Y0049329D01*
X0339051Y0049231D01*
X0339029Y0049134D01*
X0339004Y0049038D01*
X0338975Y0048943D01*
X0338942Y0048849D01*
X0338905Y0048757D01*
X0338865Y0048666D01*
X0338821Y0048577D01*
X0338773Y0048489D01*
X0338722Y0048404D01*
X0338668Y0048321D01*
X0338611Y0048239D01*
X0338550Y0048161D01*
X0338486Y0048084D01*
X0338420Y0048011D01*
X0338350Y0047940D01*
X0338278Y0047872D01*
X0338203Y0047806D01*
X0338125Y0047744D01*
X0338045Y0047685D01*
X0337963Y0047629D01*
X0337879Y0047577D01*
X0337792Y0047528D01*
X0337704Y0047482D01*
X0337614Y0047440D01*
X0337522Y0047401D01*
X0337429Y0047366D01*
X0337335Y0047335D01*
X0337239Y0047308D01*
X0337142Y0047285D01*
X0337045Y0047265D01*
X0336947Y0047249D01*
X0336848Y0047237D01*
X0336749Y0047229D01*
X0336650Y0047225D01*
X0336550Y0047225D01*
X0336451Y0047229D01*
X0336352Y0047237D01*
X0336253Y0047249D01*
X0336155Y0047265D01*
X0336058Y0047285D01*
X0335961Y0047308D01*
X0335865Y0047335D01*
X0335771Y0047366D01*
X0335678Y0047401D01*
X0335586Y0047440D01*
X0335496Y0047482D01*
X0335408Y0047528D01*
X0335321Y0047577D01*
X0335237Y0047629D01*
X0335155Y0047685D01*
X0335075Y0047744D01*
X0334997Y0047806D01*
X0334922Y0047872D01*
X0334850Y0047940D01*
X0334780Y0048011D01*
X0334714Y0048084D01*
X0334650Y0048161D01*
X0334589Y0048239D01*
X0334532Y0048321D01*
X0334478Y0048404D01*
X0334427Y0048489D01*
X0334379Y0048577D01*
X0334335Y0048666D01*
X0334295Y0048757D01*
X0334258Y0048849D01*
X0334225Y0048943D01*
X0334196Y0049038D01*
X0334171Y0049134D01*
X0334149Y0049231D01*
X0334132Y0049329D01*
X0334118Y0049427D01*
X0334108Y0049526D01*
X0334102Y0049626D01*
X0334100Y0049725D01*
X0334100Y0057225D02*
X0339100Y0057225D01*
X0336944Y0078647D02*
X0348756Y0078647D01*
X0348756Y0084553D01*
X0336944Y0084553D01*
X0336944Y0078647D01*
X0342100Y0079850D02*
X0342100Y0083350D01*
X0343600Y0083350D02*
X0342100Y0081600D01*
X0343600Y0079850D01*
X0343600Y0083350D01*
X0348756Y0106147D02*
X0336944Y0106147D01*
X0336944Y0112053D01*
X0348756Y0112053D01*
X0348756Y0106147D01*
X0343600Y0107350D02*
X0342100Y0109100D01*
X0343600Y0110850D01*
X0343600Y0107350D01*
X0342100Y0107350D02*
X0342100Y0110850D01*
X0335225Y0118600D02*
X0335225Y0124600D01*
X0349225Y0124600D01*
X0349225Y0118600D01*
X0335225Y0118600D01*
X0315975Y0123475D02*
X0315975Y0133475D01*
X0310975Y0133475D01*
X0310975Y0123475D01*
X0315975Y0123475D01*
X0332850Y0133475D02*
X0337850Y0133475D01*
X0342850Y0138475D02*
X0342850Y0143475D01*
X0337850Y0148475D02*
X0332850Y0148475D01*
X0327850Y0143475D02*
X0330350Y0140975D01*
X0327850Y0138475D01*
X0332850Y0140975D02*
X0332852Y0141074D01*
X0332858Y0141174D01*
X0332868Y0141273D01*
X0332882Y0141371D01*
X0332899Y0141469D01*
X0332921Y0141566D01*
X0332946Y0141662D01*
X0332975Y0141757D01*
X0333008Y0141851D01*
X0333045Y0141943D01*
X0333085Y0142034D01*
X0333129Y0142123D01*
X0333177Y0142211D01*
X0333228Y0142296D01*
X0333282Y0142379D01*
X0333339Y0142461D01*
X0333400Y0142539D01*
X0333464Y0142616D01*
X0333530Y0142689D01*
X0333600Y0142760D01*
X0333672Y0142828D01*
X0333747Y0142894D01*
X0333825Y0142956D01*
X0333905Y0143015D01*
X0333987Y0143071D01*
X0334071Y0143123D01*
X0334158Y0143172D01*
X0334246Y0143218D01*
X0334336Y0143260D01*
X0334428Y0143299D01*
X0334521Y0143334D01*
X0334615Y0143365D01*
X0334711Y0143392D01*
X0334808Y0143415D01*
X0334905Y0143435D01*
X0335003Y0143451D01*
X0335102Y0143463D01*
X0335201Y0143471D01*
X0335300Y0143475D01*
X0335400Y0143475D01*
X0335499Y0143471D01*
X0335598Y0143463D01*
X0335697Y0143451D01*
X0335795Y0143435D01*
X0335892Y0143415D01*
X0335989Y0143392D01*
X0336085Y0143365D01*
X0336179Y0143334D01*
X0336272Y0143299D01*
X0336364Y0143260D01*
X0336454Y0143218D01*
X0336542Y0143172D01*
X0336629Y0143123D01*
X0336713Y0143071D01*
X0336795Y0143015D01*
X0336875Y0142956D01*
X0336953Y0142894D01*
X0337028Y0142828D01*
X0337100Y0142760D01*
X0337170Y0142689D01*
X0337236Y0142616D01*
X0337300Y0142539D01*
X0337361Y0142461D01*
X0337418Y0142379D01*
X0337472Y0142296D01*
X0337523Y0142211D01*
X0337571Y0142123D01*
X0337615Y0142034D01*
X0337655Y0141943D01*
X0337692Y0141851D01*
X0337725Y0141757D01*
X0337754Y0141662D01*
X0337779Y0141566D01*
X0337801Y0141469D01*
X0337818Y0141371D01*
X0337832Y0141273D01*
X0337842Y0141174D01*
X0337848Y0141074D01*
X0337850Y0140975D01*
X0337848Y0140876D01*
X0337842Y0140776D01*
X0337832Y0140677D01*
X0337818Y0140579D01*
X0337801Y0140481D01*
X0337779Y0140384D01*
X0337754Y0140288D01*
X0337725Y0140193D01*
X0337692Y0140099D01*
X0337655Y0140007D01*
X0337615Y0139916D01*
X0337571Y0139827D01*
X0337523Y0139739D01*
X0337472Y0139654D01*
X0337418Y0139571D01*
X0337361Y0139489D01*
X0337300Y0139411D01*
X0337236Y0139334D01*
X0337170Y0139261D01*
X0337100Y0139190D01*
X0337028Y0139122D01*
X0336953Y0139056D01*
X0336875Y0138994D01*
X0336795Y0138935D01*
X0336713Y0138879D01*
X0336629Y0138827D01*
X0336542Y0138778D01*
X0336454Y0138732D01*
X0336364Y0138690D01*
X0336272Y0138651D01*
X0336179Y0138616D01*
X0336085Y0138585D01*
X0335989Y0138558D01*
X0335892Y0138535D01*
X0335795Y0138515D01*
X0335697Y0138499D01*
X0335598Y0138487D01*
X0335499Y0138479D01*
X0335400Y0138475D01*
X0335300Y0138475D01*
X0335201Y0138479D01*
X0335102Y0138487D01*
X0335003Y0138499D01*
X0334905Y0138515D01*
X0334808Y0138535D01*
X0334711Y0138558D01*
X0334615Y0138585D01*
X0334521Y0138616D01*
X0334428Y0138651D01*
X0334336Y0138690D01*
X0334246Y0138732D01*
X0334158Y0138778D01*
X0334071Y0138827D01*
X0333987Y0138879D01*
X0333905Y0138935D01*
X0333825Y0138994D01*
X0333747Y0139056D01*
X0333672Y0139122D01*
X0333600Y0139190D01*
X0333530Y0139261D01*
X0333464Y0139334D01*
X0333400Y0139411D01*
X0333339Y0139489D01*
X0333282Y0139571D01*
X0333228Y0139654D01*
X0333177Y0139739D01*
X0333129Y0139827D01*
X0333085Y0139916D01*
X0333045Y0140007D01*
X0333008Y0140099D01*
X0332975Y0140193D01*
X0332946Y0140288D01*
X0332921Y0140384D01*
X0332899Y0140481D01*
X0332882Y0140579D01*
X0332868Y0140677D01*
X0332858Y0140776D01*
X0332852Y0140876D01*
X0332850Y0140975D01*
X0351600Y0135350D02*
X0351600Y0132850D01*
X0354100Y0132850D01*
X0351600Y0150350D02*
X0351600Y0152850D01*
X0354100Y0152850D01*
X0247850Y0102850D02*
X0242850Y0102850D01*
X0237850Y0097850D02*
X0237850Y0092850D01*
X0242850Y0087850D02*
X0247850Y0087850D01*
X0252850Y0092850D02*
X0250350Y0095350D01*
X0252850Y0097850D01*
X0242850Y0095350D02*
X0242852Y0095449D01*
X0242858Y0095549D01*
X0242868Y0095648D01*
X0242882Y0095746D01*
X0242899Y0095844D01*
X0242921Y0095941D01*
X0242946Y0096037D01*
X0242975Y0096132D01*
X0243008Y0096226D01*
X0243045Y0096318D01*
X0243085Y0096409D01*
X0243129Y0096498D01*
X0243177Y0096586D01*
X0243228Y0096671D01*
X0243282Y0096754D01*
X0243339Y0096836D01*
X0243400Y0096914D01*
X0243464Y0096991D01*
X0243530Y0097064D01*
X0243600Y0097135D01*
X0243672Y0097203D01*
X0243747Y0097269D01*
X0243825Y0097331D01*
X0243905Y0097390D01*
X0243987Y0097446D01*
X0244071Y0097498D01*
X0244158Y0097547D01*
X0244246Y0097593D01*
X0244336Y0097635D01*
X0244428Y0097674D01*
X0244521Y0097709D01*
X0244615Y0097740D01*
X0244711Y0097767D01*
X0244808Y0097790D01*
X0244905Y0097810D01*
X0245003Y0097826D01*
X0245102Y0097838D01*
X0245201Y0097846D01*
X0245300Y0097850D01*
X0245400Y0097850D01*
X0245499Y0097846D01*
X0245598Y0097838D01*
X0245697Y0097826D01*
X0245795Y0097810D01*
X0245892Y0097790D01*
X0245989Y0097767D01*
X0246085Y0097740D01*
X0246179Y0097709D01*
X0246272Y0097674D01*
X0246364Y0097635D01*
X0246454Y0097593D01*
X0246542Y0097547D01*
X0246629Y0097498D01*
X0246713Y0097446D01*
X0246795Y0097390D01*
X0246875Y0097331D01*
X0246953Y0097269D01*
X0247028Y0097203D01*
X0247100Y0097135D01*
X0247170Y0097064D01*
X0247236Y0096991D01*
X0247300Y0096914D01*
X0247361Y0096836D01*
X0247418Y0096754D01*
X0247472Y0096671D01*
X0247523Y0096586D01*
X0247571Y0096498D01*
X0247615Y0096409D01*
X0247655Y0096318D01*
X0247692Y0096226D01*
X0247725Y0096132D01*
X0247754Y0096037D01*
X0247779Y0095941D01*
X0247801Y0095844D01*
X0247818Y0095746D01*
X0247832Y0095648D01*
X0247842Y0095549D01*
X0247848Y0095449D01*
X0247850Y0095350D01*
X0247848Y0095251D01*
X0247842Y0095151D01*
X0247832Y0095052D01*
X0247818Y0094954D01*
X0247801Y0094856D01*
X0247779Y0094759D01*
X0247754Y0094663D01*
X0247725Y0094568D01*
X0247692Y0094474D01*
X0247655Y0094382D01*
X0247615Y0094291D01*
X0247571Y0094202D01*
X0247523Y0094114D01*
X0247472Y0094029D01*
X0247418Y0093946D01*
X0247361Y0093864D01*
X0247300Y0093786D01*
X0247236Y0093709D01*
X0247170Y0093636D01*
X0247100Y0093565D01*
X0247028Y0093497D01*
X0246953Y0093431D01*
X0246875Y0093369D01*
X0246795Y0093310D01*
X0246713Y0093254D01*
X0246629Y0093202D01*
X0246542Y0093153D01*
X0246454Y0093107D01*
X0246364Y0093065D01*
X0246272Y0093026D01*
X0246179Y0092991D01*
X0246085Y0092960D01*
X0245989Y0092933D01*
X0245892Y0092910D01*
X0245795Y0092890D01*
X0245697Y0092874D01*
X0245598Y0092862D01*
X0245499Y0092854D01*
X0245400Y0092850D01*
X0245300Y0092850D01*
X0245201Y0092854D01*
X0245102Y0092862D01*
X0245003Y0092874D01*
X0244905Y0092890D01*
X0244808Y0092910D01*
X0244711Y0092933D01*
X0244615Y0092960D01*
X0244521Y0092991D01*
X0244428Y0093026D01*
X0244336Y0093065D01*
X0244246Y0093107D01*
X0244158Y0093153D01*
X0244071Y0093202D01*
X0243987Y0093254D01*
X0243905Y0093310D01*
X0243825Y0093369D01*
X0243747Y0093431D01*
X0243672Y0093497D01*
X0243600Y0093565D01*
X0243530Y0093636D01*
X0243464Y0093709D01*
X0243400Y0093786D01*
X0243339Y0093864D01*
X0243282Y0093946D01*
X0243228Y0094029D01*
X0243177Y0094114D01*
X0243129Y0094202D01*
X0243085Y0094291D01*
X0243045Y0094382D01*
X0243008Y0094474D01*
X0242975Y0094568D01*
X0242946Y0094663D01*
X0242921Y0094759D01*
X0242899Y0094856D01*
X0242882Y0094954D01*
X0242868Y0095052D01*
X0242858Y0095151D01*
X0242852Y0095251D01*
X0242850Y0095350D01*
X0218943Y0105193D02*
X0218943Y0085507D01*
X0199257Y0085507D01*
X0199257Y0105193D01*
X0200911Y0106846D01*
X0203864Y0106846D01*
X0205517Y0105193D01*
X0218903Y0105193D01*
X0218943Y0108007D02*
X0218943Y0127693D01*
X0218903Y0127693D02*
X0205517Y0127693D01*
X0203864Y0129346D01*
X0200911Y0129346D01*
X0199257Y0127693D01*
X0199257Y0108007D01*
X0218943Y0108007D01*
X0202327Y0117850D02*
X0202329Y0118016D01*
X0202335Y0118182D01*
X0202345Y0118348D01*
X0202360Y0118514D01*
X0202378Y0118679D01*
X0202400Y0118844D01*
X0202427Y0119008D01*
X0202457Y0119171D01*
X0202492Y0119334D01*
X0202530Y0119496D01*
X0202572Y0119656D01*
X0202619Y0119816D01*
X0202669Y0119975D01*
X0202723Y0120132D01*
X0202781Y0120288D01*
X0202843Y0120442D01*
X0202908Y0120595D01*
X0202977Y0120746D01*
X0203050Y0120895D01*
X0203127Y0121043D01*
X0203207Y0121188D01*
X0203291Y0121332D01*
X0203378Y0121474D01*
X0203468Y0121613D01*
X0203562Y0121750D01*
X0203660Y0121885D01*
X0203761Y0122017D01*
X0203864Y0122147D01*
X0203971Y0122274D01*
X0204082Y0122398D01*
X0204195Y0122520D01*
X0204311Y0122639D01*
X0204430Y0122755D01*
X0204552Y0122868D01*
X0204676Y0122979D01*
X0204803Y0123086D01*
X0204933Y0123189D01*
X0205065Y0123290D01*
X0205200Y0123388D01*
X0205337Y0123482D01*
X0205476Y0123572D01*
X0205618Y0123659D01*
X0205762Y0123743D01*
X0205907Y0123823D01*
X0206055Y0123900D01*
X0206204Y0123973D01*
X0206355Y0124042D01*
X0206508Y0124107D01*
X0206662Y0124169D01*
X0206818Y0124227D01*
X0206975Y0124281D01*
X0207134Y0124331D01*
X0207294Y0124378D01*
X0207454Y0124420D01*
X0207616Y0124458D01*
X0207779Y0124493D01*
X0207942Y0124523D01*
X0208106Y0124550D01*
X0208271Y0124572D01*
X0208436Y0124590D01*
X0208602Y0124605D01*
X0208768Y0124615D01*
X0208934Y0124621D01*
X0209100Y0124623D01*
X0209266Y0124621D01*
X0209432Y0124615D01*
X0209598Y0124605D01*
X0209764Y0124590D01*
X0209929Y0124572D01*
X0210094Y0124550D01*
X0210258Y0124523D01*
X0210421Y0124493D01*
X0210584Y0124458D01*
X0210746Y0124420D01*
X0210906Y0124378D01*
X0211066Y0124331D01*
X0211225Y0124281D01*
X0211382Y0124227D01*
X0211538Y0124169D01*
X0211692Y0124107D01*
X0211845Y0124042D01*
X0211996Y0123973D01*
X0212145Y0123900D01*
X0212293Y0123823D01*
X0212438Y0123743D01*
X0212582Y0123659D01*
X0212724Y0123572D01*
X0212863Y0123482D01*
X0213000Y0123388D01*
X0213135Y0123290D01*
X0213267Y0123189D01*
X0213397Y0123086D01*
X0213524Y0122979D01*
X0213648Y0122868D01*
X0213770Y0122755D01*
X0213889Y0122639D01*
X0214005Y0122520D01*
X0214118Y0122398D01*
X0214229Y0122274D01*
X0214336Y0122147D01*
X0214439Y0122017D01*
X0214540Y0121885D01*
X0214638Y0121750D01*
X0214732Y0121613D01*
X0214822Y0121474D01*
X0214909Y0121332D01*
X0214993Y0121188D01*
X0215073Y0121043D01*
X0215150Y0120895D01*
X0215223Y0120746D01*
X0215292Y0120595D01*
X0215357Y0120442D01*
X0215419Y0120288D01*
X0215477Y0120132D01*
X0215531Y0119975D01*
X0215581Y0119816D01*
X0215628Y0119656D01*
X0215670Y0119496D01*
X0215708Y0119334D01*
X0215743Y0119171D01*
X0215773Y0119008D01*
X0215800Y0118844D01*
X0215822Y0118679D01*
X0215840Y0118514D01*
X0215855Y0118348D01*
X0215865Y0118182D01*
X0215871Y0118016D01*
X0215873Y0117850D01*
X0215871Y0117684D01*
X0215865Y0117518D01*
X0215855Y0117352D01*
X0215840Y0117186D01*
X0215822Y0117021D01*
X0215800Y0116856D01*
X0215773Y0116692D01*
X0215743Y0116529D01*
X0215708Y0116366D01*
X0215670Y0116204D01*
X0215628Y0116044D01*
X0215581Y0115884D01*
X0215531Y0115725D01*
X0215477Y0115568D01*
X0215419Y0115412D01*
X0215357Y0115258D01*
X0215292Y0115105D01*
X0215223Y0114954D01*
X0215150Y0114805D01*
X0215073Y0114657D01*
X0214993Y0114512D01*
X0214909Y0114368D01*
X0214822Y0114226D01*
X0214732Y0114087D01*
X0214638Y0113950D01*
X0214540Y0113815D01*
X0214439Y0113683D01*
X0214336Y0113553D01*
X0214229Y0113426D01*
X0214118Y0113302D01*
X0214005Y0113180D01*
X0213889Y0113061D01*
X0213770Y0112945D01*
X0213648Y0112832D01*
X0213524Y0112721D01*
X0213397Y0112614D01*
X0213267Y0112511D01*
X0213135Y0112410D01*
X0213000Y0112312D01*
X0212863Y0112218D01*
X0212724Y0112128D01*
X0212582Y0112041D01*
X0212438Y0111957D01*
X0212293Y0111877D01*
X0212145Y0111800D01*
X0211996Y0111727D01*
X0211845Y0111658D01*
X0211692Y0111593D01*
X0211538Y0111531D01*
X0211382Y0111473D01*
X0211225Y0111419D01*
X0211066Y0111369D01*
X0210906Y0111322D01*
X0210746Y0111280D01*
X0210584Y0111242D01*
X0210421Y0111207D01*
X0210258Y0111177D01*
X0210094Y0111150D01*
X0209929Y0111128D01*
X0209764Y0111110D01*
X0209598Y0111095D01*
X0209432Y0111085D01*
X0209266Y0111079D01*
X0209100Y0111077D01*
X0208934Y0111079D01*
X0208768Y0111085D01*
X0208602Y0111095D01*
X0208436Y0111110D01*
X0208271Y0111128D01*
X0208106Y0111150D01*
X0207942Y0111177D01*
X0207779Y0111207D01*
X0207616Y0111242D01*
X0207454Y0111280D01*
X0207294Y0111322D01*
X0207134Y0111369D01*
X0206975Y0111419D01*
X0206818Y0111473D01*
X0206662Y0111531D01*
X0206508Y0111593D01*
X0206355Y0111658D01*
X0206204Y0111727D01*
X0206055Y0111800D01*
X0205907Y0111877D01*
X0205762Y0111957D01*
X0205618Y0112041D01*
X0205476Y0112128D01*
X0205337Y0112218D01*
X0205200Y0112312D01*
X0205065Y0112410D01*
X0204933Y0112511D01*
X0204803Y0112614D01*
X0204676Y0112721D01*
X0204552Y0112832D01*
X0204430Y0112945D01*
X0204311Y0113061D01*
X0204195Y0113180D01*
X0204082Y0113302D01*
X0203971Y0113426D01*
X0203864Y0113553D01*
X0203761Y0113683D01*
X0203660Y0113815D01*
X0203562Y0113950D01*
X0203468Y0114087D01*
X0203378Y0114226D01*
X0203291Y0114368D01*
X0203207Y0114512D01*
X0203127Y0114657D01*
X0203050Y0114805D01*
X0202977Y0114954D01*
X0202908Y0115105D01*
X0202843Y0115258D01*
X0202781Y0115412D01*
X0202723Y0115568D01*
X0202669Y0115725D01*
X0202619Y0115884D01*
X0202572Y0116044D01*
X0202530Y0116204D01*
X0202492Y0116366D01*
X0202457Y0116529D01*
X0202427Y0116692D01*
X0202400Y0116856D01*
X0202378Y0117021D01*
X0202360Y0117186D01*
X0202345Y0117352D01*
X0202335Y0117518D01*
X0202329Y0117684D01*
X0202327Y0117850D01*
X0199257Y0130507D02*
X0199257Y0150193D01*
X0200911Y0151846D01*
X0203864Y0151846D01*
X0205517Y0150193D01*
X0218903Y0150193D01*
X0218943Y0150193D02*
X0218943Y0130507D01*
X0199257Y0130507D01*
X0202327Y0140350D02*
X0202329Y0140516D01*
X0202335Y0140682D01*
X0202345Y0140848D01*
X0202360Y0141014D01*
X0202378Y0141179D01*
X0202400Y0141344D01*
X0202427Y0141508D01*
X0202457Y0141671D01*
X0202492Y0141834D01*
X0202530Y0141996D01*
X0202572Y0142156D01*
X0202619Y0142316D01*
X0202669Y0142475D01*
X0202723Y0142632D01*
X0202781Y0142788D01*
X0202843Y0142942D01*
X0202908Y0143095D01*
X0202977Y0143246D01*
X0203050Y0143395D01*
X0203127Y0143543D01*
X0203207Y0143688D01*
X0203291Y0143832D01*
X0203378Y0143974D01*
X0203468Y0144113D01*
X0203562Y0144250D01*
X0203660Y0144385D01*
X0203761Y0144517D01*
X0203864Y0144647D01*
X0203971Y0144774D01*
X0204082Y0144898D01*
X0204195Y0145020D01*
X0204311Y0145139D01*
X0204430Y0145255D01*
X0204552Y0145368D01*
X0204676Y0145479D01*
X0204803Y0145586D01*
X0204933Y0145689D01*
X0205065Y0145790D01*
X0205200Y0145888D01*
X0205337Y0145982D01*
X0205476Y0146072D01*
X0205618Y0146159D01*
X0205762Y0146243D01*
X0205907Y0146323D01*
X0206055Y0146400D01*
X0206204Y0146473D01*
X0206355Y0146542D01*
X0206508Y0146607D01*
X0206662Y0146669D01*
X0206818Y0146727D01*
X0206975Y0146781D01*
X0207134Y0146831D01*
X0207294Y0146878D01*
X0207454Y0146920D01*
X0207616Y0146958D01*
X0207779Y0146993D01*
X0207942Y0147023D01*
X0208106Y0147050D01*
X0208271Y0147072D01*
X0208436Y0147090D01*
X0208602Y0147105D01*
X0208768Y0147115D01*
X0208934Y0147121D01*
X0209100Y0147123D01*
X0209266Y0147121D01*
X0209432Y0147115D01*
X0209598Y0147105D01*
X0209764Y0147090D01*
X0209929Y0147072D01*
X0210094Y0147050D01*
X0210258Y0147023D01*
X0210421Y0146993D01*
X0210584Y0146958D01*
X0210746Y0146920D01*
X0210906Y0146878D01*
X0211066Y0146831D01*
X0211225Y0146781D01*
X0211382Y0146727D01*
X0211538Y0146669D01*
X0211692Y0146607D01*
X0211845Y0146542D01*
X0211996Y0146473D01*
X0212145Y0146400D01*
X0212293Y0146323D01*
X0212438Y0146243D01*
X0212582Y0146159D01*
X0212724Y0146072D01*
X0212863Y0145982D01*
X0213000Y0145888D01*
X0213135Y0145790D01*
X0213267Y0145689D01*
X0213397Y0145586D01*
X0213524Y0145479D01*
X0213648Y0145368D01*
X0213770Y0145255D01*
X0213889Y0145139D01*
X0214005Y0145020D01*
X0214118Y0144898D01*
X0214229Y0144774D01*
X0214336Y0144647D01*
X0214439Y0144517D01*
X0214540Y0144385D01*
X0214638Y0144250D01*
X0214732Y0144113D01*
X0214822Y0143974D01*
X0214909Y0143832D01*
X0214993Y0143688D01*
X0215073Y0143543D01*
X0215150Y0143395D01*
X0215223Y0143246D01*
X0215292Y0143095D01*
X0215357Y0142942D01*
X0215419Y0142788D01*
X0215477Y0142632D01*
X0215531Y0142475D01*
X0215581Y0142316D01*
X0215628Y0142156D01*
X0215670Y0141996D01*
X0215708Y0141834D01*
X0215743Y0141671D01*
X0215773Y0141508D01*
X0215800Y0141344D01*
X0215822Y0141179D01*
X0215840Y0141014D01*
X0215855Y0140848D01*
X0215865Y0140682D01*
X0215871Y0140516D01*
X0215873Y0140350D01*
X0215871Y0140184D01*
X0215865Y0140018D01*
X0215855Y0139852D01*
X0215840Y0139686D01*
X0215822Y0139521D01*
X0215800Y0139356D01*
X0215773Y0139192D01*
X0215743Y0139029D01*
X0215708Y0138866D01*
X0215670Y0138704D01*
X0215628Y0138544D01*
X0215581Y0138384D01*
X0215531Y0138225D01*
X0215477Y0138068D01*
X0215419Y0137912D01*
X0215357Y0137758D01*
X0215292Y0137605D01*
X0215223Y0137454D01*
X0215150Y0137305D01*
X0215073Y0137157D01*
X0214993Y0137012D01*
X0214909Y0136868D01*
X0214822Y0136726D01*
X0214732Y0136587D01*
X0214638Y0136450D01*
X0214540Y0136315D01*
X0214439Y0136183D01*
X0214336Y0136053D01*
X0214229Y0135926D01*
X0214118Y0135802D01*
X0214005Y0135680D01*
X0213889Y0135561D01*
X0213770Y0135445D01*
X0213648Y0135332D01*
X0213524Y0135221D01*
X0213397Y0135114D01*
X0213267Y0135011D01*
X0213135Y0134910D01*
X0213000Y0134812D01*
X0212863Y0134718D01*
X0212724Y0134628D01*
X0212582Y0134541D01*
X0212438Y0134457D01*
X0212293Y0134377D01*
X0212145Y0134300D01*
X0211996Y0134227D01*
X0211845Y0134158D01*
X0211692Y0134093D01*
X0211538Y0134031D01*
X0211382Y0133973D01*
X0211225Y0133919D01*
X0211066Y0133869D01*
X0210906Y0133822D01*
X0210746Y0133780D01*
X0210584Y0133742D01*
X0210421Y0133707D01*
X0210258Y0133677D01*
X0210094Y0133650D01*
X0209929Y0133628D01*
X0209764Y0133610D01*
X0209598Y0133595D01*
X0209432Y0133585D01*
X0209266Y0133579D01*
X0209100Y0133577D01*
X0208934Y0133579D01*
X0208768Y0133585D01*
X0208602Y0133595D01*
X0208436Y0133610D01*
X0208271Y0133628D01*
X0208106Y0133650D01*
X0207942Y0133677D01*
X0207779Y0133707D01*
X0207616Y0133742D01*
X0207454Y0133780D01*
X0207294Y0133822D01*
X0207134Y0133869D01*
X0206975Y0133919D01*
X0206818Y0133973D01*
X0206662Y0134031D01*
X0206508Y0134093D01*
X0206355Y0134158D01*
X0206204Y0134227D01*
X0206055Y0134300D01*
X0205907Y0134377D01*
X0205762Y0134457D01*
X0205618Y0134541D01*
X0205476Y0134628D01*
X0205337Y0134718D01*
X0205200Y0134812D01*
X0205065Y0134910D01*
X0204933Y0135011D01*
X0204803Y0135114D01*
X0204676Y0135221D01*
X0204552Y0135332D01*
X0204430Y0135445D01*
X0204311Y0135561D01*
X0204195Y0135680D01*
X0204082Y0135802D01*
X0203971Y0135926D01*
X0203864Y0136053D01*
X0203761Y0136183D01*
X0203660Y0136315D01*
X0203562Y0136450D01*
X0203468Y0136587D01*
X0203378Y0136726D01*
X0203291Y0136868D01*
X0203207Y0137012D01*
X0203127Y0137157D01*
X0203050Y0137305D01*
X0202977Y0137454D01*
X0202908Y0137605D01*
X0202843Y0137758D01*
X0202781Y0137912D01*
X0202723Y0138068D01*
X0202669Y0138225D01*
X0202619Y0138384D01*
X0202572Y0138544D01*
X0202530Y0138704D01*
X0202492Y0138866D01*
X0202457Y0139029D01*
X0202427Y0139192D01*
X0202400Y0139356D01*
X0202378Y0139521D01*
X0202360Y0139686D01*
X0202345Y0139852D01*
X0202335Y0140018D01*
X0202329Y0140184D01*
X0202327Y0140350D01*
X0202327Y0095350D02*
X0202329Y0095516D01*
X0202335Y0095682D01*
X0202345Y0095848D01*
X0202360Y0096014D01*
X0202378Y0096179D01*
X0202400Y0096344D01*
X0202427Y0096508D01*
X0202457Y0096671D01*
X0202492Y0096834D01*
X0202530Y0096996D01*
X0202572Y0097156D01*
X0202619Y0097316D01*
X0202669Y0097475D01*
X0202723Y0097632D01*
X0202781Y0097788D01*
X0202843Y0097942D01*
X0202908Y0098095D01*
X0202977Y0098246D01*
X0203050Y0098395D01*
X0203127Y0098543D01*
X0203207Y0098688D01*
X0203291Y0098832D01*
X0203378Y0098974D01*
X0203468Y0099113D01*
X0203562Y0099250D01*
X0203660Y0099385D01*
X0203761Y0099517D01*
X0203864Y0099647D01*
X0203971Y0099774D01*
X0204082Y0099898D01*
X0204195Y0100020D01*
X0204311Y0100139D01*
X0204430Y0100255D01*
X0204552Y0100368D01*
X0204676Y0100479D01*
X0204803Y0100586D01*
X0204933Y0100689D01*
X0205065Y0100790D01*
X0205200Y0100888D01*
X0205337Y0100982D01*
X0205476Y0101072D01*
X0205618Y0101159D01*
X0205762Y0101243D01*
X0205907Y0101323D01*
X0206055Y0101400D01*
X0206204Y0101473D01*
X0206355Y0101542D01*
X0206508Y0101607D01*
X0206662Y0101669D01*
X0206818Y0101727D01*
X0206975Y0101781D01*
X0207134Y0101831D01*
X0207294Y0101878D01*
X0207454Y0101920D01*
X0207616Y0101958D01*
X0207779Y0101993D01*
X0207942Y0102023D01*
X0208106Y0102050D01*
X0208271Y0102072D01*
X0208436Y0102090D01*
X0208602Y0102105D01*
X0208768Y0102115D01*
X0208934Y0102121D01*
X0209100Y0102123D01*
X0209266Y0102121D01*
X0209432Y0102115D01*
X0209598Y0102105D01*
X0209764Y0102090D01*
X0209929Y0102072D01*
X0210094Y0102050D01*
X0210258Y0102023D01*
X0210421Y0101993D01*
X0210584Y0101958D01*
X0210746Y0101920D01*
X0210906Y0101878D01*
X0211066Y0101831D01*
X0211225Y0101781D01*
X0211382Y0101727D01*
X0211538Y0101669D01*
X0211692Y0101607D01*
X0211845Y0101542D01*
X0211996Y0101473D01*
X0212145Y0101400D01*
X0212293Y0101323D01*
X0212438Y0101243D01*
X0212582Y0101159D01*
X0212724Y0101072D01*
X0212863Y0100982D01*
X0213000Y0100888D01*
X0213135Y0100790D01*
X0213267Y0100689D01*
X0213397Y0100586D01*
X0213524Y0100479D01*
X0213648Y0100368D01*
X0213770Y0100255D01*
X0213889Y0100139D01*
X0214005Y0100020D01*
X0214118Y0099898D01*
X0214229Y0099774D01*
X0214336Y0099647D01*
X0214439Y0099517D01*
X0214540Y0099385D01*
X0214638Y0099250D01*
X0214732Y0099113D01*
X0214822Y0098974D01*
X0214909Y0098832D01*
X0214993Y0098688D01*
X0215073Y0098543D01*
X0215150Y0098395D01*
X0215223Y0098246D01*
X0215292Y0098095D01*
X0215357Y0097942D01*
X0215419Y0097788D01*
X0215477Y0097632D01*
X0215531Y0097475D01*
X0215581Y0097316D01*
X0215628Y0097156D01*
X0215670Y0096996D01*
X0215708Y0096834D01*
X0215743Y0096671D01*
X0215773Y0096508D01*
X0215800Y0096344D01*
X0215822Y0096179D01*
X0215840Y0096014D01*
X0215855Y0095848D01*
X0215865Y0095682D01*
X0215871Y0095516D01*
X0215873Y0095350D01*
X0215871Y0095184D01*
X0215865Y0095018D01*
X0215855Y0094852D01*
X0215840Y0094686D01*
X0215822Y0094521D01*
X0215800Y0094356D01*
X0215773Y0094192D01*
X0215743Y0094029D01*
X0215708Y0093866D01*
X0215670Y0093704D01*
X0215628Y0093544D01*
X0215581Y0093384D01*
X0215531Y0093225D01*
X0215477Y0093068D01*
X0215419Y0092912D01*
X0215357Y0092758D01*
X0215292Y0092605D01*
X0215223Y0092454D01*
X0215150Y0092305D01*
X0215073Y0092157D01*
X0214993Y0092012D01*
X0214909Y0091868D01*
X0214822Y0091726D01*
X0214732Y0091587D01*
X0214638Y0091450D01*
X0214540Y0091315D01*
X0214439Y0091183D01*
X0214336Y0091053D01*
X0214229Y0090926D01*
X0214118Y0090802D01*
X0214005Y0090680D01*
X0213889Y0090561D01*
X0213770Y0090445D01*
X0213648Y0090332D01*
X0213524Y0090221D01*
X0213397Y0090114D01*
X0213267Y0090011D01*
X0213135Y0089910D01*
X0213000Y0089812D01*
X0212863Y0089718D01*
X0212724Y0089628D01*
X0212582Y0089541D01*
X0212438Y0089457D01*
X0212293Y0089377D01*
X0212145Y0089300D01*
X0211996Y0089227D01*
X0211845Y0089158D01*
X0211692Y0089093D01*
X0211538Y0089031D01*
X0211382Y0088973D01*
X0211225Y0088919D01*
X0211066Y0088869D01*
X0210906Y0088822D01*
X0210746Y0088780D01*
X0210584Y0088742D01*
X0210421Y0088707D01*
X0210258Y0088677D01*
X0210094Y0088650D01*
X0209929Y0088628D01*
X0209764Y0088610D01*
X0209598Y0088595D01*
X0209432Y0088585D01*
X0209266Y0088579D01*
X0209100Y0088577D01*
X0208934Y0088579D01*
X0208768Y0088585D01*
X0208602Y0088595D01*
X0208436Y0088610D01*
X0208271Y0088628D01*
X0208106Y0088650D01*
X0207942Y0088677D01*
X0207779Y0088707D01*
X0207616Y0088742D01*
X0207454Y0088780D01*
X0207294Y0088822D01*
X0207134Y0088869D01*
X0206975Y0088919D01*
X0206818Y0088973D01*
X0206662Y0089031D01*
X0206508Y0089093D01*
X0206355Y0089158D01*
X0206204Y0089227D01*
X0206055Y0089300D01*
X0205907Y0089377D01*
X0205762Y0089457D01*
X0205618Y0089541D01*
X0205476Y0089628D01*
X0205337Y0089718D01*
X0205200Y0089812D01*
X0205065Y0089910D01*
X0204933Y0090011D01*
X0204803Y0090114D01*
X0204676Y0090221D01*
X0204552Y0090332D01*
X0204430Y0090445D01*
X0204311Y0090561D01*
X0204195Y0090680D01*
X0204082Y0090802D01*
X0203971Y0090926D01*
X0203864Y0091053D01*
X0203761Y0091183D01*
X0203660Y0091315D01*
X0203562Y0091450D01*
X0203468Y0091587D01*
X0203378Y0091726D01*
X0203291Y0091868D01*
X0203207Y0092012D01*
X0203127Y0092157D01*
X0203050Y0092305D01*
X0202977Y0092454D01*
X0202908Y0092605D01*
X0202843Y0092758D01*
X0202781Y0092912D01*
X0202723Y0093068D01*
X0202669Y0093225D01*
X0202619Y0093384D01*
X0202572Y0093544D01*
X0202530Y0093704D01*
X0202492Y0093866D01*
X0202457Y0094029D01*
X0202427Y0094192D01*
X0202400Y0094356D01*
X0202378Y0094521D01*
X0202360Y0094686D01*
X0202345Y0094852D01*
X0202335Y0095018D01*
X0202329Y0095184D01*
X0202327Y0095350D01*
X0200911Y0084346D02*
X0199257Y0082693D01*
X0199257Y0063007D01*
X0218943Y0063007D01*
X0218943Y0082693D01*
X0218903Y0082693D02*
X0205517Y0082693D01*
X0203864Y0084346D01*
X0200911Y0084346D01*
X0202327Y0072850D02*
X0202329Y0073016D01*
X0202335Y0073182D01*
X0202345Y0073348D01*
X0202360Y0073514D01*
X0202378Y0073679D01*
X0202400Y0073844D01*
X0202427Y0074008D01*
X0202457Y0074171D01*
X0202492Y0074334D01*
X0202530Y0074496D01*
X0202572Y0074656D01*
X0202619Y0074816D01*
X0202669Y0074975D01*
X0202723Y0075132D01*
X0202781Y0075288D01*
X0202843Y0075442D01*
X0202908Y0075595D01*
X0202977Y0075746D01*
X0203050Y0075895D01*
X0203127Y0076043D01*
X0203207Y0076188D01*
X0203291Y0076332D01*
X0203378Y0076474D01*
X0203468Y0076613D01*
X0203562Y0076750D01*
X0203660Y0076885D01*
X0203761Y0077017D01*
X0203864Y0077147D01*
X0203971Y0077274D01*
X0204082Y0077398D01*
X0204195Y0077520D01*
X0204311Y0077639D01*
X0204430Y0077755D01*
X0204552Y0077868D01*
X0204676Y0077979D01*
X0204803Y0078086D01*
X0204933Y0078189D01*
X0205065Y0078290D01*
X0205200Y0078388D01*
X0205337Y0078482D01*
X0205476Y0078572D01*
X0205618Y0078659D01*
X0205762Y0078743D01*
X0205907Y0078823D01*
X0206055Y0078900D01*
X0206204Y0078973D01*
X0206355Y0079042D01*
X0206508Y0079107D01*
X0206662Y0079169D01*
X0206818Y0079227D01*
X0206975Y0079281D01*
X0207134Y0079331D01*
X0207294Y0079378D01*
X0207454Y0079420D01*
X0207616Y0079458D01*
X0207779Y0079493D01*
X0207942Y0079523D01*
X0208106Y0079550D01*
X0208271Y0079572D01*
X0208436Y0079590D01*
X0208602Y0079605D01*
X0208768Y0079615D01*
X0208934Y0079621D01*
X0209100Y0079623D01*
X0209266Y0079621D01*
X0209432Y0079615D01*
X0209598Y0079605D01*
X0209764Y0079590D01*
X0209929Y0079572D01*
X0210094Y0079550D01*
X0210258Y0079523D01*
X0210421Y0079493D01*
X0210584Y0079458D01*
X0210746Y0079420D01*
X0210906Y0079378D01*
X0211066Y0079331D01*
X0211225Y0079281D01*
X0211382Y0079227D01*
X0211538Y0079169D01*
X0211692Y0079107D01*
X0211845Y0079042D01*
X0211996Y0078973D01*
X0212145Y0078900D01*
X0212293Y0078823D01*
X0212438Y0078743D01*
X0212582Y0078659D01*
X0212724Y0078572D01*
X0212863Y0078482D01*
X0213000Y0078388D01*
X0213135Y0078290D01*
X0213267Y0078189D01*
X0213397Y0078086D01*
X0213524Y0077979D01*
X0213648Y0077868D01*
X0213770Y0077755D01*
X0213889Y0077639D01*
X0214005Y0077520D01*
X0214118Y0077398D01*
X0214229Y0077274D01*
X0214336Y0077147D01*
X0214439Y0077017D01*
X0214540Y0076885D01*
X0214638Y0076750D01*
X0214732Y0076613D01*
X0214822Y0076474D01*
X0214909Y0076332D01*
X0214993Y0076188D01*
X0215073Y0076043D01*
X0215150Y0075895D01*
X0215223Y0075746D01*
X0215292Y0075595D01*
X0215357Y0075442D01*
X0215419Y0075288D01*
X0215477Y0075132D01*
X0215531Y0074975D01*
X0215581Y0074816D01*
X0215628Y0074656D01*
X0215670Y0074496D01*
X0215708Y0074334D01*
X0215743Y0074171D01*
X0215773Y0074008D01*
X0215800Y0073844D01*
X0215822Y0073679D01*
X0215840Y0073514D01*
X0215855Y0073348D01*
X0215865Y0073182D01*
X0215871Y0073016D01*
X0215873Y0072850D01*
X0215871Y0072684D01*
X0215865Y0072518D01*
X0215855Y0072352D01*
X0215840Y0072186D01*
X0215822Y0072021D01*
X0215800Y0071856D01*
X0215773Y0071692D01*
X0215743Y0071529D01*
X0215708Y0071366D01*
X0215670Y0071204D01*
X0215628Y0071044D01*
X0215581Y0070884D01*
X0215531Y0070725D01*
X0215477Y0070568D01*
X0215419Y0070412D01*
X0215357Y0070258D01*
X0215292Y0070105D01*
X0215223Y0069954D01*
X0215150Y0069805D01*
X0215073Y0069657D01*
X0214993Y0069512D01*
X0214909Y0069368D01*
X0214822Y0069226D01*
X0214732Y0069087D01*
X0214638Y0068950D01*
X0214540Y0068815D01*
X0214439Y0068683D01*
X0214336Y0068553D01*
X0214229Y0068426D01*
X0214118Y0068302D01*
X0214005Y0068180D01*
X0213889Y0068061D01*
X0213770Y0067945D01*
X0213648Y0067832D01*
X0213524Y0067721D01*
X0213397Y0067614D01*
X0213267Y0067511D01*
X0213135Y0067410D01*
X0213000Y0067312D01*
X0212863Y0067218D01*
X0212724Y0067128D01*
X0212582Y0067041D01*
X0212438Y0066957D01*
X0212293Y0066877D01*
X0212145Y0066800D01*
X0211996Y0066727D01*
X0211845Y0066658D01*
X0211692Y0066593D01*
X0211538Y0066531D01*
X0211382Y0066473D01*
X0211225Y0066419D01*
X0211066Y0066369D01*
X0210906Y0066322D01*
X0210746Y0066280D01*
X0210584Y0066242D01*
X0210421Y0066207D01*
X0210258Y0066177D01*
X0210094Y0066150D01*
X0209929Y0066128D01*
X0209764Y0066110D01*
X0209598Y0066095D01*
X0209432Y0066085D01*
X0209266Y0066079D01*
X0209100Y0066077D01*
X0208934Y0066079D01*
X0208768Y0066085D01*
X0208602Y0066095D01*
X0208436Y0066110D01*
X0208271Y0066128D01*
X0208106Y0066150D01*
X0207942Y0066177D01*
X0207779Y0066207D01*
X0207616Y0066242D01*
X0207454Y0066280D01*
X0207294Y0066322D01*
X0207134Y0066369D01*
X0206975Y0066419D01*
X0206818Y0066473D01*
X0206662Y0066531D01*
X0206508Y0066593D01*
X0206355Y0066658D01*
X0206204Y0066727D01*
X0206055Y0066800D01*
X0205907Y0066877D01*
X0205762Y0066957D01*
X0205618Y0067041D01*
X0205476Y0067128D01*
X0205337Y0067218D01*
X0205200Y0067312D01*
X0205065Y0067410D01*
X0204933Y0067511D01*
X0204803Y0067614D01*
X0204676Y0067721D01*
X0204552Y0067832D01*
X0204430Y0067945D01*
X0204311Y0068061D01*
X0204195Y0068180D01*
X0204082Y0068302D01*
X0203971Y0068426D01*
X0203864Y0068553D01*
X0203761Y0068683D01*
X0203660Y0068815D01*
X0203562Y0068950D01*
X0203468Y0069087D01*
X0203378Y0069226D01*
X0203291Y0069368D01*
X0203207Y0069512D01*
X0203127Y0069657D01*
X0203050Y0069805D01*
X0202977Y0069954D01*
X0202908Y0070105D01*
X0202843Y0070258D01*
X0202781Y0070412D01*
X0202723Y0070568D01*
X0202669Y0070725D01*
X0202619Y0070884D01*
X0202572Y0071044D01*
X0202530Y0071204D01*
X0202492Y0071366D01*
X0202457Y0071529D01*
X0202427Y0071692D01*
X0202400Y0071856D01*
X0202378Y0072021D01*
X0202360Y0072186D01*
X0202345Y0072352D01*
X0202335Y0072518D01*
X0202329Y0072684D01*
X0202327Y0072850D01*
X0200911Y0061846D02*
X0199257Y0060193D01*
X0199257Y0040507D01*
X0218943Y0040507D01*
X0218943Y0060193D01*
X0218903Y0060193D02*
X0205517Y0060193D01*
X0203864Y0061846D01*
X0200911Y0061846D01*
X0202327Y0050350D02*
X0202329Y0050516D01*
X0202335Y0050682D01*
X0202345Y0050848D01*
X0202360Y0051014D01*
X0202378Y0051179D01*
X0202400Y0051344D01*
X0202427Y0051508D01*
X0202457Y0051671D01*
X0202492Y0051834D01*
X0202530Y0051996D01*
X0202572Y0052156D01*
X0202619Y0052316D01*
X0202669Y0052475D01*
X0202723Y0052632D01*
X0202781Y0052788D01*
X0202843Y0052942D01*
X0202908Y0053095D01*
X0202977Y0053246D01*
X0203050Y0053395D01*
X0203127Y0053543D01*
X0203207Y0053688D01*
X0203291Y0053832D01*
X0203378Y0053974D01*
X0203468Y0054113D01*
X0203562Y0054250D01*
X0203660Y0054385D01*
X0203761Y0054517D01*
X0203864Y0054647D01*
X0203971Y0054774D01*
X0204082Y0054898D01*
X0204195Y0055020D01*
X0204311Y0055139D01*
X0204430Y0055255D01*
X0204552Y0055368D01*
X0204676Y0055479D01*
X0204803Y0055586D01*
X0204933Y0055689D01*
X0205065Y0055790D01*
X0205200Y0055888D01*
X0205337Y0055982D01*
X0205476Y0056072D01*
X0205618Y0056159D01*
X0205762Y0056243D01*
X0205907Y0056323D01*
X0206055Y0056400D01*
X0206204Y0056473D01*
X0206355Y0056542D01*
X0206508Y0056607D01*
X0206662Y0056669D01*
X0206818Y0056727D01*
X0206975Y0056781D01*
X0207134Y0056831D01*
X0207294Y0056878D01*
X0207454Y0056920D01*
X0207616Y0056958D01*
X0207779Y0056993D01*
X0207942Y0057023D01*
X0208106Y0057050D01*
X0208271Y0057072D01*
X0208436Y0057090D01*
X0208602Y0057105D01*
X0208768Y0057115D01*
X0208934Y0057121D01*
X0209100Y0057123D01*
X0209266Y0057121D01*
X0209432Y0057115D01*
X0209598Y0057105D01*
X0209764Y0057090D01*
X0209929Y0057072D01*
X0210094Y0057050D01*
X0210258Y0057023D01*
X0210421Y0056993D01*
X0210584Y0056958D01*
X0210746Y0056920D01*
X0210906Y0056878D01*
X0211066Y0056831D01*
X0211225Y0056781D01*
X0211382Y0056727D01*
X0211538Y0056669D01*
X0211692Y0056607D01*
X0211845Y0056542D01*
X0211996Y0056473D01*
X0212145Y0056400D01*
X0212293Y0056323D01*
X0212438Y0056243D01*
X0212582Y0056159D01*
X0212724Y0056072D01*
X0212863Y0055982D01*
X0213000Y0055888D01*
X0213135Y0055790D01*
X0213267Y0055689D01*
X0213397Y0055586D01*
X0213524Y0055479D01*
X0213648Y0055368D01*
X0213770Y0055255D01*
X0213889Y0055139D01*
X0214005Y0055020D01*
X0214118Y0054898D01*
X0214229Y0054774D01*
X0214336Y0054647D01*
X0214439Y0054517D01*
X0214540Y0054385D01*
X0214638Y0054250D01*
X0214732Y0054113D01*
X0214822Y0053974D01*
X0214909Y0053832D01*
X0214993Y0053688D01*
X0215073Y0053543D01*
X0215150Y0053395D01*
X0215223Y0053246D01*
X0215292Y0053095D01*
X0215357Y0052942D01*
X0215419Y0052788D01*
X0215477Y0052632D01*
X0215531Y0052475D01*
X0215581Y0052316D01*
X0215628Y0052156D01*
X0215670Y0051996D01*
X0215708Y0051834D01*
X0215743Y0051671D01*
X0215773Y0051508D01*
X0215800Y0051344D01*
X0215822Y0051179D01*
X0215840Y0051014D01*
X0215855Y0050848D01*
X0215865Y0050682D01*
X0215871Y0050516D01*
X0215873Y0050350D01*
X0215871Y0050184D01*
X0215865Y0050018D01*
X0215855Y0049852D01*
X0215840Y0049686D01*
X0215822Y0049521D01*
X0215800Y0049356D01*
X0215773Y0049192D01*
X0215743Y0049029D01*
X0215708Y0048866D01*
X0215670Y0048704D01*
X0215628Y0048544D01*
X0215581Y0048384D01*
X0215531Y0048225D01*
X0215477Y0048068D01*
X0215419Y0047912D01*
X0215357Y0047758D01*
X0215292Y0047605D01*
X0215223Y0047454D01*
X0215150Y0047305D01*
X0215073Y0047157D01*
X0214993Y0047012D01*
X0214909Y0046868D01*
X0214822Y0046726D01*
X0214732Y0046587D01*
X0214638Y0046450D01*
X0214540Y0046315D01*
X0214439Y0046183D01*
X0214336Y0046053D01*
X0214229Y0045926D01*
X0214118Y0045802D01*
X0214005Y0045680D01*
X0213889Y0045561D01*
X0213770Y0045445D01*
X0213648Y0045332D01*
X0213524Y0045221D01*
X0213397Y0045114D01*
X0213267Y0045011D01*
X0213135Y0044910D01*
X0213000Y0044812D01*
X0212863Y0044718D01*
X0212724Y0044628D01*
X0212582Y0044541D01*
X0212438Y0044457D01*
X0212293Y0044377D01*
X0212145Y0044300D01*
X0211996Y0044227D01*
X0211845Y0044158D01*
X0211692Y0044093D01*
X0211538Y0044031D01*
X0211382Y0043973D01*
X0211225Y0043919D01*
X0211066Y0043869D01*
X0210906Y0043822D01*
X0210746Y0043780D01*
X0210584Y0043742D01*
X0210421Y0043707D01*
X0210258Y0043677D01*
X0210094Y0043650D01*
X0209929Y0043628D01*
X0209764Y0043610D01*
X0209598Y0043595D01*
X0209432Y0043585D01*
X0209266Y0043579D01*
X0209100Y0043577D01*
X0208934Y0043579D01*
X0208768Y0043585D01*
X0208602Y0043595D01*
X0208436Y0043610D01*
X0208271Y0043628D01*
X0208106Y0043650D01*
X0207942Y0043677D01*
X0207779Y0043707D01*
X0207616Y0043742D01*
X0207454Y0043780D01*
X0207294Y0043822D01*
X0207134Y0043869D01*
X0206975Y0043919D01*
X0206818Y0043973D01*
X0206662Y0044031D01*
X0206508Y0044093D01*
X0206355Y0044158D01*
X0206204Y0044227D01*
X0206055Y0044300D01*
X0205907Y0044377D01*
X0205762Y0044457D01*
X0205618Y0044541D01*
X0205476Y0044628D01*
X0205337Y0044718D01*
X0205200Y0044812D01*
X0205065Y0044910D01*
X0204933Y0045011D01*
X0204803Y0045114D01*
X0204676Y0045221D01*
X0204552Y0045332D01*
X0204430Y0045445D01*
X0204311Y0045561D01*
X0204195Y0045680D01*
X0204082Y0045802D01*
X0203971Y0045926D01*
X0203864Y0046053D01*
X0203761Y0046183D01*
X0203660Y0046315D01*
X0203562Y0046450D01*
X0203468Y0046587D01*
X0203378Y0046726D01*
X0203291Y0046868D01*
X0203207Y0047012D01*
X0203127Y0047157D01*
X0203050Y0047305D01*
X0202977Y0047454D01*
X0202908Y0047605D01*
X0202843Y0047758D01*
X0202781Y0047912D01*
X0202723Y0048068D01*
X0202669Y0048225D01*
X0202619Y0048384D01*
X0202572Y0048544D01*
X0202530Y0048704D01*
X0202492Y0048866D01*
X0202457Y0049029D01*
X0202427Y0049192D01*
X0202400Y0049356D01*
X0202378Y0049521D01*
X0202360Y0049686D01*
X0202345Y0049852D01*
X0202335Y0050018D01*
X0202329Y0050184D01*
X0202327Y0050350D01*
D18*
X0261291Y0087263D02*
X0284409Y0087263D01*
X0284409Y0103437D01*
X0261291Y0103437D01*
X0261291Y0087263D01*
D19*
X0302225Y0051108D03*
X0311600Y0051108D03*
D20*
X0325350Y0090350D03*
X0325350Y0100350D03*
D21*
X0309675Y0104105D02*
X0306539Y0107241D01*
X0308107Y0107241D02*
X0308107Y0104105D01*
X0306539Y0104105D02*
X0309675Y0107241D01*
X0309675Y0105673D02*
X0306539Y0105673D01*
X0294711Y0159434D02*
X0291575Y0162570D01*
X0293143Y0162570D02*
X0293143Y0159434D01*
X0291575Y0159434D02*
X0294711Y0162570D01*
X0294711Y0161002D02*
X0291575Y0161002D01*
M02*
