G75*
%MOIN*%
%OFA0B0*%
%FSLAX25Y25*%
%IPPOS*%
%LPD*%
%AMOC8*
5,1,8,0,0,1.08239X$1,22.5*
%
%ADD10C,0.01200*%
%ADD11C,0.00000*%
%ADD12R,0.04331X0.03937*%
%ADD13R,0.02362X0.03150*%
%ADD14R,0.04724X0.02756*%
%ADD15R,0.03937X0.11024*%
%ADD16R,0.01200X0.03900*%
%ADD17R,0.29528X0.05906*%
%ADD18R,0.25591X0.03937*%
%ADD19R,0.05906X0.03543*%
%ADD20R,0.03150X0.03150*%
%ADD21R,0.03150X0.04724*%
%ADD22R,0.04724X0.03150*%
%ADD23R,0.03543X0.03937*%
%ADD24R,0.02008X0.02362*%
%ADD25R,0.02756X0.03543*%
%ADD26R,0.06400X0.03500*%
%ADD27R,0.06400X0.12500*%
%ADD28R,0.04600X0.02100*%
%ADD29R,0.05512X0.04331*%
D10*
X0004800Y0001600D02*
X0173400Y0001600D01*
X0173399Y0001601D02*
X0173517Y0001613D01*
X0173633Y0001630D01*
X0173749Y0001650D01*
X0173865Y0001674D01*
X0173979Y0001702D01*
X0174093Y0001733D01*
X0174205Y0001769D01*
X0174316Y0001808D01*
X0174426Y0001851D01*
X0174534Y0001898D01*
X0174641Y0001948D01*
X0174746Y0002002D01*
X0174849Y0002059D01*
X0174950Y0002119D01*
X0175049Y0002183D01*
X0175146Y0002250D01*
X0175240Y0002321D01*
X0175332Y0002394D01*
X0175422Y0002471D01*
X0175509Y0002550D01*
X0175593Y0002633D01*
X0175675Y0002718D01*
X0175753Y0002806D01*
X0175829Y0002896D01*
X0175901Y0002989D01*
X0175971Y0003084D01*
X0176037Y0003182D01*
X0176100Y0003281D01*
X0176159Y0003383D01*
X0176215Y0003487D01*
X0176268Y0003592D01*
X0176317Y0003699D01*
X0176363Y0003808D01*
X0176404Y0003918D01*
X0176442Y0004030D01*
X0176477Y0004142D01*
X0176507Y0004256D01*
X0176534Y0004371D01*
X0176557Y0004486D01*
X0176576Y0004603D01*
X0176591Y0004720D01*
X0176602Y0004837D01*
X0176609Y0004955D01*
X0176613Y0005072D01*
X0176612Y0005190D01*
X0176608Y0005308D01*
X0176599Y0005425D01*
X0176600Y0005425D02*
X0176600Y0080275D01*
X0176602Y0080387D01*
X0176608Y0080498D01*
X0176618Y0080609D01*
X0176631Y0080720D01*
X0176649Y0080831D01*
X0176670Y0080940D01*
X0176695Y0081049D01*
X0176724Y0081157D01*
X0176757Y0081264D01*
X0176793Y0081369D01*
X0176833Y0081474D01*
X0176877Y0081577D01*
X0176924Y0081678D01*
X0176975Y0081777D01*
X0177029Y0081875D01*
X0177086Y0081971D01*
X0177147Y0082064D01*
X0177211Y0082156D01*
X0177278Y0082245D01*
X0177349Y0082332D01*
X0177422Y0082416D01*
X0177498Y0082498D01*
X0177577Y0082577D01*
X0177659Y0082653D01*
X0177743Y0082726D01*
X0177830Y0082797D01*
X0177919Y0082864D01*
X0178011Y0082928D01*
X0178104Y0082989D01*
X0178200Y0083046D01*
X0178298Y0083100D01*
X0178397Y0083151D01*
X0178498Y0083198D01*
X0178601Y0083242D01*
X0178706Y0083282D01*
X0178811Y0083318D01*
X0178918Y0083351D01*
X0179026Y0083380D01*
X0179135Y0083405D01*
X0179244Y0083426D01*
X0179355Y0083444D01*
X0179466Y0083457D01*
X0179577Y0083467D01*
X0179688Y0083473D01*
X0179800Y0083475D01*
X0182150Y0083475D01*
X0179800Y0083475D02*
X0179725Y0083475D01*
X0182150Y0083475D02*
X0182262Y0083473D01*
X0182373Y0083467D01*
X0182484Y0083457D01*
X0182595Y0083444D01*
X0182706Y0083426D01*
X0182815Y0083405D01*
X0182924Y0083380D01*
X0183032Y0083351D01*
X0183139Y0083318D01*
X0183244Y0083282D01*
X0183349Y0083242D01*
X0183452Y0083198D01*
X0183553Y0083151D01*
X0183652Y0083100D01*
X0183750Y0083046D01*
X0183846Y0082989D01*
X0183939Y0082928D01*
X0184031Y0082864D01*
X0184120Y0082797D01*
X0184207Y0082726D01*
X0184291Y0082653D01*
X0184373Y0082577D01*
X0184452Y0082498D01*
X0184528Y0082416D01*
X0184601Y0082332D01*
X0184672Y0082245D01*
X0184739Y0082156D01*
X0184803Y0082064D01*
X0184864Y0081971D01*
X0184921Y0081875D01*
X0184975Y0081777D01*
X0185026Y0081678D01*
X0185073Y0081577D01*
X0185117Y0081474D01*
X0185157Y0081369D01*
X0185193Y0081264D01*
X0185226Y0081157D01*
X0185255Y0081049D01*
X0185280Y0080940D01*
X0185301Y0080831D01*
X0185319Y0080720D01*
X0185332Y0080609D01*
X0185342Y0080498D01*
X0185348Y0080387D01*
X0185350Y0080275D01*
X0185350Y0004800D01*
X0185352Y0004688D01*
X0185358Y0004577D01*
X0185368Y0004466D01*
X0185381Y0004355D01*
X0185399Y0004244D01*
X0185420Y0004135D01*
X0185445Y0004026D01*
X0185474Y0003918D01*
X0185507Y0003811D01*
X0185543Y0003706D01*
X0185583Y0003601D01*
X0185627Y0003498D01*
X0185674Y0003397D01*
X0185725Y0003298D01*
X0185779Y0003200D01*
X0185836Y0003104D01*
X0185897Y0003011D01*
X0185961Y0002919D01*
X0186028Y0002830D01*
X0186099Y0002743D01*
X0186172Y0002659D01*
X0186248Y0002577D01*
X0186327Y0002498D01*
X0186409Y0002422D01*
X0186493Y0002349D01*
X0186580Y0002278D01*
X0186669Y0002211D01*
X0186761Y0002147D01*
X0186854Y0002086D01*
X0186950Y0002029D01*
X0187048Y0001975D01*
X0187147Y0001924D01*
X0187248Y0001877D01*
X0187351Y0001833D01*
X0187456Y0001793D01*
X0187561Y0001757D01*
X0187668Y0001724D01*
X0187776Y0001695D01*
X0187885Y0001670D01*
X0187994Y0001649D01*
X0188105Y0001631D01*
X0188216Y0001618D01*
X0188327Y0001608D01*
X0188438Y0001602D01*
X0188550Y0001600D01*
X0357150Y0001600D01*
X0357262Y0001602D01*
X0357373Y0001608D01*
X0357484Y0001618D01*
X0357595Y0001631D01*
X0357706Y0001649D01*
X0357815Y0001670D01*
X0357924Y0001695D01*
X0358032Y0001724D01*
X0358139Y0001757D01*
X0358244Y0001793D01*
X0358349Y0001833D01*
X0358452Y0001877D01*
X0358553Y0001924D01*
X0358652Y0001975D01*
X0358750Y0002029D01*
X0358846Y0002086D01*
X0358939Y0002147D01*
X0359031Y0002211D01*
X0359120Y0002278D01*
X0359207Y0002349D01*
X0359291Y0002422D01*
X0359373Y0002498D01*
X0359452Y0002577D01*
X0359528Y0002659D01*
X0359601Y0002743D01*
X0359672Y0002830D01*
X0359739Y0002919D01*
X0359803Y0003011D01*
X0359864Y0003104D01*
X0359921Y0003200D01*
X0359975Y0003298D01*
X0360026Y0003397D01*
X0360073Y0003498D01*
X0360117Y0003601D01*
X0360157Y0003706D01*
X0360193Y0003811D01*
X0360226Y0003918D01*
X0360255Y0004026D01*
X0360280Y0004135D01*
X0360301Y0004244D01*
X0360319Y0004355D01*
X0360332Y0004466D01*
X0360342Y0004577D01*
X0360348Y0004688D01*
X0360350Y0004800D01*
X0360350Y0068400D01*
X0360352Y0068512D01*
X0360358Y0068623D01*
X0360368Y0068734D01*
X0360381Y0068845D01*
X0360399Y0068956D01*
X0360420Y0069065D01*
X0360445Y0069174D01*
X0360474Y0069282D01*
X0360507Y0069389D01*
X0360543Y0069494D01*
X0360583Y0069599D01*
X0360627Y0069702D01*
X0360674Y0069803D01*
X0360725Y0069902D01*
X0360779Y0070000D01*
X0360836Y0070096D01*
X0360897Y0070189D01*
X0360961Y0070281D01*
X0361028Y0070370D01*
X0361099Y0070457D01*
X0361172Y0070541D01*
X0361248Y0070623D01*
X0361327Y0070702D01*
X0361409Y0070778D01*
X0361493Y0070851D01*
X0361580Y0070922D01*
X0361669Y0070989D01*
X0361761Y0071053D01*
X0361854Y0071114D01*
X0361950Y0071171D01*
X0362048Y0071225D01*
X0362147Y0071276D01*
X0362248Y0071323D01*
X0362351Y0071367D01*
X0362456Y0071407D01*
X0362561Y0071443D01*
X0362668Y0071476D01*
X0362776Y0071505D01*
X0362885Y0071530D01*
X0362994Y0071551D01*
X0363105Y0071569D01*
X0363216Y0071582D01*
X0363327Y0071592D01*
X0363438Y0071598D01*
X0363550Y0071600D01*
X0391525Y0071600D01*
X0391637Y0071602D01*
X0391748Y0071608D01*
X0391859Y0071618D01*
X0391970Y0071631D01*
X0392081Y0071649D01*
X0392190Y0071670D01*
X0392299Y0071695D01*
X0392407Y0071724D01*
X0392514Y0071757D01*
X0392619Y0071793D01*
X0392724Y0071833D01*
X0392827Y0071877D01*
X0392928Y0071924D01*
X0393027Y0071975D01*
X0393125Y0072029D01*
X0393221Y0072086D01*
X0393314Y0072147D01*
X0393406Y0072211D01*
X0393495Y0072278D01*
X0393582Y0072349D01*
X0393666Y0072422D01*
X0393748Y0072498D01*
X0393827Y0072577D01*
X0393903Y0072659D01*
X0393976Y0072743D01*
X0394047Y0072830D01*
X0394114Y0072919D01*
X0394178Y0073011D01*
X0394239Y0073104D01*
X0394296Y0073200D01*
X0394350Y0073298D01*
X0394401Y0073397D01*
X0394448Y0073498D01*
X0394492Y0073601D01*
X0394532Y0073706D01*
X0394568Y0073811D01*
X0394601Y0073918D01*
X0394630Y0074026D01*
X0394655Y0074135D01*
X0394676Y0074244D01*
X0394694Y0074355D01*
X0394707Y0074466D01*
X0394717Y0074577D01*
X0394723Y0074688D01*
X0394725Y0074800D01*
X0394725Y0115900D01*
X0394723Y0116012D01*
X0394717Y0116123D01*
X0394707Y0116234D01*
X0394694Y0116345D01*
X0394676Y0116456D01*
X0394655Y0116565D01*
X0394630Y0116674D01*
X0394601Y0116782D01*
X0394568Y0116889D01*
X0394532Y0116994D01*
X0394492Y0117099D01*
X0394448Y0117202D01*
X0394401Y0117303D01*
X0394350Y0117402D01*
X0394296Y0117500D01*
X0394239Y0117596D01*
X0394178Y0117689D01*
X0394114Y0117781D01*
X0394047Y0117870D01*
X0393976Y0117957D01*
X0393903Y0118041D01*
X0393827Y0118123D01*
X0393748Y0118202D01*
X0393666Y0118278D01*
X0393582Y0118351D01*
X0393495Y0118422D01*
X0393406Y0118489D01*
X0393314Y0118553D01*
X0393221Y0118614D01*
X0393125Y0118671D01*
X0393027Y0118725D01*
X0392928Y0118776D01*
X0392827Y0118823D01*
X0392724Y0118867D01*
X0392619Y0118907D01*
X0392514Y0118943D01*
X0392407Y0118976D01*
X0392299Y0119005D01*
X0392190Y0119030D01*
X0392081Y0119051D01*
X0391970Y0119069D01*
X0391859Y0119082D01*
X0391748Y0119092D01*
X0391637Y0119098D01*
X0391525Y0119100D01*
X0363550Y0119100D01*
X0363438Y0119102D01*
X0363327Y0119108D01*
X0363216Y0119118D01*
X0363105Y0119131D01*
X0362994Y0119149D01*
X0362885Y0119170D01*
X0362776Y0119195D01*
X0362668Y0119224D01*
X0362561Y0119257D01*
X0362456Y0119293D01*
X0362351Y0119333D01*
X0362248Y0119377D01*
X0362147Y0119424D01*
X0362048Y0119475D01*
X0361950Y0119529D01*
X0361854Y0119586D01*
X0361761Y0119647D01*
X0361669Y0119711D01*
X0361580Y0119778D01*
X0361493Y0119849D01*
X0361409Y0119922D01*
X0361327Y0119998D01*
X0361248Y0120077D01*
X0361172Y0120159D01*
X0361099Y0120243D01*
X0361028Y0120330D01*
X0360961Y0120419D01*
X0360897Y0120511D01*
X0360836Y0120604D01*
X0360779Y0120700D01*
X0360725Y0120798D01*
X0360674Y0120897D01*
X0360627Y0120998D01*
X0360583Y0121101D01*
X0360543Y0121206D01*
X0360507Y0121311D01*
X0360474Y0121418D01*
X0360445Y0121526D01*
X0360420Y0121635D01*
X0360399Y0121744D01*
X0360381Y0121855D01*
X0360368Y0121966D01*
X0360358Y0122077D01*
X0360352Y0122188D01*
X0360350Y0122300D01*
X0360350Y0185900D01*
X0360348Y0186012D01*
X0360342Y0186123D01*
X0360332Y0186234D01*
X0360319Y0186345D01*
X0360301Y0186456D01*
X0360280Y0186565D01*
X0360255Y0186674D01*
X0360226Y0186782D01*
X0360193Y0186889D01*
X0360157Y0186994D01*
X0360117Y0187099D01*
X0360073Y0187202D01*
X0360026Y0187303D01*
X0359975Y0187402D01*
X0359921Y0187500D01*
X0359864Y0187596D01*
X0359803Y0187689D01*
X0359739Y0187781D01*
X0359672Y0187870D01*
X0359601Y0187957D01*
X0359528Y0188041D01*
X0359452Y0188123D01*
X0359373Y0188202D01*
X0359291Y0188278D01*
X0359207Y0188351D01*
X0359120Y0188422D01*
X0359031Y0188489D01*
X0358939Y0188553D01*
X0358846Y0188614D01*
X0358750Y0188671D01*
X0358652Y0188725D01*
X0358553Y0188776D01*
X0358452Y0188823D01*
X0358349Y0188867D01*
X0358244Y0188907D01*
X0358139Y0188943D01*
X0358032Y0188976D01*
X0357924Y0189005D01*
X0357815Y0189030D01*
X0357706Y0189051D01*
X0357595Y0189069D01*
X0357484Y0189082D01*
X0357373Y0189092D01*
X0357262Y0189098D01*
X0357150Y0189100D01*
X0188550Y0189100D01*
X0188438Y0189098D01*
X0188327Y0189092D01*
X0188216Y0189082D01*
X0188105Y0189069D01*
X0187994Y0189051D01*
X0187885Y0189030D01*
X0187776Y0189005D01*
X0187668Y0188976D01*
X0187561Y0188943D01*
X0187456Y0188907D01*
X0187351Y0188867D01*
X0187248Y0188823D01*
X0187147Y0188776D01*
X0187048Y0188725D01*
X0186950Y0188671D01*
X0186854Y0188614D01*
X0186761Y0188553D01*
X0186669Y0188489D01*
X0186580Y0188422D01*
X0186493Y0188351D01*
X0186409Y0188278D01*
X0186327Y0188202D01*
X0186248Y0188123D01*
X0186172Y0188041D01*
X0186099Y0187957D01*
X0186028Y0187870D01*
X0185961Y0187781D01*
X0185897Y0187689D01*
X0185836Y0187596D01*
X0185779Y0187500D01*
X0185725Y0187402D01*
X0185674Y0187303D01*
X0185627Y0187202D01*
X0185583Y0187099D01*
X0185543Y0186994D01*
X0185507Y0186889D01*
X0185474Y0186782D01*
X0185445Y0186674D01*
X0185420Y0186565D01*
X0185399Y0186456D01*
X0185381Y0186345D01*
X0185368Y0186234D01*
X0185358Y0186123D01*
X0185352Y0186012D01*
X0185350Y0185900D01*
X0185350Y0110425D01*
X0185348Y0110313D01*
X0185342Y0110202D01*
X0185332Y0110091D01*
X0185319Y0109980D01*
X0185301Y0109869D01*
X0185280Y0109760D01*
X0185255Y0109651D01*
X0185226Y0109543D01*
X0185193Y0109436D01*
X0185157Y0109331D01*
X0185117Y0109226D01*
X0185073Y0109123D01*
X0185026Y0109022D01*
X0184975Y0108923D01*
X0184921Y0108825D01*
X0184864Y0108729D01*
X0184803Y0108636D01*
X0184739Y0108544D01*
X0184672Y0108455D01*
X0184601Y0108368D01*
X0184528Y0108284D01*
X0184452Y0108202D01*
X0184373Y0108123D01*
X0184291Y0108047D01*
X0184207Y0107974D01*
X0184120Y0107903D01*
X0184031Y0107836D01*
X0183939Y0107772D01*
X0183846Y0107711D01*
X0183750Y0107654D01*
X0183652Y0107600D01*
X0183553Y0107549D01*
X0183452Y0107502D01*
X0183349Y0107458D01*
X0183244Y0107418D01*
X0183139Y0107382D01*
X0183032Y0107349D01*
X0182924Y0107320D01*
X0182815Y0107295D01*
X0182706Y0107274D01*
X0182595Y0107256D01*
X0182484Y0107243D01*
X0182373Y0107233D01*
X0182262Y0107227D01*
X0182150Y0107225D01*
X0179800Y0107225D01*
X0179688Y0107227D01*
X0179577Y0107233D01*
X0179466Y0107243D01*
X0179355Y0107256D01*
X0179244Y0107274D01*
X0179135Y0107295D01*
X0179026Y0107320D01*
X0178918Y0107349D01*
X0178811Y0107382D01*
X0178706Y0107418D01*
X0178601Y0107458D01*
X0178498Y0107502D01*
X0178397Y0107549D01*
X0178298Y0107600D01*
X0178200Y0107654D01*
X0178104Y0107711D01*
X0178011Y0107772D01*
X0177919Y0107836D01*
X0177830Y0107903D01*
X0177743Y0107974D01*
X0177659Y0108047D01*
X0177577Y0108123D01*
X0177498Y0108202D01*
X0177422Y0108284D01*
X0177349Y0108368D01*
X0177278Y0108455D01*
X0177211Y0108544D01*
X0177147Y0108636D01*
X0177086Y0108729D01*
X0177029Y0108825D01*
X0176975Y0108923D01*
X0176924Y0109022D01*
X0176877Y0109123D01*
X0176833Y0109226D01*
X0176793Y0109331D01*
X0176757Y0109436D01*
X0176724Y0109543D01*
X0176695Y0109651D01*
X0176670Y0109760D01*
X0176649Y0109869D01*
X0176631Y0109980D01*
X0176618Y0110091D01*
X0176608Y0110202D01*
X0176602Y0110313D01*
X0176600Y0110425D01*
X0176600Y0185275D01*
X0176599Y0185275D02*
X0176608Y0185392D01*
X0176612Y0185510D01*
X0176613Y0185628D01*
X0176609Y0185745D01*
X0176602Y0185863D01*
X0176591Y0185980D01*
X0176576Y0186097D01*
X0176557Y0186214D01*
X0176534Y0186329D01*
X0176507Y0186444D01*
X0176477Y0186558D01*
X0176442Y0186670D01*
X0176404Y0186782D01*
X0176363Y0186892D01*
X0176317Y0187001D01*
X0176268Y0187108D01*
X0176215Y0187213D01*
X0176159Y0187317D01*
X0176100Y0187419D01*
X0176037Y0187518D01*
X0175971Y0187616D01*
X0175901Y0187711D01*
X0175829Y0187804D01*
X0175753Y0187894D01*
X0175675Y0187982D01*
X0175593Y0188067D01*
X0175509Y0188150D01*
X0175422Y0188229D01*
X0175332Y0188306D01*
X0175240Y0188379D01*
X0175146Y0188450D01*
X0175049Y0188517D01*
X0174950Y0188581D01*
X0174849Y0188641D01*
X0174746Y0188698D01*
X0174641Y0188752D01*
X0174534Y0188802D01*
X0174426Y0188849D01*
X0174316Y0188892D01*
X0174205Y0188931D01*
X0174093Y0188967D01*
X0173979Y0188998D01*
X0173865Y0189026D01*
X0173749Y0189050D01*
X0173633Y0189070D01*
X0173517Y0189087D01*
X0173399Y0189099D01*
X0173400Y0189100D02*
X0009800Y0189100D01*
X0009725Y0189100D02*
X0004800Y0189100D01*
X0004688Y0189098D01*
X0004577Y0189092D01*
X0004466Y0189082D01*
X0004355Y0189069D01*
X0004244Y0189051D01*
X0004135Y0189030D01*
X0004026Y0189005D01*
X0003918Y0188976D01*
X0003811Y0188943D01*
X0003706Y0188907D01*
X0003601Y0188867D01*
X0003498Y0188823D01*
X0003397Y0188776D01*
X0003298Y0188725D01*
X0003200Y0188671D01*
X0003104Y0188614D01*
X0003011Y0188553D01*
X0002919Y0188489D01*
X0002830Y0188422D01*
X0002743Y0188351D01*
X0002659Y0188278D01*
X0002577Y0188202D01*
X0002498Y0188123D01*
X0002422Y0188041D01*
X0002349Y0187957D01*
X0002278Y0187870D01*
X0002211Y0187781D01*
X0002147Y0187689D01*
X0002086Y0187596D01*
X0002029Y0187500D01*
X0001975Y0187402D01*
X0001924Y0187303D01*
X0001877Y0187202D01*
X0001833Y0187099D01*
X0001793Y0186994D01*
X0001757Y0186889D01*
X0001724Y0186782D01*
X0001695Y0186674D01*
X0001670Y0186565D01*
X0001649Y0186456D01*
X0001631Y0186345D01*
X0001618Y0186234D01*
X0001608Y0186123D01*
X0001602Y0186012D01*
X0001600Y0185900D01*
X0001600Y0004800D01*
X0001602Y0004688D01*
X0001608Y0004577D01*
X0001618Y0004466D01*
X0001631Y0004355D01*
X0001649Y0004244D01*
X0001670Y0004135D01*
X0001695Y0004026D01*
X0001724Y0003918D01*
X0001757Y0003811D01*
X0001793Y0003706D01*
X0001833Y0003601D01*
X0001877Y0003498D01*
X0001924Y0003397D01*
X0001975Y0003298D01*
X0002029Y0003200D01*
X0002086Y0003104D01*
X0002147Y0003011D01*
X0002211Y0002919D01*
X0002278Y0002830D01*
X0002349Y0002743D01*
X0002422Y0002659D01*
X0002498Y0002577D01*
X0002577Y0002498D01*
X0002659Y0002422D01*
X0002743Y0002349D01*
X0002830Y0002278D01*
X0002919Y0002211D01*
X0003011Y0002147D01*
X0003104Y0002086D01*
X0003200Y0002029D01*
X0003298Y0001975D01*
X0003397Y0001924D01*
X0003498Y0001877D01*
X0003601Y0001833D01*
X0003706Y0001793D01*
X0003811Y0001757D01*
X0003918Y0001724D01*
X0004026Y0001695D01*
X0004135Y0001670D01*
X0004244Y0001649D01*
X0004355Y0001631D01*
X0004466Y0001618D01*
X0004577Y0001608D01*
X0004688Y0001602D01*
X0004800Y0001600D01*
D11*
X0179794Y0095350D02*
X0179796Y0095419D01*
X0179802Y0095487D01*
X0179812Y0095555D01*
X0179826Y0095622D01*
X0179844Y0095689D01*
X0179865Y0095754D01*
X0179891Y0095818D01*
X0179920Y0095880D01*
X0179952Y0095940D01*
X0179988Y0095999D01*
X0180028Y0096055D01*
X0180070Y0096109D01*
X0180116Y0096160D01*
X0180165Y0096209D01*
X0180216Y0096255D01*
X0180270Y0096297D01*
X0180326Y0096337D01*
X0180384Y0096373D01*
X0180445Y0096405D01*
X0180507Y0096434D01*
X0180571Y0096460D01*
X0180636Y0096481D01*
X0180703Y0096499D01*
X0180770Y0096513D01*
X0180838Y0096523D01*
X0180906Y0096529D01*
X0180975Y0096531D01*
X0181044Y0096529D01*
X0181112Y0096523D01*
X0181180Y0096513D01*
X0181247Y0096499D01*
X0181314Y0096481D01*
X0181379Y0096460D01*
X0181443Y0096434D01*
X0181505Y0096405D01*
X0181565Y0096373D01*
X0181624Y0096337D01*
X0181680Y0096297D01*
X0181734Y0096255D01*
X0181785Y0096209D01*
X0181834Y0096160D01*
X0181880Y0096109D01*
X0181922Y0096055D01*
X0181962Y0095999D01*
X0181998Y0095940D01*
X0182030Y0095880D01*
X0182059Y0095818D01*
X0182085Y0095754D01*
X0182106Y0095689D01*
X0182124Y0095622D01*
X0182138Y0095555D01*
X0182148Y0095487D01*
X0182154Y0095419D01*
X0182156Y0095350D01*
X0182154Y0095281D01*
X0182148Y0095213D01*
X0182138Y0095145D01*
X0182124Y0095078D01*
X0182106Y0095011D01*
X0182085Y0094946D01*
X0182059Y0094882D01*
X0182030Y0094820D01*
X0181998Y0094759D01*
X0181962Y0094701D01*
X0181922Y0094645D01*
X0181880Y0094591D01*
X0181834Y0094540D01*
X0181785Y0094491D01*
X0181734Y0094445D01*
X0181680Y0094403D01*
X0181624Y0094363D01*
X0181566Y0094327D01*
X0181505Y0094295D01*
X0181443Y0094266D01*
X0181379Y0094240D01*
X0181314Y0094219D01*
X0181247Y0094201D01*
X0181180Y0094187D01*
X0181112Y0094177D01*
X0181044Y0094171D01*
X0180975Y0094169D01*
X0180906Y0094171D01*
X0180838Y0094177D01*
X0180770Y0094187D01*
X0180703Y0094201D01*
X0180636Y0094219D01*
X0180571Y0094240D01*
X0180507Y0094266D01*
X0180445Y0094295D01*
X0180384Y0094327D01*
X0180326Y0094363D01*
X0180270Y0094403D01*
X0180216Y0094445D01*
X0180165Y0094491D01*
X0180116Y0094540D01*
X0180070Y0094591D01*
X0180028Y0094645D01*
X0179988Y0094701D01*
X0179952Y0094759D01*
X0179920Y0094820D01*
X0179891Y0094882D01*
X0179865Y0094946D01*
X0179844Y0095011D01*
X0179826Y0095078D01*
X0179812Y0095145D01*
X0179802Y0095213D01*
X0179796Y0095281D01*
X0179794Y0095350D01*
D12*
X0257004Y0055350D03*
X0263696Y0055350D03*
X0272004Y0055350D03*
X0278696Y0055350D03*
X0322004Y0090350D03*
X0328696Y0090350D03*
X0328696Y0100350D03*
X0322004Y0100350D03*
D13*
X0339700Y0109100D03*
X0346000Y0109100D03*
X0346000Y0081600D03*
X0339700Y0081600D03*
D14*
X0334942Y0121600D03*
X0349508Y0121600D03*
D15*
X0319381Y0128475D03*
X0307569Y0128475D03*
D16*
X0284366Y0106837D03*
X0281807Y0106837D03*
X0279248Y0106837D03*
X0276689Y0106837D03*
X0274130Y0106837D03*
X0271570Y0106837D03*
X0269011Y0106837D03*
X0266452Y0106837D03*
X0263893Y0106837D03*
X0261334Y0106837D03*
X0261334Y0083863D03*
X0263893Y0083863D03*
X0266452Y0083863D03*
X0269011Y0083863D03*
X0271570Y0083863D03*
X0274130Y0083863D03*
X0276689Y0083863D03*
X0279248Y0083863D03*
X0281807Y0083863D03*
X0284366Y0083863D03*
D17*
X0375512Y0081570D03*
X0375512Y0109130D03*
D18*
X0373544Y0099287D03*
X0373544Y0091413D03*
D19*
X0218746Y0088854D03*
X0218746Y0079346D03*
X0199454Y0079346D03*
X0199454Y0088854D03*
X0199454Y0101846D03*
X0199454Y0111354D03*
X0218746Y0111354D03*
X0218746Y0101846D03*
X0218746Y0124346D03*
X0218746Y0133854D03*
X0199454Y0133854D03*
X0199454Y0124346D03*
X0199454Y0146846D03*
X0218746Y0146846D03*
X0218746Y0066354D03*
X0218746Y0056846D03*
X0199454Y0056846D03*
X0199454Y0066354D03*
X0199454Y0043854D03*
X0218746Y0043854D03*
D20*
X0302225Y0048647D03*
X0311600Y0048647D03*
X0311600Y0054553D03*
X0302225Y0054553D03*
D21*
X0308682Y0102850D03*
X0315768Y0102850D03*
X0314307Y0117225D03*
X0321393Y0117225D03*
X0302018Y0129100D03*
X0294932Y0129100D03*
X0304307Y0167850D03*
X0311393Y0167850D03*
D22*
X0311600Y0042643D03*
X0302225Y0042643D03*
X0302225Y0035557D03*
X0311600Y0035557D03*
D23*
X0328923Y0042146D03*
X0344277Y0042146D03*
X0344277Y0057304D03*
X0328923Y0057304D03*
X0253027Y0087771D03*
X0237673Y0087771D03*
X0237673Y0102929D03*
X0253027Y0102929D03*
X0327673Y0133396D03*
X0343027Y0133396D03*
X0343027Y0148554D03*
X0327673Y0148554D03*
D24*
X0351246Y0146787D03*
X0351246Y0142850D03*
X0351246Y0138913D03*
D25*
X0356600Y0131039D03*
X0356600Y0154661D03*
D26*
X0294625Y0158200D03*
X0294625Y0149100D03*
X0294625Y0140000D03*
D27*
X0319825Y0149100D03*
D28*
X0306525Y0117175D03*
X0297925Y0113475D03*
X0306525Y0109775D03*
D29*
X0272181Y0069125D03*
X0263519Y0069125D03*
X0263519Y0062825D03*
X0272181Y0062825D03*
M02*
