G75*
%MOIN*%
%OFA0B0*%
%FSLAX25Y25*%
%IPPOS*%
%LPD*%
%AMOC8*
5,1,8,0,0,1.08239X$1,22.5*
%
%ADD10C,0.01200*%
%ADD11C,0.00000*%
%ADD12C,0.02500*%
%ADD13R,0.04331X0.03937*%
%ADD14R,0.02362X0.03150*%
%ADD15R,0.04724X0.02756*%
%ADD16R,0.03937X0.11024*%
%ADD17C,0.23000*%
%ADD18R,0.01200X0.03900*%
%ADD19R,0.29528X0.05906*%
%ADD20R,0.25591X0.03937*%
%ADD21C,0.07400*%
%ADD22R,0.05906X0.03543*%
%ADD23R,0.03150X0.03150*%
%ADD24R,0.03150X0.04724*%
%ADD25R,0.04724X0.03150*%
%ADD26C,0.01000*%
%ADD27R,0.05000X0.02500*%
%ADD28R,0.02500X0.05000*%
%ADD29R,0.03543X0.03937*%
%ADD30R,0.02008X0.02362*%
%ADD31R,0.02756X0.03543*%
%ADD32R,0.06400X0.03500*%
%ADD33R,0.06400X0.12500*%
%ADD34R,0.04600X0.02100*%
%ADD35R,0.05512X0.04331*%
%ADD36C,0.02000*%
%ADD37R,0.07400X0.07400*%
%ADD38R,0.03562X0.03562*%
%ADD39C,0.01600*%
D10*
X0004800Y0001600D02*
X0173400Y0001600D01*
X0173399Y0001601D02*
X0173517Y0001613D01*
X0173633Y0001630D01*
X0173749Y0001650D01*
X0173865Y0001674D01*
X0173979Y0001702D01*
X0174093Y0001733D01*
X0174205Y0001769D01*
X0174316Y0001808D01*
X0174426Y0001851D01*
X0174534Y0001898D01*
X0174641Y0001948D01*
X0174746Y0002002D01*
X0174849Y0002059D01*
X0174950Y0002119D01*
X0175049Y0002183D01*
X0175146Y0002250D01*
X0175240Y0002321D01*
X0175332Y0002394D01*
X0175422Y0002471D01*
X0175509Y0002550D01*
X0175593Y0002633D01*
X0175675Y0002718D01*
X0175753Y0002806D01*
X0175829Y0002896D01*
X0175901Y0002989D01*
X0175971Y0003084D01*
X0176037Y0003182D01*
X0176100Y0003281D01*
X0176159Y0003383D01*
X0176215Y0003487D01*
X0176268Y0003592D01*
X0176317Y0003699D01*
X0176363Y0003808D01*
X0176404Y0003918D01*
X0176442Y0004030D01*
X0176477Y0004142D01*
X0176507Y0004256D01*
X0176534Y0004371D01*
X0176557Y0004486D01*
X0176576Y0004603D01*
X0176591Y0004720D01*
X0176602Y0004837D01*
X0176609Y0004955D01*
X0176613Y0005072D01*
X0176612Y0005190D01*
X0176608Y0005308D01*
X0176599Y0005425D01*
X0176600Y0005425D02*
X0176600Y0080275D01*
X0176602Y0080387D01*
X0176608Y0080498D01*
X0176618Y0080609D01*
X0176631Y0080720D01*
X0176649Y0080831D01*
X0176670Y0080940D01*
X0176695Y0081049D01*
X0176724Y0081157D01*
X0176757Y0081264D01*
X0176793Y0081369D01*
X0176833Y0081474D01*
X0176877Y0081577D01*
X0176924Y0081678D01*
X0176975Y0081777D01*
X0177029Y0081875D01*
X0177086Y0081971D01*
X0177147Y0082064D01*
X0177211Y0082156D01*
X0177278Y0082245D01*
X0177349Y0082332D01*
X0177422Y0082416D01*
X0177498Y0082498D01*
X0177577Y0082577D01*
X0177659Y0082653D01*
X0177743Y0082726D01*
X0177830Y0082797D01*
X0177919Y0082864D01*
X0178011Y0082928D01*
X0178104Y0082989D01*
X0178200Y0083046D01*
X0178298Y0083100D01*
X0178397Y0083151D01*
X0178498Y0083198D01*
X0178601Y0083242D01*
X0178706Y0083282D01*
X0178811Y0083318D01*
X0178918Y0083351D01*
X0179026Y0083380D01*
X0179135Y0083405D01*
X0179244Y0083426D01*
X0179355Y0083444D01*
X0179466Y0083457D01*
X0179577Y0083467D01*
X0179688Y0083473D01*
X0179800Y0083475D01*
X0182150Y0083475D01*
X0179800Y0083475D02*
X0179725Y0083475D01*
X0182150Y0083475D02*
X0182262Y0083473D01*
X0182373Y0083467D01*
X0182484Y0083457D01*
X0182595Y0083444D01*
X0182706Y0083426D01*
X0182815Y0083405D01*
X0182924Y0083380D01*
X0183032Y0083351D01*
X0183139Y0083318D01*
X0183244Y0083282D01*
X0183349Y0083242D01*
X0183452Y0083198D01*
X0183553Y0083151D01*
X0183652Y0083100D01*
X0183750Y0083046D01*
X0183846Y0082989D01*
X0183939Y0082928D01*
X0184031Y0082864D01*
X0184120Y0082797D01*
X0184207Y0082726D01*
X0184291Y0082653D01*
X0184373Y0082577D01*
X0184452Y0082498D01*
X0184528Y0082416D01*
X0184601Y0082332D01*
X0184672Y0082245D01*
X0184739Y0082156D01*
X0184803Y0082064D01*
X0184864Y0081971D01*
X0184921Y0081875D01*
X0184975Y0081777D01*
X0185026Y0081678D01*
X0185073Y0081577D01*
X0185117Y0081474D01*
X0185157Y0081369D01*
X0185193Y0081264D01*
X0185226Y0081157D01*
X0185255Y0081049D01*
X0185280Y0080940D01*
X0185301Y0080831D01*
X0185319Y0080720D01*
X0185332Y0080609D01*
X0185342Y0080498D01*
X0185348Y0080387D01*
X0185350Y0080275D01*
X0185350Y0004800D01*
X0188550Y0004800D02*
X0188550Y0081548D01*
X0187576Y0083900D01*
X0187576Y0083900D01*
X0185775Y0085701D01*
X0185350Y0085877D01*
X0185350Y0104823D01*
X0185775Y0104999D01*
X0187576Y0106800D01*
X0188550Y0109152D01*
X0188550Y0185900D01*
X0188550Y0189100D02*
X0188438Y0189098D01*
X0188327Y0189092D01*
X0188216Y0189082D01*
X0188105Y0189069D01*
X0187994Y0189051D01*
X0187885Y0189030D01*
X0187776Y0189005D01*
X0187668Y0188976D01*
X0187561Y0188943D01*
X0187456Y0188907D01*
X0187351Y0188867D01*
X0187248Y0188823D01*
X0187147Y0188776D01*
X0187048Y0188725D01*
X0186950Y0188671D01*
X0186854Y0188614D01*
X0186761Y0188553D01*
X0186669Y0188489D01*
X0186580Y0188422D01*
X0186493Y0188351D01*
X0186409Y0188278D01*
X0186327Y0188202D01*
X0186248Y0188123D01*
X0186172Y0188041D01*
X0186099Y0187957D01*
X0186028Y0187870D01*
X0185961Y0187781D01*
X0185897Y0187689D01*
X0185836Y0187596D01*
X0185779Y0187500D01*
X0185725Y0187402D01*
X0185674Y0187303D01*
X0185627Y0187202D01*
X0185583Y0187099D01*
X0185543Y0186994D01*
X0185507Y0186889D01*
X0185474Y0186782D01*
X0185445Y0186674D01*
X0185420Y0186565D01*
X0185399Y0186456D01*
X0185381Y0186345D01*
X0185368Y0186234D01*
X0185358Y0186123D01*
X0185352Y0186012D01*
X0185350Y0185900D01*
X0185350Y0110425D01*
X0185348Y0110313D01*
X0185342Y0110202D01*
X0185332Y0110091D01*
X0185319Y0109980D01*
X0185301Y0109869D01*
X0185280Y0109760D01*
X0185255Y0109651D01*
X0185226Y0109543D01*
X0185193Y0109436D01*
X0185157Y0109331D01*
X0185117Y0109226D01*
X0185073Y0109123D01*
X0185026Y0109022D01*
X0184975Y0108923D01*
X0184921Y0108825D01*
X0184864Y0108729D01*
X0184803Y0108636D01*
X0184739Y0108544D01*
X0184672Y0108455D01*
X0184601Y0108368D01*
X0184528Y0108284D01*
X0184452Y0108202D01*
X0184373Y0108123D01*
X0184291Y0108047D01*
X0184207Y0107974D01*
X0184120Y0107903D01*
X0184031Y0107836D01*
X0183939Y0107772D01*
X0183846Y0107711D01*
X0183750Y0107654D01*
X0183652Y0107600D01*
X0183553Y0107549D01*
X0183452Y0107502D01*
X0183349Y0107458D01*
X0183244Y0107418D01*
X0183139Y0107382D01*
X0183032Y0107349D01*
X0182924Y0107320D01*
X0182815Y0107295D01*
X0182706Y0107274D01*
X0182595Y0107256D01*
X0182484Y0107243D01*
X0182373Y0107233D01*
X0182262Y0107227D01*
X0182150Y0107225D01*
X0179800Y0107225D01*
X0179688Y0107227D01*
X0179577Y0107233D01*
X0179466Y0107243D01*
X0179355Y0107256D01*
X0179244Y0107274D01*
X0179135Y0107295D01*
X0179026Y0107320D01*
X0178918Y0107349D01*
X0178811Y0107382D01*
X0178706Y0107418D01*
X0178601Y0107458D01*
X0178498Y0107502D01*
X0178397Y0107549D01*
X0178298Y0107600D01*
X0178200Y0107654D01*
X0178104Y0107711D01*
X0178011Y0107772D01*
X0177919Y0107836D01*
X0177830Y0107903D01*
X0177743Y0107974D01*
X0177659Y0108047D01*
X0177577Y0108123D01*
X0177498Y0108202D01*
X0177422Y0108284D01*
X0177349Y0108368D01*
X0177278Y0108455D01*
X0177211Y0108544D01*
X0177147Y0108636D01*
X0177086Y0108729D01*
X0177029Y0108825D01*
X0176975Y0108923D01*
X0176924Y0109022D01*
X0176877Y0109123D01*
X0176833Y0109226D01*
X0176793Y0109331D01*
X0176757Y0109436D01*
X0176724Y0109543D01*
X0176695Y0109651D01*
X0176670Y0109760D01*
X0176649Y0109869D01*
X0176631Y0109980D01*
X0176618Y0110091D01*
X0176608Y0110202D01*
X0176602Y0110313D01*
X0176600Y0110425D01*
X0176600Y0185275D01*
X0176599Y0185275D02*
X0176608Y0185392D01*
X0176612Y0185510D01*
X0176613Y0185628D01*
X0176609Y0185745D01*
X0176602Y0185863D01*
X0176591Y0185980D01*
X0176576Y0186097D01*
X0176557Y0186214D01*
X0176534Y0186329D01*
X0176507Y0186444D01*
X0176477Y0186558D01*
X0176442Y0186670D01*
X0176404Y0186782D01*
X0176363Y0186892D01*
X0176317Y0187001D01*
X0176268Y0187108D01*
X0176215Y0187213D01*
X0176159Y0187317D01*
X0176100Y0187419D01*
X0176037Y0187518D01*
X0175971Y0187616D01*
X0175901Y0187711D01*
X0175829Y0187804D01*
X0175753Y0187894D01*
X0175675Y0187982D01*
X0175593Y0188067D01*
X0175509Y0188150D01*
X0175422Y0188229D01*
X0175332Y0188306D01*
X0175240Y0188379D01*
X0175146Y0188450D01*
X0175049Y0188517D01*
X0174950Y0188581D01*
X0174849Y0188641D01*
X0174746Y0188698D01*
X0174641Y0188752D01*
X0174534Y0188802D01*
X0174426Y0188849D01*
X0174316Y0188892D01*
X0174205Y0188931D01*
X0174093Y0188967D01*
X0173979Y0188998D01*
X0173865Y0189026D01*
X0173749Y0189050D01*
X0173633Y0189070D01*
X0173517Y0189087D01*
X0173399Y0189099D01*
X0173400Y0189100D02*
X0009800Y0189100D01*
X0009725Y0189100D02*
X0004800Y0189100D01*
X0004688Y0189098D01*
X0004577Y0189092D01*
X0004466Y0189082D01*
X0004355Y0189069D01*
X0004244Y0189051D01*
X0004135Y0189030D01*
X0004026Y0189005D01*
X0003918Y0188976D01*
X0003811Y0188943D01*
X0003706Y0188907D01*
X0003601Y0188867D01*
X0003498Y0188823D01*
X0003397Y0188776D01*
X0003298Y0188725D01*
X0003200Y0188671D01*
X0003104Y0188614D01*
X0003011Y0188553D01*
X0002919Y0188489D01*
X0002830Y0188422D01*
X0002743Y0188351D01*
X0002659Y0188278D01*
X0002577Y0188202D01*
X0002498Y0188123D01*
X0002422Y0188041D01*
X0002349Y0187957D01*
X0002278Y0187870D01*
X0002211Y0187781D01*
X0002147Y0187689D01*
X0002086Y0187596D01*
X0002029Y0187500D01*
X0001975Y0187402D01*
X0001924Y0187303D01*
X0001877Y0187202D01*
X0001833Y0187099D01*
X0001793Y0186994D01*
X0001757Y0186889D01*
X0001724Y0186782D01*
X0001695Y0186674D01*
X0001670Y0186565D01*
X0001649Y0186456D01*
X0001631Y0186345D01*
X0001618Y0186234D01*
X0001608Y0186123D01*
X0001602Y0186012D01*
X0001600Y0185900D01*
X0001600Y0004800D01*
X0001602Y0004688D01*
X0001608Y0004577D01*
X0001618Y0004466D01*
X0001631Y0004355D01*
X0001649Y0004244D01*
X0001670Y0004135D01*
X0001695Y0004026D01*
X0001724Y0003918D01*
X0001757Y0003811D01*
X0001793Y0003706D01*
X0001833Y0003601D01*
X0001877Y0003498D01*
X0001924Y0003397D01*
X0001975Y0003298D01*
X0002029Y0003200D01*
X0002086Y0003104D01*
X0002147Y0003011D01*
X0002211Y0002919D01*
X0002278Y0002830D01*
X0002349Y0002743D01*
X0002422Y0002659D01*
X0002498Y0002577D01*
X0002577Y0002498D01*
X0002659Y0002422D01*
X0002743Y0002349D01*
X0002830Y0002278D01*
X0002919Y0002211D01*
X0003011Y0002147D01*
X0003104Y0002086D01*
X0003200Y0002029D01*
X0003298Y0001975D01*
X0003397Y0001924D01*
X0003498Y0001877D01*
X0003601Y0001833D01*
X0003706Y0001793D01*
X0003811Y0001757D01*
X0003918Y0001724D01*
X0004026Y0001695D01*
X0004135Y0001670D01*
X0004244Y0001649D01*
X0004355Y0001631D01*
X0004466Y0001618D01*
X0004577Y0001608D01*
X0004688Y0001602D01*
X0004800Y0001600D01*
X0185775Y0085701D02*
X0185775Y0085701D01*
X0185980Y0085496D02*
X0195542Y0085496D01*
X0195756Y0085282D02*
X0203153Y0085282D01*
X0203924Y0086054D01*
X0205661Y0086054D01*
X0206690Y0086480D01*
X0207478Y0087268D01*
X0208186Y0087976D01*
X0208800Y0088590D01*
X0208800Y0085260D01*
X0204226Y0080686D01*
X0204007Y0080157D01*
X0204007Y0081328D01*
X0203898Y0081735D01*
X0203687Y0082100D01*
X0203390Y0082398D01*
X0203025Y0082609D01*
X0202618Y0082718D01*
X0199740Y0082718D01*
X0199740Y0079632D01*
X0199168Y0079632D01*
X0199168Y0079060D01*
X0194902Y0079060D01*
X0194902Y0077364D01*
X0195011Y0076957D01*
X0195221Y0076592D01*
X0195519Y0076294D01*
X0195884Y0076083D01*
X0196291Y0075974D01*
X0199168Y0075974D01*
X0199168Y0079060D01*
X0199740Y0079060D01*
X0199740Y0075974D01*
X0202618Y0075974D01*
X0203025Y0076083D01*
X0203390Y0076294D01*
X0203687Y0076592D01*
X0203800Y0076787D01*
X0203800Y0069278D01*
X0203153Y0069926D01*
X0195756Y0069926D01*
X0194702Y0068871D01*
X0194702Y0063837D01*
X0195756Y0062782D01*
X0203153Y0062782D01*
X0203924Y0063554D01*
X0205661Y0063554D01*
X0206690Y0063980D01*
X0208186Y0065476D01*
X0208800Y0066090D01*
X0208800Y0062760D01*
X0205476Y0059436D01*
X0205050Y0058407D01*
X0205050Y0046654D01*
X0203924Y0046654D01*
X0203153Y0047426D01*
X0195756Y0047426D01*
X0194702Y0046371D01*
X0194702Y0041337D01*
X0195756Y0040282D01*
X0203153Y0040282D01*
X0203924Y0041054D01*
X0206911Y0041054D01*
X0207940Y0041480D01*
X0209436Y0042976D01*
X0210224Y0043764D01*
X0210650Y0044793D01*
X0210650Y0056690D01*
X0213186Y0059226D01*
X0213974Y0060014D01*
X0214400Y0061043D01*
X0214400Y0063430D01*
X0215047Y0062782D01*
X0222444Y0062782D01*
X0222550Y0062888D01*
X0222550Y0060312D01*
X0222444Y0060418D01*
X0215047Y0060418D01*
X0213993Y0059363D01*
X0213993Y0054329D01*
X0215047Y0053274D01*
X0222444Y0053274D01*
X0222550Y0053380D01*
X0222550Y0047320D01*
X0222444Y0047426D01*
X0215047Y0047426D01*
X0213993Y0046371D01*
X0213993Y0041337D01*
X0215047Y0040282D01*
X0222444Y0040282D01*
X0222550Y0040388D01*
X0222550Y0038931D01*
X0217823Y0038931D01*
X0216769Y0037877D01*
X0216769Y0032823D01*
X0217823Y0031769D01*
X0222550Y0031769D01*
X0222550Y0013543D01*
X0222976Y0012514D01*
X0223764Y0011726D01*
X0227514Y0007976D01*
X0227956Y0007793D01*
X0228187Y0007234D01*
X0229734Y0005687D01*
X0231756Y0004850D01*
X0233944Y0004850D01*
X0235965Y0005687D01*
X0237513Y0007234D01*
X0237951Y0008292D01*
X0238317Y0007572D01*
X0238807Y0006897D01*
X0239397Y0006307D01*
X0240072Y0005817D01*
X0240816Y0005438D01*
X0241609Y0005180D01*
X0242433Y0005050D01*
X0242450Y0005050D01*
X0242450Y0009950D01*
X0243250Y0009950D01*
X0243250Y0005050D01*
X0243267Y0005050D01*
X0244091Y0005180D01*
X0244884Y0005438D01*
X0245628Y0005817D01*
X0246303Y0006307D01*
X0246893Y0006897D01*
X0247383Y0007572D01*
X0247749Y0008292D01*
X0248187Y0007234D01*
X0249734Y0005687D01*
X0251756Y0004850D01*
X0253944Y0004850D01*
X0255965Y0005687D01*
X0257513Y0007234D01*
X0257850Y0008049D01*
X0258187Y0007234D01*
X0259734Y0005687D01*
X0261756Y0004850D01*
X0263944Y0004850D01*
X0265965Y0005687D01*
X0267513Y0007234D01*
X0267850Y0008049D01*
X0268187Y0007234D01*
X0269734Y0005687D01*
X0271756Y0004850D01*
X0273944Y0004850D01*
X0275965Y0005687D01*
X0277513Y0007234D01*
X0277850Y0008049D01*
X0278187Y0007234D01*
X0279734Y0005687D01*
X0281756Y0004850D01*
X0283944Y0004850D01*
X0285965Y0005687D01*
X0287513Y0007234D01*
X0287850Y0008049D01*
X0288187Y0007234D01*
X0289734Y0005687D01*
X0291756Y0004850D01*
X0293944Y0004850D01*
X0295965Y0005687D01*
X0297513Y0007234D01*
X0297850Y0008049D01*
X0298187Y0007234D01*
X0299734Y0005687D01*
X0301756Y0004850D01*
X0303944Y0004850D01*
X0305965Y0005687D01*
X0307513Y0007234D01*
X0307951Y0008292D01*
X0308317Y0007572D01*
X0308807Y0006897D01*
X0309397Y0006307D01*
X0310072Y0005817D01*
X0310816Y0005438D01*
X0311609Y0005180D01*
X0312433Y0005050D01*
X0312450Y0005050D01*
X0312450Y0009950D01*
X0313250Y0009950D01*
X0313250Y0010750D01*
X0312450Y0010750D01*
X0312450Y0015650D01*
X0312433Y0015650D01*
X0311609Y0015519D01*
X0310816Y0015262D01*
X0310072Y0014883D01*
X0309397Y0014393D01*
X0308807Y0013803D01*
X0308317Y0013128D01*
X0307951Y0012408D01*
X0307513Y0013465D01*
X0305965Y0015013D01*
X0305250Y0015309D01*
X0305250Y0017077D01*
X0304885Y0017959D01*
X0304209Y0018635D01*
X0292750Y0030094D01*
X0292750Y0062450D01*
X0297925Y0062450D01*
X0297925Y0058854D01*
X0298979Y0057800D01*
X0299425Y0057800D01*
X0299425Y0057448D01*
X0298850Y0056873D01*
X0298850Y0052232D01*
X0299483Y0051600D01*
X0298850Y0050968D01*
X0298850Y0046327D01*
X0299159Y0046018D01*
X0299117Y0046018D01*
X0298063Y0044964D01*
X0298063Y0040323D01*
X0299117Y0039269D01*
X0305333Y0039269D01*
X0306387Y0040323D01*
X0306387Y0044964D01*
X0305333Y0046018D01*
X0305291Y0046018D01*
X0305600Y0046327D01*
X0305600Y0050968D01*
X0304967Y0051600D01*
X0305600Y0052232D01*
X0305600Y0056873D01*
X0305025Y0057448D01*
X0305025Y0057800D01*
X0305471Y0057800D01*
X0306525Y0058854D01*
X0306525Y0062846D01*
X0306521Y0062850D01*
X0306525Y0062854D01*
X0306525Y0066846D01*
X0305471Y0067900D01*
X0298979Y0067900D01*
X0298329Y0067250D01*
X0292750Y0067250D01*
X0292750Y0076452D01*
X0292385Y0077334D01*
X0291709Y0078010D01*
X0286766Y0082953D01*
X0286766Y0085450D01*
X0288731Y0085450D01*
X0294565Y0079616D01*
X0294565Y0079616D01*
X0295241Y0078940D01*
X0296123Y0078575D01*
X0308019Y0078575D01*
X0308019Y0074073D01*
X0308800Y0073292D01*
X0308800Y0067900D01*
X0308354Y0067900D01*
X0307300Y0066846D01*
X0307300Y0062854D01*
X0307304Y0062850D01*
X0307300Y0062846D01*
X0307300Y0058854D01*
X0308354Y0057800D01*
X0308800Y0057800D01*
X0308800Y0057448D01*
X0308225Y0056873D01*
X0308225Y0052232D01*
X0308858Y0051600D01*
X0308225Y0050968D01*
X0308225Y0046327D01*
X0308534Y0046018D01*
X0308492Y0046018D01*
X0307438Y0044964D01*
X0307438Y0040323D01*
X0308492Y0039269D01*
X0314708Y0039269D01*
X0315325Y0039886D01*
X0315325Y0037971D01*
X0315243Y0038114D01*
X0314945Y0038412D01*
X0314580Y0038622D01*
X0314173Y0038731D01*
X0311787Y0038731D01*
X0311787Y0035744D01*
X0311413Y0035744D01*
X0311413Y0038731D01*
X0309027Y0038731D01*
X0308620Y0038622D01*
X0308255Y0038412D01*
X0307957Y0038114D01*
X0307747Y0037749D01*
X0307638Y0037342D01*
X0307638Y0035744D01*
X0311413Y0035744D01*
X0311413Y0035369D01*
X0311787Y0035369D01*
X0311787Y0032382D01*
X0314173Y0032382D01*
X0314580Y0032491D01*
X0314675Y0032546D01*
X0314675Y0026479D01*
X0315729Y0025425D01*
X0319721Y0025425D01*
X0319725Y0025429D01*
X0319729Y0025425D01*
X0323721Y0025425D01*
X0324775Y0026479D01*
X0324775Y0032971D01*
X0324525Y0033221D01*
X0324525Y0033789D01*
X0329114Y0038378D01*
X0331440Y0038378D01*
X0332494Y0039432D01*
X0332494Y0044860D01*
X0331723Y0045632D01*
X0331723Y0053818D01*
X0332494Y0054590D01*
X0332494Y0060018D01*
X0331440Y0061072D01*
X0326406Y0061072D01*
X0325351Y0060018D01*
X0325351Y0054590D01*
X0326123Y0053818D01*
X0326123Y0045632D01*
X0325351Y0044860D01*
X0325351Y0042534D01*
X0320125Y0037308D01*
X0320125Y0077827D01*
X0319760Y0078709D01*
X0319084Y0079385D01*
X0316135Y0082334D01*
X0316135Y0082334D01*
X0315459Y0083010D01*
X0314577Y0083375D01*
X0313233Y0083375D01*
X0313931Y0084073D01*
X0313931Y0088575D01*
X0318038Y0088575D01*
X0318038Y0087636D01*
X0319093Y0086581D01*
X0324914Y0086581D01*
X0325350Y0087017D01*
X0325786Y0086581D01*
X0326800Y0086581D01*
X0326800Y0085096D01*
X0326550Y0084846D01*
X0326550Y0078354D01*
X0327604Y0077300D01*
X0331596Y0077300D01*
X0331600Y0077304D01*
X0331604Y0077300D01*
X0335596Y0077300D01*
X0336650Y0078354D01*
X0336650Y0078800D01*
X0337199Y0078800D01*
X0337774Y0078225D01*
X0341627Y0078225D01*
X0342681Y0079280D01*
X0342681Y0083920D01*
X0341627Y0084975D01*
X0337774Y0084975D01*
X0337199Y0084400D01*
X0336650Y0084400D01*
X0336650Y0084846D01*
X0335596Y0085900D01*
X0332400Y0085900D01*
X0332400Y0087374D01*
X0332662Y0087636D01*
X0332662Y0088613D01*
X0359035Y0088613D01*
X0360003Y0087644D01*
X0360350Y0087644D01*
X0360350Y0086073D01*
X0360131Y0086014D01*
X0359766Y0085804D01*
X0359468Y0085506D01*
X0359258Y0085141D01*
X0359149Y0084734D01*
X0359149Y0082170D01*
X0360350Y0082170D01*
X0360350Y0080970D01*
X0359149Y0080970D01*
X0359149Y0078407D01*
X0359258Y0078000D01*
X0359468Y0077635D01*
X0359766Y0077337D01*
X0360131Y0077127D01*
X0360350Y0077068D01*
X0360350Y0074002D01*
X0359925Y0073826D01*
X0359925Y0073826D01*
X0358124Y0072025D01*
X0357150Y0069673D01*
X0357150Y0004800D01*
X0357150Y0001600D02*
X0357262Y0001602D01*
X0357373Y0001608D01*
X0357484Y0001618D01*
X0357595Y0001631D01*
X0357706Y0001649D01*
X0357815Y0001670D01*
X0357924Y0001695D01*
X0358032Y0001724D01*
X0358139Y0001757D01*
X0358244Y0001793D01*
X0358349Y0001833D01*
X0358452Y0001877D01*
X0358553Y0001924D01*
X0358652Y0001975D01*
X0358750Y0002029D01*
X0358846Y0002086D01*
X0358939Y0002147D01*
X0359031Y0002211D01*
X0359120Y0002278D01*
X0359207Y0002349D01*
X0359291Y0002422D01*
X0359373Y0002498D01*
X0359452Y0002577D01*
X0359528Y0002659D01*
X0359601Y0002743D01*
X0359672Y0002830D01*
X0359739Y0002919D01*
X0359803Y0003011D01*
X0359864Y0003104D01*
X0359921Y0003200D01*
X0359975Y0003298D01*
X0360026Y0003397D01*
X0360073Y0003498D01*
X0360117Y0003601D01*
X0360157Y0003706D01*
X0360193Y0003811D01*
X0360226Y0003918D01*
X0360255Y0004026D01*
X0360280Y0004135D01*
X0360301Y0004244D01*
X0360319Y0004355D01*
X0360332Y0004466D01*
X0360342Y0004577D01*
X0360348Y0004688D01*
X0360350Y0004800D01*
X0360350Y0068400D01*
X0360352Y0068512D01*
X0360358Y0068623D01*
X0360368Y0068734D01*
X0360381Y0068845D01*
X0360399Y0068956D01*
X0360420Y0069065D01*
X0360445Y0069174D01*
X0360474Y0069282D01*
X0360507Y0069389D01*
X0360543Y0069494D01*
X0360583Y0069599D01*
X0360627Y0069702D01*
X0360674Y0069803D01*
X0360725Y0069902D01*
X0360779Y0070000D01*
X0360836Y0070096D01*
X0360897Y0070189D01*
X0360961Y0070281D01*
X0361028Y0070370D01*
X0361099Y0070457D01*
X0361172Y0070541D01*
X0361248Y0070623D01*
X0361327Y0070702D01*
X0361409Y0070778D01*
X0361493Y0070851D01*
X0361580Y0070922D01*
X0361669Y0070989D01*
X0361761Y0071053D01*
X0361854Y0071114D01*
X0361950Y0071171D01*
X0362048Y0071225D01*
X0362147Y0071276D01*
X0362248Y0071323D01*
X0362351Y0071367D01*
X0362456Y0071407D01*
X0362561Y0071443D01*
X0362668Y0071476D01*
X0362776Y0071505D01*
X0362885Y0071530D01*
X0362994Y0071551D01*
X0363105Y0071569D01*
X0363216Y0071582D01*
X0363327Y0071592D01*
X0363438Y0071598D01*
X0363550Y0071600D01*
X0391525Y0071600D01*
X0391637Y0071602D01*
X0391748Y0071608D01*
X0391859Y0071618D01*
X0391970Y0071631D01*
X0392081Y0071649D01*
X0392190Y0071670D01*
X0392299Y0071695D01*
X0392407Y0071724D01*
X0392514Y0071757D01*
X0392619Y0071793D01*
X0392724Y0071833D01*
X0392827Y0071877D01*
X0392928Y0071924D01*
X0393027Y0071975D01*
X0393125Y0072029D01*
X0393221Y0072086D01*
X0393314Y0072147D01*
X0393406Y0072211D01*
X0393495Y0072278D01*
X0393582Y0072349D01*
X0393666Y0072422D01*
X0393748Y0072498D01*
X0393827Y0072577D01*
X0393903Y0072659D01*
X0393976Y0072743D01*
X0394047Y0072830D01*
X0394114Y0072919D01*
X0394178Y0073011D01*
X0394239Y0073104D01*
X0394296Y0073200D01*
X0394350Y0073298D01*
X0394401Y0073397D01*
X0394448Y0073498D01*
X0394492Y0073601D01*
X0394532Y0073706D01*
X0394568Y0073811D01*
X0394601Y0073918D01*
X0394630Y0074026D01*
X0394655Y0074135D01*
X0394676Y0074244D01*
X0394694Y0074355D01*
X0394707Y0074466D01*
X0394717Y0074577D01*
X0394723Y0074688D01*
X0394725Y0074800D01*
X0394725Y0115900D01*
X0394723Y0116012D01*
X0394717Y0116123D01*
X0394707Y0116234D01*
X0394694Y0116345D01*
X0394676Y0116456D01*
X0394655Y0116565D01*
X0394630Y0116674D01*
X0394601Y0116782D01*
X0394568Y0116889D01*
X0394532Y0116994D01*
X0394492Y0117099D01*
X0394448Y0117202D01*
X0394401Y0117303D01*
X0394350Y0117402D01*
X0394296Y0117500D01*
X0394239Y0117596D01*
X0394178Y0117689D01*
X0394114Y0117781D01*
X0394047Y0117870D01*
X0393976Y0117957D01*
X0393903Y0118041D01*
X0393827Y0118123D01*
X0393748Y0118202D01*
X0393666Y0118278D01*
X0393582Y0118351D01*
X0393495Y0118422D01*
X0393406Y0118489D01*
X0393314Y0118553D01*
X0393221Y0118614D01*
X0393125Y0118671D01*
X0393027Y0118725D01*
X0392928Y0118776D01*
X0392827Y0118823D01*
X0392724Y0118867D01*
X0392619Y0118907D01*
X0392514Y0118943D01*
X0392407Y0118976D01*
X0392299Y0119005D01*
X0392190Y0119030D01*
X0392081Y0119051D01*
X0391970Y0119069D01*
X0391859Y0119082D01*
X0391748Y0119092D01*
X0391637Y0119098D01*
X0391525Y0119100D01*
X0363550Y0119100D01*
X0363438Y0119102D01*
X0363327Y0119108D01*
X0363216Y0119118D01*
X0363105Y0119131D01*
X0362994Y0119149D01*
X0362885Y0119170D01*
X0362776Y0119195D01*
X0362668Y0119224D01*
X0362561Y0119257D01*
X0362456Y0119293D01*
X0362351Y0119333D01*
X0362248Y0119377D01*
X0362147Y0119424D01*
X0362048Y0119475D01*
X0361950Y0119529D01*
X0361854Y0119586D01*
X0361761Y0119647D01*
X0361669Y0119711D01*
X0361580Y0119778D01*
X0361493Y0119849D01*
X0361409Y0119922D01*
X0361327Y0119998D01*
X0361248Y0120077D01*
X0361172Y0120159D01*
X0361099Y0120243D01*
X0361028Y0120330D01*
X0360961Y0120419D01*
X0360897Y0120511D01*
X0360836Y0120604D01*
X0360779Y0120700D01*
X0360725Y0120798D01*
X0360674Y0120897D01*
X0360627Y0120998D01*
X0360583Y0121101D01*
X0360543Y0121206D01*
X0360507Y0121311D01*
X0360474Y0121418D01*
X0360445Y0121526D01*
X0360420Y0121635D01*
X0360399Y0121744D01*
X0360381Y0121855D01*
X0360368Y0121966D01*
X0360358Y0122077D01*
X0360352Y0122188D01*
X0360350Y0122300D01*
X0360350Y0185900D01*
X0360348Y0186012D01*
X0360342Y0186123D01*
X0360332Y0186234D01*
X0360319Y0186345D01*
X0360301Y0186456D01*
X0360280Y0186565D01*
X0360255Y0186674D01*
X0360226Y0186782D01*
X0360193Y0186889D01*
X0360157Y0186994D01*
X0360117Y0187099D01*
X0360073Y0187202D01*
X0360026Y0187303D01*
X0359975Y0187402D01*
X0359921Y0187500D01*
X0359864Y0187596D01*
X0359803Y0187689D01*
X0359739Y0187781D01*
X0359672Y0187870D01*
X0359601Y0187957D01*
X0359528Y0188041D01*
X0359452Y0188123D01*
X0359373Y0188202D01*
X0359291Y0188278D01*
X0359207Y0188351D01*
X0359120Y0188422D01*
X0359031Y0188489D01*
X0358939Y0188553D01*
X0358846Y0188614D01*
X0358750Y0188671D01*
X0358652Y0188725D01*
X0358553Y0188776D01*
X0358452Y0188823D01*
X0358349Y0188867D01*
X0358244Y0188907D01*
X0358139Y0188943D01*
X0358032Y0188976D01*
X0357924Y0189005D01*
X0357815Y0189030D01*
X0357706Y0189051D01*
X0357595Y0189069D01*
X0357484Y0189082D01*
X0357373Y0189092D01*
X0357262Y0189098D01*
X0357150Y0189100D01*
X0188550Y0189100D01*
X0188550Y0185900D02*
X0357150Y0185900D01*
X0357150Y0158233D01*
X0354476Y0158233D01*
X0353422Y0157178D01*
X0353422Y0152144D01*
X0354476Y0151089D01*
X0357150Y0151089D01*
X0357150Y0134611D01*
X0356130Y0134611D01*
X0356760Y0135241D01*
X0357125Y0136123D01*
X0357125Y0142077D01*
X0356760Y0142959D01*
X0355510Y0144209D01*
X0354834Y0144885D01*
X0353952Y0145250D01*
X0353811Y0145250D01*
X0353850Y0145395D01*
X0353850Y0146787D01*
X0353850Y0148179D01*
X0353741Y0148586D01*
X0353530Y0148951D01*
X0353232Y0149248D01*
X0352867Y0149459D01*
X0352460Y0149568D01*
X0351246Y0149568D01*
X0351246Y0146787D01*
X0353850Y0146787D01*
X0351246Y0146787D01*
X0351246Y0146787D01*
X0351246Y0146787D01*
X0351246Y0149568D01*
X0350031Y0149568D01*
X0349624Y0149459D01*
X0349259Y0149248D01*
X0348961Y0148951D01*
X0348751Y0148586D01*
X0348642Y0148179D01*
X0348642Y0146787D01*
X0348642Y0145395D01*
X0348730Y0145065D01*
X0348442Y0144777D01*
X0348442Y0141152D01*
X0346264Y0138974D01*
X0345476Y0138186D01*
X0345050Y0137157D01*
X0345050Y0136954D01*
X0345009Y0136965D01*
X0343313Y0136965D01*
X0343313Y0133682D01*
X0342741Y0133682D01*
X0342741Y0133110D01*
X0339656Y0133110D01*
X0339656Y0131275D01*
X0337918Y0131275D01*
X0336889Y0130849D01*
X0336101Y0130061D01*
X0333355Y0127315D01*
X0332568Y0126528D01*
X0332142Y0125498D01*
X0332142Y0124778D01*
X0331834Y0124778D01*
X0331456Y0124400D01*
X0327415Y0124400D01*
X0323149Y0128666D01*
X0323149Y0134732D01*
X0322095Y0135787D01*
X0319498Y0135787D01*
X0312911Y0142374D01*
X0311882Y0142800D01*
X0299321Y0142800D01*
X0298571Y0143550D01*
X0290679Y0143550D01*
X0289625Y0142496D01*
X0289625Y0137504D01*
X0290679Y0136450D01*
X0298571Y0136450D01*
X0299321Y0137200D01*
X0310165Y0137200D01*
X0315612Y0131753D01*
X0315612Y0122218D01*
X0316442Y0121387D01*
X0311986Y0121387D01*
X0310932Y0120333D01*
X0310932Y0114117D01*
X0311311Y0113738D01*
X0309948Y0112375D01*
X0309821Y0112375D01*
X0309571Y0112625D01*
X0303479Y0112625D01*
X0302425Y0111571D01*
X0302425Y0107979D01*
X0303479Y0106925D01*
X0306274Y0106925D01*
X0305307Y0105958D01*
X0305307Y0105650D01*
X0302760Y0105650D01*
X0300650Y0107760D01*
X0300650Y0110625D01*
X0300971Y0110625D01*
X0302025Y0111679D01*
X0302025Y0115271D01*
X0300971Y0116325D01*
X0300725Y0116325D01*
X0300725Y0116765D01*
X0302425Y0118465D01*
X0302425Y0115379D01*
X0303479Y0114325D01*
X0309571Y0114325D01*
X0310625Y0115379D01*
X0310625Y0118971D01*
X0310369Y0119226D01*
X0310369Y0121249D01*
X0311338Y0122218D01*
X0311338Y0134732D01*
X0310284Y0135787D01*
X0304855Y0135787D01*
X0303801Y0134732D01*
X0303801Y0133262D01*
X0299698Y0133262D01*
X0298644Y0132208D01*
X0298644Y0125992D01*
X0299218Y0125417D01*
X0299218Y0123178D01*
X0296339Y0120299D01*
X0295551Y0119511D01*
X0295125Y0118482D01*
X0295125Y0116325D01*
X0294879Y0116325D01*
X0293825Y0115271D01*
X0293825Y0111679D01*
X0294879Y0110625D01*
X0295050Y0110625D01*
X0295050Y0109010D01*
X0287315Y0101275D01*
X0276530Y0101275D01*
X0276530Y0103087D01*
X0285711Y0103087D01*
X0286766Y0104142D01*
X0286766Y0151700D01*
X0290068Y0151700D01*
X0289934Y0151468D01*
X0289825Y0151061D01*
X0289825Y0149375D01*
X0294350Y0149375D01*
X0294350Y0148825D01*
X0294900Y0148825D01*
X0294900Y0149375D01*
X0299425Y0149375D01*
X0299425Y0151061D01*
X0299316Y0151468D01*
X0299182Y0151700D01*
X0301452Y0151700D01*
X0302334Y0152065D01*
X0303010Y0152741D01*
X0309469Y0159200D01*
X0314675Y0159200D01*
X0314675Y0157729D01*
X0315726Y0156678D01*
X0315643Y0156630D01*
X0315345Y0156332D01*
X0315134Y0155968D01*
X0315025Y0155561D01*
X0315025Y0149700D01*
X0319225Y0149700D01*
X0319225Y0148500D01*
X0320425Y0148500D01*
X0320425Y0141250D01*
X0323236Y0141250D01*
X0323643Y0141359D01*
X0324007Y0141570D01*
X0324305Y0141868D01*
X0324516Y0142232D01*
X0324625Y0142639D01*
X0324625Y0145316D01*
X0324873Y0145068D01*
X0324873Y0136882D01*
X0324101Y0136110D01*
X0324101Y0130682D01*
X0325156Y0129628D01*
X0330190Y0129628D01*
X0331244Y0130682D01*
X0331244Y0136110D01*
X0330473Y0136882D01*
X0330473Y0145068D01*
X0331244Y0145840D01*
X0331244Y0151268D01*
X0330190Y0152322D01*
X0330073Y0152322D01*
X0330073Y0155505D01*
X0329707Y0156387D01*
X0324775Y0161319D01*
X0324775Y0164221D01*
X0323721Y0165275D01*
X0319729Y0165275D01*
X0319725Y0165271D01*
X0319721Y0165275D01*
X0315729Y0165275D01*
X0314675Y0164221D01*
X0314675Y0164000D01*
X0313591Y0164000D01*
X0313951Y0164207D01*
X0314248Y0164505D01*
X0314459Y0164870D01*
X0314568Y0165277D01*
X0314568Y0167663D01*
X0311581Y0167663D01*
X0311581Y0168037D01*
X0314568Y0168037D01*
X0314568Y0170423D01*
X0314459Y0170830D01*
X0314248Y0171195D01*
X0313951Y0171493D01*
X0313586Y0171703D01*
X0313179Y0171812D01*
X0311581Y0171812D01*
X0311581Y0168037D01*
X0311206Y0168037D01*
X0311206Y0167663D01*
X0308219Y0167663D01*
X0308219Y0165277D01*
X0308328Y0164870D01*
X0308538Y0164505D01*
X0308836Y0164207D01*
X0309195Y0164000D01*
X0307998Y0164000D01*
X0307116Y0163635D01*
X0306440Y0162959D01*
X0299981Y0156500D01*
X0299625Y0156500D01*
X0299625Y0159209D01*
X0304104Y0163688D01*
X0306627Y0163688D01*
X0307681Y0164742D01*
X0307681Y0170958D01*
X0307550Y0171090D01*
X0311440Y0174981D01*
X0311756Y0174850D01*
X0313944Y0174850D01*
X0315965Y0175687D01*
X0317513Y0177234D01*
X0318350Y0179256D01*
X0318350Y0181444D01*
X0317513Y0183465D01*
X0315965Y0185013D01*
X0313944Y0185850D01*
X0311756Y0185850D01*
X0309734Y0185013D01*
X0308187Y0183465D01*
X0307850Y0182651D01*
X0307513Y0183465D01*
X0305965Y0185013D01*
X0303944Y0185850D01*
X0301756Y0185850D01*
X0299734Y0185013D01*
X0298187Y0183465D01*
X0297850Y0182651D01*
X0297513Y0183465D01*
X0295965Y0185013D01*
X0293944Y0185850D01*
X0291756Y0185850D01*
X0289734Y0185013D01*
X0288187Y0183465D01*
X0287850Y0182651D01*
X0287513Y0183465D01*
X0285965Y0185013D01*
X0283944Y0185850D01*
X0281756Y0185850D01*
X0279734Y0185013D01*
X0278187Y0183465D01*
X0277850Y0182651D01*
X0277513Y0183465D01*
X0275965Y0185013D01*
X0273944Y0185850D01*
X0271756Y0185850D01*
X0269734Y0185013D01*
X0268187Y0183465D01*
X0267850Y0182651D01*
X0267513Y0183465D01*
X0265965Y0185013D01*
X0263944Y0185850D01*
X0261756Y0185850D01*
X0259734Y0185013D01*
X0258187Y0183465D01*
X0257850Y0182651D01*
X0257513Y0183465D01*
X0255965Y0185013D01*
X0253944Y0185850D01*
X0251756Y0185850D01*
X0249734Y0185013D01*
X0248187Y0183465D01*
X0247850Y0182651D01*
X0247513Y0183465D01*
X0245965Y0185013D01*
X0243944Y0185850D01*
X0241756Y0185850D01*
X0239734Y0185013D01*
X0238187Y0183465D01*
X0237850Y0182651D01*
X0237513Y0183465D01*
X0235965Y0185013D01*
X0233944Y0185850D01*
X0231756Y0185850D01*
X0229734Y0185013D01*
X0228187Y0183465D01*
X0227350Y0181444D01*
X0227350Y0179256D01*
X0228187Y0177234D01*
X0229734Y0175687D01*
X0230050Y0175557D01*
X0230050Y0171510D01*
X0228289Y0169749D01*
X0204226Y0145686D01*
X0204007Y0145157D01*
X0204007Y0146560D01*
X0199740Y0146560D01*
X0199740Y0143474D01*
X0202618Y0143474D01*
X0203025Y0143583D01*
X0203390Y0143794D01*
X0203687Y0144092D01*
X0203800Y0144287D01*
X0203800Y0136778D01*
X0203153Y0137426D01*
X0195756Y0137426D01*
X0194702Y0136371D01*
X0194702Y0131337D01*
X0195756Y0130282D01*
X0203153Y0130282D01*
X0203924Y0131054D01*
X0205661Y0131054D01*
X0206690Y0131480D01*
X0208186Y0132976D01*
X0208800Y0133590D01*
X0208800Y0129010D01*
X0204226Y0124436D01*
X0204007Y0123907D01*
X0204007Y0124060D01*
X0199740Y0124060D01*
X0199740Y0120974D01*
X0202618Y0120974D01*
X0203025Y0121083D01*
X0203390Y0121294D01*
X0203687Y0121592D01*
X0203800Y0121787D01*
X0203800Y0114278D01*
X0203153Y0114926D01*
X0195756Y0114926D01*
X0194702Y0113871D01*
X0194702Y0108837D01*
X0195756Y0107782D01*
X0203153Y0107782D01*
X0203924Y0108554D01*
X0205661Y0108554D01*
X0206690Y0108980D01*
X0208186Y0110476D01*
X0208800Y0111090D01*
X0208800Y0107760D01*
X0204226Y0103186D01*
X0204007Y0102657D01*
X0204007Y0103828D01*
X0203898Y0104235D01*
X0203687Y0104600D01*
X0203390Y0104898D01*
X0203025Y0105109D01*
X0202618Y0105218D01*
X0199740Y0105218D01*
X0199740Y0102132D01*
X0199168Y0102132D01*
X0199168Y0101560D01*
X0194902Y0101560D01*
X0194902Y0099864D01*
X0195011Y0099457D01*
X0195221Y0099092D01*
X0195519Y0098794D01*
X0195884Y0098583D01*
X0196291Y0098474D01*
X0199168Y0098474D01*
X0199168Y0101560D01*
X0199740Y0101560D01*
X0199740Y0098474D01*
X0202618Y0098474D01*
X0203025Y0098583D01*
X0203390Y0098794D01*
X0203687Y0099092D01*
X0203800Y0099287D01*
X0203800Y0091778D01*
X0203153Y0092426D01*
X0195756Y0092426D01*
X0194702Y0091371D01*
X0194702Y0086337D01*
X0195756Y0085282D01*
X0194702Y0086694D02*
X0185350Y0086694D01*
X0185350Y0087893D02*
X0194702Y0087893D01*
X0194702Y0089091D02*
X0185350Y0089091D01*
X0185350Y0090290D02*
X0194702Y0090290D01*
X0194819Y0091488D02*
X0185350Y0091488D01*
X0185350Y0092687D02*
X0203800Y0092687D01*
X0203800Y0093885D02*
X0185350Y0093885D01*
X0185350Y0095084D02*
X0203800Y0095084D01*
X0203800Y0096282D02*
X0185350Y0096282D01*
X0185350Y0097481D02*
X0203800Y0097481D01*
X0203800Y0098679D02*
X0203191Y0098679D01*
X0199740Y0098679D02*
X0199168Y0098679D01*
X0199168Y0099878D02*
X0199740Y0099878D01*
X0199740Y0101076D02*
X0199168Y0101076D01*
X0199168Y0102132D02*
X0194902Y0102132D01*
X0194902Y0103828D01*
X0195011Y0104235D01*
X0195221Y0104600D01*
X0195519Y0104898D01*
X0195884Y0105109D01*
X0196291Y0105218D01*
X0199168Y0105218D01*
X0199168Y0102132D01*
X0199168Y0102275D02*
X0199740Y0102275D01*
X0199740Y0103473D02*
X0199168Y0103473D01*
X0199168Y0104672D02*
X0199740Y0104672D01*
X0203616Y0104672D02*
X0205712Y0104672D01*
X0204514Y0103473D02*
X0204007Y0103473D01*
X0206911Y0105870D02*
X0186646Y0105870D01*
X0185775Y0104999D02*
X0185775Y0104999D01*
X0185350Y0104672D02*
X0195293Y0104672D01*
X0194902Y0103473D02*
X0185350Y0103473D01*
X0185350Y0102275D02*
X0194902Y0102275D01*
X0194902Y0101076D02*
X0185350Y0101076D01*
X0185350Y0099878D02*
X0194902Y0099878D01*
X0195718Y0098679D02*
X0185350Y0098679D01*
X0187576Y0106800D02*
X0187576Y0106800D01*
X0187687Y0107069D02*
X0208109Y0107069D01*
X0208800Y0108268D02*
X0203638Y0108268D01*
X0207176Y0109466D02*
X0208800Y0109466D01*
X0208800Y0110665D02*
X0208374Y0110665D01*
X0203800Y0115459D02*
X0188550Y0115459D01*
X0188550Y0116657D02*
X0203800Y0116657D01*
X0203800Y0117856D02*
X0188550Y0117856D01*
X0188550Y0119054D02*
X0203800Y0119054D01*
X0203800Y0120253D02*
X0188550Y0120253D01*
X0188550Y0121451D02*
X0195362Y0121451D01*
X0195221Y0121592D02*
X0195519Y0121294D01*
X0195884Y0121083D01*
X0196291Y0120974D01*
X0199168Y0120974D01*
X0199168Y0124060D01*
X0194902Y0124060D01*
X0194902Y0122364D01*
X0195011Y0121957D01*
X0195221Y0121592D01*
X0194902Y0122650D02*
X0188550Y0122650D01*
X0188550Y0123848D02*
X0194902Y0123848D01*
X0194902Y0124632D02*
X0199168Y0124632D01*
X0199168Y0124060D01*
X0199740Y0124060D01*
X0199740Y0124632D01*
X0199168Y0124632D01*
X0199168Y0127718D01*
X0196291Y0127718D01*
X0195884Y0127609D01*
X0195519Y0127398D01*
X0195221Y0127100D01*
X0195011Y0126735D01*
X0194902Y0126328D01*
X0194902Y0124632D01*
X0194902Y0125047D02*
X0188550Y0125047D01*
X0188550Y0126245D02*
X0194902Y0126245D01*
X0195598Y0127444D02*
X0188550Y0127444D01*
X0188550Y0128642D02*
X0208432Y0128642D01*
X0208800Y0129841D02*
X0188550Y0129841D01*
X0188550Y0131039D02*
X0194999Y0131039D01*
X0194702Y0132238D02*
X0188550Y0132238D01*
X0188550Y0133436D02*
X0194702Y0133436D01*
X0194702Y0134635D02*
X0188550Y0134635D01*
X0188550Y0135833D02*
X0194702Y0135833D01*
X0195362Y0137032D02*
X0188550Y0137032D01*
X0188550Y0138230D02*
X0203800Y0138230D01*
X0203800Y0137032D02*
X0203546Y0137032D01*
X0203800Y0139429D02*
X0188550Y0139429D01*
X0188550Y0140627D02*
X0203800Y0140627D01*
X0203800Y0141826D02*
X0188550Y0141826D01*
X0188550Y0143024D02*
X0203800Y0143024D01*
X0203763Y0144223D02*
X0203800Y0144223D01*
X0204007Y0145421D02*
X0204117Y0145421D01*
X0205160Y0146620D02*
X0199740Y0146620D01*
X0199740Y0146560D02*
X0199740Y0147132D01*
X0199168Y0147132D01*
X0199168Y0146560D01*
X0194902Y0146560D01*
X0194902Y0144864D01*
X0195011Y0144457D01*
X0195221Y0144092D01*
X0195519Y0143794D01*
X0195884Y0143583D01*
X0196291Y0143474D01*
X0199168Y0143474D01*
X0199168Y0146560D01*
X0199740Y0146560D01*
X0199740Y0147132D02*
X0204007Y0147132D01*
X0204007Y0148828D01*
X0203898Y0149235D01*
X0203687Y0149600D01*
X0203390Y0149898D01*
X0203025Y0150109D01*
X0202618Y0150218D01*
X0199740Y0150218D01*
X0199740Y0147132D01*
X0199168Y0147132D02*
X0199168Y0150218D01*
X0196291Y0150218D01*
X0195884Y0150109D01*
X0195519Y0149898D01*
X0195221Y0149600D01*
X0195011Y0149235D01*
X0194902Y0148828D01*
X0194902Y0147132D01*
X0199168Y0147132D01*
X0199168Y0146620D02*
X0188550Y0146620D01*
X0188550Y0147818D02*
X0194902Y0147818D01*
X0194952Y0149017D02*
X0188550Y0149017D01*
X0188550Y0150215D02*
X0196282Y0150215D01*
X0199168Y0150215D02*
X0199740Y0150215D01*
X0199740Y0149017D02*
X0199168Y0149017D01*
X0199168Y0147818D02*
X0199740Y0147818D01*
X0199740Y0145421D02*
X0199168Y0145421D01*
X0199168Y0144223D02*
X0199740Y0144223D01*
X0195146Y0144223D02*
X0188550Y0144223D01*
X0188550Y0145421D02*
X0194902Y0145421D01*
X0202626Y0150215D02*
X0208756Y0150215D01*
X0207557Y0149017D02*
X0203957Y0149017D01*
X0204007Y0147818D02*
X0206359Y0147818D01*
X0209954Y0151414D02*
X0188550Y0151414D01*
X0188550Y0152612D02*
X0211153Y0152612D01*
X0212351Y0153811D02*
X0188550Y0153811D01*
X0188550Y0155009D02*
X0213550Y0155009D01*
X0214748Y0156208D02*
X0188550Y0156208D01*
X0188550Y0157406D02*
X0201019Y0157406D01*
X0202349Y0157050D02*
X0198966Y0157956D01*
X0195934Y0159707D01*
X0193457Y0162184D01*
X0191706Y0165216D01*
X0190800Y0168599D01*
X0190800Y0172101D01*
X0191706Y0175484D01*
X0193457Y0178516D01*
X0195934Y0180993D01*
X0198966Y0182744D01*
X0202349Y0183650D01*
X0205851Y0183650D01*
X0209234Y0182744D01*
X0212266Y0180993D01*
X0214743Y0178516D01*
X0216494Y0175484D01*
X0217400Y0172101D01*
X0217400Y0168599D01*
X0216494Y0165216D01*
X0214743Y0162184D01*
X0212266Y0159707D01*
X0209234Y0157956D01*
X0205851Y0157050D01*
X0202349Y0157050D01*
X0207181Y0157406D02*
X0215947Y0157406D01*
X0217145Y0158605D02*
X0210357Y0158605D01*
X0212363Y0159803D02*
X0218344Y0159803D01*
X0219542Y0161002D02*
X0213561Y0161002D01*
X0214752Y0162201D02*
X0220741Y0162201D01*
X0221939Y0163399D02*
X0215444Y0163399D01*
X0216136Y0164598D02*
X0223138Y0164598D01*
X0224336Y0165796D02*
X0216649Y0165796D01*
X0216970Y0166995D02*
X0225535Y0166995D01*
X0226733Y0168193D02*
X0217291Y0168193D01*
X0217400Y0169392D02*
X0227932Y0169392D01*
X0229130Y0170590D02*
X0217400Y0170590D01*
X0217400Y0171789D02*
X0230050Y0171789D01*
X0230050Y0172987D02*
X0217163Y0172987D01*
X0216841Y0174186D02*
X0230050Y0174186D01*
X0230050Y0175384D02*
X0216520Y0175384D01*
X0215859Y0176583D02*
X0228839Y0176583D01*
X0227961Y0177781D02*
X0215167Y0177781D01*
X0214279Y0178980D02*
X0227464Y0178980D01*
X0227350Y0180178D02*
X0213081Y0180178D01*
X0211601Y0181377D02*
X0227350Y0181377D01*
X0227819Y0182575D02*
X0209525Y0182575D01*
X0198675Y0182575D02*
X0188550Y0182575D01*
X0188550Y0181377D02*
X0196599Y0181377D01*
X0195119Y0180178D02*
X0188550Y0180178D01*
X0188550Y0178980D02*
X0193921Y0178980D01*
X0193033Y0177781D02*
X0188550Y0177781D01*
X0188550Y0176583D02*
X0192341Y0176583D01*
X0191680Y0175384D02*
X0188550Y0175384D01*
X0188550Y0174186D02*
X0191359Y0174186D01*
X0191037Y0172987D02*
X0188550Y0172987D01*
X0188550Y0171789D02*
X0190800Y0171789D01*
X0190800Y0170590D02*
X0188550Y0170590D01*
X0188550Y0169392D02*
X0190800Y0169392D01*
X0190909Y0168193D02*
X0188550Y0168193D01*
X0188550Y0166995D02*
X0191230Y0166995D01*
X0191551Y0165796D02*
X0188550Y0165796D01*
X0188550Y0164598D02*
X0192064Y0164598D01*
X0192756Y0163399D02*
X0188550Y0163399D01*
X0188550Y0162201D02*
X0193448Y0162201D01*
X0194639Y0161002D02*
X0188550Y0161002D01*
X0188550Y0159803D02*
X0195837Y0159803D01*
X0197843Y0158605D02*
X0188550Y0158605D01*
X0230350Y0167850D02*
X0230662Y0168163D01*
X0230350Y0167850D02*
X0230350Y0127225D01*
X0236600Y0120975D01*
X0250975Y0120975D01*
X0261334Y0110616D01*
X0261334Y0106837D01*
X0258934Y0107069D02*
X0252281Y0107069D01*
X0252653Y0106697D02*
X0251340Y0108010D01*
X0250458Y0108375D01*
X0244248Y0108375D01*
X0243366Y0108010D01*
X0242690Y0107334D01*
X0240912Y0105556D01*
X0240725Y0105880D01*
X0240427Y0106178D01*
X0240062Y0106388D01*
X0239655Y0106497D01*
X0237959Y0106497D01*
X0237959Y0103215D01*
X0237387Y0103215D01*
X0237387Y0106497D01*
X0235691Y0106497D01*
X0235284Y0106388D01*
X0235181Y0106329D01*
X0235181Y0109127D01*
X0234127Y0110181D01*
X0229073Y0110181D01*
X0228292Y0109400D01*
X0228150Y0109400D01*
X0228150Y0126265D01*
X0228315Y0125866D01*
X0228991Y0125190D01*
X0235241Y0118940D01*
X0236123Y0118575D01*
X0249981Y0118575D01*
X0258934Y0109622D01*
X0258934Y0104142D01*
X0259989Y0103087D01*
X0270357Y0103087D01*
X0270600Y0103330D01*
X0270760Y0103287D01*
X0271570Y0103287D01*
X0271570Y0106837D01*
X0271571Y0106837D01*
X0271571Y0103287D01*
X0271730Y0103287D01*
X0271730Y0101275D01*
X0256599Y0101275D01*
X0256599Y0105643D01*
X0255544Y0106697D01*
X0252653Y0106697D01*
X0250718Y0108268D02*
X0258934Y0108268D01*
X0258934Y0109466D02*
X0234842Y0109466D01*
X0235181Y0108268D02*
X0243988Y0108268D01*
X0243844Y0109100D02*
X0253475Y0109100D01*
X0260975Y0101600D01*
X0271570Y0101600D01*
X0271570Y0106837D01*
X0271570Y0106838D02*
X0271570Y0110387D01*
X0271411Y0110387D01*
X0271411Y0112769D01*
X0273594Y0110587D01*
X0272784Y0110587D01*
X0272541Y0110345D01*
X0272381Y0110387D01*
X0271571Y0110387D01*
X0271571Y0106838D01*
X0271570Y0106838D01*
X0271570Y0107069D02*
X0271571Y0107069D01*
X0271570Y0108268D02*
X0271571Y0108268D01*
X0271570Y0109466D02*
X0271571Y0109466D01*
X0271411Y0110665D02*
X0273516Y0110665D01*
X0272318Y0111863D02*
X0271411Y0111863D01*
X0272850Y0114725D02*
X0276689Y0110886D01*
X0276689Y0106837D01*
X0279248Y0106837D02*
X0279248Y0112077D01*
X0276600Y0114725D01*
X0276600Y0172225D01*
X0282850Y0178475D01*
X0282850Y0180350D01*
X0287204Y0183774D02*
X0288496Y0183774D01*
X0289694Y0184972D02*
X0286006Y0184972D01*
X0279694Y0184972D02*
X0276006Y0184972D01*
X0277204Y0183774D02*
X0278496Y0183774D01*
X0272850Y0180350D02*
X0272850Y0114725D01*
X0279725Y0115350D02*
X0279725Y0167225D01*
X0292850Y0180350D01*
X0297204Y0183774D02*
X0298496Y0183774D01*
X0299694Y0184972D02*
X0296006Y0184972D01*
X0302850Y0180350D02*
X0284366Y0161866D01*
X0284366Y0154100D01*
X0300975Y0154100D01*
X0308475Y0161600D01*
X0317100Y0161600D01*
X0317725Y0160975D01*
X0314675Y0158605D02*
X0308874Y0158605D01*
X0307676Y0157406D02*
X0314998Y0157406D01*
X0315273Y0156208D02*
X0306477Y0156208D01*
X0305279Y0155009D02*
X0315025Y0155009D01*
X0315025Y0153811D02*
X0304080Y0153811D01*
X0302882Y0152612D02*
X0315025Y0152612D01*
X0315025Y0151414D02*
X0299330Y0151414D01*
X0299425Y0150215D02*
X0315025Y0150215D01*
X0315025Y0148500D02*
X0315025Y0142639D01*
X0315134Y0142232D01*
X0315345Y0141868D01*
X0315643Y0141570D01*
X0316007Y0141359D01*
X0316414Y0141250D01*
X0319225Y0141250D01*
X0319225Y0148500D01*
X0315025Y0148500D01*
X0315025Y0147818D02*
X0299425Y0147818D01*
X0299425Y0147139D02*
X0299425Y0148825D01*
X0294900Y0148825D01*
X0294900Y0145750D01*
X0298036Y0145750D01*
X0298443Y0145859D01*
X0298807Y0146070D01*
X0299105Y0146368D01*
X0299316Y0146732D01*
X0299425Y0147139D01*
X0299251Y0146620D02*
X0315025Y0146620D01*
X0315025Y0145421D02*
X0286766Y0145421D01*
X0286766Y0144223D02*
X0315025Y0144223D01*
X0315025Y0143024D02*
X0299096Y0143024D01*
X0294350Y0145750D02*
X0291214Y0145750D01*
X0290807Y0145859D01*
X0290443Y0146070D01*
X0290145Y0146368D01*
X0289934Y0146732D01*
X0289825Y0147139D01*
X0289825Y0148825D01*
X0294350Y0148825D01*
X0294350Y0145750D01*
X0294350Y0146620D02*
X0294900Y0146620D01*
X0294900Y0147818D02*
X0294350Y0147818D01*
X0294350Y0149017D02*
X0286766Y0149017D01*
X0286766Y0150215D02*
X0289825Y0150215D01*
X0289920Y0151414D02*
X0286766Y0151414D01*
X0284366Y0154100D02*
X0284366Y0106837D01*
X0286766Y0107069D02*
X0293109Y0107069D01*
X0291911Y0105870D02*
X0286766Y0105870D01*
X0286766Y0104672D02*
X0290712Y0104672D01*
X0289514Y0103473D02*
X0286097Y0103473D01*
X0288315Y0102275D02*
X0276530Y0102275D01*
X0271730Y0102275D02*
X0256599Y0102275D01*
X0256599Y0103473D02*
X0259603Y0103473D01*
X0258934Y0104672D02*
X0256599Y0104672D01*
X0256371Y0105870D02*
X0258934Y0105870D01*
X0263893Y0106837D02*
X0263893Y0111807D01*
X0252225Y0123475D01*
X0237850Y0123475D01*
X0232850Y0128475D01*
X0232850Y0165350D01*
X0242850Y0175350D01*
X0242850Y0180350D01*
X0247204Y0183774D02*
X0248496Y0183774D01*
X0249694Y0184972D02*
X0246006Y0184972D01*
X0239694Y0184972D02*
X0236006Y0184972D01*
X0237204Y0183774D02*
X0238496Y0183774D01*
X0229694Y0184972D02*
X0188550Y0184972D01*
X0188550Y0183774D02*
X0228496Y0183774D01*
X0252850Y0180350D02*
X0266452Y0166748D01*
X0266452Y0106837D01*
X0269011Y0106837D02*
X0269011Y0174189D01*
X0262850Y0180350D01*
X0267204Y0183774D02*
X0268496Y0183774D01*
X0269694Y0184972D02*
X0266006Y0184972D01*
X0259694Y0184972D02*
X0256006Y0184972D01*
X0257204Y0183774D02*
X0258496Y0183774D01*
X0302617Y0162201D02*
X0305681Y0162201D01*
X0306880Y0163399D02*
X0303816Y0163399D01*
X0304483Y0161002D02*
X0301418Y0161002D01*
X0300220Y0159803D02*
X0303284Y0159803D01*
X0302086Y0158605D02*
X0299625Y0158605D01*
X0299625Y0157406D02*
X0300887Y0157406D01*
X0307537Y0164598D02*
X0308485Y0164598D01*
X0308219Y0165796D02*
X0307681Y0165796D01*
X0307681Y0166995D02*
X0308219Y0166995D01*
X0308218Y0168037D02*
X0311206Y0168037D01*
X0311206Y0171812D01*
X0309608Y0171812D01*
X0309201Y0171703D01*
X0308836Y0171493D01*
X0308538Y0171195D01*
X0308328Y0170830D01*
X0308219Y0170423D01*
X0308218Y0168037D01*
X0308219Y0168193D02*
X0307681Y0168193D01*
X0307681Y0169392D02*
X0308219Y0169392D01*
X0308263Y0170590D02*
X0307681Y0170590D01*
X0308248Y0171789D02*
X0309520Y0171789D01*
X0309447Y0172987D02*
X0328768Y0172987D01*
X0328877Y0173537D02*
X0328626Y0172274D01*
X0328500Y0170994D01*
X0328500Y0170950D01*
X0341000Y0170950D01*
X0341000Y0183450D01*
X0340956Y0183450D01*
X0339676Y0183324D01*
X0338413Y0183073D01*
X0337181Y0182699D01*
X0335992Y0182207D01*
X0334857Y0181600D01*
X0333787Y0180885D01*
X0332792Y0180068D01*
X0331882Y0179158D01*
X0331065Y0178163D01*
X0330350Y0177093D01*
X0329743Y0175958D01*
X0329251Y0174769D01*
X0328877Y0173537D01*
X0329074Y0174186D02*
X0310645Y0174186D01*
X0311206Y0171789D02*
X0311581Y0171789D01*
X0311581Y0170590D02*
X0311206Y0170590D01*
X0311206Y0169392D02*
X0311581Y0169392D01*
X0311581Y0168193D02*
X0311206Y0168193D01*
X0314568Y0168193D02*
X0328672Y0168193D01*
X0328626Y0168426D02*
X0328877Y0167163D01*
X0329251Y0165931D01*
X0329743Y0164742D01*
X0330350Y0163607D01*
X0331065Y0162537D01*
X0331882Y0161542D01*
X0332792Y0160632D01*
X0333787Y0159815D01*
X0334857Y0159100D01*
X0335992Y0158493D01*
X0337181Y0158001D01*
X0338413Y0157627D01*
X0339676Y0157376D01*
X0340956Y0157250D01*
X0341000Y0157250D01*
X0341000Y0169750D01*
X0342200Y0169750D01*
X0342200Y0170950D01*
X0354700Y0170950D01*
X0354700Y0170994D01*
X0354574Y0172274D01*
X0354323Y0173537D01*
X0353949Y0174769D01*
X0353457Y0175958D01*
X0352850Y0177093D01*
X0352135Y0178163D01*
X0351318Y0179158D01*
X0350408Y0180068D01*
X0349413Y0180885D01*
X0348343Y0181600D01*
X0347208Y0182207D01*
X0346019Y0182699D01*
X0344787Y0183073D01*
X0343524Y0183324D01*
X0342244Y0183450D01*
X0342200Y0183450D01*
X0342200Y0170950D01*
X0341000Y0170950D01*
X0341000Y0169750D01*
X0328500Y0169750D01*
X0328500Y0169706D01*
X0328626Y0168426D01*
X0328531Y0169392D02*
X0314568Y0169392D01*
X0314523Y0170590D02*
X0341000Y0170590D01*
X0341000Y0169392D02*
X0342200Y0169392D01*
X0342200Y0169750D02*
X0342200Y0157250D01*
X0342244Y0157250D01*
X0343524Y0157376D01*
X0344787Y0157627D01*
X0346019Y0158001D01*
X0347208Y0158493D01*
X0348343Y0159100D01*
X0349413Y0159815D01*
X0350408Y0160632D01*
X0351318Y0161542D01*
X0352135Y0162537D01*
X0352850Y0163607D01*
X0353457Y0164742D01*
X0353949Y0165931D01*
X0354323Y0167163D01*
X0354574Y0168426D01*
X0354700Y0169706D01*
X0354700Y0169750D01*
X0342200Y0169750D01*
X0342200Y0170590D02*
X0357150Y0170590D01*
X0357150Y0169392D02*
X0354669Y0169392D01*
X0354528Y0168193D02*
X0357150Y0168193D01*
X0357150Y0166995D02*
X0354272Y0166995D01*
X0353893Y0165796D02*
X0357150Y0165796D01*
X0357150Y0164598D02*
X0353379Y0164598D01*
X0352711Y0163399D02*
X0357150Y0163399D01*
X0357150Y0162201D02*
X0351859Y0162201D01*
X0350778Y0161002D02*
X0357150Y0161002D01*
X0357150Y0159803D02*
X0349395Y0159803D01*
X0347416Y0158605D02*
X0357150Y0158605D01*
X0353650Y0157406D02*
X0343677Y0157406D01*
X0342200Y0157406D02*
X0341000Y0157406D01*
X0341000Y0158605D02*
X0342200Y0158605D01*
X0342200Y0159803D02*
X0341000Y0159803D01*
X0341000Y0161002D02*
X0342200Y0161002D01*
X0342200Y0162201D02*
X0341000Y0162201D01*
X0341000Y0163399D02*
X0342200Y0163399D01*
X0342200Y0164598D02*
X0341000Y0164598D01*
X0341000Y0165796D02*
X0342200Y0165796D01*
X0342200Y0166995D02*
X0341000Y0166995D01*
X0341000Y0168193D02*
X0342200Y0168193D01*
X0342200Y0171789D02*
X0341000Y0171789D01*
X0341000Y0172987D02*
X0342200Y0172987D01*
X0342200Y0174186D02*
X0341000Y0174186D01*
X0341000Y0175384D02*
X0342200Y0175384D01*
X0342200Y0176583D02*
X0341000Y0176583D01*
X0341000Y0177781D02*
X0342200Y0177781D01*
X0342200Y0178980D02*
X0341000Y0178980D01*
X0341000Y0180178D02*
X0342200Y0180178D01*
X0342200Y0181377D02*
X0341000Y0181377D01*
X0341000Y0182575D02*
X0342200Y0182575D01*
X0346318Y0182575D02*
X0357150Y0182575D01*
X0357150Y0181377D02*
X0348677Y0181377D01*
X0350274Y0180178D02*
X0357150Y0180178D01*
X0357150Y0178980D02*
X0351465Y0178980D01*
X0352390Y0177781D02*
X0357150Y0177781D01*
X0357150Y0176583D02*
X0353123Y0176583D01*
X0353694Y0175384D02*
X0357150Y0175384D01*
X0357150Y0174186D02*
X0354126Y0174186D01*
X0354432Y0172987D02*
X0357150Y0172987D01*
X0357150Y0171789D02*
X0354622Y0171789D01*
X0336882Y0182575D02*
X0317881Y0182575D01*
X0318350Y0181377D02*
X0334523Y0181377D01*
X0332926Y0180178D02*
X0318350Y0180178D01*
X0318236Y0178980D02*
X0331735Y0178980D01*
X0330810Y0177781D02*
X0317739Y0177781D01*
X0316861Y0176583D02*
X0330077Y0176583D01*
X0329506Y0175384D02*
X0315234Y0175384D01*
X0313267Y0171789D02*
X0328578Y0171789D01*
X0328928Y0166995D02*
X0314568Y0166995D01*
X0314568Y0165796D02*
X0329307Y0165796D01*
X0329821Y0164598D02*
X0324398Y0164598D01*
X0324775Y0163399D02*
X0330489Y0163399D01*
X0331341Y0162201D02*
X0324775Y0162201D01*
X0325092Y0161002D02*
X0332422Y0161002D01*
X0333805Y0159803D02*
X0326291Y0159803D01*
X0327489Y0158605D02*
X0335784Y0158605D01*
X0339523Y0157406D02*
X0328688Y0157406D01*
X0329781Y0156208D02*
X0353422Y0156208D01*
X0353422Y0155009D02*
X0330073Y0155009D01*
X0330073Y0153811D02*
X0353422Y0153811D01*
X0353422Y0152612D02*
X0330073Y0152612D01*
X0331098Y0151414D02*
X0339923Y0151414D01*
X0339975Y0151505D02*
X0339765Y0151140D01*
X0339656Y0150733D01*
X0339656Y0148840D01*
X0342741Y0148840D01*
X0342741Y0152122D01*
X0341045Y0152122D01*
X0340638Y0152013D01*
X0340273Y0151803D01*
X0339975Y0151505D01*
X0339656Y0150215D02*
X0331244Y0150215D01*
X0331244Y0149017D02*
X0339656Y0149017D01*
X0339656Y0148268D02*
X0339656Y0146375D01*
X0339765Y0145968D01*
X0339975Y0145603D01*
X0340273Y0145305D01*
X0340638Y0145094D01*
X0341045Y0144985D01*
X0342741Y0144985D01*
X0342741Y0148268D01*
X0339656Y0148268D01*
X0339656Y0147818D02*
X0331244Y0147818D01*
X0331244Y0146620D02*
X0339656Y0146620D01*
X0340157Y0145421D02*
X0330826Y0145421D01*
X0330473Y0144223D02*
X0348442Y0144223D01*
X0348442Y0143024D02*
X0330473Y0143024D01*
X0330473Y0141826D02*
X0348442Y0141826D01*
X0347918Y0140627D02*
X0330473Y0140627D01*
X0330473Y0139429D02*
X0346719Y0139429D01*
X0345520Y0138230D02*
X0330473Y0138230D01*
X0330473Y0137032D02*
X0345050Y0137032D01*
X0343313Y0135833D02*
X0342741Y0135833D01*
X0342741Y0136965D02*
X0341045Y0136965D01*
X0340638Y0136856D01*
X0340273Y0136645D01*
X0339975Y0136347D01*
X0339765Y0135982D01*
X0339656Y0135575D01*
X0339656Y0133682D01*
X0342741Y0133682D01*
X0342741Y0136965D01*
X0342741Y0134635D02*
X0343313Y0134635D01*
X0342741Y0133436D02*
X0331244Y0133436D01*
X0331244Y0132238D02*
X0339656Y0132238D01*
X0339656Y0134635D02*
X0331244Y0134635D01*
X0331244Y0135833D02*
X0339725Y0135833D01*
X0337349Y0131039D02*
X0331244Y0131039D01*
X0330403Y0129841D02*
X0335881Y0129841D01*
X0334682Y0128642D02*
X0323173Y0128642D01*
X0323149Y0129841D02*
X0324943Y0129841D01*
X0324101Y0131039D02*
X0323149Y0131039D01*
X0323149Y0132238D02*
X0324101Y0132238D01*
X0324101Y0133436D02*
X0323149Y0133436D01*
X0323149Y0134635D02*
X0324101Y0134635D01*
X0324101Y0135833D02*
X0319452Y0135833D01*
X0318253Y0137032D02*
X0324873Y0137032D01*
X0324873Y0138230D02*
X0317054Y0138230D01*
X0315856Y0139429D02*
X0324873Y0139429D01*
X0324873Y0140627D02*
X0314657Y0140627D01*
X0315386Y0141826D02*
X0313459Y0141826D01*
X0319225Y0141826D02*
X0320425Y0141826D01*
X0320425Y0143024D02*
X0319225Y0143024D01*
X0319225Y0144223D02*
X0320425Y0144223D01*
X0320425Y0145421D02*
X0319225Y0145421D01*
X0319225Y0146620D02*
X0320425Y0146620D01*
X0320425Y0147818D02*
X0319225Y0147818D01*
X0319225Y0149017D02*
X0294900Y0149017D01*
X0289825Y0147818D02*
X0286766Y0147818D01*
X0286766Y0146620D02*
X0289999Y0146620D01*
X0290154Y0143024D02*
X0286766Y0143024D01*
X0286766Y0141826D02*
X0289625Y0141826D01*
X0289625Y0140627D02*
X0286766Y0140627D01*
X0286766Y0139429D02*
X0289625Y0139429D01*
X0289625Y0138230D02*
X0286766Y0138230D01*
X0286766Y0137032D02*
X0290098Y0137032D01*
X0286766Y0135833D02*
X0311532Y0135833D01*
X0311338Y0134635D02*
X0312730Y0134635D01*
X0313929Y0133436D02*
X0311338Y0133436D01*
X0311338Y0132238D02*
X0315127Y0132238D01*
X0315612Y0131039D02*
X0311338Y0131039D01*
X0311338Y0129841D02*
X0315612Y0129841D01*
X0315612Y0128642D02*
X0311338Y0128642D01*
X0311338Y0127444D02*
X0315612Y0127444D01*
X0315612Y0126245D02*
X0311338Y0126245D01*
X0311338Y0125047D02*
X0315612Y0125047D01*
X0315612Y0123848D02*
X0311338Y0123848D01*
X0311338Y0122650D02*
X0315612Y0122650D01*
X0316378Y0121451D02*
X0310572Y0121451D01*
X0310369Y0120253D02*
X0310932Y0120253D01*
X0310932Y0119054D02*
X0310541Y0119054D01*
X0310625Y0117856D02*
X0310932Y0117856D01*
X0310932Y0116657D02*
X0310625Y0116657D01*
X0310625Y0115459D02*
X0310932Y0115459D01*
X0310932Y0114260D02*
X0302025Y0114260D01*
X0302025Y0113062D02*
X0310635Y0113062D01*
X0315591Y0110665D02*
X0326550Y0110665D01*
X0326550Y0110010D02*
X0326550Y0112346D01*
X0327604Y0113400D01*
X0331596Y0113400D01*
X0331600Y0113396D01*
X0331604Y0113400D01*
X0335596Y0113400D01*
X0336650Y0112346D01*
X0336650Y0111900D01*
X0337199Y0111900D01*
X0337774Y0112475D01*
X0341627Y0112475D01*
X0342681Y0111420D01*
X0342681Y0106780D01*
X0341627Y0105725D01*
X0337774Y0105725D01*
X0337199Y0106300D01*
X0336650Y0106300D01*
X0336650Y0105854D01*
X0335596Y0104800D01*
X0331604Y0104800D01*
X0331600Y0104804D01*
X0331596Y0104800D01*
X0330360Y0104800D01*
X0330582Y0104578D01*
X0330709Y0104510D01*
X0330973Y0104187D01*
X0331041Y0104118D01*
X0331607Y0104118D01*
X0332662Y0103064D01*
X0332662Y0102087D01*
X0359035Y0102087D01*
X0360003Y0103055D01*
X0360350Y0103055D01*
X0360350Y0104377D01*
X0360003Y0104377D01*
X0358949Y0105431D01*
X0358949Y0106330D01*
X0355389Y0106330D01*
X0354359Y0106756D01*
X0350639Y0110476D01*
X0349851Y0111264D01*
X0349425Y0112293D01*
X0349425Y0117724D01*
X0348727Y0118422D01*
X0346401Y0118422D01*
X0345346Y0119476D01*
X0345346Y0122577D01*
X0344625Y0121856D01*
X0344625Y0119873D01*
X0344260Y0118991D01*
X0343584Y0118315D01*
X0340459Y0115190D01*
X0339577Y0114825D01*
X0324768Y0114825D01*
X0324768Y0114117D01*
X0323714Y0113063D01*
X0319073Y0113063D01*
X0318019Y0114117D01*
X0318019Y0120333D01*
X0318849Y0121163D01*
X0316851Y0121163D01*
X0317681Y0120333D01*
X0317681Y0114117D01*
X0316907Y0113342D01*
X0316907Y0112540D01*
X0316511Y0111584D01*
X0315779Y0110853D01*
X0312498Y0107571D01*
X0311542Y0107175D01*
X0309821Y0107175D01*
X0309658Y0107012D01*
X0311002Y0107012D01*
X0312056Y0105958D01*
X0312056Y0099742D01*
X0311749Y0099434D01*
X0312056Y0099127D01*
X0312056Y0098789D01*
X0312701Y0099434D01*
X0312394Y0099742D01*
X0312394Y0105958D01*
X0313448Y0107012D01*
X0315971Y0107012D01*
X0316682Y0107724D01*
X0317711Y0108150D01*
X0324690Y0108150D01*
X0326550Y0110010D01*
X0326006Y0109466D02*
X0314393Y0109466D01*
X0313194Y0108268D02*
X0324808Y0108268D01*
X0326550Y0111863D02*
X0316626Y0111863D01*
X0316907Y0113062D02*
X0327266Y0113062D01*
X0324768Y0114260D02*
X0349425Y0114260D01*
X0349425Y0113062D02*
X0335934Y0113062D01*
X0340728Y0115459D02*
X0349425Y0115459D01*
X0349425Y0116657D02*
X0341926Y0116657D01*
X0343125Y0117856D02*
X0349293Y0117856D01*
X0345769Y0119054D02*
X0344286Y0119054D01*
X0344625Y0120253D02*
X0345346Y0120253D01*
X0345346Y0121451D02*
X0344625Y0121451D01*
X0342225Y0120350D02*
X0342225Y0122850D01*
X0344725Y0125350D01*
X0349100Y0125350D01*
X0352225Y0128475D01*
X0352225Y0134100D01*
X0354725Y0136600D01*
X0354725Y0141600D01*
X0353475Y0142850D01*
X0351246Y0142850D01*
X0355496Y0144223D02*
X0357150Y0144223D01*
X0357150Y0145421D02*
X0353850Y0145421D01*
X0353850Y0146620D02*
X0357150Y0146620D01*
X0357150Y0147818D02*
X0353850Y0147818D01*
X0353464Y0149017D02*
X0357150Y0149017D01*
X0357150Y0150215D02*
X0346399Y0150215D01*
X0346399Y0150733D02*
X0346399Y0148840D01*
X0343313Y0148840D01*
X0342741Y0148840D01*
X0342741Y0148268D01*
X0343313Y0148268D01*
X0343313Y0148840D01*
X0343313Y0152122D01*
X0345009Y0152122D01*
X0345416Y0152013D01*
X0345781Y0151803D01*
X0346079Y0151505D01*
X0346290Y0151140D01*
X0346399Y0150733D01*
X0346132Y0151414D02*
X0354152Y0151414D01*
X0351246Y0149017D02*
X0351246Y0149017D01*
X0351246Y0147818D02*
X0351246Y0147818D01*
X0351246Y0146787D02*
X0348642Y0146787D01*
X0351246Y0146787D01*
X0351246Y0146787D01*
X0348642Y0146620D02*
X0346399Y0146620D01*
X0346399Y0146375D02*
X0346399Y0148268D01*
X0343313Y0148268D01*
X0343313Y0144985D01*
X0345009Y0144985D01*
X0345416Y0145094D01*
X0345781Y0145305D01*
X0346079Y0145603D01*
X0346290Y0145968D01*
X0346399Y0146375D01*
X0345898Y0145421D02*
X0348642Y0145421D01*
X0348642Y0147818D02*
X0346399Y0147818D01*
X0346399Y0149017D02*
X0349028Y0149017D01*
X0343313Y0149017D02*
X0342741Y0149017D01*
X0342741Y0150215D02*
X0343313Y0150215D01*
X0343313Y0151414D02*
X0342741Y0151414D01*
X0342741Y0147818D02*
X0343313Y0147818D01*
X0343313Y0146620D02*
X0342741Y0146620D01*
X0342741Y0145421D02*
X0343313Y0145421D01*
X0356695Y0143024D02*
X0357150Y0143024D01*
X0357125Y0141826D02*
X0357150Y0141826D01*
X0357125Y0140627D02*
X0357150Y0140627D01*
X0357125Y0139429D02*
X0357150Y0139429D01*
X0357125Y0138230D02*
X0357150Y0138230D01*
X0357125Y0137032D02*
X0357150Y0137032D01*
X0357150Y0135833D02*
X0357005Y0135833D01*
X0357150Y0134635D02*
X0356154Y0134635D01*
X0333484Y0127444D02*
X0324372Y0127444D01*
X0325570Y0126245D02*
X0332451Y0126245D01*
X0332142Y0125047D02*
X0326769Y0125047D01*
X0318019Y0120253D02*
X0317681Y0120253D01*
X0317681Y0119054D02*
X0318019Y0119054D01*
X0318019Y0117856D02*
X0317681Y0117856D01*
X0317681Y0116657D02*
X0318019Y0116657D01*
X0318019Y0115459D02*
X0317681Y0115459D01*
X0317681Y0114260D02*
X0318019Y0114260D01*
X0321393Y0117225D02*
X0339100Y0117225D01*
X0342225Y0120350D01*
X0344201Y0112166D02*
X0343836Y0111955D01*
X0343538Y0111657D01*
X0343328Y0111292D01*
X0343219Y0110885D01*
X0343219Y0109100D01*
X0343219Y0107315D01*
X0343328Y0106908D01*
X0343538Y0106543D01*
X0343836Y0106245D01*
X0344201Y0106034D01*
X0344608Y0105925D01*
X0346000Y0105925D01*
X0347391Y0105925D01*
X0347798Y0106034D01*
X0348163Y0106245D01*
X0348461Y0106543D01*
X0348672Y0106908D01*
X0348781Y0107315D01*
X0348781Y0109100D01*
X0348781Y0110885D01*
X0348672Y0111292D01*
X0348461Y0111657D01*
X0348163Y0111955D01*
X0347798Y0112166D01*
X0347391Y0112275D01*
X0346000Y0112275D01*
X0346000Y0109100D01*
X0348781Y0109100D01*
X0346000Y0109100D01*
X0346000Y0109100D01*
X0346000Y0109100D01*
X0346000Y0105925D01*
X0346000Y0109100D01*
X0346000Y0109100D01*
X0346000Y0112275D01*
X0344608Y0112275D01*
X0344201Y0112166D01*
X0343744Y0111863D02*
X0342239Y0111863D01*
X0342681Y0110665D02*
X0343219Y0110665D01*
X0343219Y0109466D02*
X0342681Y0109466D01*
X0343219Y0109100D02*
X0345999Y0109100D01*
X0343219Y0109100D01*
X0343219Y0108268D02*
X0342681Y0108268D01*
X0342681Y0107069D02*
X0343284Y0107069D01*
X0341772Y0105870D02*
X0358949Y0105870D01*
X0359708Y0104672D02*
X0330488Y0104672D01*
X0332252Y0103473D02*
X0360350Y0103473D01*
X0359222Y0102275D02*
X0332662Y0102275D01*
X0336650Y0105870D02*
X0337628Y0105870D01*
X0346000Y0107069D02*
X0346000Y0107069D01*
X0346000Y0108268D02*
X0346000Y0108268D01*
X0345999Y0109100D02*
X0345999Y0109100D01*
X0346000Y0109466D02*
X0346000Y0109466D01*
X0346000Y0110665D02*
X0346000Y0110665D01*
X0346000Y0111863D02*
X0346000Y0111863D01*
X0348255Y0111863D02*
X0349603Y0111863D01*
X0348781Y0110665D02*
X0350451Y0110665D01*
X0351649Y0109466D02*
X0348781Y0109466D01*
X0348781Y0108268D02*
X0352848Y0108268D01*
X0354046Y0107069D02*
X0348715Y0107069D01*
X0322850Y0099504D02*
X0320754Y0099504D01*
X0317225Y0095975D01*
X0315350Y0095975D01*
X0312394Y0099878D02*
X0312056Y0099878D01*
X0312056Y0101076D02*
X0312394Y0101076D01*
X0312394Y0102275D02*
X0312056Y0102275D01*
X0312056Y0103473D02*
X0312394Y0103473D01*
X0312394Y0104672D02*
X0312056Y0104672D01*
X0312056Y0105870D02*
X0312394Y0105870D01*
X0309715Y0107069D02*
X0316028Y0107069D01*
X0305307Y0105870D02*
X0302539Y0105870D01*
X0303335Y0107069D02*
X0301341Y0107069D01*
X0300650Y0108268D02*
X0302425Y0108268D01*
X0302425Y0109466D02*
X0300650Y0109466D01*
X0301010Y0110665D02*
X0302425Y0110665D01*
X0302717Y0111863D02*
X0302025Y0111863D01*
X0301837Y0115459D02*
X0302425Y0115459D01*
X0302425Y0116657D02*
X0300725Y0116657D01*
X0301815Y0117856D02*
X0302425Y0117856D01*
X0297491Y0121451D02*
X0286766Y0121451D01*
X0286766Y0120253D02*
X0296293Y0120253D01*
X0295362Y0119054D02*
X0286766Y0119054D01*
X0286766Y0117856D02*
X0295125Y0117856D01*
X0295125Y0116657D02*
X0286766Y0116657D01*
X0286766Y0115459D02*
X0294013Y0115459D01*
X0293825Y0114260D02*
X0286766Y0114260D01*
X0286766Y0113062D02*
X0293825Y0113062D01*
X0293825Y0111863D02*
X0286766Y0111863D01*
X0286766Y0110665D02*
X0294840Y0110665D01*
X0295050Y0109466D02*
X0286766Y0109466D01*
X0286766Y0108268D02*
X0294308Y0108268D01*
X0281807Y0106837D02*
X0281807Y0113268D01*
X0279725Y0115350D01*
X0286766Y0122650D02*
X0298690Y0122650D01*
X0299218Y0123848D02*
X0286766Y0123848D01*
X0286766Y0125047D02*
X0299218Y0125047D01*
X0298644Y0126245D02*
X0298031Y0126245D01*
X0297997Y0126120D02*
X0298106Y0126527D01*
X0298106Y0128913D01*
X0295119Y0128913D01*
X0295119Y0129287D01*
X0298106Y0129287D01*
X0298106Y0131673D01*
X0297997Y0132080D01*
X0297787Y0132445D01*
X0297489Y0132743D01*
X0297124Y0132953D01*
X0296717Y0133062D01*
X0295119Y0133062D01*
X0295119Y0129287D01*
X0294744Y0129287D01*
X0294744Y0128913D01*
X0291757Y0128913D01*
X0291757Y0126527D01*
X0291866Y0126120D01*
X0292077Y0125755D01*
X0292374Y0125457D01*
X0292739Y0125247D01*
X0293146Y0125138D01*
X0294744Y0125138D01*
X0294744Y0128913D01*
X0295119Y0128913D01*
X0295119Y0125138D01*
X0296717Y0125138D01*
X0297124Y0125247D01*
X0297489Y0125457D01*
X0297787Y0125755D01*
X0297997Y0126120D01*
X0298106Y0127444D02*
X0298644Y0127444D01*
X0298644Y0128642D02*
X0298106Y0128642D01*
X0298106Y0129841D02*
X0298644Y0129841D01*
X0298644Y0131039D02*
X0298106Y0131039D01*
X0297906Y0132238D02*
X0298673Y0132238D01*
X0295119Y0132238D02*
X0294744Y0132238D01*
X0294744Y0133062D02*
X0293146Y0133062D01*
X0292739Y0132953D01*
X0292374Y0132743D01*
X0292077Y0132445D01*
X0291866Y0132080D01*
X0291757Y0131673D01*
X0291757Y0129287D01*
X0294744Y0129287D01*
X0294744Y0133062D01*
X0294744Y0131039D02*
X0295119Y0131039D01*
X0295119Y0129841D02*
X0294744Y0129841D01*
X0294744Y0128642D02*
X0295119Y0128642D01*
X0295119Y0127444D02*
X0294744Y0127444D01*
X0294744Y0126245D02*
X0295119Y0126245D01*
X0291832Y0126245D02*
X0286766Y0126245D01*
X0286766Y0127444D02*
X0291757Y0127444D01*
X0291757Y0128642D02*
X0286766Y0128642D01*
X0286766Y0129841D02*
X0291757Y0129841D01*
X0291757Y0131039D02*
X0286766Y0131039D01*
X0286766Y0132238D02*
X0291957Y0132238D01*
X0286766Y0133436D02*
X0303801Y0133436D01*
X0303801Y0134635D02*
X0286766Y0134635D01*
X0299152Y0137032D02*
X0310333Y0137032D01*
X0324264Y0141826D02*
X0324873Y0141826D01*
X0324873Y0143024D02*
X0324625Y0143024D01*
X0324625Y0144223D02*
X0324873Y0144223D01*
X0327673Y0148554D02*
X0327673Y0155027D01*
X0321725Y0160975D01*
X0315052Y0164598D02*
X0314302Y0164598D01*
X0317204Y0183774D02*
X0357150Y0183774D01*
X0357150Y0184972D02*
X0316006Y0184972D01*
X0309694Y0184972D02*
X0306006Y0184972D01*
X0307204Y0183774D02*
X0308496Y0183774D01*
X0208800Y0133436D02*
X0208646Y0133436D01*
X0208800Y0132238D02*
X0207448Y0132238D01*
X0208800Y0131039D02*
X0203910Y0131039D01*
X0203025Y0127609D02*
X0202618Y0127718D01*
X0199740Y0127718D01*
X0199740Y0124632D01*
X0204007Y0124632D01*
X0204007Y0126328D01*
X0203898Y0126735D01*
X0203687Y0127100D01*
X0203390Y0127398D01*
X0203025Y0127609D01*
X0203310Y0127444D02*
X0207234Y0127444D01*
X0206035Y0126245D02*
X0204007Y0126245D01*
X0204007Y0125047D02*
X0204837Y0125047D01*
X0199740Y0125047D02*
X0199168Y0125047D01*
X0199168Y0126245D02*
X0199740Y0126245D01*
X0199740Y0127444D02*
X0199168Y0127444D01*
X0199168Y0123848D02*
X0199740Y0123848D01*
X0199740Y0122650D02*
X0199168Y0122650D01*
X0199168Y0121451D02*
X0199740Y0121451D01*
X0203547Y0121451D02*
X0203800Y0121451D01*
X0195090Y0114260D02*
X0188550Y0114260D01*
X0188550Y0113062D02*
X0194702Y0113062D01*
X0194702Y0111863D02*
X0188550Y0111863D01*
X0188550Y0110665D02*
X0194702Y0110665D01*
X0194702Y0109466D02*
X0188550Y0109466D01*
X0188184Y0108268D02*
X0195271Y0108268D01*
X0228150Y0109466D02*
X0228358Y0109466D01*
X0228150Y0110665D02*
X0257891Y0110665D01*
X0256693Y0111863D02*
X0228150Y0111863D01*
X0228150Y0113062D02*
X0255494Y0113062D01*
X0254296Y0114260D02*
X0228150Y0114260D01*
X0228150Y0115459D02*
X0253097Y0115459D01*
X0251899Y0116657D02*
X0228150Y0116657D01*
X0228150Y0117856D02*
X0250700Y0117856D01*
X0243844Y0109100D02*
X0237673Y0102929D01*
X0237387Y0103215D02*
X0237387Y0102643D01*
X0234301Y0102643D01*
X0234301Y0100750D01*
X0234410Y0100343D01*
X0234621Y0099978D01*
X0234919Y0099680D01*
X0235284Y0099469D01*
X0235691Y0099360D01*
X0237387Y0099360D01*
X0237387Y0102643D01*
X0237959Y0102643D01*
X0237959Y0099360D01*
X0239655Y0099360D01*
X0239825Y0099406D01*
X0239825Y0091294D01*
X0239655Y0091340D01*
X0237959Y0091340D01*
X0237959Y0088057D01*
X0240499Y0088057D01*
X0240866Y0087690D01*
X0242144Y0086412D01*
X0242144Y0086412D01*
X0242819Y0085737D01*
X0243701Y0085371D01*
X0249456Y0085371D01*
X0249456Y0085057D01*
X0250227Y0084286D01*
X0250227Y0083931D01*
X0246726Y0080430D01*
X0246300Y0079401D01*
X0246300Y0019168D01*
X0246726Y0018139D01*
X0249818Y0015047D01*
X0249734Y0015013D01*
X0248187Y0013465D01*
X0247749Y0012408D01*
X0247383Y0013128D01*
X0246893Y0013803D01*
X0246303Y0014393D01*
X0245628Y0014883D01*
X0244884Y0015262D01*
X0244091Y0015519D01*
X0243267Y0015650D01*
X0243250Y0015650D01*
X0243250Y0010750D01*
X0242450Y0010750D01*
X0242450Y0015650D01*
X0242433Y0015650D01*
X0241609Y0015519D01*
X0240816Y0015262D01*
X0240072Y0014883D01*
X0239397Y0014393D01*
X0238807Y0013803D01*
X0238317Y0013128D01*
X0237951Y0012408D01*
X0237513Y0013465D01*
X0235965Y0015013D01*
X0233944Y0015850D01*
X0231756Y0015850D01*
X0229734Y0015013D01*
X0229066Y0014344D01*
X0228150Y0015260D01*
X0228150Y0103800D01*
X0228292Y0103800D01*
X0229073Y0103019D01*
X0234127Y0103019D01*
X0234322Y0103215D01*
X0237387Y0103215D01*
X0237387Y0103473D02*
X0237959Y0103473D01*
X0237959Y0102275D02*
X0237387Y0102275D01*
X0237387Y0101076D02*
X0237959Y0101076D01*
X0237959Y0099878D02*
X0237387Y0099878D01*
X0234721Y0099878D02*
X0228150Y0099878D01*
X0228150Y0101076D02*
X0234301Y0101076D01*
X0234301Y0102275D02*
X0228150Y0102275D01*
X0228150Y0103473D02*
X0228619Y0103473D01*
X0235181Y0107069D02*
X0242425Y0107069D01*
X0241226Y0105870D02*
X0240730Y0105870D01*
X0237959Y0105870D02*
X0237387Y0105870D01*
X0237387Y0104672D02*
X0237959Y0104672D01*
X0242225Y0103475D02*
X0244725Y0105975D01*
X0249981Y0105975D01*
X0253027Y0102929D01*
X0252948Y0102850D01*
X0242225Y0103475D02*
X0242225Y0089725D01*
X0244179Y0087771D01*
X0253027Y0087771D01*
X0256936Y0083863D01*
X0261334Y0083863D01*
X0263893Y0083863D02*
X0263893Y0088893D01*
X0270350Y0095350D01*
X0290975Y0095350D01*
X0292850Y0097225D01*
X0300350Y0097225D01*
X0306600Y0090975D01*
X0321182Y0090975D01*
X0322004Y0090350D01*
X0318038Y0087893D02*
X0313931Y0087893D01*
X0313931Y0086694D02*
X0318980Y0086694D01*
X0313931Y0085496D02*
X0326800Y0085496D01*
X0326550Y0084297D02*
X0313931Y0084297D01*
X0315244Y0083099D02*
X0326550Y0083099D01*
X0326550Y0081900D02*
X0316569Y0081900D01*
X0317767Y0080702D02*
X0326550Y0080702D01*
X0326550Y0079503D02*
X0318966Y0079503D01*
X0319084Y0079385D02*
X0319084Y0079385D01*
X0319927Y0078305D02*
X0326600Y0078305D01*
X0320125Y0077106D02*
X0360208Y0077106D01*
X0360350Y0075908D02*
X0320125Y0075908D01*
X0320125Y0074709D02*
X0360350Y0074709D01*
X0359610Y0073511D02*
X0320125Y0073511D01*
X0320125Y0072312D02*
X0358411Y0072312D01*
X0358124Y0072025D02*
X0358124Y0072025D01*
X0357747Y0071114D02*
X0320125Y0071114D01*
X0320125Y0069915D02*
X0357250Y0069915D01*
X0357150Y0068717D02*
X0320125Y0068717D01*
X0320125Y0067518D02*
X0357150Y0067518D01*
X0357150Y0066320D02*
X0320125Y0066320D01*
X0320125Y0065121D02*
X0357150Y0065121D01*
X0357150Y0063923D02*
X0320125Y0063923D01*
X0320125Y0062724D02*
X0357150Y0062724D01*
X0357150Y0061526D02*
X0320125Y0061526D01*
X0320125Y0060327D02*
X0325660Y0060327D01*
X0325351Y0059129D02*
X0320125Y0059129D01*
X0320125Y0057930D02*
X0325351Y0057930D01*
X0325351Y0056732D02*
X0320125Y0056732D01*
X0320125Y0055533D02*
X0325351Y0055533D01*
X0325606Y0054334D02*
X0320125Y0054334D01*
X0320125Y0053136D02*
X0326123Y0053136D01*
X0326123Y0051937D02*
X0320125Y0051937D01*
X0320125Y0050739D02*
X0326123Y0050739D01*
X0326123Y0049540D02*
X0320125Y0049540D01*
X0320125Y0048342D02*
X0326123Y0048342D01*
X0326123Y0047143D02*
X0320125Y0047143D01*
X0320125Y0045945D02*
X0326123Y0045945D01*
X0325351Y0044746D02*
X0320125Y0044746D01*
X0320125Y0043548D02*
X0325351Y0043548D01*
X0325166Y0042349D02*
X0320125Y0042349D01*
X0320125Y0041151D02*
X0323968Y0041151D01*
X0322769Y0039952D02*
X0320125Y0039952D01*
X0320125Y0038754D02*
X0321571Y0038754D01*
X0320372Y0037555D02*
X0320125Y0037555D01*
X0315325Y0038754D02*
X0292750Y0038754D01*
X0292750Y0039952D02*
X0298433Y0039952D01*
X0298063Y0041151D02*
X0292750Y0041151D01*
X0292750Y0042349D02*
X0298063Y0042349D01*
X0298063Y0043548D02*
X0292750Y0043548D01*
X0292750Y0044746D02*
X0298063Y0044746D01*
X0299044Y0045945D02*
X0292750Y0045945D01*
X0292750Y0047143D02*
X0298850Y0047143D01*
X0298850Y0048342D02*
X0292750Y0048342D01*
X0292750Y0049540D02*
X0298850Y0049540D01*
X0298850Y0050739D02*
X0292750Y0050739D01*
X0292750Y0051937D02*
X0299145Y0051937D01*
X0298850Y0053136D02*
X0292750Y0053136D01*
X0292750Y0054334D02*
X0298850Y0054334D01*
X0298850Y0055533D02*
X0292750Y0055533D01*
X0292750Y0056732D02*
X0298850Y0056732D01*
X0298849Y0057930D02*
X0292750Y0057930D01*
X0292750Y0059129D02*
X0297925Y0059129D01*
X0297925Y0060327D02*
X0292750Y0060327D01*
X0292750Y0061526D02*
X0297925Y0061526D01*
X0302225Y0064850D02*
X0290475Y0064850D01*
X0290350Y0064725D01*
X0290350Y0029100D01*
X0302850Y0016600D01*
X0302850Y0010350D01*
X0306672Y0006394D02*
X0309311Y0006394D01*
X0308307Y0007593D02*
X0307661Y0007593D01*
X0304778Y0005196D02*
X0311563Y0005196D01*
X0312450Y0005196D02*
X0313250Y0005196D01*
X0313250Y0005050D02*
X0313267Y0005050D01*
X0314091Y0005180D01*
X0314884Y0005438D01*
X0315628Y0005817D01*
X0316303Y0006307D01*
X0316893Y0006897D01*
X0317383Y0007572D01*
X0317762Y0008316D01*
X0318019Y0009109D01*
X0318150Y0009933D01*
X0318150Y0009950D01*
X0313250Y0009950D01*
X0313250Y0005050D01*
X0314137Y0005196D02*
X0357150Y0005196D01*
X0357150Y0004800D02*
X0188550Y0004800D01*
X0185350Y0004800D02*
X0185352Y0004688D01*
X0185358Y0004577D01*
X0185368Y0004466D01*
X0185381Y0004355D01*
X0185399Y0004244D01*
X0185420Y0004135D01*
X0185445Y0004026D01*
X0185474Y0003918D01*
X0185507Y0003811D01*
X0185543Y0003706D01*
X0185583Y0003601D01*
X0185627Y0003498D01*
X0185674Y0003397D01*
X0185725Y0003298D01*
X0185779Y0003200D01*
X0185836Y0003104D01*
X0185897Y0003011D01*
X0185961Y0002919D01*
X0186028Y0002830D01*
X0186099Y0002743D01*
X0186172Y0002659D01*
X0186248Y0002577D01*
X0186327Y0002498D01*
X0186409Y0002422D01*
X0186493Y0002349D01*
X0186580Y0002278D01*
X0186669Y0002211D01*
X0186761Y0002147D01*
X0186854Y0002086D01*
X0186950Y0002029D01*
X0187048Y0001975D01*
X0187147Y0001924D01*
X0187248Y0001877D01*
X0187351Y0001833D01*
X0187456Y0001793D01*
X0187561Y0001757D01*
X0187668Y0001724D01*
X0187776Y0001695D01*
X0187885Y0001670D01*
X0187994Y0001649D01*
X0188105Y0001631D01*
X0188216Y0001618D01*
X0188327Y0001608D01*
X0188438Y0001602D01*
X0188550Y0001600D01*
X0357150Y0001600D01*
X0357150Y0006394D02*
X0316389Y0006394D01*
X0317393Y0007593D02*
X0338588Y0007593D01*
X0338413Y0007627D02*
X0339676Y0007376D01*
X0340956Y0007250D01*
X0341000Y0007250D01*
X0341000Y0019750D01*
X0342200Y0019750D01*
X0342200Y0020950D01*
X0354700Y0020950D01*
X0354700Y0020994D01*
X0354574Y0022274D01*
X0354323Y0023537D01*
X0353949Y0024769D01*
X0353457Y0025958D01*
X0352850Y0027093D01*
X0352135Y0028163D01*
X0351318Y0029158D01*
X0350408Y0030068D01*
X0349413Y0030885D01*
X0348343Y0031600D01*
X0347208Y0032207D01*
X0346019Y0032699D01*
X0344787Y0033073D01*
X0343524Y0033324D01*
X0342244Y0033450D01*
X0342200Y0033450D01*
X0342200Y0020950D01*
X0341000Y0020950D01*
X0341000Y0033450D01*
X0340956Y0033450D01*
X0339676Y0033324D01*
X0338413Y0033073D01*
X0337181Y0032699D01*
X0335992Y0032207D01*
X0334857Y0031600D01*
X0333787Y0030885D01*
X0332792Y0030068D01*
X0331882Y0029158D01*
X0331065Y0028163D01*
X0330350Y0027093D01*
X0329743Y0025958D01*
X0329251Y0024769D01*
X0328877Y0023537D01*
X0328626Y0022274D01*
X0328500Y0020994D01*
X0328500Y0020950D01*
X0341000Y0020950D01*
X0341000Y0019750D01*
X0328500Y0019750D01*
X0328500Y0019706D01*
X0328626Y0018426D01*
X0328877Y0017163D01*
X0329251Y0015931D01*
X0329743Y0014742D01*
X0330350Y0013607D01*
X0331065Y0012537D01*
X0331882Y0011542D01*
X0332792Y0010632D01*
X0333787Y0009815D01*
X0334857Y0009100D01*
X0335992Y0008493D01*
X0337181Y0008001D01*
X0338413Y0007627D01*
X0341000Y0007593D02*
X0342200Y0007593D01*
X0342200Y0007250D02*
X0342244Y0007250D01*
X0343524Y0007376D01*
X0344787Y0007627D01*
X0346019Y0008001D01*
X0347208Y0008493D01*
X0348343Y0009100D01*
X0349413Y0009815D01*
X0350408Y0010632D01*
X0351318Y0011542D01*
X0352135Y0012537D01*
X0352850Y0013607D01*
X0353457Y0014742D01*
X0353949Y0015931D01*
X0354323Y0017163D01*
X0354574Y0018426D01*
X0354700Y0019706D01*
X0354700Y0019750D01*
X0342200Y0019750D01*
X0342200Y0007250D01*
X0342200Y0008791D02*
X0341000Y0008791D01*
X0341000Y0009990D02*
X0342200Y0009990D01*
X0342200Y0011188D02*
X0341000Y0011188D01*
X0341000Y0012387D02*
X0342200Y0012387D01*
X0342200Y0013585D02*
X0341000Y0013585D01*
X0341000Y0014784D02*
X0342200Y0014784D01*
X0342200Y0015982D02*
X0341000Y0015982D01*
X0341000Y0017181D02*
X0342200Y0017181D01*
X0342200Y0018379D02*
X0341000Y0018379D01*
X0341000Y0019578D02*
X0342200Y0019578D01*
X0342200Y0020776D02*
X0357150Y0020776D01*
X0357150Y0019578D02*
X0354687Y0019578D01*
X0354565Y0018379D02*
X0357150Y0018379D01*
X0357150Y0017181D02*
X0354326Y0017181D01*
X0353964Y0015982D02*
X0357150Y0015982D01*
X0357150Y0014784D02*
X0353474Y0014784D01*
X0352835Y0013585D02*
X0357150Y0013585D01*
X0357150Y0012387D02*
X0352011Y0012387D01*
X0350964Y0011188D02*
X0357150Y0011188D01*
X0357150Y0009990D02*
X0349625Y0009990D01*
X0347765Y0008791D02*
X0357150Y0008791D01*
X0357150Y0007593D02*
X0344612Y0007593D01*
X0335435Y0008791D02*
X0317916Y0008791D01*
X0318150Y0010750D02*
X0313250Y0010750D01*
X0313250Y0015650D01*
X0313267Y0015650D01*
X0314091Y0015519D01*
X0314884Y0015262D01*
X0315628Y0014883D01*
X0316303Y0014393D01*
X0316893Y0013803D01*
X0317383Y0013128D01*
X0317762Y0012384D01*
X0318019Y0011591D01*
X0318150Y0010767D01*
X0318150Y0010750D01*
X0318083Y0011188D02*
X0332236Y0011188D01*
X0331189Y0012387D02*
X0317761Y0012387D01*
X0317051Y0013585D02*
X0330365Y0013585D01*
X0329726Y0014784D02*
X0315765Y0014784D01*
X0313250Y0014784D02*
X0312450Y0014784D01*
X0312450Y0013585D02*
X0313250Y0013585D01*
X0313250Y0012387D02*
X0312450Y0012387D01*
X0312450Y0011188D02*
X0313250Y0011188D01*
X0313250Y0009990D02*
X0333575Y0009990D01*
X0329236Y0015982D02*
X0305250Y0015982D01*
X0305207Y0017181D02*
X0328874Y0017181D01*
X0328635Y0018379D02*
X0304465Y0018379D01*
X0303266Y0019578D02*
X0328513Y0019578D01*
X0328597Y0021975D02*
X0300869Y0021975D01*
X0299671Y0023173D02*
X0328805Y0023173D01*
X0329131Y0024372D02*
X0298472Y0024372D01*
X0297274Y0025570D02*
X0315584Y0025570D01*
X0314675Y0026769D02*
X0296075Y0026769D01*
X0294877Y0027967D02*
X0314675Y0027967D01*
X0314675Y0029166D02*
X0293678Y0029166D01*
X0292750Y0030364D02*
X0314675Y0030364D01*
X0314675Y0031563D02*
X0292750Y0031563D01*
X0292750Y0032761D02*
X0298821Y0032761D01*
X0298880Y0032702D02*
X0299245Y0032491D01*
X0299652Y0032382D01*
X0302038Y0032382D01*
X0302038Y0035369D01*
X0302412Y0035369D01*
X0302412Y0032382D01*
X0304798Y0032382D01*
X0305205Y0032491D01*
X0305570Y0032702D01*
X0305868Y0032999D01*
X0306078Y0033364D01*
X0306187Y0033771D01*
X0306187Y0035369D01*
X0302412Y0035369D01*
X0302412Y0035744D01*
X0302038Y0035744D01*
X0302038Y0038731D01*
X0299652Y0038731D01*
X0299245Y0038622D01*
X0298880Y0038412D01*
X0298582Y0038114D01*
X0298372Y0037749D01*
X0298263Y0037342D01*
X0298263Y0035744D01*
X0302038Y0035744D01*
X0302038Y0035369D01*
X0298263Y0035369D01*
X0298263Y0033771D01*
X0298372Y0033364D01*
X0298582Y0032999D01*
X0298880Y0032702D01*
X0298263Y0033960D02*
X0292750Y0033960D01*
X0292750Y0035158D02*
X0298263Y0035158D01*
X0298263Y0036357D02*
X0292750Y0036357D01*
X0292750Y0037555D02*
X0298320Y0037555D01*
X0302038Y0037555D02*
X0302412Y0037555D01*
X0302412Y0038731D02*
X0302412Y0035744D01*
X0306187Y0035744D01*
X0306187Y0037342D01*
X0306078Y0037749D01*
X0305868Y0038114D01*
X0305570Y0038412D01*
X0305205Y0038622D01*
X0304798Y0038731D01*
X0302412Y0038731D01*
X0302412Y0036357D02*
X0302038Y0036357D01*
X0302038Y0035158D02*
X0302412Y0035158D01*
X0302412Y0033960D02*
X0302038Y0033960D01*
X0302038Y0032761D02*
X0302412Y0032761D01*
X0305629Y0032761D02*
X0308196Y0032761D01*
X0308255Y0032702D02*
X0308620Y0032491D01*
X0309027Y0032382D01*
X0311413Y0032382D01*
X0311413Y0035369D01*
X0307638Y0035369D01*
X0307638Y0033771D01*
X0307747Y0033364D01*
X0307957Y0032999D01*
X0308255Y0032702D01*
X0307638Y0033960D02*
X0306187Y0033960D01*
X0306187Y0035158D02*
X0307638Y0035158D01*
X0307638Y0036357D02*
X0306187Y0036357D01*
X0306130Y0037555D02*
X0307695Y0037555D01*
X0307808Y0039952D02*
X0306017Y0039952D01*
X0306387Y0041151D02*
X0307438Y0041151D01*
X0307438Y0042349D02*
X0306387Y0042349D01*
X0306387Y0043548D02*
X0307438Y0043548D01*
X0307438Y0044746D02*
X0306387Y0044746D01*
X0305406Y0045945D02*
X0308419Y0045945D01*
X0308225Y0047143D02*
X0305600Y0047143D01*
X0305600Y0048342D02*
X0308225Y0048342D01*
X0308225Y0049540D02*
X0305600Y0049540D01*
X0305600Y0050739D02*
X0308225Y0050739D01*
X0308520Y0051937D02*
X0305305Y0051937D01*
X0305600Y0053136D02*
X0308225Y0053136D01*
X0308225Y0054334D02*
X0305600Y0054334D01*
X0305600Y0055533D02*
X0308225Y0055533D01*
X0308225Y0056732D02*
X0305600Y0056732D01*
X0305601Y0057930D02*
X0308224Y0057930D01*
X0307300Y0059129D02*
X0306525Y0059129D01*
X0306525Y0060327D02*
X0307300Y0060327D01*
X0307300Y0061526D02*
X0306525Y0061526D01*
X0306525Y0062724D02*
X0307300Y0062724D01*
X0307300Y0063923D02*
X0306525Y0063923D01*
X0306525Y0065121D02*
X0307300Y0065121D01*
X0307300Y0066320D02*
X0306525Y0066320D01*
X0305852Y0067518D02*
X0307973Y0067518D01*
X0308800Y0068717D02*
X0292750Y0068717D01*
X0292750Y0069915D02*
X0308800Y0069915D01*
X0308800Y0071114D02*
X0292750Y0071114D01*
X0292750Y0072312D02*
X0308800Y0072312D01*
X0308582Y0073511D02*
X0292750Y0073511D01*
X0292750Y0074709D02*
X0308019Y0074709D01*
X0308019Y0075908D02*
X0292750Y0075908D01*
X0292479Y0077106D02*
X0308019Y0077106D01*
X0308019Y0078305D02*
X0291414Y0078305D01*
X0290216Y0079503D02*
X0294678Y0079503D01*
X0293479Y0080702D02*
X0289017Y0080702D01*
X0287819Y0081900D02*
X0292281Y0081900D01*
X0291082Y0083099D02*
X0286766Y0083099D01*
X0286766Y0084297D02*
X0289884Y0084297D01*
X0294725Y0086600D02*
X0310350Y0086600D01*
X0314100Y0080975D02*
X0296600Y0080975D01*
X0289725Y0087850D01*
X0282225Y0087850D01*
X0281807Y0087432D01*
X0281807Y0083863D01*
X0281807Y0080768D01*
X0287850Y0074725D01*
X0287850Y0021600D01*
X0292850Y0016600D01*
X0292850Y0010350D01*
X0296672Y0006394D02*
X0299028Y0006394D01*
X0298039Y0007593D02*
X0297661Y0007593D01*
X0294778Y0005196D02*
X0300922Y0005196D01*
X0290922Y0005196D02*
X0284778Y0005196D01*
X0286672Y0006394D02*
X0289028Y0006394D01*
X0288039Y0007593D02*
X0287661Y0007593D01*
X0282850Y0010350D02*
X0282850Y0047225D01*
X0285350Y0049725D01*
X0285350Y0073475D01*
X0279248Y0079577D01*
X0279248Y0083863D01*
X0276689Y0083863D02*
X0276689Y0078386D01*
X0282850Y0072225D01*
X0282850Y0050975D01*
X0272850Y0040975D01*
X0272850Y0010350D01*
X0267850Y0012651D02*
X0267513Y0013465D01*
X0265965Y0015013D01*
X0265250Y0015309D01*
X0265250Y0016452D01*
X0264885Y0017334D01*
X0264209Y0018010D01*
X0255250Y0026969D01*
X0255250Y0051581D01*
X0259914Y0051581D01*
X0260491Y0052158D01*
X0260549Y0052101D01*
X0260914Y0051891D01*
X0261320Y0051781D01*
X0263312Y0051781D01*
X0263312Y0054966D01*
X0264081Y0054966D01*
X0264081Y0055734D01*
X0267462Y0055734D01*
X0267462Y0057529D01*
X0267353Y0057936D01*
X0267142Y0058301D01*
X0266844Y0058599D01*
X0266479Y0058809D01*
X0266291Y0058860D01*
X0267021Y0058860D01*
X0267850Y0059689D01*
X0268679Y0058860D01*
X0269409Y0058860D01*
X0269221Y0058809D01*
X0268856Y0058599D01*
X0268558Y0058301D01*
X0268347Y0057936D01*
X0268238Y0057529D01*
X0268238Y0055734D01*
X0271619Y0055734D01*
X0271619Y0054966D01*
X0268238Y0054966D01*
X0268238Y0053171D01*
X0268347Y0052764D01*
X0268558Y0052399D01*
X0268856Y0052101D01*
X0269221Y0051891D01*
X0269628Y0051781D01*
X0271619Y0051781D01*
X0271619Y0054966D01*
X0272388Y0054966D01*
X0272388Y0051781D01*
X0274380Y0051781D01*
X0274786Y0051891D01*
X0275151Y0052101D01*
X0275209Y0052158D01*
X0275786Y0051581D01*
X0280062Y0051581D01*
X0271491Y0043010D01*
X0270815Y0042334D01*
X0270450Y0041452D01*
X0270450Y0015309D01*
X0269734Y0015013D01*
X0268187Y0013465D01*
X0267850Y0012651D01*
X0267393Y0013585D02*
X0268307Y0013585D01*
X0269505Y0014784D02*
X0266195Y0014784D01*
X0265250Y0015982D02*
X0270450Y0015982D01*
X0270450Y0017181D02*
X0264948Y0017181D01*
X0263840Y0018379D02*
X0270450Y0018379D01*
X0270450Y0019578D02*
X0262641Y0019578D01*
X0261443Y0020776D02*
X0270450Y0020776D01*
X0270450Y0021975D02*
X0260244Y0021975D01*
X0259046Y0023173D02*
X0270450Y0023173D01*
X0270450Y0024372D02*
X0257847Y0024372D01*
X0256649Y0025570D02*
X0270450Y0025570D01*
X0270450Y0026769D02*
X0255450Y0026769D01*
X0255250Y0027967D02*
X0270450Y0027967D01*
X0270450Y0029166D02*
X0255250Y0029166D01*
X0255250Y0030364D02*
X0270450Y0030364D01*
X0270450Y0031563D02*
X0255250Y0031563D01*
X0255250Y0032761D02*
X0270450Y0032761D01*
X0270450Y0033960D02*
X0255250Y0033960D01*
X0255250Y0035158D02*
X0270450Y0035158D01*
X0270450Y0036357D02*
X0255250Y0036357D01*
X0255250Y0037555D02*
X0270450Y0037555D01*
X0270450Y0038754D02*
X0255250Y0038754D01*
X0255250Y0039952D02*
X0270450Y0039952D01*
X0270450Y0041151D02*
X0255250Y0041151D01*
X0255250Y0042349D02*
X0270830Y0042349D01*
X0272029Y0043548D02*
X0255250Y0043548D01*
X0255250Y0044746D02*
X0273227Y0044746D01*
X0274426Y0045945D02*
X0255250Y0045945D01*
X0255250Y0047143D02*
X0275624Y0047143D01*
X0276823Y0048342D02*
X0255250Y0048342D01*
X0255250Y0049540D02*
X0278021Y0049540D01*
X0279220Y0050739D02*
X0255250Y0050739D01*
X0260270Y0051937D02*
X0260832Y0051937D01*
X0263312Y0051937D02*
X0264081Y0051937D01*
X0264081Y0051781D02*
X0266072Y0051781D01*
X0266479Y0051891D01*
X0266844Y0052101D01*
X0267142Y0052399D01*
X0267353Y0052764D01*
X0267462Y0053171D01*
X0267462Y0054966D01*
X0264081Y0054966D01*
X0264081Y0051781D01*
X0264081Y0053136D02*
X0263312Y0053136D01*
X0263312Y0054334D02*
X0264081Y0054334D01*
X0264081Y0055533D02*
X0271619Y0055533D01*
X0271619Y0054334D02*
X0272388Y0054334D01*
X0272388Y0053136D02*
X0271619Y0053136D01*
X0271619Y0051937D02*
X0272388Y0051937D01*
X0274868Y0051937D02*
X0275430Y0051937D01*
X0278696Y0055350D02*
X0278893Y0059882D01*
X0275950Y0062825D01*
X0272181Y0062825D01*
X0275950Y0062825D02*
X0277850Y0064725D01*
X0277850Y0072225D01*
X0276600Y0073475D01*
X0269725Y0073475D01*
X0269011Y0074189D01*
X0269011Y0083863D01*
X0266452Y0083863D02*
X0266452Y0072058D01*
X0263519Y0069125D01*
X0259750Y0069125D01*
X0256807Y0066182D01*
X0257004Y0055350D01*
X0246300Y0055533D02*
X0228150Y0055533D01*
X0228150Y0054334D02*
X0246300Y0054334D01*
X0246300Y0053136D02*
X0228150Y0053136D01*
X0228150Y0051937D02*
X0246300Y0051937D01*
X0246300Y0050739D02*
X0228150Y0050739D01*
X0228150Y0049540D02*
X0246300Y0049540D01*
X0246300Y0048342D02*
X0228150Y0048342D01*
X0228150Y0047143D02*
X0246300Y0047143D01*
X0246300Y0045945D02*
X0228150Y0045945D01*
X0228150Y0044746D02*
X0246300Y0044746D01*
X0246300Y0043548D02*
X0228150Y0043548D01*
X0228150Y0042349D02*
X0246300Y0042349D01*
X0246300Y0041151D02*
X0228150Y0041151D01*
X0228150Y0039952D02*
X0246300Y0039952D01*
X0246300Y0038754D02*
X0228150Y0038754D01*
X0228150Y0037555D02*
X0246300Y0037555D01*
X0246300Y0036357D02*
X0228150Y0036357D01*
X0228150Y0035158D02*
X0246300Y0035158D01*
X0246300Y0033960D02*
X0228150Y0033960D01*
X0228150Y0032761D02*
X0246300Y0032761D01*
X0246300Y0031563D02*
X0228150Y0031563D01*
X0228150Y0030364D02*
X0246300Y0030364D01*
X0246300Y0029166D02*
X0228150Y0029166D01*
X0228150Y0027967D02*
X0246300Y0027967D01*
X0246300Y0026769D02*
X0228150Y0026769D01*
X0228150Y0025570D02*
X0246300Y0025570D01*
X0246300Y0024372D02*
X0228150Y0024372D01*
X0228150Y0023173D02*
X0246300Y0023173D01*
X0246300Y0021975D02*
X0228150Y0021975D01*
X0228150Y0020776D02*
X0246300Y0020776D01*
X0246300Y0019578D02*
X0228150Y0019578D01*
X0228150Y0018379D02*
X0246627Y0018379D01*
X0247685Y0017181D02*
X0228150Y0017181D01*
X0228150Y0015982D02*
X0248883Y0015982D01*
X0249505Y0014784D02*
X0245765Y0014784D01*
X0247051Y0013585D02*
X0248307Y0013585D01*
X0243250Y0013585D02*
X0242450Y0013585D01*
X0242450Y0012387D02*
X0243250Y0012387D01*
X0243250Y0011188D02*
X0242450Y0011188D01*
X0242450Y0008791D02*
X0243250Y0008791D01*
X0243250Y0007593D02*
X0242450Y0007593D01*
X0242450Y0006394D02*
X0243250Y0006394D01*
X0243250Y0005196D02*
X0242450Y0005196D01*
X0241563Y0005196D02*
X0234778Y0005196D01*
X0236672Y0006394D02*
X0239311Y0006394D01*
X0238307Y0007593D02*
X0237661Y0007593D01*
X0230922Y0005196D02*
X0188550Y0005196D01*
X0188550Y0006394D02*
X0229028Y0006394D01*
X0228039Y0007593D02*
X0207112Y0007593D01*
X0207287Y0007627D02*
X0208519Y0008001D01*
X0209708Y0008493D01*
X0210843Y0009100D01*
X0211913Y0009815D01*
X0212908Y0010632D01*
X0213818Y0011542D01*
X0214635Y0012537D01*
X0215350Y0013607D01*
X0215957Y0014742D01*
X0216449Y0015931D01*
X0216823Y0017163D01*
X0217074Y0018426D01*
X0217200Y0019706D01*
X0217200Y0019750D01*
X0204700Y0019750D01*
X0204700Y0020950D01*
X0217200Y0020950D01*
X0217200Y0020994D01*
X0217074Y0022274D01*
X0216823Y0023537D01*
X0216449Y0024769D01*
X0215957Y0025958D01*
X0215350Y0027093D01*
X0214635Y0028163D01*
X0213818Y0029158D01*
X0212908Y0030068D01*
X0211913Y0030885D01*
X0210843Y0031600D01*
X0209708Y0032207D01*
X0208519Y0032699D01*
X0207287Y0033073D01*
X0206024Y0033324D01*
X0204744Y0033450D01*
X0204700Y0033450D01*
X0204700Y0020950D01*
X0203500Y0020950D01*
X0203500Y0033450D01*
X0203456Y0033450D01*
X0202176Y0033324D01*
X0200913Y0033073D01*
X0199681Y0032699D01*
X0198492Y0032207D01*
X0197357Y0031600D01*
X0196287Y0030885D01*
X0195292Y0030068D01*
X0194382Y0029158D01*
X0193565Y0028163D01*
X0192850Y0027093D01*
X0192243Y0025958D01*
X0191751Y0024769D01*
X0191377Y0023537D01*
X0191126Y0022274D01*
X0191000Y0020994D01*
X0191000Y0020950D01*
X0203500Y0020950D01*
X0203500Y0019750D01*
X0204700Y0019750D01*
X0204700Y0007250D01*
X0204744Y0007250D01*
X0206024Y0007376D01*
X0207287Y0007627D01*
X0204700Y0007593D02*
X0203500Y0007593D01*
X0203500Y0007250D02*
X0203500Y0019750D01*
X0191000Y0019750D01*
X0191000Y0019706D01*
X0191126Y0018426D01*
X0191377Y0017163D01*
X0191751Y0015931D01*
X0192243Y0014742D01*
X0192850Y0013607D01*
X0193565Y0012537D01*
X0194382Y0011542D01*
X0195292Y0010632D01*
X0196287Y0009815D01*
X0197357Y0009100D01*
X0198492Y0008493D01*
X0199681Y0008001D01*
X0200913Y0007627D01*
X0202176Y0007376D01*
X0203456Y0007250D01*
X0203500Y0007250D01*
X0203500Y0008791D02*
X0204700Y0008791D01*
X0204700Y0009990D02*
X0203500Y0009990D01*
X0203500Y0011188D02*
X0204700Y0011188D01*
X0204700Y0012387D02*
X0203500Y0012387D01*
X0203500Y0013585D02*
X0204700Y0013585D01*
X0204700Y0014784D02*
X0203500Y0014784D01*
X0203500Y0015982D02*
X0204700Y0015982D01*
X0204700Y0017181D02*
X0203500Y0017181D01*
X0203500Y0018379D02*
X0204700Y0018379D01*
X0204700Y0019578D02*
X0203500Y0019578D01*
X0203500Y0020776D02*
X0188550Y0020776D01*
X0188550Y0019578D02*
X0191013Y0019578D01*
X0191135Y0018379D02*
X0188550Y0018379D01*
X0188550Y0017181D02*
X0191374Y0017181D01*
X0191736Y0015982D02*
X0188550Y0015982D01*
X0188550Y0014784D02*
X0192226Y0014784D01*
X0192865Y0013585D02*
X0188550Y0013585D01*
X0188550Y0012387D02*
X0193689Y0012387D01*
X0194736Y0011188D02*
X0188550Y0011188D01*
X0188550Y0009990D02*
X0196075Y0009990D01*
X0197935Y0008791D02*
X0188550Y0008791D01*
X0188550Y0007593D02*
X0201088Y0007593D01*
X0210265Y0008791D02*
X0226699Y0008791D01*
X0225501Y0009990D02*
X0212125Y0009990D01*
X0213464Y0011188D02*
X0224302Y0011188D01*
X0223104Y0012387D02*
X0214511Y0012387D01*
X0215335Y0013585D02*
X0222550Y0013585D01*
X0222550Y0014784D02*
X0215974Y0014784D01*
X0216464Y0015982D02*
X0222550Y0015982D01*
X0222550Y0017181D02*
X0216826Y0017181D01*
X0217065Y0018379D02*
X0222550Y0018379D01*
X0222550Y0019578D02*
X0217187Y0019578D01*
X0217103Y0021975D02*
X0222550Y0021975D01*
X0222550Y0023173D02*
X0216895Y0023173D01*
X0216569Y0024372D02*
X0222550Y0024372D01*
X0222550Y0025570D02*
X0216117Y0025570D01*
X0215523Y0026769D02*
X0222550Y0026769D01*
X0222550Y0027967D02*
X0214766Y0027967D01*
X0213810Y0029166D02*
X0222550Y0029166D01*
X0222550Y0030364D02*
X0212547Y0030364D01*
X0210898Y0031563D02*
X0222550Y0031563D01*
X0216831Y0032761D02*
X0208314Y0032761D01*
X0204700Y0032761D02*
X0203500Y0032761D01*
X0203500Y0031563D02*
X0204700Y0031563D01*
X0204700Y0030364D02*
X0203500Y0030364D01*
X0203500Y0029166D02*
X0204700Y0029166D01*
X0204700Y0027967D02*
X0203500Y0027967D01*
X0203500Y0026769D02*
X0204700Y0026769D01*
X0204700Y0025570D02*
X0203500Y0025570D01*
X0203500Y0024372D02*
X0204700Y0024372D01*
X0204700Y0023173D02*
X0203500Y0023173D01*
X0203500Y0021975D02*
X0204700Y0021975D01*
X0204700Y0020776D02*
X0222550Y0020776D01*
X0228626Y0014784D02*
X0229505Y0014784D01*
X0236195Y0014784D02*
X0239935Y0014784D01*
X0238649Y0013585D02*
X0237393Y0013585D01*
X0242450Y0014784D02*
X0243250Y0014784D01*
X0247393Y0007593D02*
X0248039Y0007593D01*
X0249028Y0006394D02*
X0246389Y0006394D01*
X0244137Y0005196D02*
X0250922Y0005196D01*
X0254778Y0005196D02*
X0260922Y0005196D01*
X0259028Y0006394D02*
X0256672Y0006394D01*
X0257661Y0007593D02*
X0258039Y0007593D01*
X0264778Y0005196D02*
X0270922Y0005196D01*
X0269028Y0006394D02*
X0266672Y0006394D01*
X0267661Y0007593D02*
X0268039Y0007593D01*
X0262850Y0010350D02*
X0262850Y0015975D01*
X0252850Y0025975D01*
X0252850Y0067850D01*
X0263893Y0078893D01*
X0263893Y0083863D01*
X0271570Y0083863D02*
X0271600Y0083892D01*
X0271600Y0089725D01*
X0274725Y0092850D01*
X0297850Y0092850D01*
X0294725Y0086600D02*
X0290975Y0090350D01*
X0279100Y0090350D01*
X0276689Y0087939D01*
X0276689Y0083863D01*
X0274130Y0083863D02*
X0274129Y0083863D01*
X0274129Y0087413D01*
X0274000Y0087413D01*
X0274000Y0088731D01*
X0275719Y0090450D01*
X0275806Y0090450D01*
X0274654Y0089298D01*
X0274289Y0088416D01*
X0274289Y0087461D01*
X0274289Y0087413D01*
X0274130Y0087413D01*
X0274130Y0083863D01*
X0274130Y0079130D01*
X0272850Y0077850D01*
X0274289Y0077909D02*
X0274654Y0077027D01*
X0275806Y0075875D01*
X0271411Y0075875D01*
X0271411Y0080113D01*
X0272916Y0080113D01*
X0273159Y0080355D01*
X0273319Y0080313D01*
X0274129Y0080313D01*
X0274129Y0083862D01*
X0274130Y0083862D01*
X0274130Y0080313D01*
X0274289Y0080313D01*
X0274289Y0077909D01*
X0274289Y0078305D02*
X0271411Y0078305D01*
X0271411Y0079503D02*
X0274289Y0079503D01*
X0274129Y0080702D02*
X0274130Y0080702D01*
X0274129Y0081900D02*
X0274130Y0081900D01*
X0274129Y0083099D02*
X0274130Y0083099D01*
X0274129Y0084297D02*
X0274130Y0084297D01*
X0274129Y0085496D02*
X0274130Y0085496D01*
X0274129Y0086694D02*
X0274130Y0086694D01*
X0274000Y0087893D02*
X0274289Y0087893D01*
X0274360Y0089091D02*
X0274568Y0089091D01*
X0275559Y0090290D02*
X0275646Y0090290D01*
X0274100Y0098475D02*
X0274130Y0098505D01*
X0274130Y0106837D01*
X0271571Y0105870D02*
X0271570Y0105870D01*
X0271570Y0104672D02*
X0271571Y0104672D01*
X0271570Y0103473D02*
X0271571Y0103473D01*
X0239825Y0098679D02*
X0228150Y0098679D01*
X0228150Y0097481D02*
X0239825Y0097481D01*
X0239825Y0096282D02*
X0228150Y0096282D01*
X0228150Y0095084D02*
X0239825Y0095084D01*
X0239825Y0093885D02*
X0228150Y0093885D01*
X0228150Y0092687D02*
X0239825Y0092687D01*
X0239825Y0091488D02*
X0228150Y0091488D01*
X0228150Y0090290D02*
X0234392Y0090290D01*
X0234410Y0090357D02*
X0234301Y0089950D01*
X0234301Y0088057D01*
X0237387Y0088057D01*
X0237387Y0087485D01*
X0237959Y0087485D01*
X0237959Y0084203D01*
X0239655Y0084203D01*
X0240062Y0084312D01*
X0240427Y0084522D01*
X0240725Y0084820D01*
X0240935Y0085185D01*
X0241044Y0085592D01*
X0241044Y0087485D01*
X0237959Y0087485D01*
X0237959Y0088057D01*
X0237387Y0088057D01*
X0237387Y0091340D01*
X0235691Y0091340D01*
X0235284Y0091231D01*
X0234919Y0091020D01*
X0234621Y0090722D01*
X0234410Y0090357D01*
X0234301Y0089091D02*
X0228150Y0089091D01*
X0228150Y0087893D02*
X0237387Y0087893D01*
X0237387Y0087485D02*
X0234301Y0087485D01*
X0234301Y0085592D01*
X0234410Y0085185D01*
X0234621Y0084820D01*
X0234919Y0084522D01*
X0235284Y0084312D01*
X0235691Y0084203D01*
X0237387Y0084203D01*
X0237387Y0087485D01*
X0237959Y0087893D02*
X0240663Y0087893D01*
X0240866Y0087690D02*
X0240866Y0087690D01*
X0241044Y0086694D02*
X0241862Y0086694D01*
X0241019Y0085496D02*
X0243401Y0085496D01*
X0240008Y0084297D02*
X0250215Y0084297D01*
X0249395Y0083099D02*
X0228150Y0083099D01*
X0228150Y0084297D02*
X0235338Y0084297D01*
X0234327Y0085496D02*
X0228150Y0085496D01*
X0228150Y0086694D02*
X0234301Y0086694D01*
X0237387Y0086694D02*
X0237959Y0086694D01*
X0237959Y0085496D02*
X0237387Y0085496D01*
X0237387Y0084297D02*
X0237959Y0084297D01*
X0237959Y0089091D02*
X0237387Y0089091D01*
X0237387Y0090290D02*
X0237959Y0090290D01*
X0228150Y0081900D02*
X0248196Y0081900D01*
X0246998Y0080702D02*
X0228150Y0080702D01*
X0228150Y0079503D02*
X0246342Y0079503D01*
X0246300Y0078305D02*
X0228150Y0078305D01*
X0228150Y0077106D02*
X0246300Y0077106D01*
X0246300Y0075908D02*
X0228150Y0075908D01*
X0228150Y0074709D02*
X0246300Y0074709D01*
X0246300Y0073511D02*
X0228150Y0073511D01*
X0228150Y0072312D02*
X0246300Y0072312D01*
X0246300Y0071114D02*
X0228150Y0071114D01*
X0228150Y0069915D02*
X0246300Y0069915D01*
X0246300Y0068717D02*
X0228150Y0068717D01*
X0228150Y0067518D02*
X0246300Y0067518D01*
X0246300Y0066320D02*
X0228150Y0066320D01*
X0228150Y0065121D02*
X0246300Y0065121D01*
X0246300Y0063923D02*
X0228150Y0063923D01*
X0228150Y0062724D02*
X0246300Y0062724D01*
X0246300Y0061526D02*
X0228150Y0061526D01*
X0228150Y0060327D02*
X0246300Y0060327D01*
X0246300Y0059129D02*
X0228150Y0059129D01*
X0228150Y0057930D02*
X0246300Y0057930D01*
X0246300Y0056732D02*
X0228150Y0056732D01*
X0222550Y0060327D02*
X0222535Y0060327D01*
X0222550Y0061526D02*
X0214400Y0061526D01*
X0214400Y0062724D02*
X0222550Y0062724D01*
X0214957Y0060327D02*
X0214103Y0060327D01*
X0213993Y0059129D02*
X0213088Y0059129D01*
X0213993Y0057930D02*
X0211890Y0057930D01*
X0210691Y0056732D02*
X0213993Y0056732D01*
X0213993Y0055533D02*
X0210650Y0055533D01*
X0210650Y0054334D02*
X0213993Y0054334D01*
X0210650Y0053136D02*
X0222550Y0053136D01*
X0222550Y0051937D02*
X0210650Y0051937D01*
X0210650Y0050739D02*
X0222550Y0050739D01*
X0222550Y0049540D02*
X0210650Y0049540D01*
X0210650Y0048342D02*
X0222550Y0048342D01*
X0214765Y0047143D02*
X0210650Y0047143D01*
X0210650Y0045945D02*
X0213993Y0045945D01*
X0213993Y0044746D02*
X0210631Y0044746D01*
X0210008Y0043548D02*
X0213993Y0043548D01*
X0213993Y0042349D02*
X0208809Y0042349D01*
X0207145Y0041151D02*
X0214179Y0041151D01*
X0217646Y0038754D02*
X0188550Y0038754D01*
X0188550Y0039952D02*
X0222550Y0039952D01*
X0216769Y0037555D02*
X0188550Y0037555D01*
X0188550Y0036357D02*
X0216769Y0036357D01*
X0216769Y0035158D02*
X0188550Y0035158D01*
X0188550Y0033960D02*
X0216769Y0033960D01*
X0199886Y0032761D02*
X0188550Y0032761D01*
X0188550Y0031563D02*
X0197302Y0031563D01*
X0195653Y0030364D02*
X0188550Y0030364D01*
X0188550Y0029166D02*
X0194390Y0029166D01*
X0193434Y0027967D02*
X0188550Y0027967D01*
X0188550Y0026769D02*
X0192677Y0026769D01*
X0192083Y0025570D02*
X0188550Y0025570D01*
X0188550Y0024372D02*
X0191631Y0024372D01*
X0191305Y0023173D02*
X0188550Y0023173D01*
X0188550Y0021975D02*
X0191097Y0021975D01*
X0188550Y0041151D02*
X0194887Y0041151D01*
X0194702Y0042349D02*
X0188550Y0042349D01*
X0188550Y0043548D02*
X0194702Y0043548D01*
X0194702Y0044746D02*
X0188550Y0044746D01*
X0188550Y0045945D02*
X0194702Y0045945D01*
X0195474Y0047143D02*
X0188550Y0047143D01*
X0188550Y0048342D02*
X0205050Y0048342D01*
X0205050Y0049540D02*
X0188550Y0049540D01*
X0188550Y0050739D02*
X0205050Y0050739D01*
X0205050Y0051937D02*
X0188550Y0051937D01*
X0188550Y0053136D02*
X0205050Y0053136D01*
X0205050Y0054334D02*
X0203827Y0054334D01*
X0203898Y0054457D02*
X0204007Y0054864D01*
X0204007Y0056560D01*
X0199740Y0056560D01*
X0199740Y0053474D01*
X0202618Y0053474D01*
X0203025Y0053583D01*
X0203390Y0053794D01*
X0203687Y0054092D01*
X0203898Y0054457D01*
X0204007Y0055533D02*
X0205050Y0055533D01*
X0205050Y0056732D02*
X0199740Y0056732D01*
X0199740Y0056560D02*
X0199740Y0057132D01*
X0199168Y0057132D01*
X0199168Y0056560D01*
X0194902Y0056560D01*
X0194902Y0054864D01*
X0195011Y0054457D01*
X0195221Y0054092D01*
X0195519Y0053794D01*
X0195884Y0053583D01*
X0196291Y0053474D01*
X0199168Y0053474D01*
X0199168Y0056560D01*
X0199740Y0056560D01*
X0199740Y0057132D02*
X0204007Y0057132D01*
X0204007Y0058828D01*
X0203898Y0059235D01*
X0203687Y0059600D01*
X0203390Y0059898D01*
X0203025Y0060109D01*
X0202618Y0060218D01*
X0199740Y0060218D01*
X0199740Y0057132D01*
X0199168Y0057132D02*
X0199168Y0060218D01*
X0196291Y0060218D01*
X0195884Y0060109D01*
X0195519Y0059898D01*
X0195221Y0059600D01*
X0195011Y0059235D01*
X0194902Y0058828D01*
X0194902Y0057132D01*
X0199168Y0057132D01*
X0199168Y0056732D02*
X0188550Y0056732D01*
X0188550Y0057930D02*
X0194902Y0057930D01*
X0194982Y0059129D02*
X0188550Y0059129D01*
X0188550Y0060327D02*
X0206367Y0060327D01*
X0205349Y0059129D02*
X0203927Y0059129D01*
X0204007Y0057930D02*
X0205050Y0057930D01*
X0199740Y0057930D02*
X0199168Y0057930D01*
X0199168Y0059129D02*
X0199740Y0059129D01*
X0199740Y0055533D02*
X0199168Y0055533D01*
X0199168Y0054334D02*
X0199740Y0054334D01*
X0195081Y0054334D02*
X0188550Y0054334D01*
X0188550Y0055533D02*
X0194902Y0055533D01*
X0188550Y0061526D02*
X0207566Y0061526D01*
X0208764Y0062724D02*
X0188550Y0062724D01*
X0188550Y0063923D02*
X0194702Y0063923D01*
X0194702Y0065121D02*
X0188550Y0065121D01*
X0188550Y0066320D02*
X0194702Y0066320D01*
X0194702Y0067518D02*
X0188550Y0067518D01*
X0188550Y0068717D02*
X0194702Y0068717D01*
X0195746Y0069915D02*
X0188550Y0069915D01*
X0188550Y0071114D02*
X0203800Y0071114D01*
X0203800Y0072312D02*
X0188550Y0072312D01*
X0188550Y0073511D02*
X0203800Y0073511D01*
X0203800Y0074709D02*
X0188550Y0074709D01*
X0188550Y0075908D02*
X0203800Y0075908D01*
X0199740Y0077106D02*
X0199168Y0077106D01*
X0199168Y0078305D02*
X0199740Y0078305D01*
X0199168Y0079503D02*
X0188550Y0079503D01*
X0188550Y0078305D02*
X0194902Y0078305D01*
X0194971Y0077106D02*
X0188550Y0077106D01*
X0188550Y0080702D02*
X0194902Y0080702D01*
X0194902Y0081328D02*
X0194902Y0079632D01*
X0199168Y0079632D01*
X0199168Y0082718D01*
X0196291Y0082718D01*
X0195884Y0082609D01*
X0195519Y0082398D01*
X0195221Y0082100D01*
X0195011Y0081735D01*
X0194902Y0081328D01*
X0195106Y0081900D02*
X0188404Y0081900D01*
X0187908Y0083099D02*
X0206639Y0083099D01*
X0207837Y0084297D02*
X0187179Y0084297D01*
X0199168Y0081900D02*
X0199740Y0081900D01*
X0199740Y0080702D02*
X0199168Y0080702D01*
X0203803Y0081900D02*
X0205440Y0081900D01*
X0204242Y0080702D02*
X0204007Y0080702D01*
X0203366Y0085496D02*
X0208800Y0085496D01*
X0208800Y0086694D02*
X0206904Y0086694D01*
X0207478Y0087268D02*
X0207478Y0087268D01*
X0208103Y0087893D02*
X0208800Y0087893D01*
X0208186Y0087976D02*
X0208186Y0087976D01*
X0203800Y0069915D02*
X0203163Y0069915D01*
X0207831Y0065121D02*
X0208800Y0065121D01*
X0208800Y0063923D02*
X0206551Y0063923D01*
X0205050Y0047143D02*
X0203435Y0047143D01*
X0266561Y0051937D02*
X0269139Y0051937D01*
X0268248Y0053136D02*
X0267452Y0053136D01*
X0267462Y0054334D02*
X0268238Y0054334D01*
X0268238Y0056732D02*
X0267462Y0056732D01*
X0267354Y0057930D02*
X0268346Y0057930D01*
X0268411Y0059129D02*
X0267289Y0059129D01*
X0290350Y0064725D02*
X0290350Y0075975D01*
X0284366Y0081959D01*
X0284366Y0083863D01*
X0274621Y0077106D02*
X0271411Y0077106D01*
X0271411Y0075908D02*
X0275773Y0075908D01*
X0292750Y0067518D02*
X0298598Y0067518D01*
X0314100Y0080975D02*
X0317725Y0077350D01*
X0317725Y0029725D01*
X0324775Y0029166D02*
X0331890Y0029166D01*
X0330934Y0027967D02*
X0324775Y0027967D01*
X0324775Y0026769D02*
X0330177Y0026769D01*
X0329583Y0025570D02*
X0323866Y0025570D01*
X0324775Y0030364D02*
X0333153Y0030364D01*
X0334802Y0031563D02*
X0324775Y0031563D01*
X0324775Y0032761D02*
X0337386Y0032761D01*
X0341000Y0032761D02*
X0342200Y0032761D01*
X0342200Y0031563D02*
X0341000Y0031563D01*
X0341000Y0030364D02*
X0342200Y0030364D01*
X0342200Y0029166D02*
X0341000Y0029166D01*
X0341000Y0027967D02*
X0342200Y0027967D01*
X0342200Y0026769D02*
X0341000Y0026769D01*
X0341000Y0025570D02*
X0342200Y0025570D01*
X0342200Y0024372D02*
X0341000Y0024372D01*
X0341000Y0023173D02*
X0342200Y0023173D01*
X0342200Y0021975D02*
X0341000Y0021975D01*
X0341000Y0020776D02*
X0302068Y0020776D01*
X0306195Y0014784D02*
X0309935Y0014784D01*
X0308649Y0013585D02*
X0307393Y0013585D01*
X0312450Y0008791D02*
X0313250Y0008791D01*
X0313250Y0007593D02*
X0312450Y0007593D01*
X0312450Y0006394D02*
X0313250Y0006394D01*
X0280922Y0005196D02*
X0274778Y0005196D01*
X0276672Y0006394D02*
X0279028Y0006394D01*
X0278039Y0007593D02*
X0277661Y0007593D01*
X0311413Y0032761D02*
X0311787Y0032761D01*
X0311787Y0033960D02*
X0311413Y0033960D01*
X0311413Y0035158D02*
X0311787Y0035158D01*
X0311787Y0036357D02*
X0311413Y0036357D01*
X0311413Y0037555D02*
X0311787Y0037555D01*
X0324696Y0033960D02*
X0357150Y0033960D01*
X0357150Y0035158D02*
X0325895Y0035158D01*
X0327093Y0036357D02*
X0357150Y0036357D01*
X0357150Y0037555D02*
X0328292Y0037555D01*
X0331816Y0038754D02*
X0341772Y0038754D01*
X0341888Y0038687D02*
X0342295Y0038578D01*
X0343991Y0038578D01*
X0343991Y0041860D01*
X0344563Y0041860D01*
X0344563Y0038578D01*
X0346259Y0038578D01*
X0346666Y0038687D01*
X0347031Y0038897D01*
X0347329Y0039195D01*
X0347540Y0039560D01*
X0347649Y0039967D01*
X0347649Y0041860D01*
X0344563Y0041860D01*
X0344563Y0042432D01*
X0347649Y0042432D01*
X0347649Y0044325D01*
X0347540Y0044732D01*
X0347329Y0045097D01*
X0347031Y0045395D01*
X0346666Y0045606D01*
X0346259Y0045715D01*
X0344563Y0045715D01*
X0344563Y0042432D01*
X0343991Y0042432D01*
X0343991Y0041860D01*
X0340906Y0041860D01*
X0340906Y0039967D01*
X0341015Y0039560D01*
X0341225Y0039195D01*
X0341523Y0038897D01*
X0341888Y0038687D01*
X0340909Y0039952D02*
X0332494Y0039952D01*
X0332494Y0041151D02*
X0340906Y0041151D01*
X0340906Y0042432D02*
X0340906Y0044325D01*
X0341015Y0044732D01*
X0341225Y0045097D01*
X0341523Y0045395D01*
X0341888Y0045606D01*
X0342295Y0045715D01*
X0343991Y0045715D01*
X0343991Y0042432D01*
X0340906Y0042432D01*
X0340906Y0043548D02*
X0332494Y0043548D01*
X0332494Y0044746D02*
X0341023Y0044746D01*
X0343991Y0044746D02*
X0344563Y0044746D01*
X0344563Y0043548D02*
X0343991Y0043548D01*
X0343991Y0042349D02*
X0332494Y0042349D01*
X0331723Y0045945D02*
X0357150Y0045945D01*
X0357150Y0047143D02*
X0331723Y0047143D01*
X0331723Y0048342D02*
X0357150Y0048342D01*
X0357150Y0049540D02*
X0331723Y0049540D01*
X0331723Y0050739D02*
X0357150Y0050739D01*
X0357150Y0051937D02*
X0331723Y0051937D01*
X0331723Y0053136D02*
X0357150Y0053136D01*
X0357150Y0054334D02*
X0347311Y0054334D01*
X0347329Y0054353D02*
X0347540Y0054718D01*
X0347649Y0055125D01*
X0347649Y0057018D01*
X0344563Y0057018D01*
X0344563Y0057590D01*
X0343991Y0057590D01*
X0343991Y0060872D01*
X0342295Y0060872D01*
X0341888Y0060763D01*
X0341523Y0060553D01*
X0341225Y0060255D01*
X0341015Y0059890D01*
X0340906Y0059483D01*
X0340906Y0057590D01*
X0343991Y0057590D01*
X0343991Y0057018D01*
X0340906Y0057018D01*
X0340906Y0055125D01*
X0341015Y0054718D01*
X0341225Y0054353D01*
X0341523Y0054055D01*
X0341888Y0053844D01*
X0342295Y0053735D01*
X0343991Y0053735D01*
X0343991Y0057018D01*
X0344563Y0057018D01*
X0344563Y0053735D01*
X0346259Y0053735D01*
X0346666Y0053844D01*
X0347031Y0054055D01*
X0347329Y0054353D01*
X0347649Y0055533D02*
X0357150Y0055533D01*
X0357150Y0056732D02*
X0347649Y0056732D01*
X0347649Y0057590D02*
X0344563Y0057590D01*
X0344563Y0060872D01*
X0346259Y0060872D01*
X0346666Y0060763D01*
X0347031Y0060553D01*
X0347329Y0060255D01*
X0347540Y0059890D01*
X0347649Y0059483D01*
X0347649Y0057590D01*
X0347649Y0057930D02*
X0357150Y0057930D01*
X0357150Y0059129D02*
X0347649Y0059129D01*
X0347257Y0060327D02*
X0357150Y0060327D01*
X0344563Y0060327D02*
X0343991Y0060327D01*
X0343991Y0059129D02*
X0344563Y0059129D01*
X0344563Y0057930D02*
X0343991Y0057930D01*
X0343991Y0056732D02*
X0344563Y0056732D01*
X0344563Y0055533D02*
X0343991Y0055533D01*
X0343991Y0054334D02*
X0344563Y0054334D01*
X0341244Y0054334D02*
X0332239Y0054334D01*
X0332494Y0055533D02*
X0340906Y0055533D01*
X0340906Y0056732D02*
X0332494Y0056732D01*
X0332494Y0057930D02*
X0340906Y0057930D01*
X0340906Y0059129D02*
X0332494Y0059129D01*
X0332185Y0060327D02*
X0341298Y0060327D01*
X0347532Y0044746D02*
X0357150Y0044746D01*
X0357150Y0043548D02*
X0347649Y0043548D01*
X0347649Y0041151D02*
X0357150Y0041151D01*
X0357150Y0042349D02*
X0344563Y0042349D01*
X0344563Y0041151D02*
X0343991Y0041151D01*
X0343991Y0039952D02*
X0344563Y0039952D01*
X0344563Y0038754D02*
X0343991Y0038754D01*
X0346783Y0038754D02*
X0357150Y0038754D01*
X0357150Y0039952D02*
X0347645Y0039952D01*
X0345814Y0032761D02*
X0357150Y0032761D01*
X0357150Y0031563D02*
X0348398Y0031563D01*
X0350047Y0030364D02*
X0357150Y0030364D01*
X0357150Y0029166D02*
X0351310Y0029166D01*
X0352266Y0027967D02*
X0357150Y0027967D01*
X0357150Y0026769D02*
X0353023Y0026769D01*
X0353617Y0025570D02*
X0357150Y0025570D01*
X0357150Y0024372D02*
X0354069Y0024372D01*
X0354395Y0023173D02*
X0357150Y0023173D01*
X0357150Y0021975D02*
X0354603Y0021975D01*
X0359176Y0078305D02*
X0341707Y0078305D01*
X0342681Y0079503D02*
X0343302Y0079503D01*
X0343328Y0079408D02*
X0343538Y0079043D01*
X0343836Y0078745D01*
X0344201Y0078534D01*
X0344608Y0078425D01*
X0346000Y0078425D01*
X0347391Y0078425D01*
X0347798Y0078534D01*
X0348163Y0078745D01*
X0348461Y0079043D01*
X0348672Y0079408D01*
X0348781Y0079815D01*
X0348781Y0081600D01*
X0348781Y0083385D01*
X0348672Y0083792D01*
X0348461Y0084157D01*
X0348163Y0084455D01*
X0347798Y0084666D01*
X0347391Y0084775D01*
X0346000Y0084775D01*
X0346000Y0081600D01*
X0348781Y0081600D01*
X0346000Y0081600D01*
X0346000Y0081600D01*
X0346000Y0081600D01*
X0346000Y0078425D01*
X0346000Y0081600D01*
X0346000Y0081600D01*
X0346000Y0084775D01*
X0344608Y0084775D01*
X0344201Y0084666D01*
X0343836Y0084455D01*
X0343538Y0084157D01*
X0343328Y0083792D01*
X0343219Y0083385D01*
X0343219Y0081600D01*
X0343219Y0079815D01*
X0343328Y0079408D01*
X0343219Y0080702D02*
X0342681Y0080702D01*
X0343219Y0081600D02*
X0345999Y0081600D01*
X0345999Y0081600D01*
X0343219Y0081600D01*
X0343219Y0081900D02*
X0342681Y0081900D01*
X0342681Y0083099D02*
X0343219Y0083099D01*
X0343678Y0084297D02*
X0342305Y0084297D01*
X0346000Y0084297D02*
X0346000Y0084297D01*
X0346000Y0083099D02*
X0346000Y0083099D01*
X0346000Y0081900D02*
X0346000Y0081900D01*
X0346000Y0080702D02*
X0346000Y0080702D01*
X0346000Y0079503D02*
X0346000Y0079503D01*
X0348697Y0079503D02*
X0359149Y0079503D01*
X0359149Y0080702D02*
X0348781Y0080702D01*
X0348781Y0081900D02*
X0360350Y0081900D01*
X0359149Y0083099D02*
X0348781Y0083099D01*
X0348321Y0084297D02*
X0359149Y0084297D01*
X0359463Y0085496D02*
X0336000Y0085496D01*
X0332400Y0086694D02*
X0360350Y0086694D01*
X0359755Y0087893D02*
X0332662Y0087893D01*
X0325673Y0086694D02*
X0325027Y0086694D01*
X0336600Y0078305D02*
X0337694Y0078305D01*
X0322850Y0099504D02*
X0322004Y0100350D01*
X0235127Y0119054D02*
X0228150Y0119054D01*
X0228150Y0120253D02*
X0233928Y0120253D01*
X0232730Y0121451D02*
X0228150Y0121451D01*
X0228150Y0122650D02*
X0231531Y0122650D01*
X0230333Y0123848D02*
X0228150Y0123848D01*
X0228150Y0125047D02*
X0229134Y0125047D01*
X0228158Y0126245D02*
X0228150Y0126245D01*
D11*
X0179794Y0095350D02*
X0179796Y0095419D01*
X0179802Y0095487D01*
X0179812Y0095555D01*
X0179826Y0095622D01*
X0179844Y0095689D01*
X0179865Y0095754D01*
X0179891Y0095818D01*
X0179920Y0095880D01*
X0179952Y0095940D01*
X0179988Y0095999D01*
X0180028Y0096055D01*
X0180070Y0096109D01*
X0180116Y0096160D01*
X0180165Y0096209D01*
X0180216Y0096255D01*
X0180270Y0096297D01*
X0180326Y0096337D01*
X0180384Y0096373D01*
X0180445Y0096405D01*
X0180507Y0096434D01*
X0180571Y0096460D01*
X0180636Y0096481D01*
X0180703Y0096499D01*
X0180770Y0096513D01*
X0180838Y0096523D01*
X0180906Y0096529D01*
X0180975Y0096531D01*
X0181044Y0096529D01*
X0181112Y0096523D01*
X0181180Y0096513D01*
X0181247Y0096499D01*
X0181314Y0096481D01*
X0181379Y0096460D01*
X0181443Y0096434D01*
X0181505Y0096405D01*
X0181565Y0096373D01*
X0181624Y0096337D01*
X0181680Y0096297D01*
X0181734Y0096255D01*
X0181785Y0096209D01*
X0181834Y0096160D01*
X0181880Y0096109D01*
X0181922Y0096055D01*
X0181962Y0095999D01*
X0181998Y0095940D01*
X0182030Y0095880D01*
X0182059Y0095818D01*
X0182085Y0095754D01*
X0182106Y0095689D01*
X0182124Y0095622D01*
X0182138Y0095555D01*
X0182148Y0095487D01*
X0182154Y0095419D01*
X0182156Y0095350D01*
X0182154Y0095281D01*
X0182148Y0095213D01*
X0182138Y0095145D01*
X0182124Y0095078D01*
X0182106Y0095011D01*
X0182085Y0094946D01*
X0182059Y0094882D01*
X0182030Y0094820D01*
X0181998Y0094759D01*
X0181962Y0094701D01*
X0181922Y0094645D01*
X0181880Y0094591D01*
X0181834Y0094540D01*
X0181785Y0094491D01*
X0181734Y0094445D01*
X0181680Y0094403D01*
X0181624Y0094363D01*
X0181566Y0094327D01*
X0181505Y0094295D01*
X0181443Y0094266D01*
X0181379Y0094240D01*
X0181314Y0094219D01*
X0181247Y0094201D01*
X0181180Y0094187D01*
X0181112Y0094177D01*
X0181044Y0094171D01*
X0180975Y0094169D01*
X0180906Y0094171D01*
X0180838Y0094177D01*
X0180770Y0094187D01*
X0180703Y0094201D01*
X0180636Y0094219D01*
X0180571Y0094240D01*
X0180507Y0094266D01*
X0180445Y0094295D01*
X0180384Y0094327D01*
X0180326Y0094363D01*
X0180270Y0094403D01*
X0180216Y0094445D01*
X0180165Y0094491D01*
X0180116Y0094540D01*
X0180070Y0094591D01*
X0180028Y0094645D01*
X0179988Y0094701D01*
X0179952Y0094759D01*
X0179920Y0094820D01*
X0179891Y0094882D01*
X0179865Y0094946D01*
X0179844Y0095011D01*
X0179826Y0095078D01*
X0179812Y0095145D01*
X0179802Y0095213D01*
X0179796Y0095281D01*
X0179794Y0095350D01*
D12*
X0241712Y0136686D02*
X0244297Y0134100D01*
X0246883Y0134100D01*
X0257225Y0144442D01*
X0252054Y0144442D02*
X0257225Y0139271D01*
X0257225Y0136686D01*
X0254639Y0134100D01*
X0252054Y0134100D01*
X0246883Y0139271D01*
X0244297Y0139271D01*
X0241712Y0136686D01*
D13*
X0322004Y0100350D03*
X0328696Y0100350D03*
X0328696Y0090350D03*
X0322004Y0090350D03*
X0278696Y0055350D03*
X0272004Y0055350D03*
X0263696Y0055350D03*
X0257004Y0055350D03*
D14*
X0339700Y0081600D03*
X0346000Y0081600D03*
X0346000Y0109100D03*
X0339700Y0109100D03*
D15*
X0334942Y0121600D03*
X0349508Y0121600D03*
D16*
X0319381Y0128475D03*
X0307569Y0128475D03*
D17*
X0341600Y0170350D03*
X0204100Y0170350D03*
X0157850Y0170350D03*
X0020350Y0170350D03*
X0020350Y0020350D03*
X0157850Y0020350D03*
X0204100Y0020350D03*
X0341600Y0020350D03*
D18*
X0284366Y0083863D03*
X0281807Y0083863D03*
X0279248Y0083863D03*
X0276689Y0083863D03*
X0274130Y0083863D03*
X0271570Y0083863D03*
X0269011Y0083863D03*
X0266452Y0083863D03*
X0263893Y0083863D03*
X0261334Y0083863D03*
X0261334Y0106837D03*
X0263893Y0106837D03*
X0266452Y0106837D03*
X0269011Y0106837D03*
X0271570Y0106837D03*
X0274130Y0106837D03*
X0276689Y0106837D03*
X0279248Y0106837D03*
X0281807Y0106837D03*
X0284366Y0106837D03*
D19*
X0375512Y0109130D03*
X0375512Y0081570D03*
D20*
X0373544Y0091413D03*
X0373544Y0099287D03*
D21*
X0312850Y0180350D03*
X0302850Y0180350D03*
X0292850Y0180350D03*
X0282850Y0180350D03*
X0272850Y0180350D03*
X0262850Y0180350D03*
X0252850Y0180350D03*
X0242850Y0180350D03*
X0232850Y0180350D03*
X0154100Y0145350D03*
X0144100Y0145350D03*
X0124100Y0155350D03*
X0114100Y0155350D03*
X0104100Y0155350D03*
X0094100Y0155350D03*
X0084100Y0155350D03*
X0074100Y0155350D03*
X0064100Y0165350D03*
X0054100Y0165350D03*
X0044100Y0155350D03*
X0034100Y0145350D03*
X0024100Y0145350D03*
X0014100Y0135350D03*
X0024100Y0125350D03*
X0034100Y0125350D03*
X0034100Y0115350D03*
X0034100Y0105350D03*
X0024100Y0105350D03*
X0014100Y0095350D03*
X0034100Y0095350D03*
X0044100Y0095350D03*
X0054100Y0095350D03*
X0064100Y0095350D03*
X0074100Y0095350D03*
X0084100Y0095350D03*
X0094100Y0095350D03*
X0104100Y0095350D03*
X0114100Y0095350D03*
X0124100Y0095350D03*
X0134100Y0095350D03*
X0144100Y0095350D03*
X0154100Y0095350D03*
X0164100Y0095350D03*
X0154100Y0105350D03*
X0144100Y0105350D03*
X0144100Y0115350D03*
X0154100Y0115350D03*
X0154100Y0125350D03*
X0144100Y0125350D03*
X0144100Y0135350D03*
X0154100Y0135350D03*
X0134100Y0135350D03*
X0124100Y0135350D03*
X0114100Y0135350D03*
X0104100Y0135350D03*
X0094100Y0135350D03*
X0084100Y0135350D03*
X0074100Y0135350D03*
X0064100Y0135350D03*
X0054100Y0135350D03*
X0044100Y0135350D03*
X0034100Y0135350D03*
X0054100Y0125350D03*
X0064100Y0125350D03*
X0064100Y0115350D03*
X0054100Y0115350D03*
X0044100Y0105350D03*
X0074100Y0105350D03*
X0084100Y0105350D03*
X0094100Y0105350D03*
X0094100Y0115350D03*
X0084100Y0115350D03*
X0084100Y0125350D03*
X0094100Y0125350D03*
X0104100Y0125350D03*
X0114100Y0125350D03*
X0124100Y0125350D03*
X0124100Y0115350D03*
X0114100Y0115350D03*
X0104100Y0115350D03*
X0104100Y0085350D03*
X0094100Y0085350D03*
X0084100Y0085350D03*
X0084100Y0075350D03*
X0094100Y0075350D03*
X0094100Y0065350D03*
X0084100Y0065350D03*
X0084100Y0055350D03*
X0094100Y0055350D03*
X0104100Y0055350D03*
X0114100Y0055350D03*
X0124100Y0055350D03*
X0134100Y0055350D03*
X0144100Y0055350D03*
X0154100Y0055350D03*
X0154100Y0065350D03*
X0144100Y0065350D03*
X0134100Y0065350D03*
X0124100Y0075350D03*
X0114100Y0075350D03*
X0104100Y0065350D03*
X0074100Y0055350D03*
X0064100Y0055350D03*
X0054100Y0055350D03*
X0044100Y0055350D03*
X0034100Y0055350D03*
X0034100Y0065350D03*
X0024100Y0065350D03*
X0014100Y0055350D03*
X0024100Y0045350D03*
X0034100Y0045350D03*
X0044100Y0035350D03*
X0054100Y0035350D03*
X0074100Y0035350D03*
X0084100Y0035350D03*
X0094100Y0035350D03*
X0094100Y0025350D03*
X0084100Y0025350D03*
X0114100Y0035350D03*
X0104100Y0045350D03*
X0094100Y0045350D03*
X0084100Y0045350D03*
X0124100Y0045350D03*
X0134100Y0035350D03*
X0144100Y0045350D03*
X0154100Y0045350D03*
X0154100Y0075350D03*
X0144100Y0075350D03*
X0144100Y0085350D03*
X0154100Y0085350D03*
X0134100Y0085350D03*
X0074100Y0075350D03*
X0054100Y0075350D03*
X0044100Y0065350D03*
X0034100Y0075350D03*
X0034100Y0085350D03*
X0024100Y0085350D03*
X0014100Y0075350D03*
X0044100Y0085350D03*
X0014100Y0115350D03*
X0084100Y0145350D03*
X0094100Y0145350D03*
X0094100Y0165350D03*
X0084100Y0165350D03*
X0104100Y0165350D03*
X0114100Y0165350D03*
X0124100Y0165350D03*
X0119100Y0180350D03*
X0109100Y0180350D03*
X0089100Y0180350D03*
X0079100Y0180350D03*
X0069100Y0180350D03*
X0059100Y0180350D03*
X0079100Y0010350D03*
X0099100Y0010350D03*
X0119100Y0010350D03*
X0129100Y0010350D03*
X0232850Y0010350D03*
X0242850Y0010350D03*
X0252850Y0010350D03*
X0262850Y0010350D03*
X0272850Y0010350D03*
X0282850Y0010350D03*
X0292850Y0010350D03*
X0302850Y0010350D03*
X0312850Y0010350D03*
D22*
X0218746Y0043854D03*
X0199454Y0043854D03*
X0199454Y0056846D03*
X0199454Y0066354D03*
X0218746Y0066354D03*
X0218746Y0056846D03*
X0218746Y0079346D03*
X0218746Y0088854D03*
X0199454Y0088854D03*
X0199454Y0079346D03*
X0199454Y0101846D03*
X0199454Y0111354D03*
X0218746Y0111354D03*
X0218746Y0101846D03*
X0218746Y0124346D03*
X0218746Y0133854D03*
X0199454Y0133854D03*
X0199454Y0124346D03*
X0199454Y0146846D03*
X0218746Y0146846D03*
D23*
X0302225Y0054553D03*
X0311600Y0054553D03*
X0311600Y0048647D03*
X0302225Y0048647D03*
D24*
X0308682Y0102850D03*
X0315768Y0102850D03*
X0314307Y0117225D03*
X0321393Y0117225D03*
X0302018Y0129100D03*
X0294932Y0129100D03*
X0304307Y0167850D03*
X0311393Y0167850D03*
D25*
X0311600Y0042643D03*
X0302225Y0042643D03*
X0302225Y0035557D03*
X0311600Y0035557D03*
D26*
X0318225Y0029725D02*
X0321225Y0029725D01*
X0311600Y0061350D02*
X0311600Y0064350D01*
X0302225Y0064350D02*
X0302225Y0061350D01*
X0330100Y0081600D02*
X0333100Y0081600D01*
X0333100Y0109100D02*
X0330100Y0109100D01*
X0321225Y0160975D02*
X0318225Y0160975D01*
D27*
X0311600Y0064850D03*
X0302225Y0064850D03*
X0302225Y0060850D03*
X0311600Y0060850D03*
D28*
X0329600Y0081600D03*
X0333600Y0081600D03*
X0333600Y0109100D03*
X0329600Y0109100D03*
X0321725Y0160975D03*
X0317725Y0160975D03*
X0317725Y0029725D03*
X0321725Y0029725D03*
D29*
X0328923Y0042146D03*
X0344277Y0042146D03*
X0344277Y0057304D03*
X0328923Y0057304D03*
X0253027Y0087771D03*
X0237673Y0087771D03*
X0237673Y0102929D03*
X0253027Y0102929D03*
X0327673Y0133396D03*
X0343027Y0133396D03*
X0343027Y0148554D03*
X0327673Y0148554D03*
D30*
X0351246Y0146787D03*
X0351246Y0142850D03*
X0351246Y0138913D03*
D31*
X0356600Y0131039D03*
X0356600Y0154661D03*
D32*
X0294625Y0158200D03*
X0294625Y0149100D03*
X0294625Y0140000D03*
D33*
X0319825Y0149100D03*
D34*
X0306525Y0117175D03*
X0297925Y0113475D03*
X0306525Y0109775D03*
D35*
X0272181Y0069125D03*
X0263519Y0069125D03*
X0263519Y0062825D03*
X0272181Y0062825D03*
D36*
X0272004Y0055350D02*
X0267850Y0055350D01*
X0263696Y0055350D01*
X0267850Y0055350D02*
X0267850Y0046600D01*
X0302225Y0048647D02*
X0302225Y0042643D01*
X0311600Y0042643D02*
X0311600Y0048647D01*
X0311600Y0054553D02*
X0311600Y0060850D01*
X0302225Y0060850D02*
X0302225Y0054553D01*
X0311600Y0064850D02*
X0311600Y0076600D01*
X0329600Y0081600D02*
X0329600Y0089446D01*
X0328696Y0090350D01*
X0329759Y0091413D01*
X0373544Y0091413D01*
X0373544Y0099287D02*
X0329759Y0099287D01*
X0328696Y0100350D01*
X0328893Y0102307D01*
X0325850Y0105350D01*
X0318268Y0105350D01*
X0315768Y0102850D01*
X0308682Y0102850D02*
X0308475Y0102643D01*
X0308475Y0096600D01*
X0308682Y0102850D02*
X0301600Y0102850D01*
X0297850Y0106600D01*
X0297850Y0107850D01*
X0288475Y0098475D01*
X0274100Y0098475D01*
X0247225Y0098475D01*
X0237673Y0102929D02*
X0237673Y0087771D01*
X0232146Y0087771D01*
X0229100Y0084725D01*
X0229100Y0024100D01*
X0242850Y0010350D01*
X0252850Y0010350D02*
X0252850Y0015975D01*
X0249100Y0019725D01*
X0249100Y0078844D01*
X0253027Y0082771D01*
X0253027Y0087771D01*
X0225350Y0090350D02*
X0223854Y0088854D01*
X0218746Y0088854D01*
X0225350Y0090350D02*
X0225350Y0106600D01*
X0231600Y0106600D01*
X0225350Y0106600D02*
X0225350Y0112850D01*
X0223854Y0111354D01*
X0218746Y0111354D01*
X0225350Y0112850D02*
X0225350Y0130350D01*
X0221846Y0133854D01*
X0218746Y0133854D01*
X0211600Y0127850D02*
X0211600Y0144100D01*
X0214346Y0146846D01*
X0218746Y0146846D01*
X0206600Y0144100D02*
X0230662Y0168163D01*
X0232850Y0170350D01*
X0232850Y0180350D01*
X0287850Y0146600D02*
X0290350Y0149100D01*
X0294625Y0149100D01*
X0319825Y0149100D01*
X0319725Y0149100D01*
X0311600Y0157225D01*
X0304307Y0167850D02*
X0294657Y0158200D01*
X0294625Y0158200D01*
X0287850Y0146600D02*
X0287850Y0131600D01*
X0290350Y0129100D01*
X0294932Y0129100D01*
X0302018Y0129100D02*
X0302018Y0122018D01*
X0297925Y0117925D01*
X0297925Y0113475D01*
X0297850Y0113400D01*
X0297850Y0107850D01*
X0306525Y0117175D02*
X0307569Y0118219D01*
X0307569Y0128475D01*
X0319381Y0128475D02*
X0326256Y0121600D01*
X0334942Y0121600D01*
X0334942Y0124942D01*
X0338475Y0128475D01*
X0345975Y0128475D01*
X0347850Y0130350D01*
X0347850Y0136600D01*
X0350163Y0138913D01*
X0351246Y0138913D01*
X0343027Y0133396D02*
X0343027Y0148554D01*
X0349479Y0148554D01*
X0351246Y0146787D01*
X0343027Y0148554D02*
X0343027Y0168923D01*
X0341600Y0170350D01*
X0339100Y0167850D01*
X0311393Y0167850D01*
X0304307Y0167850D02*
X0304307Y0171807D01*
X0312850Y0180350D01*
X0327673Y0148554D02*
X0327673Y0133396D01*
X0319381Y0131944D02*
X0319381Y0128475D01*
X0319381Y0131944D02*
X0311325Y0140000D01*
X0294625Y0140000D01*
X0345350Y0115350D02*
X0346000Y0114700D01*
X0346000Y0109100D01*
X0339700Y0109100D02*
X0333600Y0109100D01*
X0329600Y0109100D02*
X0325850Y0105350D01*
X0352225Y0112850D02*
X0352225Y0118883D01*
X0349508Y0121600D01*
X0352225Y0112850D02*
X0355945Y0109130D01*
X0375512Y0109130D01*
X0375512Y0081570D02*
X0346029Y0081570D01*
X0346029Y0077171D01*
X0350350Y0072850D01*
X0346029Y0081570D02*
X0346000Y0081600D01*
X0339700Y0081600D02*
X0333600Y0081600D01*
X0328923Y0057304D02*
X0328923Y0042146D01*
X0321725Y0034948D01*
X0321725Y0029725D01*
X0312850Y0034504D02*
X0312850Y0010350D01*
X0341600Y0020350D02*
X0341600Y0039469D01*
X0344277Y0042146D01*
X0344277Y0057304D01*
X0312850Y0034504D02*
X0311600Y0035557D01*
X0302225Y0035557D01*
X0232850Y0010350D02*
X0229100Y0010350D01*
X0225350Y0014100D01*
X0225350Y0035350D01*
X0220350Y0035350D01*
X0225350Y0035350D02*
X0225350Y0045350D01*
X0225350Y0067850D01*
X0223854Y0066354D01*
X0218746Y0066354D01*
X0225350Y0067850D02*
X0225350Y0090350D01*
X0211600Y0084100D02*
X0211600Y0099100D01*
X0214346Y0101846D01*
X0218746Y0101846D01*
X0211600Y0106600D02*
X0211600Y0121600D01*
X0214346Y0124346D01*
X0218746Y0124346D01*
X0211600Y0127850D02*
X0206600Y0122850D01*
X0206600Y0112850D01*
X0205104Y0111354D01*
X0199454Y0111354D01*
X0206600Y0101600D02*
X0211600Y0106600D01*
X0206600Y0101600D02*
X0206600Y0090350D01*
X0205104Y0088854D01*
X0199454Y0088854D01*
X0206600Y0079100D02*
X0211600Y0084100D01*
X0212850Y0079100D02*
X0211600Y0077850D01*
X0211600Y0061600D01*
X0207850Y0057850D01*
X0207850Y0045350D01*
X0206354Y0043854D01*
X0199454Y0043854D01*
X0218746Y0043854D02*
X0223854Y0043854D01*
X0225350Y0045350D01*
X0199454Y0056846D02*
X0195104Y0056846D01*
X0192850Y0059100D01*
X0192850Y0031600D01*
X0204100Y0020350D01*
X0192850Y0059100D02*
X0192850Y0081600D01*
X0195104Y0079346D01*
X0199454Y0079346D01*
X0192850Y0081600D02*
X0192850Y0104100D01*
X0195104Y0101846D01*
X0199454Y0101846D01*
X0192850Y0104100D02*
X0192850Y0126600D01*
X0195104Y0124346D01*
X0199454Y0124346D01*
X0192850Y0126600D02*
X0192850Y0144100D01*
X0195596Y0146846D01*
X0199454Y0146846D01*
X0206600Y0144100D02*
X0206600Y0135350D01*
X0205104Y0133854D01*
X0199454Y0133854D01*
X0206600Y0079100D02*
X0206600Y0067850D01*
X0205104Y0066354D01*
X0199454Y0066354D01*
X0212850Y0079100D02*
X0218500Y0079100D01*
X0218746Y0079346D01*
D37*
X0164100Y0075350D03*
X0164100Y0065350D03*
X0164100Y0055350D03*
X0164100Y0045350D03*
X0134100Y0045350D03*
X0124100Y0035350D03*
X0124100Y0025350D03*
X0134100Y0025350D03*
X0114100Y0025350D03*
X0104100Y0025350D03*
X0104100Y0035350D03*
X0114100Y0045350D03*
X0074100Y0045350D03*
X0064100Y0045350D03*
X0054100Y0045350D03*
X0044100Y0045350D03*
X0064100Y0035350D03*
X0064100Y0025350D03*
X0074100Y0025350D03*
X0054100Y0025350D03*
X0044100Y0025350D03*
X0049100Y0010350D03*
X0059100Y0010350D03*
X0069100Y0010350D03*
X0089100Y0010350D03*
X0109100Y0010350D03*
X0024100Y0055350D03*
X0014100Y0065350D03*
X0024100Y0075350D03*
X0014100Y0085350D03*
X0024100Y0095350D03*
X0014100Y0105350D03*
X0024100Y0115350D03*
X0014100Y0125350D03*
X0024100Y0135350D03*
X0044100Y0125350D03*
X0044100Y0115350D03*
X0054100Y0105350D03*
X0064100Y0105350D03*
X0074100Y0115350D03*
X0074100Y0125350D03*
X0104100Y0105350D03*
X0114100Y0105350D03*
X0124100Y0105350D03*
X0134100Y0105350D03*
X0134100Y0115350D03*
X0134100Y0125350D03*
X0164100Y0125350D03*
X0164100Y0115350D03*
X0164100Y0105350D03*
X0164100Y0085350D03*
X0134100Y0075350D03*
X0124100Y0065350D03*
X0114100Y0065350D03*
X0104100Y0075350D03*
X0114100Y0085350D03*
X0124100Y0085350D03*
X0074100Y0085350D03*
X0064100Y0085350D03*
X0054100Y0085350D03*
X0044100Y0075350D03*
X0054100Y0065350D03*
X0064100Y0065350D03*
X0074100Y0065350D03*
X0064100Y0075350D03*
X0014100Y0045350D03*
X0164100Y0135350D03*
X0164100Y0145350D03*
X0134100Y0145350D03*
X0124100Y0145350D03*
X0114100Y0145350D03*
X0104100Y0145350D03*
X0134100Y0155350D03*
X0134100Y0165350D03*
X0129100Y0180350D03*
X0099100Y0180350D03*
X0074100Y0165350D03*
X0064100Y0155350D03*
X0054100Y0155350D03*
X0054100Y0145350D03*
X0044100Y0145350D03*
X0064100Y0145350D03*
X0074100Y0145350D03*
X0044100Y0165350D03*
X0049100Y0180350D03*
X0014100Y0145350D03*
D38*
X0231600Y0106600D03*
X0247225Y0098475D03*
X0272850Y0077850D03*
X0297850Y0092850D03*
X0308475Y0096600D03*
X0315350Y0095975D03*
X0310350Y0086600D03*
X0311600Y0076600D03*
X0350350Y0072850D03*
X0267850Y0046600D03*
X0220350Y0035350D03*
X0345350Y0115350D03*
X0311600Y0157225D03*
D39*
X0314307Y0117225D02*
X0314307Y0113057D01*
X0311025Y0109775D01*
X0306525Y0109775D01*
M02*
