G75*
%MOIN*%
%OFA0B0*%
%FSLAX25Y25*%
%IPPOS*%
%LPD*%
%AMOC8*
5,1,8,0,0,1.08239X$1,22.5*
%
%ADD10C,0.01200*%
%ADD11C,0.00000*%
%ADD12C,0.01700*%
%ADD13C,0.00500*%
%ADD14C,0.00600*%
D10*
X0004800Y0001600D02*
X0173400Y0001600D01*
X0173399Y0001601D02*
X0173517Y0001613D01*
X0173633Y0001630D01*
X0173749Y0001650D01*
X0173865Y0001674D01*
X0173979Y0001702D01*
X0174093Y0001733D01*
X0174205Y0001769D01*
X0174316Y0001808D01*
X0174426Y0001851D01*
X0174534Y0001898D01*
X0174641Y0001948D01*
X0174746Y0002002D01*
X0174849Y0002059D01*
X0174950Y0002119D01*
X0175049Y0002183D01*
X0175146Y0002250D01*
X0175240Y0002321D01*
X0175332Y0002394D01*
X0175422Y0002471D01*
X0175509Y0002550D01*
X0175593Y0002633D01*
X0175675Y0002718D01*
X0175753Y0002806D01*
X0175829Y0002896D01*
X0175901Y0002989D01*
X0175971Y0003084D01*
X0176037Y0003182D01*
X0176100Y0003281D01*
X0176159Y0003383D01*
X0176215Y0003487D01*
X0176268Y0003592D01*
X0176317Y0003699D01*
X0176363Y0003808D01*
X0176404Y0003918D01*
X0176442Y0004030D01*
X0176477Y0004142D01*
X0176507Y0004256D01*
X0176534Y0004371D01*
X0176557Y0004486D01*
X0176576Y0004603D01*
X0176591Y0004720D01*
X0176602Y0004837D01*
X0176609Y0004955D01*
X0176613Y0005072D01*
X0176612Y0005190D01*
X0176608Y0005308D01*
X0176599Y0005425D01*
X0176600Y0005425D02*
X0176600Y0080275D01*
X0176602Y0080387D01*
X0176608Y0080498D01*
X0176618Y0080609D01*
X0176631Y0080720D01*
X0176649Y0080831D01*
X0176670Y0080940D01*
X0176695Y0081049D01*
X0176724Y0081157D01*
X0176757Y0081264D01*
X0176793Y0081369D01*
X0176833Y0081474D01*
X0176877Y0081577D01*
X0176924Y0081678D01*
X0176975Y0081777D01*
X0177029Y0081875D01*
X0177086Y0081971D01*
X0177147Y0082064D01*
X0177211Y0082156D01*
X0177278Y0082245D01*
X0177349Y0082332D01*
X0177422Y0082416D01*
X0177498Y0082498D01*
X0177577Y0082577D01*
X0177659Y0082653D01*
X0177743Y0082726D01*
X0177830Y0082797D01*
X0177919Y0082864D01*
X0178011Y0082928D01*
X0178104Y0082989D01*
X0178200Y0083046D01*
X0178298Y0083100D01*
X0178397Y0083151D01*
X0178498Y0083198D01*
X0178601Y0083242D01*
X0178706Y0083282D01*
X0178811Y0083318D01*
X0178918Y0083351D01*
X0179026Y0083380D01*
X0179135Y0083405D01*
X0179244Y0083426D01*
X0179355Y0083444D01*
X0179466Y0083457D01*
X0179577Y0083467D01*
X0179688Y0083473D01*
X0179800Y0083475D01*
X0182150Y0083475D01*
X0179800Y0083475D02*
X0179725Y0083475D01*
X0182150Y0083475D02*
X0182262Y0083473D01*
X0182373Y0083467D01*
X0182484Y0083457D01*
X0182595Y0083444D01*
X0182706Y0083426D01*
X0182815Y0083405D01*
X0182924Y0083380D01*
X0183032Y0083351D01*
X0183139Y0083318D01*
X0183244Y0083282D01*
X0183349Y0083242D01*
X0183452Y0083198D01*
X0183553Y0083151D01*
X0183652Y0083100D01*
X0183750Y0083046D01*
X0183846Y0082989D01*
X0183939Y0082928D01*
X0184031Y0082864D01*
X0184120Y0082797D01*
X0184207Y0082726D01*
X0184291Y0082653D01*
X0184373Y0082577D01*
X0184452Y0082498D01*
X0184528Y0082416D01*
X0184601Y0082332D01*
X0184672Y0082245D01*
X0184739Y0082156D01*
X0184803Y0082064D01*
X0184864Y0081971D01*
X0184921Y0081875D01*
X0184975Y0081777D01*
X0185026Y0081678D01*
X0185073Y0081577D01*
X0185117Y0081474D01*
X0185157Y0081369D01*
X0185193Y0081264D01*
X0185226Y0081157D01*
X0185255Y0081049D01*
X0185280Y0080940D01*
X0185301Y0080831D01*
X0185319Y0080720D01*
X0185332Y0080609D01*
X0185342Y0080498D01*
X0185348Y0080387D01*
X0185350Y0080275D01*
X0185350Y0004800D01*
X0185352Y0004688D01*
X0185358Y0004577D01*
X0185368Y0004466D01*
X0185381Y0004355D01*
X0185399Y0004244D01*
X0185420Y0004135D01*
X0185445Y0004026D01*
X0185474Y0003918D01*
X0185507Y0003811D01*
X0185543Y0003706D01*
X0185583Y0003601D01*
X0185627Y0003498D01*
X0185674Y0003397D01*
X0185725Y0003298D01*
X0185779Y0003200D01*
X0185836Y0003104D01*
X0185897Y0003011D01*
X0185961Y0002919D01*
X0186028Y0002830D01*
X0186099Y0002743D01*
X0186172Y0002659D01*
X0186248Y0002577D01*
X0186327Y0002498D01*
X0186409Y0002422D01*
X0186493Y0002349D01*
X0186580Y0002278D01*
X0186669Y0002211D01*
X0186761Y0002147D01*
X0186854Y0002086D01*
X0186950Y0002029D01*
X0187048Y0001975D01*
X0187147Y0001924D01*
X0187248Y0001877D01*
X0187351Y0001833D01*
X0187456Y0001793D01*
X0187561Y0001757D01*
X0187668Y0001724D01*
X0187776Y0001695D01*
X0187885Y0001670D01*
X0187994Y0001649D01*
X0188105Y0001631D01*
X0188216Y0001618D01*
X0188327Y0001608D01*
X0188438Y0001602D01*
X0188550Y0001600D01*
X0357150Y0001600D01*
X0357262Y0001602D01*
X0357373Y0001608D01*
X0357484Y0001618D01*
X0357595Y0001631D01*
X0357706Y0001649D01*
X0357815Y0001670D01*
X0357924Y0001695D01*
X0358032Y0001724D01*
X0358139Y0001757D01*
X0358244Y0001793D01*
X0358349Y0001833D01*
X0358452Y0001877D01*
X0358553Y0001924D01*
X0358652Y0001975D01*
X0358750Y0002029D01*
X0358846Y0002086D01*
X0358939Y0002147D01*
X0359031Y0002211D01*
X0359120Y0002278D01*
X0359207Y0002349D01*
X0359291Y0002422D01*
X0359373Y0002498D01*
X0359452Y0002577D01*
X0359528Y0002659D01*
X0359601Y0002743D01*
X0359672Y0002830D01*
X0359739Y0002919D01*
X0359803Y0003011D01*
X0359864Y0003104D01*
X0359921Y0003200D01*
X0359975Y0003298D01*
X0360026Y0003397D01*
X0360073Y0003498D01*
X0360117Y0003601D01*
X0360157Y0003706D01*
X0360193Y0003811D01*
X0360226Y0003918D01*
X0360255Y0004026D01*
X0360280Y0004135D01*
X0360301Y0004244D01*
X0360319Y0004355D01*
X0360332Y0004466D01*
X0360342Y0004577D01*
X0360348Y0004688D01*
X0360350Y0004800D01*
X0360350Y0068400D01*
X0360352Y0068512D01*
X0360358Y0068623D01*
X0360368Y0068734D01*
X0360381Y0068845D01*
X0360399Y0068956D01*
X0360420Y0069065D01*
X0360445Y0069174D01*
X0360474Y0069282D01*
X0360507Y0069389D01*
X0360543Y0069494D01*
X0360583Y0069599D01*
X0360627Y0069702D01*
X0360674Y0069803D01*
X0360725Y0069902D01*
X0360779Y0070000D01*
X0360836Y0070096D01*
X0360897Y0070189D01*
X0360961Y0070281D01*
X0361028Y0070370D01*
X0361099Y0070457D01*
X0361172Y0070541D01*
X0361248Y0070623D01*
X0361327Y0070702D01*
X0361409Y0070778D01*
X0361493Y0070851D01*
X0361580Y0070922D01*
X0361669Y0070989D01*
X0361761Y0071053D01*
X0361854Y0071114D01*
X0361950Y0071171D01*
X0362048Y0071225D01*
X0362147Y0071276D01*
X0362248Y0071323D01*
X0362351Y0071367D01*
X0362456Y0071407D01*
X0362561Y0071443D01*
X0362668Y0071476D01*
X0362776Y0071505D01*
X0362885Y0071530D01*
X0362994Y0071551D01*
X0363105Y0071569D01*
X0363216Y0071582D01*
X0363327Y0071592D01*
X0363438Y0071598D01*
X0363550Y0071600D01*
X0391525Y0071600D01*
X0391637Y0071602D01*
X0391748Y0071608D01*
X0391859Y0071618D01*
X0391970Y0071631D01*
X0392081Y0071649D01*
X0392190Y0071670D01*
X0392299Y0071695D01*
X0392407Y0071724D01*
X0392514Y0071757D01*
X0392619Y0071793D01*
X0392724Y0071833D01*
X0392827Y0071877D01*
X0392928Y0071924D01*
X0393027Y0071975D01*
X0393125Y0072029D01*
X0393221Y0072086D01*
X0393314Y0072147D01*
X0393406Y0072211D01*
X0393495Y0072278D01*
X0393582Y0072349D01*
X0393666Y0072422D01*
X0393748Y0072498D01*
X0393827Y0072577D01*
X0393903Y0072659D01*
X0393976Y0072743D01*
X0394047Y0072830D01*
X0394114Y0072919D01*
X0394178Y0073011D01*
X0394239Y0073104D01*
X0394296Y0073200D01*
X0394350Y0073298D01*
X0394401Y0073397D01*
X0394448Y0073498D01*
X0394492Y0073601D01*
X0394532Y0073706D01*
X0394568Y0073811D01*
X0394601Y0073918D01*
X0394630Y0074026D01*
X0394655Y0074135D01*
X0394676Y0074244D01*
X0394694Y0074355D01*
X0394707Y0074466D01*
X0394717Y0074577D01*
X0394723Y0074688D01*
X0394725Y0074800D01*
X0394725Y0115900D01*
X0394723Y0116012D01*
X0394717Y0116123D01*
X0394707Y0116234D01*
X0394694Y0116345D01*
X0394676Y0116456D01*
X0394655Y0116565D01*
X0394630Y0116674D01*
X0394601Y0116782D01*
X0394568Y0116889D01*
X0394532Y0116994D01*
X0394492Y0117099D01*
X0394448Y0117202D01*
X0394401Y0117303D01*
X0394350Y0117402D01*
X0394296Y0117500D01*
X0394239Y0117596D01*
X0394178Y0117689D01*
X0394114Y0117781D01*
X0394047Y0117870D01*
X0393976Y0117957D01*
X0393903Y0118041D01*
X0393827Y0118123D01*
X0393748Y0118202D01*
X0393666Y0118278D01*
X0393582Y0118351D01*
X0393495Y0118422D01*
X0393406Y0118489D01*
X0393314Y0118553D01*
X0393221Y0118614D01*
X0393125Y0118671D01*
X0393027Y0118725D01*
X0392928Y0118776D01*
X0392827Y0118823D01*
X0392724Y0118867D01*
X0392619Y0118907D01*
X0392514Y0118943D01*
X0392407Y0118976D01*
X0392299Y0119005D01*
X0392190Y0119030D01*
X0392081Y0119051D01*
X0391970Y0119069D01*
X0391859Y0119082D01*
X0391748Y0119092D01*
X0391637Y0119098D01*
X0391525Y0119100D01*
X0363550Y0119100D01*
X0363438Y0119102D01*
X0363327Y0119108D01*
X0363216Y0119118D01*
X0363105Y0119131D01*
X0362994Y0119149D01*
X0362885Y0119170D01*
X0362776Y0119195D01*
X0362668Y0119224D01*
X0362561Y0119257D01*
X0362456Y0119293D01*
X0362351Y0119333D01*
X0362248Y0119377D01*
X0362147Y0119424D01*
X0362048Y0119475D01*
X0361950Y0119529D01*
X0361854Y0119586D01*
X0361761Y0119647D01*
X0361669Y0119711D01*
X0361580Y0119778D01*
X0361493Y0119849D01*
X0361409Y0119922D01*
X0361327Y0119998D01*
X0361248Y0120077D01*
X0361172Y0120159D01*
X0361099Y0120243D01*
X0361028Y0120330D01*
X0360961Y0120419D01*
X0360897Y0120511D01*
X0360836Y0120604D01*
X0360779Y0120700D01*
X0360725Y0120798D01*
X0360674Y0120897D01*
X0360627Y0120998D01*
X0360583Y0121101D01*
X0360543Y0121206D01*
X0360507Y0121311D01*
X0360474Y0121418D01*
X0360445Y0121526D01*
X0360420Y0121635D01*
X0360399Y0121744D01*
X0360381Y0121855D01*
X0360368Y0121966D01*
X0360358Y0122077D01*
X0360352Y0122188D01*
X0360350Y0122300D01*
X0360350Y0185900D01*
X0360348Y0186012D01*
X0360342Y0186123D01*
X0360332Y0186234D01*
X0360319Y0186345D01*
X0360301Y0186456D01*
X0360280Y0186565D01*
X0360255Y0186674D01*
X0360226Y0186782D01*
X0360193Y0186889D01*
X0360157Y0186994D01*
X0360117Y0187099D01*
X0360073Y0187202D01*
X0360026Y0187303D01*
X0359975Y0187402D01*
X0359921Y0187500D01*
X0359864Y0187596D01*
X0359803Y0187689D01*
X0359739Y0187781D01*
X0359672Y0187870D01*
X0359601Y0187957D01*
X0359528Y0188041D01*
X0359452Y0188123D01*
X0359373Y0188202D01*
X0359291Y0188278D01*
X0359207Y0188351D01*
X0359120Y0188422D01*
X0359031Y0188489D01*
X0358939Y0188553D01*
X0358846Y0188614D01*
X0358750Y0188671D01*
X0358652Y0188725D01*
X0358553Y0188776D01*
X0358452Y0188823D01*
X0358349Y0188867D01*
X0358244Y0188907D01*
X0358139Y0188943D01*
X0358032Y0188976D01*
X0357924Y0189005D01*
X0357815Y0189030D01*
X0357706Y0189051D01*
X0357595Y0189069D01*
X0357484Y0189082D01*
X0357373Y0189092D01*
X0357262Y0189098D01*
X0357150Y0189100D01*
X0188550Y0189100D01*
X0188438Y0189098D01*
X0188327Y0189092D01*
X0188216Y0189082D01*
X0188105Y0189069D01*
X0187994Y0189051D01*
X0187885Y0189030D01*
X0187776Y0189005D01*
X0187668Y0188976D01*
X0187561Y0188943D01*
X0187456Y0188907D01*
X0187351Y0188867D01*
X0187248Y0188823D01*
X0187147Y0188776D01*
X0187048Y0188725D01*
X0186950Y0188671D01*
X0186854Y0188614D01*
X0186761Y0188553D01*
X0186669Y0188489D01*
X0186580Y0188422D01*
X0186493Y0188351D01*
X0186409Y0188278D01*
X0186327Y0188202D01*
X0186248Y0188123D01*
X0186172Y0188041D01*
X0186099Y0187957D01*
X0186028Y0187870D01*
X0185961Y0187781D01*
X0185897Y0187689D01*
X0185836Y0187596D01*
X0185779Y0187500D01*
X0185725Y0187402D01*
X0185674Y0187303D01*
X0185627Y0187202D01*
X0185583Y0187099D01*
X0185543Y0186994D01*
X0185507Y0186889D01*
X0185474Y0186782D01*
X0185445Y0186674D01*
X0185420Y0186565D01*
X0185399Y0186456D01*
X0185381Y0186345D01*
X0185368Y0186234D01*
X0185358Y0186123D01*
X0185352Y0186012D01*
X0185350Y0185900D01*
X0185350Y0110425D01*
X0185348Y0110313D01*
X0185342Y0110202D01*
X0185332Y0110091D01*
X0185319Y0109980D01*
X0185301Y0109869D01*
X0185280Y0109760D01*
X0185255Y0109651D01*
X0185226Y0109543D01*
X0185193Y0109436D01*
X0185157Y0109331D01*
X0185117Y0109226D01*
X0185073Y0109123D01*
X0185026Y0109022D01*
X0184975Y0108923D01*
X0184921Y0108825D01*
X0184864Y0108729D01*
X0184803Y0108636D01*
X0184739Y0108544D01*
X0184672Y0108455D01*
X0184601Y0108368D01*
X0184528Y0108284D01*
X0184452Y0108202D01*
X0184373Y0108123D01*
X0184291Y0108047D01*
X0184207Y0107974D01*
X0184120Y0107903D01*
X0184031Y0107836D01*
X0183939Y0107772D01*
X0183846Y0107711D01*
X0183750Y0107654D01*
X0183652Y0107600D01*
X0183553Y0107549D01*
X0183452Y0107502D01*
X0183349Y0107458D01*
X0183244Y0107418D01*
X0183139Y0107382D01*
X0183032Y0107349D01*
X0182924Y0107320D01*
X0182815Y0107295D01*
X0182706Y0107274D01*
X0182595Y0107256D01*
X0182484Y0107243D01*
X0182373Y0107233D01*
X0182262Y0107227D01*
X0182150Y0107225D01*
X0179800Y0107225D01*
X0179688Y0107227D01*
X0179577Y0107233D01*
X0179466Y0107243D01*
X0179355Y0107256D01*
X0179244Y0107274D01*
X0179135Y0107295D01*
X0179026Y0107320D01*
X0178918Y0107349D01*
X0178811Y0107382D01*
X0178706Y0107418D01*
X0178601Y0107458D01*
X0178498Y0107502D01*
X0178397Y0107549D01*
X0178298Y0107600D01*
X0178200Y0107654D01*
X0178104Y0107711D01*
X0178011Y0107772D01*
X0177919Y0107836D01*
X0177830Y0107903D01*
X0177743Y0107974D01*
X0177659Y0108047D01*
X0177577Y0108123D01*
X0177498Y0108202D01*
X0177422Y0108284D01*
X0177349Y0108368D01*
X0177278Y0108455D01*
X0177211Y0108544D01*
X0177147Y0108636D01*
X0177086Y0108729D01*
X0177029Y0108825D01*
X0176975Y0108923D01*
X0176924Y0109022D01*
X0176877Y0109123D01*
X0176833Y0109226D01*
X0176793Y0109331D01*
X0176757Y0109436D01*
X0176724Y0109543D01*
X0176695Y0109651D01*
X0176670Y0109760D01*
X0176649Y0109869D01*
X0176631Y0109980D01*
X0176618Y0110091D01*
X0176608Y0110202D01*
X0176602Y0110313D01*
X0176600Y0110425D01*
X0176600Y0185275D01*
X0176599Y0185275D02*
X0176608Y0185392D01*
X0176612Y0185510D01*
X0176613Y0185628D01*
X0176609Y0185745D01*
X0176602Y0185863D01*
X0176591Y0185980D01*
X0176576Y0186097D01*
X0176557Y0186214D01*
X0176534Y0186329D01*
X0176507Y0186444D01*
X0176477Y0186558D01*
X0176442Y0186670D01*
X0176404Y0186782D01*
X0176363Y0186892D01*
X0176317Y0187001D01*
X0176268Y0187108D01*
X0176215Y0187213D01*
X0176159Y0187317D01*
X0176100Y0187419D01*
X0176037Y0187518D01*
X0175971Y0187616D01*
X0175901Y0187711D01*
X0175829Y0187804D01*
X0175753Y0187894D01*
X0175675Y0187982D01*
X0175593Y0188067D01*
X0175509Y0188150D01*
X0175422Y0188229D01*
X0175332Y0188306D01*
X0175240Y0188379D01*
X0175146Y0188450D01*
X0175049Y0188517D01*
X0174950Y0188581D01*
X0174849Y0188641D01*
X0174746Y0188698D01*
X0174641Y0188752D01*
X0174534Y0188802D01*
X0174426Y0188849D01*
X0174316Y0188892D01*
X0174205Y0188931D01*
X0174093Y0188967D01*
X0173979Y0188998D01*
X0173865Y0189026D01*
X0173749Y0189050D01*
X0173633Y0189070D01*
X0173517Y0189087D01*
X0173399Y0189099D01*
X0173400Y0189100D02*
X0009800Y0189100D01*
X0009725Y0189100D02*
X0004800Y0189100D01*
X0004688Y0189098D01*
X0004577Y0189092D01*
X0004466Y0189082D01*
X0004355Y0189069D01*
X0004244Y0189051D01*
X0004135Y0189030D01*
X0004026Y0189005D01*
X0003918Y0188976D01*
X0003811Y0188943D01*
X0003706Y0188907D01*
X0003601Y0188867D01*
X0003498Y0188823D01*
X0003397Y0188776D01*
X0003298Y0188725D01*
X0003200Y0188671D01*
X0003104Y0188614D01*
X0003011Y0188553D01*
X0002919Y0188489D01*
X0002830Y0188422D01*
X0002743Y0188351D01*
X0002659Y0188278D01*
X0002577Y0188202D01*
X0002498Y0188123D01*
X0002422Y0188041D01*
X0002349Y0187957D01*
X0002278Y0187870D01*
X0002211Y0187781D01*
X0002147Y0187689D01*
X0002086Y0187596D01*
X0002029Y0187500D01*
X0001975Y0187402D01*
X0001924Y0187303D01*
X0001877Y0187202D01*
X0001833Y0187099D01*
X0001793Y0186994D01*
X0001757Y0186889D01*
X0001724Y0186782D01*
X0001695Y0186674D01*
X0001670Y0186565D01*
X0001649Y0186456D01*
X0001631Y0186345D01*
X0001618Y0186234D01*
X0001608Y0186123D01*
X0001602Y0186012D01*
X0001600Y0185900D01*
X0001600Y0004800D01*
X0001602Y0004688D01*
X0001608Y0004577D01*
X0001618Y0004466D01*
X0001631Y0004355D01*
X0001649Y0004244D01*
X0001670Y0004135D01*
X0001695Y0004026D01*
X0001724Y0003918D01*
X0001757Y0003811D01*
X0001793Y0003706D01*
X0001833Y0003601D01*
X0001877Y0003498D01*
X0001924Y0003397D01*
X0001975Y0003298D01*
X0002029Y0003200D01*
X0002086Y0003104D01*
X0002147Y0003011D01*
X0002211Y0002919D01*
X0002278Y0002830D01*
X0002349Y0002743D01*
X0002422Y0002659D01*
X0002498Y0002577D01*
X0002577Y0002498D01*
X0002659Y0002422D01*
X0002743Y0002349D01*
X0002830Y0002278D01*
X0002919Y0002211D01*
X0003011Y0002147D01*
X0003104Y0002086D01*
X0003200Y0002029D01*
X0003298Y0001975D01*
X0003397Y0001924D01*
X0003498Y0001877D01*
X0003601Y0001833D01*
X0003706Y0001793D01*
X0003811Y0001757D01*
X0003918Y0001724D01*
X0004026Y0001695D01*
X0004135Y0001670D01*
X0004244Y0001649D01*
X0004355Y0001631D01*
X0004466Y0001618D01*
X0004577Y0001608D01*
X0004688Y0001602D01*
X0004800Y0001600D01*
D11*
X0179794Y0095350D02*
X0179796Y0095419D01*
X0179802Y0095487D01*
X0179812Y0095555D01*
X0179826Y0095622D01*
X0179844Y0095689D01*
X0179865Y0095754D01*
X0179891Y0095818D01*
X0179920Y0095880D01*
X0179952Y0095940D01*
X0179988Y0095999D01*
X0180028Y0096055D01*
X0180070Y0096109D01*
X0180116Y0096160D01*
X0180165Y0096209D01*
X0180216Y0096255D01*
X0180270Y0096297D01*
X0180326Y0096337D01*
X0180384Y0096373D01*
X0180445Y0096405D01*
X0180507Y0096434D01*
X0180571Y0096460D01*
X0180636Y0096481D01*
X0180703Y0096499D01*
X0180770Y0096513D01*
X0180838Y0096523D01*
X0180906Y0096529D01*
X0180975Y0096531D01*
X0181044Y0096529D01*
X0181112Y0096523D01*
X0181180Y0096513D01*
X0181247Y0096499D01*
X0181314Y0096481D01*
X0181379Y0096460D01*
X0181443Y0096434D01*
X0181505Y0096405D01*
X0181565Y0096373D01*
X0181624Y0096337D01*
X0181680Y0096297D01*
X0181734Y0096255D01*
X0181785Y0096209D01*
X0181834Y0096160D01*
X0181880Y0096109D01*
X0181922Y0096055D01*
X0181962Y0095999D01*
X0181998Y0095940D01*
X0182030Y0095880D01*
X0182059Y0095818D01*
X0182085Y0095754D01*
X0182106Y0095689D01*
X0182124Y0095622D01*
X0182138Y0095555D01*
X0182148Y0095487D01*
X0182154Y0095419D01*
X0182156Y0095350D01*
X0182154Y0095281D01*
X0182148Y0095213D01*
X0182138Y0095145D01*
X0182124Y0095078D01*
X0182106Y0095011D01*
X0182085Y0094946D01*
X0182059Y0094882D01*
X0182030Y0094820D01*
X0181998Y0094759D01*
X0181962Y0094701D01*
X0181922Y0094645D01*
X0181880Y0094591D01*
X0181834Y0094540D01*
X0181785Y0094491D01*
X0181734Y0094445D01*
X0181680Y0094403D01*
X0181624Y0094363D01*
X0181566Y0094327D01*
X0181505Y0094295D01*
X0181443Y0094266D01*
X0181379Y0094240D01*
X0181314Y0094219D01*
X0181247Y0094201D01*
X0181180Y0094187D01*
X0181112Y0094177D01*
X0181044Y0094171D01*
X0180975Y0094169D01*
X0180906Y0094171D01*
X0180838Y0094177D01*
X0180770Y0094187D01*
X0180703Y0094201D01*
X0180636Y0094219D01*
X0180571Y0094240D01*
X0180507Y0094266D01*
X0180445Y0094295D01*
X0180384Y0094327D01*
X0180326Y0094363D01*
X0180270Y0094403D01*
X0180216Y0094445D01*
X0180165Y0094491D01*
X0180116Y0094540D01*
X0180070Y0094591D01*
X0180028Y0094645D01*
X0179988Y0094701D01*
X0179952Y0094759D01*
X0179920Y0094820D01*
X0179891Y0094882D01*
X0179865Y0094946D01*
X0179844Y0095011D01*
X0179826Y0095078D01*
X0179812Y0095145D01*
X0179802Y0095213D01*
X0179796Y0095281D01*
X0179794Y0095350D01*
D12*
X0198252Y0098898D02*
X0199971Y0097180D01*
X0205125Y0097180D01*
X0205125Y0102334D01*
X0203407Y0104052D01*
X0201689Y0102334D01*
X0201689Y0097180D01*
X0198252Y0098898D02*
X0198252Y0102334D01*
X0199971Y0108229D02*
X0199971Y0115102D01*
X0205125Y0115102D02*
X0194816Y0115102D01*
X0196534Y0119279D02*
X0194816Y0120997D01*
X0194816Y0124433D01*
X0196534Y0126151D01*
X0198252Y0126151D01*
X0199971Y0124433D01*
X0199971Y0120997D01*
X0201689Y0119279D01*
X0203407Y0119279D01*
X0205125Y0120997D01*
X0205125Y0124433D01*
X0203407Y0126151D01*
X0203407Y0130328D02*
X0194816Y0130328D01*
X0203407Y0130328D02*
X0205125Y0132046D01*
X0205125Y0135482D01*
X0203407Y0137201D01*
X0194816Y0137201D01*
X0194816Y0141377D02*
X0205125Y0141377D01*
X0194816Y0148250D01*
X0205125Y0148250D01*
X0205125Y0108229D02*
X0194816Y0108229D01*
X0199971Y0093003D02*
X0203407Y0093003D01*
X0205125Y0091285D01*
X0205125Y0086130D01*
X0198252Y0086130D02*
X0198252Y0091285D01*
X0199971Y0093003D01*
X0201689Y0081953D02*
X0198252Y0076799D01*
X0201689Y0081953D02*
X0205125Y0076799D01*
X0203407Y0072746D02*
X0199971Y0072746D01*
X0198252Y0071027D01*
X0198252Y0067591D01*
X0199971Y0065873D01*
X0201689Y0065873D01*
X0201689Y0072746D01*
X0203407Y0072746D02*
X0205125Y0071027D01*
X0205125Y0067591D01*
X0205125Y0061696D02*
X0198252Y0061696D01*
X0198252Y0058260D02*
X0201689Y0061696D01*
X0198252Y0058260D02*
X0198252Y0056542D01*
X0199971Y0052488D02*
X0198252Y0050770D01*
X0198252Y0045616D01*
X0201689Y0047334D02*
X0201689Y0050770D01*
X0199971Y0052488D01*
X0205125Y0052488D02*
X0205125Y0047334D01*
X0203407Y0045616D01*
X0201689Y0047334D01*
X0205125Y0081953D02*
X0194816Y0081953D01*
D13*
X0211800Y0063475D02*
X0211800Y0043475D01*
X0232800Y0043475D01*
X0232800Y0015475D01*
X0249800Y0015475D01*
X0259800Y0027475D01*
X0285800Y0027475D01*
X0295800Y0015475D01*
X0312800Y0015475D01*
X0312800Y0043475D01*
X0333800Y0043475D01*
X0333800Y0063475D01*
X0312800Y0063475D01*
X0312800Y0072475D01*
X0292800Y0093475D01*
X0252800Y0093475D01*
X0232800Y0072475D01*
X0232800Y0063475D01*
X0211800Y0063475D01*
X0218194Y0053475D02*
X0218196Y0053595D01*
X0218202Y0053715D01*
X0218212Y0053834D01*
X0218226Y0053953D01*
X0218244Y0054072D01*
X0218265Y0054190D01*
X0218291Y0054307D01*
X0218321Y0054423D01*
X0218354Y0054538D01*
X0218391Y0054652D01*
X0218432Y0054764D01*
X0218477Y0054876D01*
X0218526Y0054985D01*
X0218578Y0055093D01*
X0218633Y0055200D01*
X0218692Y0055304D01*
X0218755Y0055406D01*
X0218821Y0055506D01*
X0218890Y0055604D01*
X0218962Y0055700D01*
X0219038Y0055793D01*
X0219116Y0055883D01*
X0219198Y0055971D01*
X0219282Y0056056D01*
X0219369Y0056139D01*
X0219459Y0056218D01*
X0219552Y0056294D01*
X0219647Y0056367D01*
X0219744Y0056437D01*
X0219844Y0056504D01*
X0219945Y0056567D01*
X0220049Y0056627D01*
X0220155Y0056684D01*
X0220262Y0056737D01*
X0220372Y0056786D01*
X0220483Y0056832D01*
X0220595Y0056874D01*
X0220709Y0056912D01*
X0220823Y0056946D01*
X0220939Y0056977D01*
X0221056Y0057003D01*
X0221174Y0057026D01*
X0221292Y0057045D01*
X0221411Y0057060D01*
X0221531Y0057071D01*
X0221650Y0057078D01*
X0221770Y0057081D01*
X0221890Y0057080D01*
X0222010Y0057075D01*
X0222129Y0057066D01*
X0222248Y0057053D01*
X0222367Y0057036D01*
X0222485Y0057015D01*
X0222602Y0056991D01*
X0222719Y0056962D01*
X0222834Y0056930D01*
X0222948Y0056893D01*
X0223061Y0056853D01*
X0223173Y0056809D01*
X0223283Y0056762D01*
X0223392Y0056711D01*
X0223498Y0056656D01*
X0223603Y0056598D01*
X0223706Y0056536D01*
X0223807Y0056471D01*
X0223905Y0056403D01*
X0224001Y0056331D01*
X0224095Y0056257D01*
X0224186Y0056179D01*
X0224275Y0056098D01*
X0224360Y0056014D01*
X0224443Y0055928D01*
X0224523Y0055838D01*
X0224601Y0055747D01*
X0224674Y0055652D01*
X0224745Y0055556D01*
X0224813Y0055457D01*
X0224877Y0055355D01*
X0224938Y0055252D01*
X0224995Y0055147D01*
X0225049Y0055040D01*
X0225099Y0054931D01*
X0225146Y0054820D01*
X0225189Y0054708D01*
X0225228Y0054595D01*
X0225263Y0054480D01*
X0225294Y0054365D01*
X0225322Y0054248D01*
X0225346Y0054131D01*
X0225366Y0054012D01*
X0225382Y0053894D01*
X0225394Y0053774D01*
X0225402Y0053655D01*
X0225406Y0053535D01*
X0225406Y0053415D01*
X0225402Y0053295D01*
X0225394Y0053176D01*
X0225382Y0053056D01*
X0225366Y0052938D01*
X0225346Y0052819D01*
X0225322Y0052702D01*
X0225294Y0052585D01*
X0225263Y0052470D01*
X0225228Y0052355D01*
X0225189Y0052242D01*
X0225146Y0052130D01*
X0225099Y0052019D01*
X0225049Y0051910D01*
X0224995Y0051803D01*
X0224938Y0051698D01*
X0224877Y0051595D01*
X0224813Y0051493D01*
X0224745Y0051394D01*
X0224674Y0051298D01*
X0224601Y0051203D01*
X0224523Y0051112D01*
X0224443Y0051022D01*
X0224360Y0050936D01*
X0224275Y0050852D01*
X0224186Y0050771D01*
X0224095Y0050693D01*
X0224001Y0050619D01*
X0223905Y0050547D01*
X0223807Y0050479D01*
X0223706Y0050414D01*
X0223603Y0050352D01*
X0223498Y0050294D01*
X0223392Y0050239D01*
X0223283Y0050188D01*
X0223173Y0050141D01*
X0223061Y0050097D01*
X0222948Y0050057D01*
X0222834Y0050020D01*
X0222719Y0049988D01*
X0222602Y0049959D01*
X0222485Y0049935D01*
X0222367Y0049914D01*
X0222248Y0049897D01*
X0222129Y0049884D01*
X0222010Y0049875D01*
X0221890Y0049870D01*
X0221770Y0049869D01*
X0221650Y0049872D01*
X0221531Y0049879D01*
X0221411Y0049890D01*
X0221292Y0049905D01*
X0221174Y0049924D01*
X0221056Y0049947D01*
X0220939Y0049973D01*
X0220823Y0050004D01*
X0220709Y0050038D01*
X0220595Y0050076D01*
X0220483Y0050118D01*
X0220372Y0050164D01*
X0220262Y0050213D01*
X0220155Y0050266D01*
X0220049Y0050323D01*
X0219945Y0050383D01*
X0219844Y0050446D01*
X0219744Y0050513D01*
X0219647Y0050583D01*
X0219552Y0050656D01*
X0219459Y0050732D01*
X0219369Y0050811D01*
X0219282Y0050894D01*
X0219198Y0050979D01*
X0219116Y0051067D01*
X0219038Y0051157D01*
X0218962Y0051250D01*
X0218890Y0051346D01*
X0218821Y0051444D01*
X0218755Y0051544D01*
X0218692Y0051646D01*
X0218633Y0051750D01*
X0218578Y0051857D01*
X0218526Y0051965D01*
X0218477Y0052074D01*
X0218432Y0052186D01*
X0218391Y0052298D01*
X0218354Y0052412D01*
X0218321Y0052527D01*
X0218291Y0052643D01*
X0218265Y0052760D01*
X0218244Y0052878D01*
X0218226Y0052997D01*
X0218212Y0053116D01*
X0218202Y0053235D01*
X0218196Y0053355D01*
X0218194Y0053475D01*
X0252850Y0097225D02*
X0232850Y0118225D01*
X0232850Y0127225D01*
X0211850Y0127225D01*
X0211850Y0147225D01*
X0232850Y0147225D01*
X0232850Y0175225D01*
X0249850Y0175225D01*
X0259850Y0163225D01*
X0285850Y0163225D01*
X0295850Y0175225D01*
X0312850Y0175225D01*
X0312850Y0147225D01*
X0333850Y0147225D01*
X0333850Y0127225D01*
X0312850Y0127225D01*
X0312850Y0118225D01*
X0292850Y0097225D01*
X0252850Y0097225D01*
X0218244Y0137225D02*
X0218246Y0137345D01*
X0218252Y0137465D01*
X0218262Y0137584D01*
X0218276Y0137703D01*
X0218294Y0137822D01*
X0218315Y0137940D01*
X0218341Y0138057D01*
X0218371Y0138173D01*
X0218404Y0138288D01*
X0218441Y0138402D01*
X0218482Y0138514D01*
X0218527Y0138626D01*
X0218576Y0138735D01*
X0218628Y0138843D01*
X0218683Y0138950D01*
X0218742Y0139054D01*
X0218805Y0139156D01*
X0218871Y0139256D01*
X0218940Y0139354D01*
X0219012Y0139450D01*
X0219088Y0139543D01*
X0219166Y0139633D01*
X0219248Y0139721D01*
X0219332Y0139806D01*
X0219419Y0139889D01*
X0219509Y0139968D01*
X0219602Y0140044D01*
X0219697Y0140117D01*
X0219794Y0140187D01*
X0219894Y0140254D01*
X0219995Y0140317D01*
X0220099Y0140377D01*
X0220205Y0140434D01*
X0220312Y0140487D01*
X0220422Y0140536D01*
X0220533Y0140582D01*
X0220645Y0140624D01*
X0220759Y0140662D01*
X0220873Y0140696D01*
X0220989Y0140727D01*
X0221106Y0140753D01*
X0221224Y0140776D01*
X0221342Y0140795D01*
X0221461Y0140810D01*
X0221581Y0140821D01*
X0221700Y0140828D01*
X0221820Y0140831D01*
X0221940Y0140830D01*
X0222060Y0140825D01*
X0222179Y0140816D01*
X0222298Y0140803D01*
X0222417Y0140786D01*
X0222535Y0140765D01*
X0222652Y0140741D01*
X0222769Y0140712D01*
X0222884Y0140680D01*
X0222998Y0140643D01*
X0223111Y0140603D01*
X0223223Y0140559D01*
X0223333Y0140512D01*
X0223442Y0140461D01*
X0223548Y0140406D01*
X0223653Y0140348D01*
X0223756Y0140286D01*
X0223857Y0140221D01*
X0223955Y0140153D01*
X0224051Y0140081D01*
X0224145Y0140007D01*
X0224236Y0139929D01*
X0224325Y0139848D01*
X0224410Y0139764D01*
X0224493Y0139678D01*
X0224573Y0139588D01*
X0224651Y0139497D01*
X0224724Y0139402D01*
X0224795Y0139306D01*
X0224863Y0139207D01*
X0224927Y0139105D01*
X0224988Y0139002D01*
X0225045Y0138897D01*
X0225099Y0138790D01*
X0225149Y0138681D01*
X0225196Y0138570D01*
X0225239Y0138458D01*
X0225278Y0138345D01*
X0225313Y0138230D01*
X0225344Y0138115D01*
X0225372Y0137998D01*
X0225396Y0137881D01*
X0225416Y0137762D01*
X0225432Y0137644D01*
X0225444Y0137524D01*
X0225452Y0137405D01*
X0225456Y0137285D01*
X0225456Y0137165D01*
X0225452Y0137045D01*
X0225444Y0136926D01*
X0225432Y0136806D01*
X0225416Y0136688D01*
X0225396Y0136569D01*
X0225372Y0136452D01*
X0225344Y0136335D01*
X0225313Y0136220D01*
X0225278Y0136105D01*
X0225239Y0135992D01*
X0225196Y0135880D01*
X0225149Y0135769D01*
X0225099Y0135660D01*
X0225045Y0135553D01*
X0224988Y0135448D01*
X0224927Y0135345D01*
X0224863Y0135243D01*
X0224795Y0135144D01*
X0224724Y0135048D01*
X0224651Y0134953D01*
X0224573Y0134862D01*
X0224493Y0134772D01*
X0224410Y0134686D01*
X0224325Y0134602D01*
X0224236Y0134521D01*
X0224145Y0134443D01*
X0224051Y0134369D01*
X0223955Y0134297D01*
X0223857Y0134229D01*
X0223756Y0134164D01*
X0223653Y0134102D01*
X0223548Y0134044D01*
X0223442Y0133989D01*
X0223333Y0133938D01*
X0223223Y0133891D01*
X0223111Y0133847D01*
X0222998Y0133807D01*
X0222884Y0133770D01*
X0222769Y0133738D01*
X0222652Y0133709D01*
X0222535Y0133685D01*
X0222417Y0133664D01*
X0222298Y0133647D01*
X0222179Y0133634D01*
X0222060Y0133625D01*
X0221940Y0133620D01*
X0221820Y0133619D01*
X0221700Y0133622D01*
X0221581Y0133629D01*
X0221461Y0133640D01*
X0221342Y0133655D01*
X0221224Y0133674D01*
X0221106Y0133697D01*
X0220989Y0133723D01*
X0220873Y0133754D01*
X0220759Y0133788D01*
X0220645Y0133826D01*
X0220533Y0133868D01*
X0220422Y0133914D01*
X0220312Y0133963D01*
X0220205Y0134016D01*
X0220099Y0134073D01*
X0219995Y0134133D01*
X0219894Y0134196D01*
X0219794Y0134263D01*
X0219697Y0134333D01*
X0219602Y0134406D01*
X0219509Y0134482D01*
X0219419Y0134561D01*
X0219332Y0134644D01*
X0219248Y0134729D01*
X0219166Y0134817D01*
X0219088Y0134907D01*
X0219012Y0135000D01*
X0218940Y0135096D01*
X0218871Y0135194D01*
X0218805Y0135294D01*
X0218742Y0135396D01*
X0218683Y0135500D01*
X0218628Y0135607D01*
X0218576Y0135715D01*
X0218527Y0135824D01*
X0218482Y0135936D01*
X0218441Y0136048D01*
X0218404Y0136162D01*
X0218371Y0136277D01*
X0218341Y0136393D01*
X0218315Y0136510D01*
X0218294Y0136628D01*
X0218276Y0136747D01*
X0218262Y0136866D01*
X0218252Y0136985D01*
X0218246Y0137105D01*
X0218244Y0137225D01*
X0320244Y0137225D02*
X0320246Y0137345D01*
X0320252Y0137465D01*
X0320262Y0137584D01*
X0320276Y0137703D01*
X0320294Y0137822D01*
X0320315Y0137940D01*
X0320341Y0138057D01*
X0320371Y0138173D01*
X0320404Y0138288D01*
X0320441Y0138402D01*
X0320482Y0138514D01*
X0320527Y0138626D01*
X0320576Y0138735D01*
X0320628Y0138843D01*
X0320683Y0138950D01*
X0320742Y0139054D01*
X0320805Y0139156D01*
X0320871Y0139256D01*
X0320940Y0139354D01*
X0321012Y0139450D01*
X0321088Y0139543D01*
X0321166Y0139633D01*
X0321248Y0139721D01*
X0321332Y0139806D01*
X0321419Y0139889D01*
X0321509Y0139968D01*
X0321602Y0140044D01*
X0321697Y0140117D01*
X0321794Y0140187D01*
X0321894Y0140254D01*
X0321995Y0140317D01*
X0322099Y0140377D01*
X0322205Y0140434D01*
X0322312Y0140487D01*
X0322422Y0140536D01*
X0322533Y0140582D01*
X0322645Y0140624D01*
X0322759Y0140662D01*
X0322873Y0140696D01*
X0322989Y0140727D01*
X0323106Y0140753D01*
X0323224Y0140776D01*
X0323342Y0140795D01*
X0323461Y0140810D01*
X0323581Y0140821D01*
X0323700Y0140828D01*
X0323820Y0140831D01*
X0323940Y0140830D01*
X0324060Y0140825D01*
X0324179Y0140816D01*
X0324298Y0140803D01*
X0324417Y0140786D01*
X0324535Y0140765D01*
X0324652Y0140741D01*
X0324769Y0140712D01*
X0324884Y0140680D01*
X0324998Y0140643D01*
X0325111Y0140603D01*
X0325223Y0140559D01*
X0325333Y0140512D01*
X0325442Y0140461D01*
X0325548Y0140406D01*
X0325653Y0140348D01*
X0325756Y0140286D01*
X0325857Y0140221D01*
X0325955Y0140153D01*
X0326051Y0140081D01*
X0326145Y0140007D01*
X0326236Y0139929D01*
X0326325Y0139848D01*
X0326410Y0139764D01*
X0326493Y0139678D01*
X0326573Y0139588D01*
X0326651Y0139497D01*
X0326724Y0139402D01*
X0326795Y0139306D01*
X0326863Y0139207D01*
X0326927Y0139105D01*
X0326988Y0139002D01*
X0327045Y0138897D01*
X0327099Y0138790D01*
X0327149Y0138681D01*
X0327196Y0138570D01*
X0327239Y0138458D01*
X0327278Y0138345D01*
X0327313Y0138230D01*
X0327344Y0138115D01*
X0327372Y0137998D01*
X0327396Y0137881D01*
X0327416Y0137762D01*
X0327432Y0137644D01*
X0327444Y0137524D01*
X0327452Y0137405D01*
X0327456Y0137285D01*
X0327456Y0137165D01*
X0327452Y0137045D01*
X0327444Y0136926D01*
X0327432Y0136806D01*
X0327416Y0136688D01*
X0327396Y0136569D01*
X0327372Y0136452D01*
X0327344Y0136335D01*
X0327313Y0136220D01*
X0327278Y0136105D01*
X0327239Y0135992D01*
X0327196Y0135880D01*
X0327149Y0135769D01*
X0327099Y0135660D01*
X0327045Y0135553D01*
X0326988Y0135448D01*
X0326927Y0135345D01*
X0326863Y0135243D01*
X0326795Y0135144D01*
X0326724Y0135048D01*
X0326651Y0134953D01*
X0326573Y0134862D01*
X0326493Y0134772D01*
X0326410Y0134686D01*
X0326325Y0134602D01*
X0326236Y0134521D01*
X0326145Y0134443D01*
X0326051Y0134369D01*
X0325955Y0134297D01*
X0325857Y0134229D01*
X0325756Y0134164D01*
X0325653Y0134102D01*
X0325548Y0134044D01*
X0325442Y0133989D01*
X0325333Y0133938D01*
X0325223Y0133891D01*
X0325111Y0133847D01*
X0324998Y0133807D01*
X0324884Y0133770D01*
X0324769Y0133738D01*
X0324652Y0133709D01*
X0324535Y0133685D01*
X0324417Y0133664D01*
X0324298Y0133647D01*
X0324179Y0133634D01*
X0324060Y0133625D01*
X0323940Y0133620D01*
X0323820Y0133619D01*
X0323700Y0133622D01*
X0323581Y0133629D01*
X0323461Y0133640D01*
X0323342Y0133655D01*
X0323224Y0133674D01*
X0323106Y0133697D01*
X0322989Y0133723D01*
X0322873Y0133754D01*
X0322759Y0133788D01*
X0322645Y0133826D01*
X0322533Y0133868D01*
X0322422Y0133914D01*
X0322312Y0133963D01*
X0322205Y0134016D01*
X0322099Y0134073D01*
X0321995Y0134133D01*
X0321894Y0134196D01*
X0321794Y0134263D01*
X0321697Y0134333D01*
X0321602Y0134406D01*
X0321509Y0134482D01*
X0321419Y0134561D01*
X0321332Y0134644D01*
X0321248Y0134729D01*
X0321166Y0134817D01*
X0321088Y0134907D01*
X0321012Y0135000D01*
X0320940Y0135096D01*
X0320871Y0135194D01*
X0320805Y0135294D01*
X0320742Y0135396D01*
X0320683Y0135500D01*
X0320628Y0135607D01*
X0320576Y0135715D01*
X0320527Y0135824D01*
X0320482Y0135936D01*
X0320441Y0136048D01*
X0320404Y0136162D01*
X0320371Y0136277D01*
X0320341Y0136393D01*
X0320315Y0136510D01*
X0320294Y0136628D01*
X0320276Y0136747D01*
X0320262Y0136866D01*
X0320252Y0136985D01*
X0320246Y0137105D01*
X0320244Y0137225D01*
X0320194Y0053475D02*
X0320196Y0053595D01*
X0320202Y0053715D01*
X0320212Y0053834D01*
X0320226Y0053953D01*
X0320244Y0054072D01*
X0320265Y0054190D01*
X0320291Y0054307D01*
X0320321Y0054423D01*
X0320354Y0054538D01*
X0320391Y0054652D01*
X0320432Y0054764D01*
X0320477Y0054876D01*
X0320526Y0054985D01*
X0320578Y0055093D01*
X0320633Y0055200D01*
X0320692Y0055304D01*
X0320755Y0055406D01*
X0320821Y0055506D01*
X0320890Y0055604D01*
X0320962Y0055700D01*
X0321038Y0055793D01*
X0321116Y0055883D01*
X0321198Y0055971D01*
X0321282Y0056056D01*
X0321369Y0056139D01*
X0321459Y0056218D01*
X0321552Y0056294D01*
X0321647Y0056367D01*
X0321744Y0056437D01*
X0321844Y0056504D01*
X0321945Y0056567D01*
X0322049Y0056627D01*
X0322155Y0056684D01*
X0322262Y0056737D01*
X0322372Y0056786D01*
X0322483Y0056832D01*
X0322595Y0056874D01*
X0322709Y0056912D01*
X0322823Y0056946D01*
X0322939Y0056977D01*
X0323056Y0057003D01*
X0323174Y0057026D01*
X0323292Y0057045D01*
X0323411Y0057060D01*
X0323531Y0057071D01*
X0323650Y0057078D01*
X0323770Y0057081D01*
X0323890Y0057080D01*
X0324010Y0057075D01*
X0324129Y0057066D01*
X0324248Y0057053D01*
X0324367Y0057036D01*
X0324485Y0057015D01*
X0324602Y0056991D01*
X0324719Y0056962D01*
X0324834Y0056930D01*
X0324948Y0056893D01*
X0325061Y0056853D01*
X0325173Y0056809D01*
X0325283Y0056762D01*
X0325392Y0056711D01*
X0325498Y0056656D01*
X0325603Y0056598D01*
X0325706Y0056536D01*
X0325807Y0056471D01*
X0325905Y0056403D01*
X0326001Y0056331D01*
X0326095Y0056257D01*
X0326186Y0056179D01*
X0326275Y0056098D01*
X0326360Y0056014D01*
X0326443Y0055928D01*
X0326523Y0055838D01*
X0326601Y0055747D01*
X0326674Y0055652D01*
X0326745Y0055556D01*
X0326813Y0055457D01*
X0326877Y0055355D01*
X0326938Y0055252D01*
X0326995Y0055147D01*
X0327049Y0055040D01*
X0327099Y0054931D01*
X0327146Y0054820D01*
X0327189Y0054708D01*
X0327228Y0054595D01*
X0327263Y0054480D01*
X0327294Y0054365D01*
X0327322Y0054248D01*
X0327346Y0054131D01*
X0327366Y0054012D01*
X0327382Y0053894D01*
X0327394Y0053774D01*
X0327402Y0053655D01*
X0327406Y0053535D01*
X0327406Y0053415D01*
X0327402Y0053295D01*
X0327394Y0053176D01*
X0327382Y0053056D01*
X0327366Y0052938D01*
X0327346Y0052819D01*
X0327322Y0052702D01*
X0327294Y0052585D01*
X0327263Y0052470D01*
X0327228Y0052355D01*
X0327189Y0052242D01*
X0327146Y0052130D01*
X0327099Y0052019D01*
X0327049Y0051910D01*
X0326995Y0051803D01*
X0326938Y0051698D01*
X0326877Y0051595D01*
X0326813Y0051493D01*
X0326745Y0051394D01*
X0326674Y0051298D01*
X0326601Y0051203D01*
X0326523Y0051112D01*
X0326443Y0051022D01*
X0326360Y0050936D01*
X0326275Y0050852D01*
X0326186Y0050771D01*
X0326095Y0050693D01*
X0326001Y0050619D01*
X0325905Y0050547D01*
X0325807Y0050479D01*
X0325706Y0050414D01*
X0325603Y0050352D01*
X0325498Y0050294D01*
X0325392Y0050239D01*
X0325283Y0050188D01*
X0325173Y0050141D01*
X0325061Y0050097D01*
X0324948Y0050057D01*
X0324834Y0050020D01*
X0324719Y0049988D01*
X0324602Y0049959D01*
X0324485Y0049935D01*
X0324367Y0049914D01*
X0324248Y0049897D01*
X0324129Y0049884D01*
X0324010Y0049875D01*
X0323890Y0049870D01*
X0323770Y0049869D01*
X0323650Y0049872D01*
X0323531Y0049879D01*
X0323411Y0049890D01*
X0323292Y0049905D01*
X0323174Y0049924D01*
X0323056Y0049947D01*
X0322939Y0049973D01*
X0322823Y0050004D01*
X0322709Y0050038D01*
X0322595Y0050076D01*
X0322483Y0050118D01*
X0322372Y0050164D01*
X0322262Y0050213D01*
X0322155Y0050266D01*
X0322049Y0050323D01*
X0321945Y0050383D01*
X0321844Y0050446D01*
X0321744Y0050513D01*
X0321647Y0050583D01*
X0321552Y0050656D01*
X0321459Y0050732D01*
X0321369Y0050811D01*
X0321282Y0050894D01*
X0321198Y0050979D01*
X0321116Y0051067D01*
X0321038Y0051157D01*
X0320962Y0051250D01*
X0320890Y0051346D01*
X0320821Y0051444D01*
X0320755Y0051544D01*
X0320692Y0051646D01*
X0320633Y0051750D01*
X0320578Y0051857D01*
X0320526Y0051965D01*
X0320477Y0052074D01*
X0320432Y0052186D01*
X0320391Y0052298D01*
X0320354Y0052412D01*
X0320321Y0052527D01*
X0320291Y0052643D01*
X0320265Y0052760D01*
X0320244Y0052878D01*
X0320226Y0052997D01*
X0320212Y0053116D01*
X0320202Y0053235D01*
X0320196Y0053355D01*
X0320194Y0053475D01*
D14*
X0238816Y0035300D02*
X0238816Y0033599D01*
X0238249Y0033031D01*
X0237682Y0033031D01*
X0237114Y0033599D01*
X0237114Y0035300D01*
X0235413Y0035300D02*
X0235413Y0033599D01*
X0235980Y0033031D01*
X0236547Y0033031D01*
X0237114Y0033599D01*
X0237114Y0031617D02*
X0237114Y0029348D01*
X0236547Y0029348D02*
X0238816Y0029348D01*
X0236547Y0029348D02*
X0235413Y0030483D01*
X0236547Y0031617D01*
X0238816Y0031617D01*
X0238816Y0035300D02*
X0235413Y0035300D01*
X0235413Y0027934D02*
X0235413Y0025665D01*
X0235413Y0026799D02*
X0238816Y0026799D01*
X0238816Y0023116D02*
X0235413Y0023116D01*
X0235413Y0021982D02*
X0235413Y0024251D01*
X0235980Y0020567D02*
X0235413Y0020000D01*
X0235413Y0018866D01*
X0235980Y0018299D01*
X0236547Y0018299D01*
X0238816Y0020567D01*
X0238816Y0018299D01*
X0238816Y0155799D02*
X0238816Y0158067D01*
X0238816Y0156933D02*
X0235413Y0156933D01*
X0236547Y0158067D01*
X0235413Y0159482D02*
X0235413Y0161751D01*
X0235413Y0160616D02*
X0238816Y0160616D01*
X0235413Y0163165D02*
X0235413Y0165434D01*
X0235413Y0164299D02*
X0238816Y0164299D01*
X0238816Y0166848D02*
X0236547Y0166848D01*
X0235413Y0167983D01*
X0236547Y0169117D01*
X0238816Y0169117D01*
X0238249Y0170531D02*
X0237682Y0170531D01*
X0237114Y0171099D01*
X0237114Y0172800D01*
X0235413Y0172800D02*
X0235413Y0171099D01*
X0235980Y0170531D01*
X0236547Y0170531D01*
X0237114Y0171099D01*
X0238249Y0170531D02*
X0238816Y0171099D01*
X0238816Y0172800D01*
X0235413Y0172800D01*
X0237114Y0169117D02*
X0237114Y0166848D01*
M02*
