G75*
%MOIN*%
%OFA0B0*%
%FSLAX25Y25*%
%IPPOS*%
%LPD*%
%AMOC8*
5,1,8,0,0,1.08239X$1,22.5*
%
%ADD10C,0.01200*%
%ADD11C,0.00000*%
%ADD12C,0.23000*%
%ADD13C,0.07400*%
%ADD14C,0.70866*%
%ADD15R,0.20000X0.20000*%
%ADD16R,0.07400X0.07400*%
%ADD17C,0.02000*%
%ADD18R,0.03562X0.03562*%
%ADD19C,0.02400*%
D10*
X0004800Y0001600D02*
X0173400Y0001600D01*
X0173399Y0001601D02*
X0173517Y0001613D01*
X0173633Y0001630D01*
X0173749Y0001650D01*
X0173865Y0001674D01*
X0173979Y0001702D01*
X0174093Y0001733D01*
X0174205Y0001769D01*
X0174316Y0001808D01*
X0174426Y0001851D01*
X0174534Y0001898D01*
X0174641Y0001948D01*
X0174746Y0002002D01*
X0174849Y0002059D01*
X0174950Y0002119D01*
X0175049Y0002183D01*
X0175146Y0002250D01*
X0175240Y0002321D01*
X0175332Y0002394D01*
X0175422Y0002471D01*
X0175509Y0002550D01*
X0175593Y0002633D01*
X0175675Y0002718D01*
X0175753Y0002806D01*
X0175829Y0002896D01*
X0175901Y0002989D01*
X0175971Y0003084D01*
X0176037Y0003182D01*
X0176100Y0003281D01*
X0176159Y0003383D01*
X0176215Y0003487D01*
X0176268Y0003592D01*
X0176317Y0003699D01*
X0176363Y0003808D01*
X0176404Y0003918D01*
X0176442Y0004030D01*
X0176477Y0004142D01*
X0176507Y0004256D01*
X0176534Y0004371D01*
X0176557Y0004486D01*
X0176576Y0004603D01*
X0176591Y0004720D01*
X0176602Y0004837D01*
X0176609Y0004955D01*
X0176613Y0005072D01*
X0176612Y0005190D01*
X0176608Y0005308D01*
X0176599Y0005425D01*
X0176600Y0005425D02*
X0176600Y0080275D01*
X0176602Y0080387D01*
X0176608Y0080498D01*
X0176618Y0080609D01*
X0176631Y0080720D01*
X0176649Y0080831D01*
X0176670Y0080940D01*
X0176695Y0081049D01*
X0176724Y0081157D01*
X0176757Y0081264D01*
X0176793Y0081369D01*
X0176833Y0081474D01*
X0176877Y0081577D01*
X0176924Y0081678D01*
X0176975Y0081777D01*
X0177029Y0081875D01*
X0177086Y0081971D01*
X0177147Y0082064D01*
X0177211Y0082156D01*
X0177278Y0082245D01*
X0177349Y0082332D01*
X0177422Y0082416D01*
X0177498Y0082498D01*
X0177577Y0082577D01*
X0177659Y0082653D01*
X0177743Y0082726D01*
X0177830Y0082797D01*
X0177919Y0082864D01*
X0178011Y0082928D01*
X0178104Y0082989D01*
X0178200Y0083046D01*
X0178298Y0083100D01*
X0178397Y0083151D01*
X0178498Y0083198D01*
X0178601Y0083242D01*
X0178706Y0083282D01*
X0178811Y0083318D01*
X0178918Y0083351D01*
X0179026Y0083380D01*
X0179135Y0083405D01*
X0179244Y0083426D01*
X0179355Y0083444D01*
X0179466Y0083457D01*
X0179577Y0083467D01*
X0179688Y0083473D01*
X0179800Y0083475D01*
X0182150Y0083475D01*
X0179800Y0083475D02*
X0179725Y0083475D01*
X0182150Y0083475D02*
X0182262Y0083473D01*
X0182373Y0083467D01*
X0182484Y0083457D01*
X0182595Y0083444D01*
X0182706Y0083426D01*
X0182815Y0083405D01*
X0182924Y0083380D01*
X0183032Y0083351D01*
X0183139Y0083318D01*
X0183244Y0083282D01*
X0183349Y0083242D01*
X0183452Y0083198D01*
X0183553Y0083151D01*
X0183652Y0083100D01*
X0183750Y0083046D01*
X0183846Y0082989D01*
X0183939Y0082928D01*
X0184031Y0082864D01*
X0184120Y0082797D01*
X0184207Y0082726D01*
X0184291Y0082653D01*
X0184373Y0082577D01*
X0184452Y0082498D01*
X0184528Y0082416D01*
X0184601Y0082332D01*
X0184672Y0082245D01*
X0184739Y0082156D01*
X0184803Y0082064D01*
X0184864Y0081971D01*
X0184921Y0081875D01*
X0184975Y0081777D01*
X0185026Y0081678D01*
X0185073Y0081577D01*
X0185117Y0081474D01*
X0185157Y0081369D01*
X0185193Y0081264D01*
X0185226Y0081157D01*
X0185255Y0081049D01*
X0185280Y0080940D01*
X0185301Y0080831D01*
X0185319Y0080720D01*
X0185332Y0080609D01*
X0185342Y0080498D01*
X0185348Y0080387D01*
X0185350Y0080275D01*
X0185350Y0004800D01*
X0188550Y0004800D02*
X0188550Y0081548D01*
X0187576Y0083900D01*
X0187576Y0083900D01*
X0185775Y0085701D01*
X0185350Y0085877D01*
X0185350Y0098800D01*
X0199190Y0098800D01*
X0202550Y0095440D01*
X0202550Y0042293D01*
X0202976Y0041264D01*
X0206726Y0037514D01*
X0207514Y0036726D01*
X0208543Y0036300D01*
X0215440Y0036300D01*
X0216769Y0034971D01*
X0216769Y0032823D01*
X0217823Y0031769D01*
X0222877Y0031769D01*
X0223931Y0032823D01*
X0223931Y0037877D01*
X0222877Y0038931D01*
X0220729Y0038931D01*
X0218186Y0041474D01*
X0217700Y0041675D01*
X0232546Y0041675D01*
X0233600Y0042729D01*
X0233600Y0064221D01*
X0233390Y0064430D01*
X0240411Y0071451D01*
X0239489Y0069694D01*
X0238570Y0067653D01*
X0237777Y0065561D01*
X0237111Y0063424D01*
X0236575Y0061251D01*
X0236172Y0059050D01*
X0235902Y0056828D01*
X0235767Y0054594D01*
X0235767Y0054075D01*
X0272200Y0054075D01*
X0272200Y0089425D01*
X0273400Y0089425D01*
X0273400Y0054075D01*
X0272200Y0054075D01*
X0272200Y0052875D01*
X0273400Y0052875D01*
X0273400Y0054075D01*
X0309833Y0054075D01*
X0309833Y0054594D01*
X0309698Y0056828D01*
X0309428Y0059050D01*
X0309025Y0061251D01*
X0308489Y0063424D01*
X0307823Y0065561D01*
X0307030Y0067653D01*
X0306111Y0069694D01*
X0305079Y0071662D01*
X0312260Y0064480D01*
X0312000Y0064221D01*
X0312000Y0042729D01*
X0313054Y0041675D01*
X0334546Y0041675D01*
X0335600Y0042729D01*
X0335600Y0064221D01*
X0334546Y0065275D01*
X0319385Y0065275D01*
X0311641Y0073019D01*
X0314127Y0073019D01*
X0315181Y0074073D01*
X0315181Y0079127D01*
X0314127Y0080181D01*
X0311979Y0080181D01*
X0309141Y0083019D01*
X0312877Y0083019D01*
X0313931Y0084073D01*
X0313931Y0084450D01*
X0314209Y0084565D01*
X0314885Y0085241D01*
X0317385Y0087741D01*
X0317750Y0088623D01*
X0317750Y0092394D01*
X0317877Y0092394D01*
X0318931Y0093448D01*
X0318931Y0098502D01*
X0317877Y0099556D01*
X0312823Y0099556D01*
X0312056Y0098789D01*
X0312056Y0099127D01*
X0311002Y0100181D01*
X0305948Y0100181D01*
X0304894Y0099127D01*
X0304894Y0095650D01*
X0301158Y0095650D01*
X0300377Y0096431D01*
X0295323Y0096431D01*
X0294269Y0095377D01*
X0294269Y0090391D01*
X0290061Y0094599D01*
X0289032Y0095025D01*
X0249883Y0095025D01*
X0250806Y0095948D01*
X0250806Y0100934D01*
X0254851Y0096889D01*
X0255639Y0096101D01*
X0256668Y0095675D01*
X0289407Y0095675D01*
X0290436Y0096101D01*
X0319760Y0125425D01*
X0334596Y0125425D01*
X0335650Y0126479D01*
X0335650Y0147971D01*
X0334596Y0149025D01*
X0316010Y0149025D01*
X0310025Y0155010D01*
X0310025Y0159190D01*
X0315224Y0164389D01*
X0315650Y0165418D01*
X0315650Y0175557D01*
X0315965Y0175687D01*
X0317513Y0177234D01*
X0318350Y0179256D01*
X0318350Y0181444D01*
X0317513Y0183465D01*
X0315965Y0185013D01*
X0313944Y0185850D01*
X0311756Y0185850D01*
X0309734Y0185013D01*
X0308187Y0183465D01*
X0307850Y0182651D01*
X0307513Y0183465D01*
X0305965Y0185013D01*
X0303944Y0185850D01*
X0301756Y0185850D01*
X0299734Y0185013D01*
X0298187Y0183465D01*
X0297850Y0182651D01*
X0297513Y0183465D01*
X0295965Y0185013D01*
X0293944Y0185850D01*
X0291756Y0185850D01*
X0289734Y0185013D01*
X0288187Y0183465D01*
X0287850Y0182651D01*
X0287513Y0183465D01*
X0285965Y0185013D01*
X0283944Y0185850D01*
X0281756Y0185850D01*
X0279734Y0185013D01*
X0278187Y0183465D01*
X0277850Y0182651D01*
X0277513Y0183465D01*
X0275965Y0185013D01*
X0273944Y0185850D01*
X0271756Y0185850D01*
X0269734Y0185013D01*
X0268187Y0183465D01*
X0267850Y0182651D01*
X0267513Y0183465D01*
X0265965Y0185013D01*
X0263944Y0185850D01*
X0261756Y0185850D01*
X0259734Y0185013D01*
X0258187Y0183465D01*
X0257850Y0182651D01*
X0257513Y0183465D01*
X0255965Y0185013D01*
X0253944Y0185850D01*
X0251756Y0185850D01*
X0249734Y0185013D01*
X0248187Y0183465D01*
X0247850Y0182651D01*
X0247513Y0183465D01*
X0245965Y0185013D01*
X0243944Y0185850D01*
X0241756Y0185850D01*
X0239734Y0185013D01*
X0238187Y0183465D01*
X0237850Y0182651D01*
X0237513Y0183465D01*
X0235965Y0185013D01*
X0233944Y0185850D01*
X0231756Y0185850D01*
X0229734Y0185013D01*
X0228187Y0183465D01*
X0227350Y0181444D01*
X0227350Y0179256D01*
X0228187Y0177234D01*
X0229734Y0175687D01*
X0231756Y0174850D01*
X0233944Y0174850D01*
X0235965Y0175687D01*
X0237513Y0177234D01*
X0237850Y0178049D01*
X0238187Y0177234D01*
X0239734Y0175687D01*
X0241756Y0174850D01*
X0243944Y0174850D01*
X0245965Y0175687D01*
X0247513Y0177234D01*
X0247850Y0178049D01*
X0248187Y0177234D01*
X0249734Y0175687D01*
X0251756Y0174850D01*
X0253944Y0174850D01*
X0255965Y0175687D01*
X0257513Y0177234D01*
X0257850Y0178049D01*
X0258187Y0177234D01*
X0259734Y0175687D01*
X0261756Y0174850D01*
X0263944Y0174850D01*
X0265965Y0175687D01*
X0267513Y0177234D01*
X0267850Y0178049D01*
X0268187Y0177234D01*
X0269734Y0175687D01*
X0271756Y0174850D01*
X0273944Y0174850D01*
X0275965Y0175687D01*
X0277513Y0177234D01*
X0277850Y0178049D01*
X0278187Y0177234D01*
X0279734Y0175687D01*
X0281756Y0174850D01*
X0283944Y0174850D01*
X0285965Y0175687D01*
X0287513Y0177234D01*
X0287850Y0178049D01*
X0288187Y0177234D01*
X0289734Y0175687D01*
X0291756Y0174850D01*
X0293944Y0174850D01*
X0295965Y0175687D01*
X0297513Y0177234D01*
X0297850Y0178049D01*
X0298187Y0177234D01*
X0299734Y0175687D01*
X0301756Y0174850D01*
X0303944Y0174850D01*
X0305965Y0175687D01*
X0307513Y0177234D01*
X0307850Y0178049D01*
X0308187Y0177234D01*
X0309734Y0175687D01*
X0310050Y0175557D01*
X0310050Y0167135D01*
X0305639Y0162724D01*
X0304851Y0161936D01*
X0304425Y0160907D01*
X0304425Y0156987D01*
X0301771Y0160960D01*
X0296585Y0166146D01*
X0290486Y0170221D01*
X0283710Y0173027D01*
X0276517Y0174458D01*
X0269183Y0174458D01*
X0261990Y0173027D01*
X0255214Y0170221D01*
X0249115Y0166146D01*
X0243929Y0160960D01*
X0239854Y0154861D01*
X0239663Y0154400D01*
X0208543Y0154400D01*
X0207514Y0153974D01*
X0206726Y0153186D01*
X0200476Y0146936D01*
X0200050Y0145907D01*
X0200050Y0113543D01*
X0200476Y0112514D01*
X0201264Y0111726D01*
X0222351Y0090639D01*
X0223139Y0089851D01*
X0224168Y0089425D01*
X0250465Y0089425D01*
X0226315Y0065275D01*
X0211054Y0065275D01*
X0210000Y0064221D01*
X0210000Y0042729D01*
X0210829Y0041900D01*
X0210260Y0041900D01*
X0208150Y0044010D01*
X0208150Y0097157D01*
X0207724Y0098186D01*
X0206936Y0098974D01*
X0202724Y0103186D01*
X0201936Y0103974D01*
X0200907Y0104400D01*
X0185350Y0104400D01*
X0185350Y0104823D01*
X0185775Y0104999D01*
X0185775Y0104999D01*
X0187576Y0106800D01*
X0188550Y0109152D01*
X0188550Y0185900D01*
X0188550Y0189100D02*
X0188438Y0189098D01*
X0188327Y0189092D01*
X0188216Y0189082D01*
X0188105Y0189069D01*
X0187994Y0189051D01*
X0187885Y0189030D01*
X0187776Y0189005D01*
X0187668Y0188976D01*
X0187561Y0188943D01*
X0187456Y0188907D01*
X0187351Y0188867D01*
X0187248Y0188823D01*
X0187147Y0188776D01*
X0187048Y0188725D01*
X0186950Y0188671D01*
X0186854Y0188614D01*
X0186761Y0188553D01*
X0186669Y0188489D01*
X0186580Y0188422D01*
X0186493Y0188351D01*
X0186409Y0188278D01*
X0186327Y0188202D01*
X0186248Y0188123D01*
X0186172Y0188041D01*
X0186099Y0187957D01*
X0186028Y0187870D01*
X0185961Y0187781D01*
X0185897Y0187689D01*
X0185836Y0187596D01*
X0185779Y0187500D01*
X0185725Y0187402D01*
X0185674Y0187303D01*
X0185627Y0187202D01*
X0185583Y0187099D01*
X0185543Y0186994D01*
X0185507Y0186889D01*
X0185474Y0186782D01*
X0185445Y0186674D01*
X0185420Y0186565D01*
X0185399Y0186456D01*
X0185381Y0186345D01*
X0185368Y0186234D01*
X0185358Y0186123D01*
X0185352Y0186012D01*
X0185350Y0185900D01*
X0185350Y0110425D01*
X0185348Y0110313D01*
X0185342Y0110202D01*
X0185332Y0110091D01*
X0185319Y0109980D01*
X0185301Y0109869D01*
X0185280Y0109760D01*
X0185255Y0109651D01*
X0185226Y0109543D01*
X0185193Y0109436D01*
X0185157Y0109331D01*
X0185117Y0109226D01*
X0185073Y0109123D01*
X0185026Y0109022D01*
X0184975Y0108923D01*
X0184921Y0108825D01*
X0184864Y0108729D01*
X0184803Y0108636D01*
X0184739Y0108544D01*
X0184672Y0108455D01*
X0184601Y0108368D01*
X0184528Y0108284D01*
X0184452Y0108202D01*
X0184373Y0108123D01*
X0184291Y0108047D01*
X0184207Y0107974D01*
X0184120Y0107903D01*
X0184031Y0107836D01*
X0183939Y0107772D01*
X0183846Y0107711D01*
X0183750Y0107654D01*
X0183652Y0107600D01*
X0183553Y0107549D01*
X0183452Y0107502D01*
X0183349Y0107458D01*
X0183244Y0107418D01*
X0183139Y0107382D01*
X0183032Y0107349D01*
X0182924Y0107320D01*
X0182815Y0107295D01*
X0182706Y0107274D01*
X0182595Y0107256D01*
X0182484Y0107243D01*
X0182373Y0107233D01*
X0182262Y0107227D01*
X0182150Y0107225D01*
X0179800Y0107225D01*
X0179688Y0107227D01*
X0179577Y0107233D01*
X0179466Y0107243D01*
X0179355Y0107256D01*
X0179244Y0107274D01*
X0179135Y0107295D01*
X0179026Y0107320D01*
X0178918Y0107349D01*
X0178811Y0107382D01*
X0178706Y0107418D01*
X0178601Y0107458D01*
X0178498Y0107502D01*
X0178397Y0107549D01*
X0178298Y0107600D01*
X0178200Y0107654D01*
X0178104Y0107711D01*
X0178011Y0107772D01*
X0177919Y0107836D01*
X0177830Y0107903D01*
X0177743Y0107974D01*
X0177659Y0108047D01*
X0177577Y0108123D01*
X0177498Y0108202D01*
X0177422Y0108284D01*
X0177349Y0108368D01*
X0177278Y0108455D01*
X0177211Y0108544D01*
X0177147Y0108636D01*
X0177086Y0108729D01*
X0177029Y0108825D01*
X0176975Y0108923D01*
X0176924Y0109022D01*
X0176877Y0109123D01*
X0176833Y0109226D01*
X0176793Y0109331D01*
X0176757Y0109436D01*
X0176724Y0109543D01*
X0176695Y0109651D01*
X0176670Y0109760D01*
X0176649Y0109869D01*
X0176631Y0109980D01*
X0176618Y0110091D01*
X0176608Y0110202D01*
X0176602Y0110313D01*
X0176600Y0110425D01*
X0176600Y0185275D01*
X0176599Y0185275D02*
X0176608Y0185392D01*
X0176612Y0185510D01*
X0176613Y0185628D01*
X0176609Y0185745D01*
X0176602Y0185863D01*
X0176591Y0185980D01*
X0176576Y0186097D01*
X0176557Y0186214D01*
X0176534Y0186329D01*
X0176507Y0186444D01*
X0176477Y0186558D01*
X0176442Y0186670D01*
X0176404Y0186782D01*
X0176363Y0186892D01*
X0176317Y0187001D01*
X0176268Y0187108D01*
X0176215Y0187213D01*
X0176159Y0187317D01*
X0176100Y0187419D01*
X0176037Y0187518D01*
X0175971Y0187616D01*
X0175901Y0187711D01*
X0175829Y0187804D01*
X0175753Y0187894D01*
X0175675Y0187982D01*
X0175593Y0188067D01*
X0175509Y0188150D01*
X0175422Y0188229D01*
X0175332Y0188306D01*
X0175240Y0188379D01*
X0175146Y0188450D01*
X0175049Y0188517D01*
X0174950Y0188581D01*
X0174849Y0188641D01*
X0174746Y0188698D01*
X0174641Y0188752D01*
X0174534Y0188802D01*
X0174426Y0188849D01*
X0174316Y0188892D01*
X0174205Y0188931D01*
X0174093Y0188967D01*
X0173979Y0188998D01*
X0173865Y0189026D01*
X0173749Y0189050D01*
X0173633Y0189070D01*
X0173517Y0189087D01*
X0173399Y0189099D01*
X0173400Y0189100D02*
X0009800Y0189100D01*
X0009725Y0189100D02*
X0004800Y0189100D01*
X0004688Y0189098D01*
X0004577Y0189092D01*
X0004466Y0189082D01*
X0004355Y0189069D01*
X0004244Y0189051D01*
X0004135Y0189030D01*
X0004026Y0189005D01*
X0003918Y0188976D01*
X0003811Y0188943D01*
X0003706Y0188907D01*
X0003601Y0188867D01*
X0003498Y0188823D01*
X0003397Y0188776D01*
X0003298Y0188725D01*
X0003200Y0188671D01*
X0003104Y0188614D01*
X0003011Y0188553D01*
X0002919Y0188489D01*
X0002830Y0188422D01*
X0002743Y0188351D01*
X0002659Y0188278D01*
X0002577Y0188202D01*
X0002498Y0188123D01*
X0002422Y0188041D01*
X0002349Y0187957D01*
X0002278Y0187870D01*
X0002211Y0187781D01*
X0002147Y0187689D01*
X0002086Y0187596D01*
X0002029Y0187500D01*
X0001975Y0187402D01*
X0001924Y0187303D01*
X0001877Y0187202D01*
X0001833Y0187099D01*
X0001793Y0186994D01*
X0001757Y0186889D01*
X0001724Y0186782D01*
X0001695Y0186674D01*
X0001670Y0186565D01*
X0001649Y0186456D01*
X0001631Y0186345D01*
X0001618Y0186234D01*
X0001608Y0186123D01*
X0001602Y0186012D01*
X0001600Y0185900D01*
X0001600Y0004800D01*
X0001602Y0004688D01*
X0001608Y0004577D01*
X0001618Y0004466D01*
X0001631Y0004355D01*
X0001649Y0004244D01*
X0001670Y0004135D01*
X0001695Y0004026D01*
X0001724Y0003918D01*
X0001757Y0003811D01*
X0001793Y0003706D01*
X0001833Y0003601D01*
X0001877Y0003498D01*
X0001924Y0003397D01*
X0001975Y0003298D01*
X0002029Y0003200D01*
X0002086Y0003104D01*
X0002147Y0003011D01*
X0002211Y0002919D01*
X0002278Y0002830D01*
X0002349Y0002743D01*
X0002422Y0002659D01*
X0002498Y0002577D01*
X0002577Y0002498D01*
X0002659Y0002422D01*
X0002743Y0002349D01*
X0002830Y0002278D01*
X0002919Y0002211D01*
X0003011Y0002147D01*
X0003104Y0002086D01*
X0003200Y0002029D01*
X0003298Y0001975D01*
X0003397Y0001924D01*
X0003498Y0001877D01*
X0003601Y0001833D01*
X0003706Y0001793D01*
X0003811Y0001757D01*
X0003918Y0001724D01*
X0004026Y0001695D01*
X0004135Y0001670D01*
X0004244Y0001649D01*
X0004355Y0001631D01*
X0004466Y0001618D01*
X0004577Y0001608D01*
X0004688Y0001602D01*
X0004800Y0001600D01*
X0185775Y0085701D02*
X0185775Y0085701D01*
X0185980Y0085496D02*
X0202550Y0085496D01*
X0202550Y0086694D02*
X0185350Y0086694D01*
X0185350Y0087893D02*
X0202550Y0087893D01*
X0202550Y0089091D02*
X0185350Y0089091D01*
X0185350Y0090290D02*
X0202550Y0090290D01*
X0202550Y0091488D02*
X0185350Y0091488D01*
X0185350Y0092687D02*
X0202550Y0092687D01*
X0202550Y0093885D02*
X0185350Y0093885D01*
X0185350Y0095084D02*
X0202550Y0095084D01*
X0201708Y0096282D02*
X0185350Y0096282D01*
X0185350Y0097481D02*
X0200509Y0097481D01*
X0199311Y0098679D02*
X0185350Y0098679D01*
X0185350Y0104672D02*
X0208318Y0104672D01*
X0207120Y0105870D02*
X0186646Y0105870D01*
X0187576Y0106800D02*
X0187576Y0106800D01*
X0187687Y0107069D02*
X0205921Y0107069D01*
X0204723Y0108268D02*
X0188184Y0108268D01*
X0188550Y0109466D02*
X0203524Y0109466D01*
X0202326Y0110665D02*
X0188550Y0110665D01*
X0188550Y0111863D02*
X0201127Y0111863D01*
X0200249Y0113062D02*
X0188550Y0113062D01*
X0188550Y0114260D02*
X0200050Y0114260D01*
X0200050Y0115459D02*
X0188550Y0115459D01*
X0188550Y0116657D02*
X0200050Y0116657D01*
X0200050Y0117856D02*
X0188550Y0117856D01*
X0188550Y0119054D02*
X0200050Y0119054D01*
X0200050Y0120253D02*
X0188550Y0120253D01*
X0188550Y0121451D02*
X0200050Y0121451D01*
X0200050Y0122650D02*
X0188550Y0122650D01*
X0188550Y0123848D02*
X0200050Y0123848D01*
X0200050Y0125047D02*
X0188550Y0125047D01*
X0188550Y0126245D02*
X0200050Y0126245D01*
X0200050Y0127444D02*
X0188550Y0127444D01*
X0188550Y0128642D02*
X0200050Y0128642D01*
X0200050Y0129841D02*
X0188550Y0129841D01*
X0188550Y0131039D02*
X0200050Y0131039D01*
X0200050Y0132238D02*
X0188550Y0132238D01*
X0188550Y0133436D02*
X0200050Y0133436D01*
X0200050Y0134635D02*
X0188550Y0134635D01*
X0188550Y0135833D02*
X0200050Y0135833D01*
X0200050Y0137032D02*
X0188550Y0137032D01*
X0188550Y0138230D02*
X0200050Y0138230D01*
X0200050Y0139429D02*
X0188550Y0139429D01*
X0188550Y0140627D02*
X0200050Y0140627D01*
X0200050Y0141826D02*
X0188550Y0141826D01*
X0188550Y0143024D02*
X0200050Y0143024D01*
X0200050Y0144223D02*
X0188550Y0144223D01*
X0188550Y0145421D02*
X0200050Y0145421D01*
X0200345Y0146620D02*
X0188550Y0146620D01*
X0188550Y0147818D02*
X0201359Y0147818D01*
X0202557Y0149017D02*
X0188550Y0149017D01*
X0188550Y0150215D02*
X0203756Y0150215D01*
X0204954Y0151414D02*
X0188550Y0151414D01*
X0188550Y0152612D02*
X0206153Y0152612D01*
X0207351Y0153811D02*
X0188550Y0153811D01*
X0188550Y0155009D02*
X0239953Y0155009D01*
X0240754Y0156208D02*
X0188550Y0156208D01*
X0188550Y0157406D02*
X0201019Y0157406D01*
X0202349Y0157050D02*
X0198966Y0157956D01*
X0195934Y0159707D01*
X0193457Y0162184D01*
X0191706Y0165216D01*
X0190800Y0168599D01*
X0190800Y0172101D01*
X0191706Y0175484D01*
X0193457Y0178516D01*
X0195934Y0180993D01*
X0198966Y0182744D01*
X0202349Y0183650D01*
X0205851Y0183650D01*
X0209234Y0182744D01*
X0212266Y0180993D01*
X0214743Y0178516D01*
X0216494Y0175484D01*
X0217400Y0172101D01*
X0217400Y0168599D01*
X0216494Y0165216D01*
X0214743Y0162184D01*
X0212266Y0159707D01*
X0209234Y0157956D01*
X0205851Y0157050D01*
X0202349Y0157050D01*
X0207181Y0157406D02*
X0241555Y0157406D01*
X0242356Y0158605D02*
X0210357Y0158605D01*
X0212363Y0159803D02*
X0243157Y0159803D01*
X0243971Y0161002D02*
X0213561Y0161002D01*
X0214752Y0162201D02*
X0245170Y0162201D01*
X0246369Y0163399D02*
X0215444Y0163399D01*
X0216136Y0164598D02*
X0247567Y0164598D01*
X0248766Y0165796D02*
X0216649Y0165796D01*
X0216970Y0166995D02*
X0250386Y0166995D01*
X0252179Y0168193D02*
X0217291Y0168193D01*
X0217400Y0169392D02*
X0253973Y0169392D01*
X0256106Y0170590D02*
X0217400Y0170590D01*
X0217400Y0171789D02*
X0258999Y0171789D01*
X0261893Y0172987D02*
X0217163Y0172987D01*
X0216841Y0174186D02*
X0267813Y0174186D01*
X0266861Y0176583D02*
X0268839Y0176583D01*
X0267961Y0177781D02*
X0267739Y0177781D01*
X0265234Y0175384D02*
X0270466Y0175384D01*
X0275234Y0175384D02*
X0280466Y0175384D01*
X0278839Y0176583D02*
X0276861Y0176583D01*
X0277739Y0177781D02*
X0277961Y0177781D01*
X0277887Y0174186D02*
X0310050Y0174186D01*
X0310050Y0175384D02*
X0305234Y0175384D01*
X0306861Y0176583D02*
X0308839Y0176583D01*
X0307961Y0177781D02*
X0307739Y0177781D01*
X0300466Y0175384D02*
X0295234Y0175384D01*
X0296861Y0176583D02*
X0298839Y0176583D01*
X0297961Y0177781D02*
X0297739Y0177781D01*
X0290466Y0175384D02*
X0285234Y0175384D01*
X0286861Y0176583D02*
X0288839Y0176583D01*
X0287961Y0177781D02*
X0287739Y0177781D01*
X0287204Y0183774D02*
X0288496Y0183774D01*
X0289694Y0184972D02*
X0286006Y0184972D01*
X0279694Y0184972D02*
X0276006Y0184972D01*
X0277204Y0183774D02*
X0278496Y0183774D01*
X0269694Y0184972D02*
X0266006Y0184972D01*
X0267204Y0183774D02*
X0268496Y0183774D01*
X0259694Y0184972D02*
X0256006Y0184972D01*
X0257204Y0183774D02*
X0258496Y0183774D01*
X0249694Y0184972D02*
X0246006Y0184972D01*
X0247204Y0183774D02*
X0248496Y0183774D01*
X0239694Y0184972D02*
X0236006Y0184972D01*
X0237204Y0183774D02*
X0238496Y0183774D01*
X0237961Y0177781D02*
X0237739Y0177781D01*
X0236861Y0176583D02*
X0238839Y0176583D01*
X0240466Y0175384D02*
X0235234Y0175384D01*
X0230466Y0175384D02*
X0216520Y0175384D01*
X0215859Y0176583D02*
X0228839Y0176583D01*
X0227961Y0177781D02*
X0215167Y0177781D01*
X0214279Y0178980D02*
X0227464Y0178980D01*
X0227350Y0180178D02*
X0213081Y0180178D01*
X0211601Y0181377D02*
X0227350Y0181377D01*
X0227819Y0182575D02*
X0209525Y0182575D01*
X0198675Y0182575D02*
X0188550Y0182575D01*
X0188550Y0181377D02*
X0196599Y0181377D01*
X0195119Y0180178D02*
X0188550Y0180178D01*
X0188550Y0178980D02*
X0193921Y0178980D01*
X0193033Y0177781D02*
X0188550Y0177781D01*
X0188550Y0176583D02*
X0192341Y0176583D01*
X0191680Y0175384D02*
X0188550Y0175384D01*
X0188550Y0174186D02*
X0191359Y0174186D01*
X0191037Y0172987D02*
X0188550Y0172987D01*
X0188550Y0171789D02*
X0190800Y0171789D01*
X0190800Y0170590D02*
X0188550Y0170590D01*
X0188550Y0169392D02*
X0190800Y0169392D01*
X0190909Y0168193D02*
X0188550Y0168193D01*
X0188550Y0166995D02*
X0191230Y0166995D01*
X0191551Y0165796D02*
X0188550Y0165796D01*
X0188550Y0164598D02*
X0192064Y0164598D01*
X0192756Y0163399D02*
X0188550Y0163399D01*
X0188550Y0162201D02*
X0193448Y0162201D01*
X0194639Y0161002D02*
X0188550Y0161002D01*
X0188550Y0159803D02*
X0195837Y0159803D01*
X0197843Y0158605D02*
X0188550Y0158605D01*
X0188550Y0183774D02*
X0228496Y0183774D01*
X0229694Y0184972D02*
X0188550Y0184972D01*
X0188550Y0185900D02*
X0357150Y0185900D01*
X0360350Y0185900D02*
X0360348Y0186012D01*
X0360342Y0186123D01*
X0360332Y0186234D01*
X0360319Y0186345D01*
X0360301Y0186456D01*
X0360280Y0186565D01*
X0360255Y0186674D01*
X0360226Y0186782D01*
X0360193Y0186889D01*
X0360157Y0186994D01*
X0360117Y0187099D01*
X0360073Y0187202D01*
X0360026Y0187303D01*
X0359975Y0187402D01*
X0359921Y0187500D01*
X0359864Y0187596D01*
X0359803Y0187689D01*
X0359739Y0187781D01*
X0359672Y0187870D01*
X0359601Y0187957D01*
X0359528Y0188041D01*
X0359452Y0188123D01*
X0359373Y0188202D01*
X0359291Y0188278D01*
X0359207Y0188351D01*
X0359120Y0188422D01*
X0359031Y0188489D01*
X0358939Y0188553D01*
X0358846Y0188614D01*
X0358750Y0188671D01*
X0358652Y0188725D01*
X0358553Y0188776D01*
X0358452Y0188823D01*
X0358349Y0188867D01*
X0358244Y0188907D01*
X0358139Y0188943D01*
X0358032Y0188976D01*
X0357924Y0189005D01*
X0357815Y0189030D01*
X0357706Y0189051D01*
X0357595Y0189069D01*
X0357484Y0189082D01*
X0357373Y0189092D01*
X0357262Y0189098D01*
X0357150Y0189100D01*
X0188550Y0189100D01*
X0245234Y0175384D02*
X0250466Y0175384D01*
X0248839Y0176583D02*
X0246861Y0176583D01*
X0247739Y0177781D02*
X0247961Y0177781D01*
X0255234Y0175384D02*
X0260466Y0175384D01*
X0258839Y0176583D02*
X0256861Y0176583D01*
X0257739Y0177781D02*
X0257961Y0177781D01*
X0283807Y0172987D02*
X0310050Y0172987D01*
X0310050Y0171789D02*
X0286701Y0171789D01*
X0289594Y0170590D02*
X0310050Y0170590D01*
X0310050Y0169392D02*
X0291727Y0169392D01*
X0293521Y0168193D02*
X0310050Y0168193D01*
X0309910Y0166995D02*
X0295314Y0166995D01*
X0296934Y0165796D02*
X0308711Y0165796D01*
X0307513Y0164598D02*
X0298133Y0164598D01*
X0299331Y0163399D02*
X0306314Y0163399D01*
X0305116Y0162201D02*
X0300530Y0162201D01*
X0301728Y0161002D02*
X0304464Y0161002D01*
X0304425Y0159803D02*
X0302543Y0159803D01*
X0303344Y0158605D02*
X0304425Y0158605D01*
X0304425Y0157406D02*
X0304145Y0157406D01*
X0310025Y0157406D02*
X0339523Y0157406D01*
X0339676Y0157376D02*
X0340956Y0157250D01*
X0341000Y0157250D01*
X0341000Y0169750D01*
X0342200Y0169750D01*
X0342200Y0170950D01*
X0354700Y0170950D01*
X0354700Y0170994D01*
X0354574Y0172274D01*
X0354323Y0173537D01*
X0353949Y0174769D01*
X0353457Y0175958D01*
X0352850Y0177093D01*
X0352135Y0178163D01*
X0351318Y0179158D01*
X0350408Y0180068D01*
X0349413Y0180885D01*
X0348343Y0181600D01*
X0347208Y0182207D01*
X0346019Y0182699D01*
X0344787Y0183073D01*
X0343524Y0183324D01*
X0342244Y0183450D01*
X0342200Y0183450D01*
X0342200Y0170950D01*
X0341000Y0170950D01*
X0341000Y0183450D01*
X0340956Y0183450D01*
X0339676Y0183324D01*
X0338413Y0183073D01*
X0337181Y0182699D01*
X0335992Y0182207D01*
X0334857Y0181600D01*
X0333787Y0180885D01*
X0332792Y0180068D01*
X0331882Y0179158D01*
X0331065Y0178163D01*
X0330350Y0177093D01*
X0329743Y0175958D01*
X0329251Y0174769D01*
X0328877Y0173537D01*
X0328626Y0172274D01*
X0328500Y0170994D01*
X0328500Y0170950D01*
X0341000Y0170950D01*
X0341000Y0169750D01*
X0328500Y0169750D01*
X0328500Y0169706D01*
X0328626Y0168426D01*
X0328877Y0167163D01*
X0329251Y0165931D01*
X0329743Y0164742D01*
X0330350Y0163607D01*
X0331065Y0162537D01*
X0331882Y0161542D01*
X0332792Y0160632D01*
X0333787Y0159815D01*
X0334857Y0159100D01*
X0335992Y0158493D01*
X0337181Y0158001D01*
X0338413Y0157627D01*
X0339676Y0157376D01*
X0341000Y0157406D02*
X0342200Y0157406D01*
X0342200Y0157250D02*
X0342244Y0157250D01*
X0343524Y0157376D01*
X0344787Y0157627D01*
X0346019Y0158001D01*
X0347208Y0158493D01*
X0348343Y0159100D01*
X0349413Y0159815D01*
X0350408Y0160632D01*
X0351318Y0161542D01*
X0352135Y0162537D01*
X0352850Y0163607D01*
X0353457Y0164742D01*
X0353949Y0165931D01*
X0354323Y0167163D01*
X0354574Y0168426D01*
X0354700Y0169706D01*
X0354700Y0169750D01*
X0342200Y0169750D01*
X0342200Y0157250D01*
X0342200Y0158605D02*
X0341000Y0158605D01*
X0341000Y0159803D02*
X0342200Y0159803D01*
X0342200Y0161002D02*
X0341000Y0161002D01*
X0341000Y0162201D02*
X0342200Y0162201D01*
X0342200Y0163399D02*
X0341000Y0163399D01*
X0341000Y0164598D02*
X0342200Y0164598D01*
X0342200Y0165796D02*
X0341000Y0165796D01*
X0341000Y0166995D02*
X0342200Y0166995D01*
X0342200Y0168193D02*
X0341000Y0168193D01*
X0341000Y0169392D02*
X0342200Y0169392D01*
X0342200Y0170590D02*
X0357150Y0170590D01*
X0357150Y0169392D02*
X0354669Y0169392D01*
X0354528Y0168193D02*
X0357150Y0168193D01*
X0357150Y0166995D02*
X0354272Y0166995D01*
X0353893Y0165796D02*
X0357150Y0165796D01*
X0357150Y0164598D02*
X0353379Y0164598D01*
X0352711Y0163399D02*
X0357150Y0163399D01*
X0357150Y0162201D02*
X0351859Y0162201D01*
X0350778Y0161002D02*
X0357150Y0161002D01*
X0357150Y0159803D02*
X0349395Y0159803D01*
X0347416Y0158605D02*
X0357150Y0158605D01*
X0357150Y0157406D02*
X0343677Y0157406D01*
X0335784Y0158605D02*
X0310025Y0158605D01*
X0310638Y0159803D02*
X0333805Y0159803D01*
X0332422Y0161002D02*
X0311837Y0161002D01*
X0313035Y0162201D02*
X0331341Y0162201D01*
X0330489Y0163399D02*
X0314234Y0163399D01*
X0315310Y0164598D02*
X0329821Y0164598D01*
X0329307Y0165796D02*
X0315650Y0165796D01*
X0315650Y0166995D02*
X0328928Y0166995D01*
X0328672Y0168193D02*
X0315650Y0168193D01*
X0315650Y0169392D02*
X0328531Y0169392D01*
X0328578Y0171789D02*
X0315650Y0171789D01*
X0315650Y0172987D02*
X0328768Y0172987D01*
X0329074Y0174186D02*
X0315650Y0174186D01*
X0315650Y0175384D02*
X0329506Y0175384D01*
X0330077Y0176583D02*
X0316861Y0176583D01*
X0317739Y0177781D02*
X0330810Y0177781D01*
X0331735Y0178980D02*
X0318236Y0178980D01*
X0318350Y0180178D02*
X0332926Y0180178D01*
X0334523Y0181377D02*
X0318350Y0181377D01*
X0317881Y0182575D02*
X0336882Y0182575D01*
X0341000Y0182575D02*
X0342200Y0182575D01*
X0342200Y0181377D02*
X0341000Y0181377D01*
X0341000Y0180178D02*
X0342200Y0180178D01*
X0342200Y0178980D02*
X0341000Y0178980D01*
X0341000Y0177781D02*
X0342200Y0177781D01*
X0342200Y0176583D02*
X0341000Y0176583D01*
X0341000Y0175384D02*
X0342200Y0175384D01*
X0342200Y0174186D02*
X0341000Y0174186D01*
X0341000Y0172987D02*
X0342200Y0172987D01*
X0342200Y0171789D02*
X0341000Y0171789D01*
X0341000Y0170590D02*
X0315650Y0170590D01*
X0317204Y0183774D02*
X0357150Y0183774D01*
X0357150Y0184972D02*
X0316006Y0184972D01*
X0309694Y0184972D02*
X0306006Y0184972D01*
X0307204Y0183774D02*
X0308496Y0183774D01*
X0299694Y0184972D02*
X0296006Y0184972D01*
X0297204Y0183774D02*
X0298496Y0183774D01*
X0346318Y0182575D02*
X0357150Y0182575D01*
X0357150Y0181377D02*
X0348677Y0181377D01*
X0350274Y0180178D02*
X0357150Y0180178D01*
X0357150Y0178980D02*
X0351465Y0178980D01*
X0352390Y0177781D02*
X0357150Y0177781D01*
X0357150Y0176583D02*
X0353123Y0176583D01*
X0353694Y0175384D02*
X0357150Y0175384D01*
X0357150Y0174186D02*
X0354126Y0174186D01*
X0354432Y0172987D02*
X0357150Y0172987D01*
X0357150Y0171789D02*
X0354622Y0171789D01*
X0357150Y0185900D02*
X0357150Y0121027D01*
X0358124Y0118675D01*
X0358124Y0118675D01*
X0359925Y0116874D01*
X0360350Y0116698D01*
X0360350Y0074002D01*
X0359925Y0073826D01*
X0359925Y0073826D01*
X0358124Y0072025D01*
X0357150Y0069673D01*
X0357150Y0069037D01*
X0357150Y0004800D01*
X0357150Y0001600D02*
X0357262Y0001602D01*
X0357373Y0001608D01*
X0357484Y0001618D01*
X0357595Y0001631D01*
X0357706Y0001649D01*
X0357815Y0001670D01*
X0357924Y0001695D01*
X0358032Y0001724D01*
X0358139Y0001757D01*
X0358244Y0001793D01*
X0358349Y0001833D01*
X0358452Y0001877D01*
X0358553Y0001924D01*
X0358652Y0001975D01*
X0358750Y0002029D01*
X0358846Y0002086D01*
X0358939Y0002147D01*
X0359031Y0002211D01*
X0359120Y0002278D01*
X0359207Y0002349D01*
X0359291Y0002422D01*
X0359373Y0002498D01*
X0359452Y0002577D01*
X0359528Y0002659D01*
X0359601Y0002743D01*
X0359672Y0002830D01*
X0359739Y0002919D01*
X0359803Y0003011D01*
X0359864Y0003104D01*
X0359921Y0003200D01*
X0359975Y0003298D01*
X0360026Y0003397D01*
X0360073Y0003498D01*
X0360117Y0003601D01*
X0360157Y0003706D01*
X0360193Y0003811D01*
X0360226Y0003918D01*
X0360255Y0004026D01*
X0360280Y0004135D01*
X0360301Y0004244D01*
X0360319Y0004355D01*
X0360332Y0004466D01*
X0360342Y0004577D01*
X0360348Y0004688D01*
X0360350Y0004800D01*
X0360350Y0068400D01*
X0360352Y0068512D01*
X0360358Y0068623D01*
X0360368Y0068734D01*
X0360381Y0068845D01*
X0360399Y0068956D01*
X0360420Y0069065D01*
X0360445Y0069174D01*
X0360474Y0069282D01*
X0360507Y0069389D01*
X0360543Y0069494D01*
X0360583Y0069599D01*
X0360627Y0069702D01*
X0360674Y0069803D01*
X0360725Y0069902D01*
X0360779Y0070000D01*
X0360836Y0070096D01*
X0360897Y0070189D01*
X0360961Y0070281D01*
X0361028Y0070370D01*
X0361099Y0070457D01*
X0361172Y0070541D01*
X0361248Y0070623D01*
X0361327Y0070702D01*
X0361409Y0070778D01*
X0361493Y0070851D01*
X0361580Y0070922D01*
X0361669Y0070989D01*
X0361761Y0071053D01*
X0361854Y0071114D01*
X0361950Y0071171D01*
X0362048Y0071225D01*
X0362147Y0071276D01*
X0362248Y0071323D01*
X0362351Y0071367D01*
X0362456Y0071407D01*
X0362561Y0071443D01*
X0362668Y0071476D01*
X0362776Y0071505D01*
X0362885Y0071530D01*
X0362994Y0071551D01*
X0363105Y0071569D01*
X0363216Y0071582D01*
X0363327Y0071592D01*
X0363438Y0071598D01*
X0363550Y0071600D01*
X0391525Y0071600D01*
X0391637Y0071602D01*
X0391748Y0071608D01*
X0391859Y0071618D01*
X0391970Y0071631D01*
X0392081Y0071649D01*
X0392190Y0071670D01*
X0392299Y0071695D01*
X0392407Y0071724D01*
X0392514Y0071757D01*
X0392619Y0071793D01*
X0392724Y0071833D01*
X0392827Y0071877D01*
X0392928Y0071924D01*
X0393027Y0071975D01*
X0393125Y0072029D01*
X0393221Y0072086D01*
X0393314Y0072147D01*
X0393406Y0072211D01*
X0393495Y0072278D01*
X0393582Y0072349D01*
X0393666Y0072422D01*
X0393748Y0072498D01*
X0393827Y0072577D01*
X0393903Y0072659D01*
X0393976Y0072743D01*
X0394047Y0072830D01*
X0394114Y0072919D01*
X0394178Y0073011D01*
X0394239Y0073104D01*
X0394296Y0073200D01*
X0394350Y0073298D01*
X0394401Y0073397D01*
X0394448Y0073498D01*
X0394492Y0073601D01*
X0394532Y0073706D01*
X0394568Y0073811D01*
X0394601Y0073918D01*
X0394630Y0074026D01*
X0394655Y0074135D01*
X0394676Y0074244D01*
X0394694Y0074355D01*
X0394707Y0074466D01*
X0394717Y0074577D01*
X0394723Y0074688D01*
X0394725Y0074800D01*
X0394725Y0115900D01*
X0394723Y0116012D01*
X0394717Y0116123D01*
X0394707Y0116234D01*
X0394694Y0116345D01*
X0394676Y0116456D01*
X0394655Y0116565D01*
X0394630Y0116674D01*
X0394601Y0116782D01*
X0394568Y0116889D01*
X0394532Y0116994D01*
X0394492Y0117099D01*
X0394448Y0117202D01*
X0394401Y0117303D01*
X0394350Y0117402D01*
X0394296Y0117500D01*
X0394239Y0117596D01*
X0394178Y0117689D01*
X0394114Y0117781D01*
X0394047Y0117870D01*
X0393976Y0117957D01*
X0393903Y0118041D01*
X0393827Y0118123D01*
X0393748Y0118202D01*
X0393666Y0118278D01*
X0393582Y0118351D01*
X0393495Y0118422D01*
X0393406Y0118489D01*
X0393314Y0118553D01*
X0393221Y0118614D01*
X0393125Y0118671D01*
X0393027Y0118725D01*
X0392928Y0118776D01*
X0392827Y0118823D01*
X0392724Y0118867D01*
X0392619Y0118907D01*
X0392514Y0118943D01*
X0392407Y0118976D01*
X0392299Y0119005D01*
X0392190Y0119030D01*
X0392081Y0119051D01*
X0391970Y0119069D01*
X0391859Y0119082D01*
X0391748Y0119092D01*
X0391637Y0119098D01*
X0391525Y0119100D01*
X0363550Y0119100D01*
X0360350Y0116657D02*
X0310992Y0116657D01*
X0312190Y0117856D02*
X0358943Y0117856D01*
X0359925Y0116874D02*
X0359925Y0116874D01*
X0360350Y0115459D02*
X0309793Y0115459D01*
X0308595Y0114260D02*
X0360350Y0114260D01*
X0360350Y0113062D02*
X0307396Y0113062D01*
X0306198Y0111863D02*
X0360350Y0111863D01*
X0360350Y0110665D02*
X0304999Y0110665D01*
X0303801Y0109466D02*
X0360350Y0109466D01*
X0360350Y0108268D02*
X0302602Y0108268D01*
X0301404Y0107069D02*
X0360350Y0107069D01*
X0360350Y0105870D02*
X0300205Y0105870D01*
X0299007Y0104672D02*
X0360350Y0104672D01*
X0360350Y0103473D02*
X0297808Y0103473D01*
X0296610Y0102275D02*
X0360350Y0102275D01*
X0360350Y0101076D02*
X0295411Y0101076D01*
X0294213Y0099878D02*
X0305645Y0099878D01*
X0304894Y0098679D02*
X0293014Y0098679D01*
X0291816Y0097481D02*
X0304894Y0097481D01*
X0304894Y0096282D02*
X0300525Y0096282D01*
X0295175Y0096282D02*
X0290617Y0096282D01*
X0290774Y0093885D02*
X0294269Y0093885D01*
X0294269Y0092687D02*
X0291973Y0092687D01*
X0293171Y0091488D02*
X0294269Y0091488D01*
X0294269Y0095084D02*
X0249942Y0095084D01*
X0250806Y0096282D02*
X0255458Y0096282D01*
X0254259Y0097481D02*
X0250806Y0097481D01*
X0250806Y0098679D02*
X0253061Y0098679D01*
X0251862Y0099878D02*
X0250806Y0099878D01*
X0250132Y0089091D02*
X0208150Y0089091D01*
X0208150Y0087893D02*
X0248933Y0087893D01*
X0247735Y0086694D02*
X0208150Y0086694D01*
X0208150Y0085496D02*
X0246536Y0085496D01*
X0245337Y0084297D02*
X0208150Y0084297D01*
X0208150Y0083099D02*
X0244139Y0083099D01*
X0242940Y0081900D02*
X0208150Y0081900D01*
X0208150Y0080702D02*
X0241742Y0080702D01*
X0240543Y0079503D02*
X0208150Y0079503D01*
X0208150Y0078305D02*
X0239345Y0078305D01*
X0238146Y0077106D02*
X0208150Y0077106D01*
X0208150Y0075908D02*
X0236948Y0075908D01*
X0235749Y0074709D02*
X0208150Y0074709D01*
X0208150Y0073511D02*
X0234551Y0073511D01*
X0233352Y0072312D02*
X0208150Y0072312D01*
X0208150Y0071114D02*
X0232154Y0071114D01*
X0230955Y0069915D02*
X0208150Y0069915D01*
X0208150Y0068717D02*
X0229757Y0068717D01*
X0228558Y0067518D02*
X0208150Y0067518D01*
X0208150Y0066320D02*
X0227360Y0066320D01*
X0233600Y0063923D02*
X0237266Y0063923D01*
X0236938Y0062724D02*
X0233600Y0062724D01*
X0233600Y0061526D02*
X0236643Y0061526D01*
X0236406Y0060327D02*
X0233600Y0060327D01*
X0233600Y0059129D02*
X0236186Y0059129D01*
X0236036Y0057930D02*
X0233600Y0057930D01*
X0233600Y0056732D02*
X0235896Y0056732D01*
X0235824Y0055533D02*
X0233600Y0055533D01*
X0233600Y0054334D02*
X0235767Y0054334D01*
X0235767Y0052875D02*
X0235767Y0052356D01*
X0235902Y0050122D01*
X0236172Y0047900D01*
X0236575Y0045699D01*
X0237111Y0043526D01*
X0237777Y0041389D01*
X0238570Y0039297D01*
X0239489Y0037256D01*
X0240529Y0035274D01*
X0241687Y0033359D01*
X0242958Y0031517D01*
X0244338Y0029755D01*
X0245822Y0028080D01*
X0247405Y0026497D01*
X0249080Y0025013D01*
X0250842Y0023633D01*
X0252684Y0022362D01*
X0254599Y0021204D01*
X0256581Y0020164D01*
X0258622Y0019245D01*
X0260714Y0018452D01*
X0262851Y0017786D01*
X0265024Y0017250D01*
X0267225Y0016847D01*
X0269447Y0016577D01*
X0271681Y0016442D01*
X0272200Y0016442D01*
X0272200Y0052875D01*
X0235767Y0052875D01*
X0235792Y0051937D02*
X0233600Y0051937D01*
X0233600Y0050739D02*
X0235865Y0050739D01*
X0235973Y0049540D02*
X0233600Y0049540D01*
X0233600Y0048342D02*
X0236118Y0048342D01*
X0236311Y0047143D02*
X0233600Y0047143D01*
X0233600Y0045945D02*
X0236530Y0045945D01*
X0236810Y0044746D02*
X0233600Y0044746D01*
X0233600Y0043548D02*
X0237105Y0043548D01*
X0237477Y0042349D02*
X0233220Y0042349D01*
X0237867Y0041151D02*
X0218509Y0041151D01*
X0219707Y0039952D02*
X0238322Y0039952D01*
X0238815Y0038754D02*
X0223054Y0038754D01*
X0223931Y0037555D02*
X0239354Y0037555D01*
X0239961Y0036357D02*
X0223931Y0036357D01*
X0223931Y0035158D02*
X0240599Y0035158D01*
X0241323Y0033960D02*
X0223931Y0033960D01*
X0223869Y0032761D02*
X0242099Y0032761D01*
X0242926Y0031563D02*
X0210898Y0031563D01*
X0210843Y0031600D02*
X0209708Y0032207D01*
X0208519Y0032699D01*
X0207287Y0033073D01*
X0206024Y0033324D01*
X0204744Y0033450D01*
X0204700Y0033450D01*
X0204700Y0020950D01*
X0217200Y0020950D01*
X0217200Y0020994D01*
X0217074Y0022274D01*
X0216823Y0023537D01*
X0216449Y0024769D01*
X0215957Y0025958D01*
X0215350Y0027093D01*
X0214635Y0028163D01*
X0213818Y0029158D01*
X0212908Y0030068D01*
X0211913Y0030885D01*
X0210843Y0031600D01*
X0212547Y0030364D02*
X0243861Y0030364D01*
X0244860Y0029166D02*
X0213810Y0029166D01*
X0214766Y0027967D02*
X0245935Y0027967D01*
X0247134Y0026769D02*
X0215523Y0026769D01*
X0216117Y0025570D02*
X0248451Y0025570D01*
X0249899Y0024372D02*
X0216569Y0024372D01*
X0216895Y0023173D02*
X0251508Y0023173D01*
X0253324Y0021975D02*
X0217103Y0021975D01*
X0217200Y0019750D02*
X0204700Y0019750D01*
X0204700Y0020950D01*
X0203500Y0020950D01*
X0203500Y0033450D01*
X0203456Y0033450D01*
X0202176Y0033324D01*
X0200913Y0033073D01*
X0199681Y0032699D01*
X0198492Y0032207D01*
X0197357Y0031600D01*
X0196287Y0030885D01*
X0195292Y0030068D01*
X0194382Y0029158D01*
X0193565Y0028163D01*
X0192850Y0027093D01*
X0192243Y0025958D01*
X0191751Y0024769D01*
X0191377Y0023537D01*
X0191126Y0022274D01*
X0191000Y0020994D01*
X0191000Y0020950D01*
X0203500Y0020950D01*
X0203500Y0019750D01*
X0204700Y0019750D01*
X0204700Y0007250D01*
X0204744Y0007250D01*
X0206024Y0007376D01*
X0207287Y0007627D01*
X0208519Y0008001D01*
X0209708Y0008493D01*
X0210843Y0009100D01*
X0211913Y0009815D01*
X0212908Y0010632D01*
X0213818Y0011542D01*
X0214635Y0012537D01*
X0215350Y0013607D01*
X0215957Y0014742D01*
X0216449Y0015931D01*
X0216823Y0017163D01*
X0217074Y0018426D01*
X0217200Y0019706D01*
X0217200Y0019750D01*
X0217187Y0019578D02*
X0257883Y0019578D01*
X0255414Y0020776D02*
X0204700Y0020776D01*
X0204700Y0019578D02*
X0203500Y0019578D01*
X0203500Y0019750D02*
X0203500Y0007250D01*
X0203456Y0007250D01*
X0202176Y0007376D01*
X0200913Y0007627D01*
X0199681Y0008001D01*
X0198492Y0008493D01*
X0197357Y0009100D01*
X0196287Y0009815D01*
X0195292Y0010632D01*
X0194382Y0011542D01*
X0193565Y0012537D01*
X0192850Y0013607D01*
X0192243Y0014742D01*
X0191751Y0015931D01*
X0191377Y0017163D01*
X0191126Y0018426D01*
X0191000Y0019706D01*
X0191000Y0019750D01*
X0203500Y0019750D01*
X0203500Y0020776D02*
X0188550Y0020776D01*
X0188550Y0019578D02*
X0191013Y0019578D01*
X0191135Y0018379D02*
X0188550Y0018379D01*
X0188550Y0017181D02*
X0191374Y0017181D01*
X0191736Y0015982D02*
X0188550Y0015982D01*
X0188550Y0014784D02*
X0192226Y0014784D01*
X0192865Y0013585D02*
X0188550Y0013585D01*
X0188550Y0012387D02*
X0193689Y0012387D01*
X0194736Y0011188D02*
X0188550Y0011188D01*
X0188550Y0009990D02*
X0196075Y0009990D01*
X0197935Y0008791D02*
X0188550Y0008791D01*
X0188550Y0007593D02*
X0201088Y0007593D01*
X0203500Y0007593D02*
X0204700Y0007593D01*
X0204700Y0008791D02*
X0203500Y0008791D01*
X0203500Y0009990D02*
X0204700Y0009990D01*
X0204700Y0011188D02*
X0203500Y0011188D01*
X0203500Y0012387D02*
X0204700Y0012387D01*
X0204700Y0013585D02*
X0203500Y0013585D01*
X0203500Y0014784D02*
X0204700Y0014784D01*
X0204700Y0015982D02*
X0203500Y0015982D01*
X0203500Y0017181D02*
X0204700Y0017181D01*
X0204700Y0018379D02*
X0203500Y0018379D01*
X0203500Y0021975D02*
X0204700Y0021975D01*
X0204700Y0023173D02*
X0203500Y0023173D01*
X0203500Y0024372D02*
X0204700Y0024372D01*
X0204700Y0025570D02*
X0203500Y0025570D01*
X0203500Y0026769D02*
X0204700Y0026769D01*
X0204700Y0027967D02*
X0203500Y0027967D01*
X0203500Y0029166D02*
X0204700Y0029166D01*
X0204700Y0030364D02*
X0203500Y0030364D01*
X0203500Y0031563D02*
X0204700Y0031563D01*
X0204700Y0032761D02*
X0203500Y0032761D01*
X0199886Y0032761D02*
X0188550Y0032761D01*
X0188550Y0031563D02*
X0197302Y0031563D01*
X0195653Y0030364D02*
X0188550Y0030364D01*
X0188550Y0029166D02*
X0194390Y0029166D01*
X0193434Y0027967D02*
X0188550Y0027967D01*
X0188550Y0026769D02*
X0192677Y0026769D01*
X0192083Y0025570D02*
X0188550Y0025570D01*
X0188550Y0024372D02*
X0191631Y0024372D01*
X0191305Y0023173D02*
X0188550Y0023173D01*
X0188550Y0021975D02*
X0191097Y0021975D01*
X0188550Y0033960D02*
X0216769Y0033960D01*
X0216831Y0032761D02*
X0208314Y0032761D01*
X0208406Y0036357D02*
X0188550Y0036357D01*
X0188550Y0037555D02*
X0206685Y0037555D01*
X0205486Y0038754D02*
X0188550Y0038754D01*
X0188550Y0039952D02*
X0204288Y0039952D01*
X0203089Y0041151D02*
X0188550Y0041151D01*
X0188550Y0042349D02*
X0202550Y0042349D01*
X0202550Y0043548D02*
X0188550Y0043548D01*
X0188550Y0044746D02*
X0202550Y0044746D01*
X0202550Y0045945D02*
X0188550Y0045945D01*
X0188550Y0047143D02*
X0202550Y0047143D01*
X0202550Y0048342D02*
X0188550Y0048342D01*
X0188550Y0049540D02*
X0202550Y0049540D01*
X0202550Y0050739D02*
X0188550Y0050739D01*
X0188550Y0051937D02*
X0202550Y0051937D01*
X0202550Y0053136D02*
X0188550Y0053136D01*
X0188550Y0054334D02*
X0202550Y0054334D01*
X0202550Y0055533D02*
X0188550Y0055533D01*
X0188550Y0056732D02*
X0202550Y0056732D01*
X0202550Y0057930D02*
X0188550Y0057930D01*
X0188550Y0059129D02*
X0202550Y0059129D01*
X0202550Y0060327D02*
X0188550Y0060327D01*
X0188550Y0061526D02*
X0202550Y0061526D01*
X0202550Y0062724D02*
X0188550Y0062724D01*
X0188550Y0063923D02*
X0202550Y0063923D01*
X0202550Y0065121D02*
X0188550Y0065121D01*
X0188550Y0066320D02*
X0202550Y0066320D01*
X0202550Y0067518D02*
X0188550Y0067518D01*
X0188550Y0068717D02*
X0202550Y0068717D01*
X0202550Y0069915D02*
X0188550Y0069915D01*
X0188550Y0071114D02*
X0202550Y0071114D01*
X0202550Y0072312D02*
X0188550Y0072312D01*
X0188550Y0073511D02*
X0202550Y0073511D01*
X0202550Y0074709D02*
X0188550Y0074709D01*
X0188550Y0075908D02*
X0202550Y0075908D01*
X0202550Y0077106D02*
X0188550Y0077106D01*
X0188550Y0078305D02*
X0202550Y0078305D01*
X0202550Y0079503D02*
X0188550Y0079503D01*
X0188550Y0080702D02*
X0202550Y0080702D01*
X0202550Y0081900D02*
X0188404Y0081900D01*
X0187908Y0083099D02*
X0202550Y0083099D01*
X0202550Y0084297D02*
X0187179Y0084297D01*
X0208150Y0090290D02*
X0222700Y0090290D01*
X0222351Y0090639D02*
X0222351Y0090639D01*
X0221502Y0091488D02*
X0208150Y0091488D01*
X0208150Y0092687D02*
X0220303Y0092687D01*
X0219105Y0093885D02*
X0208150Y0093885D01*
X0208150Y0095084D02*
X0217906Y0095084D01*
X0216708Y0096282D02*
X0208150Y0096282D01*
X0208016Y0097481D02*
X0215509Y0097481D01*
X0214311Y0098679D02*
X0207230Y0098679D01*
X0206032Y0099878D02*
X0213112Y0099878D01*
X0211914Y0101076D02*
X0204833Y0101076D01*
X0203635Y0102275D02*
X0210715Y0102275D01*
X0209517Y0103473D02*
X0202436Y0103473D01*
X0202724Y0103186D02*
X0202724Y0103186D01*
X0240073Y0071114D02*
X0240234Y0071114D01*
X0239605Y0069915D02*
X0238875Y0069915D01*
X0239049Y0068717D02*
X0237676Y0068717D01*
X0238519Y0067518D02*
X0236478Y0067518D01*
X0235279Y0066320D02*
X0238064Y0066320D01*
X0237640Y0065121D02*
X0234081Y0065121D01*
X0210901Y0065121D02*
X0208150Y0065121D01*
X0208150Y0063923D02*
X0210000Y0063923D01*
X0210000Y0062724D02*
X0208150Y0062724D01*
X0208150Y0061526D02*
X0210000Y0061526D01*
X0210000Y0060327D02*
X0208150Y0060327D01*
X0208150Y0059129D02*
X0210000Y0059129D01*
X0210000Y0057930D02*
X0208150Y0057930D01*
X0208150Y0056732D02*
X0210000Y0056732D01*
X0210000Y0055533D02*
X0208150Y0055533D01*
X0208150Y0054334D02*
X0210000Y0054334D01*
X0210000Y0053136D02*
X0208150Y0053136D01*
X0208150Y0051937D02*
X0210000Y0051937D01*
X0210000Y0050739D02*
X0208150Y0050739D01*
X0208150Y0049540D02*
X0210000Y0049540D01*
X0210000Y0048342D02*
X0208150Y0048342D01*
X0208150Y0047143D02*
X0210000Y0047143D01*
X0210000Y0045945D02*
X0208150Y0045945D01*
X0208150Y0044746D02*
X0210000Y0044746D01*
X0210000Y0043548D02*
X0208612Y0043548D01*
X0209810Y0042349D02*
X0210380Y0042349D01*
X0216582Y0035158D02*
X0188550Y0035158D01*
X0217065Y0018379D02*
X0260947Y0018379D01*
X0261756Y0015850D02*
X0259734Y0015013D01*
X0258187Y0013465D01*
X0257850Y0012651D01*
X0257513Y0013465D01*
X0255965Y0015013D01*
X0253944Y0015850D01*
X0251756Y0015850D01*
X0249734Y0015013D01*
X0248187Y0013465D01*
X0247749Y0012408D01*
X0247383Y0013128D01*
X0246893Y0013803D01*
X0246303Y0014393D01*
X0245628Y0014883D01*
X0244884Y0015262D01*
X0244091Y0015519D01*
X0243267Y0015650D01*
X0243250Y0015650D01*
X0243250Y0010750D01*
X0242450Y0010750D01*
X0242450Y0015650D01*
X0242433Y0015650D01*
X0241609Y0015519D01*
X0240816Y0015262D01*
X0240072Y0014883D01*
X0239397Y0014393D01*
X0238807Y0013803D01*
X0238317Y0013128D01*
X0237951Y0012408D01*
X0237513Y0013465D01*
X0235965Y0015013D01*
X0233944Y0015850D01*
X0231756Y0015850D01*
X0229734Y0015013D01*
X0228187Y0013465D01*
X0227350Y0011444D01*
X0227350Y0009256D01*
X0228187Y0007234D01*
X0229734Y0005687D01*
X0231756Y0004850D01*
X0233944Y0004850D01*
X0235965Y0005687D01*
X0237513Y0007234D01*
X0237951Y0008292D01*
X0238317Y0007572D01*
X0238807Y0006897D01*
X0239397Y0006307D01*
X0240072Y0005817D01*
X0240816Y0005438D01*
X0241609Y0005180D01*
X0242433Y0005050D01*
X0242450Y0005050D01*
X0242450Y0009950D01*
X0243250Y0009950D01*
X0243250Y0005050D01*
X0243267Y0005050D01*
X0244091Y0005180D01*
X0244884Y0005438D01*
X0245628Y0005817D01*
X0246303Y0006307D01*
X0246893Y0006897D01*
X0247383Y0007572D01*
X0247749Y0008292D01*
X0248187Y0007234D01*
X0249734Y0005687D01*
X0251756Y0004850D01*
X0253944Y0004850D01*
X0255965Y0005687D01*
X0257513Y0007234D01*
X0257850Y0008049D01*
X0258187Y0007234D01*
X0259734Y0005687D01*
X0261756Y0004850D01*
X0263944Y0004850D01*
X0265965Y0005687D01*
X0267513Y0007234D01*
X0267850Y0008049D01*
X0268187Y0007234D01*
X0269734Y0005687D01*
X0271756Y0004850D01*
X0273944Y0004850D01*
X0275965Y0005687D01*
X0277513Y0007234D01*
X0277850Y0008049D01*
X0278187Y0007234D01*
X0279734Y0005687D01*
X0281756Y0004850D01*
X0283944Y0004850D01*
X0285965Y0005687D01*
X0287513Y0007234D01*
X0287850Y0008049D01*
X0288187Y0007234D01*
X0289734Y0005687D01*
X0291756Y0004850D01*
X0293944Y0004850D01*
X0295965Y0005687D01*
X0297513Y0007234D01*
X0297850Y0008049D01*
X0298187Y0007234D01*
X0299734Y0005687D01*
X0301756Y0004850D01*
X0303944Y0004850D01*
X0305965Y0005687D01*
X0307513Y0007234D01*
X0307951Y0008292D01*
X0308317Y0007572D01*
X0308807Y0006897D01*
X0309397Y0006307D01*
X0310072Y0005817D01*
X0310816Y0005438D01*
X0311609Y0005180D01*
X0312433Y0005050D01*
X0312450Y0005050D01*
X0312450Y0009950D01*
X0313250Y0009950D01*
X0313250Y0010750D01*
X0312450Y0010750D01*
X0312450Y0015650D01*
X0312433Y0015650D01*
X0311609Y0015519D01*
X0310816Y0015262D01*
X0310072Y0014883D01*
X0309397Y0014393D01*
X0308807Y0013803D01*
X0308317Y0013128D01*
X0307951Y0012408D01*
X0307513Y0013465D01*
X0305965Y0015013D01*
X0303944Y0015850D01*
X0301756Y0015850D01*
X0299734Y0015013D01*
X0298187Y0013465D01*
X0297850Y0012651D01*
X0297513Y0013465D01*
X0295965Y0015013D01*
X0293944Y0015850D01*
X0291756Y0015850D01*
X0289734Y0015013D01*
X0288187Y0013465D01*
X0287850Y0012651D01*
X0287513Y0013465D01*
X0285965Y0015013D01*
X0283944Y0015850D01*
X0281756Y0015850D01*
X0279734Y0015013D01*
X0278187Y0013465D01*
X0277850Y0012651D01*
X0277513Y0013465D01*
X0275965Y0015013D01*
X0273944Y0015850D01*
X0271756Y0015850D01*
X0269734Y0015013D01*
X0268187Y0013465D01*
X0267850Y0012651D01*
X0267513Y0013465D01*
X0265965Y0015013D01*
X0263944Y0015850D01*
X0261756Y0015850D01*
X0259505Y0014784D02*
X0256195Y0014784D01*
X0257393Y0013585D02*
X0258307Y0013585D01*
X0265404Y0017181D02*
X0216826Y0017181D01*
X0216464Y0015982D02*
X0329236Y0015982D01*
X0329251Y0015931D02*
X0329743Y0014742D01*
X0330350Y0013607D01*
X0331065Y0012537D01*
X0331882Y0011542D01*
X0332792Y0010632D01*
X0333787Y0009815D01*
X0334857Y0009100D01*
X0335992Y0008493D01*
X0337181Y0008001D01*
X0338413Y0007627D01*
X0339676Y0007376D01*
X0340956Y0007250D01*
X0341000Y0007250D01*
X0341000Y0019750D01*
X0342200Y0019750D01*
X0342200Y0020950D01*
X0354700Y0020950D01*
X0354700Y0020994D01*
X0354574Y0022274D01*
X0354323Y0023537D01*
X0353949Y0024769D01*
X0353457Y0025958D01*
X0352850Y0027093D01*
X0352135Y0028163D01*
X0351318Y0029158D01*
X0350408Y0030068D01*
X0349413Y0030885D01*
X0348343Y0031600D01*
X0347208Y0032207D01*
X0346019Y0032699D01*
X0344787Y0033073D01*
X0343524Y0033324D01*
X0342244Y0033450D01*
X0342200Y0033450D01*
X0342200Y0020950D01*
X0341000Y0020950D01*
X0341000Y0033450D01*
X0340956Y0033450D01*
X0339676Y0033324D01*
X0338413Y0033073D01*
X0337181Y0032699D01*
X0335992Y0032207D01*
X0334857Y0031600D01*
X0333787Y0030885D01*
X0332792Y0030068D01*
X0331882Y0029158D01*
X0331065Y0028163D01*
X0330350Y0027093D01*
X0329743Y0025958D01*
X0329251Y0024769D01*
X0328877Y0023537D01*
X0328626Y0022274D01*
X0328500Y0020994D01*
X0328500Y0020950D01*
X0341000Y0020950D01*
X0341000Y0019750D01*
X0328500Y0019750D01*
X0328500Y0019706D01*
X0328626Y0018426D01*
X0328877Y0017163D01*
X0329251Y0015931D01*
X0329726Y0014784D02*
X0315765Y0014784D01*
X0315628Y0014883D02*
X0314884Y0015262D01*
X0314091Y0015519D01*
X0313267Y0015650D01*
X0313250Y0015650D01*
X0313250Y0010750D01*
X0318150Y0010750D01*
X0318150Y0010767D01*
X0318019Y0011591D01*
X0317762Y0012384D01*
X0317383Y0013128D01*
X0316893Y0013803D01*
X0316303Y0014393D01*
X0315628Y0014883D01*
X0317051Y0013585D02*
X0330365Y0013585D01*
X0331189Y0012387D02*
X0317761Y0012387D01*
X0318083Y0011188D02*
X0332236Y0011188D01*
X0333575Y0009990D02*
X0313250Y0009990D01*
X0313250Y0009950D02*
X0318150Y0009950D01*
X0318150Y0009933D01*
X0318019Y0009109D01*
X0317762Y0008316D01*
X0317383Y0007572D01*
X0316893Y0006897D01*
X0316303Y0006307D01*
X0315628Y0005817D01*
X0314884Y0005438D01*
X0314091Y0005180D01*
X0313267Y0005050D01*
X0313250Y0005050D01*
X0313250Y0009950D01*
X0313250Y0008791D02*
X0312450Y0008791D01*
X0312450Y0007593D02*
X0313250Y0007593D01*
X0313250Y0006394D02*
X0312450Y0006394D01*
X0312450Y0005196D02*
X0313250Y0005196D01*
X0314137Y0005196D02*
X0357150Y0005196D01*
X0357150Y0004800D02*
X0188550Y0004800D01*
X0185350Y0004800D02*
X0185352Y0004688D01*
X0185358Y0004577D01*
X0185368Y0004466D01*
X0185381Y0004355D01*
X0185399Y0004244D01*
X0185420Y0004135D01*
X0185445Y0004026D01*
X0185474Y0003918D01*
X0185507Y0003811D01*
X0185543Y0003706D01*
X0185583Y0003601D01*
X0185627Y0003498D01*
X0185674Y0003397D01*
X0185725Y0003298D01*
X0185779Y0003200D01*
X0185836Y0003104D01*
X0185897Y0003011D01*
X0185961Y0002919D01*
X0186028Y0002830D01*
X0186099Y0002743D01*
X0186172Y0002659D01*
X0186248Y0002577D01*
X0186327Y0002498D01*
X0186409Y0002422D01*
X0186493Y0002349D01*
X0186580Y0002278D01*
X0186669Y0002211D01*
X0186761Y0002147D01*
X0186854Y0002086D01*
X0186950Y0002029D01*
X0187048Y0001975D01*
X0187147Y0001924D01*
X0187248Y0001877D01*
X0187351Y0001833D01*
X0187456Y0001793D01*
X0187561Y0001757D01*
X0187668Y0001724D01*
X0187776Y0001695D01*
X0187885Y0001670D01*
X0187994Y0001649D01*
X0188105Y0001631D01*
X0188216Y0001618D01*
X0188327Y0001608D01*
X0188438Y0001602D01*
X0188550Y0001600D01*
X0357150Y0001600D01*
X0357150Y0006394D02*
X0316389Y0006394D01*
X0317393Y0007593D02*
X0338588Y0007593D01*
X0341000Y0007593D02*
X0342200Y0007593D01*
X0342200Y0007250D02*
X0342244Y0007250D01*
X0343524Y0007376D01*
X0344787Y0007627D01*
X0346019Y0008001D01*
X0347208Y0008493D01*
X0348343Y0009100D01*
X0349413Y0009815D01*
X0350408Y0010632D01*
X0351318Y0011542D01*
X0352135Y0012537D01*
X0352850Y0013607D01*
X0353457Y0014742D01*
X0353949Y0015931D01*
X0354323Y0017163D01*
X0354574Y0018426D01*
X0354700Y0019706D01*
X0354700Y0019750D01*
X0342200Y0019750D01*
X0342200Y0007250D01*
X0342200Y0008791D02*
X0341000Y0008791D01*
X0341000Y0009990D02*
X0342200Y0009990D01*
X0342200Y0011188D02*
X0341000Y0011188D01*
X0341000Y0012387D02*
X0342200Y0012387D01*
X0342200Y0013585D02*
X0341000Y0013585D01*
X0341000Y0014784D02*
X0342200Y0014784D01*
X0342200Y0015982D02*
X0341000Y0015982D01*
X0341000Y0017181D02*
X0342200Y0017181D01*
X0342200Y0018379D02*
X0341000Y0018379D01*
X0341000Y0019578D02*
X0342200Y0019578D01*
X0342200Y0020776D02*
X0357150Y0020776D01*
X0357150Y0019578D02*
X0354687Y0019578D01*
X0354565Y0018379D02*
X0357150Y0018379D01*
X0357150Y0017181D02*
X0354326Y0017181D01*
X0353964Y0015982D02*
X0357150Y0015982D01*
X0357150Y0014784D02*
X0353474Y0014784D01*
X0352835Y0013585D02*
X0357150Y0013585D01*
X0357150Y0012387D02*
X0352011Y0012387D01*
X0350964Y0011188D02*
X0357150Y0011188D01*
X0357150Y0009990D02*
X0349625Y0009990D01*
X0347765Y0008791D02*
X0357150Y0008791D01*
X0357150Y0007593D02*
X0344612Y0007593D01*
X0335435Y0008791D02*
X0317916Y0008791D01*
X0313250Y0011188D02*
X0312450Y0011188D01*
X0312450Y0012387D02*
X0313250Y0012387D01*
X0313250Y0013585D02*
X0312450Y0013585D01*
X0312450Y0014784D02*
X0313250Y0014784D01*
X0309935Y0014784D02*
X0306195Y0014784D01*
X0307393Y0013585D02*
X0308649Y0013585D01*
X0299505Y0014784D02*
X0296195Y0014784D01*
X0297393Y0013585D02*
X0298307Y0013585D01*
X0289505Y0014784D02*
X0286195Y0014784D01*
X0287393Y0013585D02*
X0288307Y0013585D01*
X0286978Y0019245D02*
X0284886Y0018452D01*
X0282749Y0017786D01*
X0280576Y0017250D01*
X0278375Y0016847D01*
X0276153Y0016577D01*
X0273919Y0016442D01*
X0273400Y0016442D01*
X0273400Y0052875D01*
X0309833Y0052875D01*
X0309833Y0052356D01*
X0309698Y0050122D01*
X0309428Y0047900D01*
X0309025Y0045699D01*
X0308489Y0043526D01*
X0307823Y0041389D01*
X0307030Y0039297D01*
X0306111Y0037256D01*
X0305071Y0035274D01*
X0303913Y0033359D01*
X0302642Y0031517D01*
X0301262Y0029755D01*
X0299778Y0028080D01*
X0298195Y0026497D01*
X0296520Y0025013D01*
X0294758Y0023633D01*
X0292916Y0022362D01*
X0291001Y0021204D01*
X0289019Y0020164D01*
X0286978Y0019245D01*
X0287717Y0019578D02*
X0328513Y0019578D01*
X0328635Y0018379D02*
X0284653Y0018379D01*
X0280196Y0017181D02*
X0328874Y0017181D01*
X0328597Y0021975D02*
X0292276Y0021975D01*
X0294092Y0023173D02*
X0328805Y0023173D01*
X0329131Y0024372D02*
X0295701Y0024372D01*
X0297148Y0025570D02*
X0329583Y0025570D01*
X0330177Y0026769D02*
X0298466Y0026769D01*
X0299665Y0027967D02*
X0330934Y0027967D01*
X0331890Y0029166D02*
X0300740Y0029166D01*
X0301739Y0030364D02*
X0333153Y0030364D01*
X0334802Y0031563D02*
X0302674Y0031563D01*
X0303501Y0032761D02*
X0337386Y0032761D01*
X0341000Y0032761D02*
X0342200Y0032761D01*
X0342200Y0031563D02*
X0341000Y0031563D01*
X0341000Y0030364D02*
X0342200Y0030364D01*
X0342200Y0029166D02*
X0341000Y0029166D01*
X0341000Y0027967D02*
X0342200Y0027967D01*
X0342200Y0026769D02*
X0341000Y0026769D01*
X0341000Y0025570D02*
X0342200Y0025570D01*
X0342200Y0024372D02*
X0341000Y0024372D01*
X0341000Y0023173D02*
X0342200Y0023173D01*
X0342200Y0021975D02*
X0341000Y0021975D01*
X0341000Y0020776D02*
X0290186Y0020776D01*
X0279505Y0014784D02*
X0276195Y0014784D01*
X0277393Y0013585D02*
X0278307Y0013585D01*
X0273400Y0017181D02*
X0272200Y0017181D01*
X0272200Y0018379D02*
X0273400Y0018379D01*
X0273400Y0019578D02*
X0272200Y0019578D01*
X0272200Y0020776D02*
X0273400Y0020776D01*
X0273400Y0021975D02*
X0272200Y0021975D01*
X0272200Y0023173D02*
X0273400Y0023173D01*
X0273400Y0024372D02*
X0272200Y0024372D01*
X0272200Y0025570D02*
X0273400Y0025570D01*
X0273400Y0026769D02*
X0272200Y0026769D01*
X0272200Y0027967D02*
X0273400Y0027967D01*
X0273400Y0029166D02*
X0272200Y0029166D01*
X0272200Y0030364D02*
X0273400Y0030364D01*
X0273400Y0031563D02*
X0272200Y0031563D01*
X0272200Y0032761D02*
X0273400Y0032761D01*
X0273400Y0033960D02*
X0272200Y0033960D01*
X0272200Y0035158D02*
X0273400Y0035158D01*
X0273400Y0036357D02*
X0272200Y0036357D01*
X0272200Y0037555D02*
X0273400Y0037555D01*
X0273400Y0038754D02*
X0272200Y0038754D01*
X0272200Y0039952D02*
X0273400Y0039952D01*
X0273400Y0041151D02*
X0272200Y0041151D01*
X0272200Y0042349D02*
X0273400Y0042349D01*
X0273400Y0043548D02*
X0272200Y0043548D01*
X0272200Y0044746D02*
X0273400Y0044746D01*
X0273400Y0045945D02*
X0272200Y0045945D01*
X0272200Y0047143D02*
X0273400Y0047143D01*
X0273400Y0048342D02*
X0272200Y0048342D01*
X0272200Y0049540D02*
X0273400Y0049540D01*
X0273400Y0050739D02*
X0272200Y0050739D01*
X0272850Y0051600D02*
X0267850Y0046600D01*
X0272200Y0051937D02*
X0273400Y0051937D01*
X0272850Y0051600D02*
X0272850Y0077850D01*
X0273400Y0078305D02*
X0272200Y0078305D01*
X0272200Y0079503D02*
X0273400Y0079503D01*
X0273400Y0080702D02*
X0272200Y0080702D01*
X0272200Y0081900D02*
X0273400Y0081900D01*
X0273400Y0083099D02*
X0272200Y0083099D01*
X0272200Y0084297D02*
X0273400Y0084297D01*
X0273400Y0085496D02*
X0272200Y0085496D01*
X0272200Y0086694D02*
X0273400Y0086694D01*
X0273400Y0087893D02*
X0272200Y0087893D01*
X0272200Y0089091D02*
X0273400Y0089091D01*
X0273400Y0077106D02*
X0272200Y0077106D01*
X0272200Y0075908D02*
X0273400Y0075908D01*
X0273400Y0074709D02*
X0272200Y0074709D01*
X0272200Y0073511D02*
X0273400Y0073511D01*
X0273400Y0072312D02*
X0272200Y0072312D01*
X0272200Y0071114D02*
X0273400Y0071114D01*
X0273400Y0069915D02*
X0272200Y0069915D01*
X0272200Y0068717D02*
X0273400Y0068717D01*
X0273400Y0067518D02*
X0272200Y0067518D01*
X0272200Y0066320D02*
X0273400Y0066320D01*
X0273400Y0065121D02*
X0272200Y0065121D01*
X0272200Y0063923D02*
X0273400Y0063923D01*
X0273400Y0062724D02*
X0272200Y0062724D01*
X0272200Y0061526D02*
X0273400Y0061526D01*
X0273400Y0060327D02*
X0272200Y0060327D01*
X0272200Y0059129D02*
X0273400Y0059129D01*
X0273400Y0057930D02*
X0272200Y0057930D01*
X0272200Y0056732D02*
X0273400Y0056732D01*
X0273400Y0055533D02*
X0272200Y0055533D01*
X0272200Y0054334D02*
X0273400Y0054334D01*
X0273400Y0053136D02*
X0312000Y0053136D01*
X0312000Y0054334D02*
X0309833Y0054334D01*
X0309776Y0055533D02*
X0312000Y0055533D01*
X0312000Y0056732D02*
X0309704Y0056732D01*
X0309564Y0057930D02*
X0312000Y0057930D01*
X0312000Y0059129D02*
X0309414Y0059129D01*
X0309194Y0060327D02*
X0312000Y0060327D01*
X0312000Y0061526D02*
X0308957Y0061526D01*
X0308662Y0062724D02*
X0312000Y0062724D01*
X0312000Y0063923D02*
X0308334Y0063923D01*
X0307960Y0065121D02*
X0311619Y0065121D01*
X0310421Y0066320D02*
X0307536Y0066320D01*
X0307081Y0067518D02*
X0309222Y0067518D01*
X0308024Y0068717D02*
X0306551Y0068717D01*
X0306825Y0069915D02*
X0305995Y0069915D01*
X0305627Y0071114D02*
X0305366Y0071114D01*
X0312348Y0072312D02*
X0358411Y0072312D01*
X0358124Y0072025D02*
X0358124Y0072025D01*
X0357747Y0071114D02*
X0313546Y0071114D01*
X0314745Y0069915D02*
X0357250Y0069915D01*
X0357150Y0068717D02*
X0315943Y0068717D01*
X0317142Y0067518D02*
X0357150Y0067518D01*
X0357150Y0066320D02*
X0318340Y0066320D01*
X0314618Y0073511D02*
X0359610Y0073511D01*
X0360350Y0074709D02*
X0315181Y0074709D01*
X0315181Y0075908D02*
X0360350Y0075908D01*
X0360350Y0077106D02*
X0315181Y0077106D01*
X0315181Y0078305D02*
X0360350Y0078305D01*
X0360350Y0079503D02*
X0314805Y0079503D01*
X0311458Y0080702D02*
X0360350Y0080702D01*
X0360350Y0081900D02*
X0310260Y0081900D01*
X0312957Y0083099D02*
X0360350Y0083099D01*
X0360350Y0084297D02*
X0313931Y0084297D01*
X0315140Y0085496D02*
X0360350Y0085496D01*
X0360350Y0086694D02*
X0316338Y0086694D01*
X0317448Y0087893D02*
X0360350Y0087893D01*
X0360350Y0089091D02*
X0317750Y0089091D01*
X0317750Y0090290D02*
X0360350Y0090290D01*
X0360350Y0091488D02*
X0317750Y0091488D01*
X0318170Y0092687D02*
X0360350Y0092687D01*
X0360350Y0093885D02*
X0318931Y0093885D01*
X0318931Y0095084D02*
X0360350Y0095084D01*
X0360350Y0096282D02*
X0318931Y0096282D01*
X0318931Y0097481D02*
X0360350Y0097481D01*
X0360350Y0098679D02*
X0318753Y0098679D01*
X0315350Y0095975D02*
X0315350Y0089100D01*
X0312850Y0086600D01*
X0310350Y0086600D01*
X0311305Y0099878D02*
X0360350Y0099878D01*
X0357967Y0119054D02*
X0313389Y0119054D01*
X0314587Y0120253D02*
X0357471Y0120253D01*
X0357150Y0121451D02*
X0315786Y0121451D01*
X0316984Y0122650D02*
X0357150Y0122650D01*
X0357150Y0123848D02*
X0318183Y0123848D01*
X0319381Y0125047D02*
X0357150Y0125047D01*
X0357150Y0126245D02*
X0335416Y0126245D01*
X0335650Y0127444D02*
X0357150Y0127444D01*
X0357150Y0128642D02*
X0335650Y0128642D01*
X0335650Y0129841D02*
X0357150Y0129841D01*
X0357150Y0131039D02*
X0335650Y0131039D01*
X0335650Y0132238D02*
X0357150Y0132238D01*
X0357150Y0133436D02*
X0335650Y0133436D01*
X0335650Y0134635D02*
X0357150Y0134635D01*
X0357150Y0135833D02*
X0335650Y0135833D01*
X0335650Y0137032D02*
X0357150Y0137032D01*
X0357150Y0138230D02*
X0335650Y0138230D01*
X0335650Y0139429D02*
X0357150Y0139429D01*
X0357150Y0140627D02*
X0335650Y0140627D01*
X0335650Y0141826D02*
X0357150Y0141826D01*
X0357150Y0143024D02*
X0335650Y0143024D01*
X0335650Y0144223D02*
X0357150Y0144223D01*
X0357150Y0145421D02*
X0335650Y0145421D01*
X0335650Y0146620D02*
X0357150Y0146620D01*
X0357150Y0147818D02*
X0335650Y0147818D01*
X0334604Y0149017D02*
X0357150Y0149017D01*
X0357150Y0150215D02*
X0314819Y0150215D01*
X0313621Y0151414D02*
X0357150Y0151414D01*
X0357150Y0152612D02*
X0312422Y0152612D01*
X0311224Y0153811D02*
X0357150Y0153811D01*
X0357150Y0155009D02*
X0310025Y0155009D01*
X0310025Y0156208D02*
X0357150Y0156208D01*
X0360350Y0185900D02*
X0360350Y0122300D01*
X0360352Y0122188D01*
X0360358Y0122077D01*
X0360368Y0121966D01*
X0360381Y0121855D01*
X0360399Y0121744D01*
X0360420Y0121635D01*
X0360445Y0121526D01*
X0360474Y0121418D01*
X0360507Y0121311D01*
X0360543Y0121206D01*
X0360583Y0121101D01*
X0360627Y0120998D01*
X0360674Y0120897D01*
X0360725Y0120798D01*
X0360779Y0120700D01*
X0360836Y0120604D01*
X0360897Y0120511D01*
X0360961Y0120419D01*
X0361028Y0120330D01*
X0361099Y0120243D01*
X0361172Y0120159D01*
X0361248Y0120077D01*
X0361327Y0119998D01*
X0361409Y0119922D01*
X0361493Y0119849D01*
X0361580Y0119778D01*
X0361669Y0119711D01*
X0361761Y0119647D01*
X0361854Y0119586D01*
X0361950Y0119529D01*
X0362048Y0119475D01*
X0362147Y0119424D01*
X0362248Y0119377D01*
X0362351Y0119333D01*
X0362456Y0119293D01*
X0362561Y0119257D01*
X0362668Y0119224D01*
X0362776Y0119195D01*
X0362885Y0119170D01*
X0362994Y0119149D01*
X0363105Y0119131D01*
X0363216Y0119118D01*
X0363327Y0119108D01*
X0363438Y0119102D01*
X0363550Y0119100D01*
X0357150Y0065121D02*
X0334699Y0065121D01*
X0335600Y0063923D02*
X0357150Y0063923D01*
X0357150Y0062724D02*
X0335600Y0062724D01*
X0335600Y0061526D02*
X0357150Y0061526D01*
X0357150Y0060327D02*
X0335600Y0060327D01*
X0335600Y0059129D02*
X0357150Y0059129D01*
X0357150Y0057930D02*
X0335600Y0057930D01*
X0335600Y0056732D02*
X0357150Y0056732D01*
X0357150Y0055533D02*
X0335600Y0055533D01*
X0335600Y0054334D02*
X0357150Y0054334D01*
X0357150Y0053136D02*
X0335600Y0053136D01*
X0335600Y0051937D02*
X0357150Y0051937D01*
X0357150Y0050739D02*
X0335600Y0050739D01*
X0335600Y0049540D02*
X0357150Y0049540D01*
X0357150Y0048342D02*
X0335600Y0048342D01*
X0335600Y0047143D02*
X0357150Y0047143D01*
X0357150Y0045945D02*
X0335600Y0045945D01*
X0335600Y0044746D02*
X0357150Y0044746D01*
X0357150Y0043548D02*
X0335600Y0043548D01*
X0335220Y0042349D02*
X0357150Y0042349D01*
X0357150Y0041151D02*
X0307733Y0041151D01*
X0308123Y0042349D02*
X0312380Y0042349D01*
X0312000Y0043548D02*
X0308495Y0043548D01*
X0308790Y0044746D02*
X0312000Y0044746D01*
X0312000Y0045945D02*
X0309070Y0045945D01*
X0309289Y0047143D02*
X0312000Y0047143D01*
X0312000Y0048342D02*
X0309482Y0048342D01*
X0309627Y0049540D02*
X0312000Y0049540D01*
X0312000Y0050739D02*
X0309735Y0050739D01*
X0309808Y0051937D02*
X0312000Y0051937D01*
X0307278Y0039952D02*
X0357150Y0039952D01*
X0357150Y0038754D02*
X0306785Y0038754D01*
X0306246Y0037555D02*
X0357150Y0037555D01*
X0357150Y0036357D02*
X0305639Y0036357D01*
X0305001Y0035158D02*
X0357150Y0035158D01*
X0357150Y0033960D02*
X0304277Y0033960D01*
X0272200Y0053136D02*
X0233600Y0053136D01*
X0236195Y0014784D02*
X0239935Y0014784D01*
X0238649Y0013585D02*
X0237393Y0013585D01*
X0242450Y0013585D02*
X0243250Y0013585D01*
X0243250Y0012387D02*
X0242450Y0012387D01*
X0242450Y0011188D02*
X0243250Y0011188D01*
X0243250Y0008791D02*
X0242450Y0008791D01*
X0242450Y0007593D02*
X0243250Y0007593D01*
X0243250Y0006394D02*
X0242450Y0006394D01*
X0242450Y0005196D02*
X0243250Y0005196D01*
X0244137Y0005196D02*
X0250922Y0005196D01*
X0249028Y0006394D02*
X0246389Y0006394D01*
X0247393Y0007593D02*
X0248039Y0007593D01*
X0241563Y0005196D02*
X0234778Y0005196D01*
X0236672Y0006394D02*
X0239311Y0006394D01*
X0238307Y0007593D02*
X0237661Y0007593D01*
X0230922Y0005196D02*
X0188550Y0005196D01*
X0188550Y0006394D02*
X0229028Y0006394D01*
X0228039Y0007593D02*
X0207112Y0007593D01*
X0210265Y0008791D02*
X0227543Y0008791D01*
X0227350Y0009990D02*
X0212125Y0009990D01*
X0213464Y0011188D02*
X0227350Y0011188D01*
X0227740Y0012387D02*
X0214511Y0012387D01*
X0215335Y0013585D02*
X0228307Y0013585D01*
X0229505Y0014784D02*
X0215974Y0014784D01*
X0242450Y0014784D02*
X0243250Y0014784D01*
X0245765Y0014784D02*
X0249505Y0014784D01*
X0248307Y0013585D02*
X0247051Y0013585D01*
X0256672Y0006394D02*
X0259028Y0006394D01*
X0258039Y0007593D02*
X0257661Y0007593D01*
X0254778Y0005196D02*
X0260922Y0005196D01*
X0264778Y0005196D02*
X0270922Y0005196D01*
X0269028Y0006394D02*
X0266672Y0006394D01*
X0267661Y0007593D02*
X0268039Y0007593D01*
X0274778Y0005196D02*
X0280922Y0005196D01*
X0279028Y0006394D02*
X0276672Y0006394D01*
X0277661Y0007593D02*
X0278039Y0007593D01*
X0284778Y0005196D02*
X0290922Y0005196D01*
X0289028Y0006394D02*
X0286672Y0006394D01*
X0287661Y0007593D02*
X0288039Y0007593D01*
X0294778Y0005196D02*
X0300922Y0005196D01*
X0299028Y0006394D02*
X0296672Y0006394D01*
X0297661Y0007593D02*
X0298039Y0007593D01*
X0304778Y0005196D02*
X0311563Y0005196D01*
X0309311Y0006394D02*
X0306672Y0006394D01*
X0307661Y0007593D02*
X0308307Y0007593D01*
X0269505Y0014784D02*
X0266195Y0014784D01*
X0267393Y0013585D02*
X0268307Y0013585D01*
X0345814Y0032761D02*
X0357150Y0032761D01*
X0357150Y0031563D02*
X0348398Y0031563D01*
X0350047Y0030364D02*
X0357150Y0030364D01*
X0357150Y0029166D02*
X0351310Y0029166D01*
X0352266Y0027967D02*
X0357150Y0027967D01*
X0357150Y0026769D02*
X0353023Y0026769D01*
X0353617Y0025570D02*
X0357150Y0025570D01*
X0357150Y0024372D02*
X0354069Y0024372D01*
X0354395Y0023173D02*
X0357150Y0023173D01*
X0357150Y0021975D02*
X0354603Y0021975D01*
D11*
X0179794Y0095350D02*
X0179796Y0095419D01*
X0179802Y0095487D01*
X0179812Y0095555D01*
X0179826Y0095622D01*
X0179844Y0095689D01*
X0179865Y0095754D01*
X0179891Y0095818D01*
X0179920Y0095880D01*
X0179952Y0095940D01*
X0179988Y0095999D01*
X0180028Y0096055D01*
X0180070Y0096109D01*
X0180116Y0096160D01*
X0180165Y0096209D01*
X0180216Y0096255D01*
X0180270Y0096297D01*
X0180326Y0096337D01*
X0180384Y0096373D01*
X0180445Y0096405D01*
X0180507Y0096434D01*
X0180571Y0096460D01*
X0180636Y0096481D01*
X0180703Y0096499D01*
X0180770Y0096513D01*
X0180838Y0096523D01*
X0180906Y0096529D01*
X0180975Y0096531D01*
X0181044Y0096529D01*
X0181112Y0096523D01*
X0181180Y0096513D01*
X0181247Y0096499D01*
X0181314Y0096481D01*
X0181379Y0096460D01*
X0181443Y0096434D01*
X0181505Y0096405D01*
X0181565Y0096373D01*
X0181624Y0096337D01*
X0181680Y0096297D01*
X0181734Y0096255D01*
X0181785Y0096209D01*
X0181834Y0096160D01*
X0181880Y0096109D01*
X0181922Y0096055D01*
X0181962Y0095999D01*
X0181998Y0095940D01*
X0182030Y0095880D01*
X0182059Y0095818D01*
X0182085Y0095754D01*
X0182106Y0095689D01*
X0182124Y0095622D01*
X0182138Y0095555D01*
X0182148Y0095487D01*
X0182154Y0095419D01*
X0182156Y0095350D01*
X0182154Y0095281D01*
X0182148Y0095213D01*
X0182138Y0095145D01*
X0182124Y0095078D01*
X0182106Y0095011D01*
X0182085Y0094946D01*
X0182059Y0094882D01*
X0182030Y0094820D01*
X0181998Y0094759D01*
X0181962Y0094701D01*
X0181922Y0094645D01*
X0181880Y0094591D01*
X0181834Y0094540D01*
X0181785Y0094491D01*
X0181734Y0094445D01*
X0181680Y0094403D01*
X0181624Y0094363D01*
X0181566Y0094327D01*
X0181505Y0094295D01*
X0181443Y0094266D01*
X0181379Y0094240D01*
X0181314Y0094219D01*
X0181247Y0094201D01*
X0181180Y0094187D01*
X0181112Y0094177D01*
X0181044Y0094171D01*
X0180975Y0094169D01*
X0180906Y0094171D01*
X0180838Y0094177D01*
X0180770Y0094187D01*
X0180703Y0094201D01*
X0180636Y0094219D01*
X0180571Y0094240D01*
X0180507Y0094266D01*
X0180445Y0094295D01*
X0180384Y0094327D01*
X0180326Y0094363D01*
X0180270Y0094403D01*
X0180216Y0094445D01*
X0180165Y0094491D01*
X0180116Y0094540D01*
X0180070Y0094591D01*
X0180028Y0094645D01*
X0179988Y0094701D01*
X0179952Y0094759D01*
X0179920Y0094820D01*
X0179891Y0094882D01*
X0179865Y0094946D01*
X0179844Y0095011D01*
X0179826Y0095078D01*
X0179812Y0095145D01*
X0179802Y0095213D01*
X0179796Y0095281D01*
X0179794Y0095350D01*
D12*
X0157850Y0170350D03*
X0204100Y0170350D03*
X0341600Y0170350D03*
X0341600Y0020350D03*
X0204100Y0020350D03*
X0157850Y0020350D03*
X0020350Y0020350D03*
X0020350Y0170350D03*
D13*
X0044100Y0155350D03*
X0034100Y0145350D03*
X0024100Y0145350D03*
X0014100Y0135350D03*
X0024100Y0125350D03*
X0034100Y0125350D03*
X0034100Y0115350D03*
X0034100Y0105350D03*
X0024100Y0105350D03*
X0014100Y0095350D03*
X0034100Y0095350D03*
X0044100Y0095350D03*
X0054100Y0095350D03*
X0064100Y0095350D03*
X0074100Y0095350D03*
X0084100Y0095350D03*
X0094100Y0095350D03*
X0104100Y0095350D03*
X0114100Y0095350D03*
X0124100Y0095350D03*
X0134100Y0095350D03*
X0144100Y0095350D03*
X0154100Y0095350D03*
X0164100Y0095350D03*
X0154100Y0105350D03*
X0144100Y0105350D03*
X0144100Y0115350D03*
X0154100Y0115350D03*
X0154100Y0125350D03*
X0144100Y0125350D03*
X0144100Y0135350D03*
X0154100Y0135350D03*
X0134100Y0135350D03*
X0124100Y0135350D03*
X0114100Y0135350D03*
X0104100Y0135350D03*
X0094100Y0135350D03*
X0084100Y0135350D03*
X0074100Y0135350D03*
X0064100Y0135350D03*
X0054100Y0135350D03*
X0044100Y0135350D03*
X0034100Y0135350D03*
X0054100Y0125350D03*
X0064100Y0125350D03*
X0064100Y0115350D03*
X0054100Y0115350D03*
X0044100Y0105350D03*
X0074100Y0105350D03*
X0084100Y0105350D03*
X0094100Y0105350D03*
X0094100Y0115350D03*
X0084100Y0115350D03*
X0084100Y0125350D03*
X0094100Y0125350D03*
X0104100Y0125350D03*
X0114100Y0125350D03*
X0124100Y0125350D03*
X0124100Y0115350D03*
X0114100Y0115350D03*
X0104100Y0115350D03*
X0104100Y0085350D03*
X0094100Y0085350D03*
X0084100Y0085350D03*
X0084100Y0075350D03*
X0094100Y0075350D03*
X0094100Y0065350D03*
X0084100Y0065350D03*
X0084100Y0055350D03*
X0094100Y0055350D03*
X0104100Y0055350D03*
X0114100Y0055350D03*
X0124100Y0055350D03*
X0134100Y0055350D03*
X0144100Y0055350D03*
X0154100Y0055350D03*
X0154100Y0065350D03*
X0144100Y0065350D03*
X0134100Y0065350D03*
X0124100Y0075350D03*
X0114100Y0075350D03*
X0104100Y0065350D03*
X0074100Y0055350D03*
X0064100Y0055350D03*
X0054100Y0055350D03*
X0044100Y0055350D03*
X0034100Y0055350D03*
X0034100Y0065350D03*
X0024100Y0065350D03*
X0014100Y0055350D03*
X0024100Y0045350D03*
X0034100Y0045350D03*
X0044100Y0035350D03*
X0054100Y0035350D03*
X0074100Y0035350D03*
X0084100Y0035350D03*
X0094100Y0035350D03*
X0094100Y0025350D03*
X0084100Y0025350D03*
X0114100Y0035350D03*
X0104100Y0045350D03*
X0094100Y0045350D03*
X0084100Y0045350D03*
X0124100Y0045350D03*
X0134100Y0035350D03*
X0144100Y0045350D03*
X0154100Y0045350D03*
X0154100Y0075350D03*
X0144100Y0075350D03*
X0144100Y0085350D03*
X0154100Y0085350D03*
X0134100Y0085350D03*
X0074100Y0075350D03*
X0054100Y0075350D03*
X0044100Y0065350D03*
X0034100Y0075350D03*
X0034100Y0085350D03*
X0024100Y0085350D03*
X0014100Y0075350D03*
X0044100Y0085350D03*
X0014100Y0115350D03*
X0084100Y0145350D03*
X0094100Y0145350D03*
X0094100Y0155350D03*
X0084100Y0155350D03*
X0074100Y0155350D03*
X0064100Y0165350D03*
X0054100Y0165350D03*
X0059100Y0180350D03*
X0069100Y0180350D03*
X0079100Y0180350D03*
X0089100Y0180350D03*
X0109100Y0180350D03*
X0119100Y0180350D03*
X0114100Y0165350D03*
X0104100Y0165350D03*
X0094100Y0165350D03*
X0084100Y0165350D03*
X0104100Y0155350D03*
X0114100Y0155350D03*
X0124100Y0155350D03*
X0124100Y0165350D03*
X0144100Y0145350D03*
X0154100Y0145350D03*
X0232850Y0180350D03*
X0242850Y0180350D03*
X0252850Y0180350D03*
X0262850Y0180350D03*
X0272850Y0180350D03*
X0282850Y0180350D03*
X0292850Y0180350D03*
X0302850Y0180350D03*
X0312850Y0180350D03*
X0312850Y0010350D03*
X0302850Y0010350D03*
X0292850Y0010350D03*
X0282850Y0010350D03*
X0272850Y0010350D03*
X0262850Y0010350D03*
X0252850Y0010350D03*
X0242850Y0010350D03*
X0232850Y0010350D03*
X0129100Y0010350D03*
X0119100Y0010350D03*
X0099100Y0010350D03*
X0079100Y0010350D03*
D14*
X0272800Y0053475D03*
X0272850Y0137225D03*
D15*
X0221850Y0137225D03*
X0323850Y0137225D03*
X0323800Y0053475D03*
X0221800Y0053475D03*
D16*
X0164100Y0055350D03*
X0164100Y0065350D03*
X0164100Y0075350D03*
X0164100Y0085350D03*
X0134100Y0075350D03*
X0124100Y0065350D03*
X0114100Y0065350D03*
X0104100Y0075350D03*
X0114100Y0085350D03*
X0124100Y0085350D03*
X0124100Y0105350D03*
X0134100Y0105350D03*
X0134100Y0115350D03*
X0134100Y0125350D03*
X0164100Y0125350D03*
X0164100Y0115350D03*
X0164100Y0105350D03*
X0114100Y0105350D03*
X0104100Y0105350D03*
X0074100Y0115350D03*
X0074100Y0125350D03*
X0044100Y0125350D03*
X0044100Y0115350D03*
X0054100Y0105350D03*
X0064100Y0105350D03*
X0024100Y0095350D03*
X0014100Y0105350D03*
X0024100Y0115350D03*
X0014100Y0125350D03*
X0024100Y0135350D03*
X0014100Y0145350D03*
X0044100Y0145350D03*
X0054100Y0145350D03*
X0064100Y0145350D03*
X0074100Y0145350D03*
X0064100Y0155350D03*
X0054100Y0155350D03*
X0044100Y0165350D03*
X0074100Y0165350D03*
X0049100Y0180350D03*
X0099100Y0180350D03*
X0129100Y0180350D03*
X0134100Y0165350D03*
X0134100Y0155350D03*
X0134100Y0145350D03*
X0124100Y0145350D03*
X0114100Y0145350D03*
X0104100Y0145350D03*
X0164100Y0145350D03*
X0164100Y0135350D03*
X0074100Y0085350D03*
X0064100Y0085350D03*
X0054100Y0085350D03*
X0044100Y0075350D03*
X0054100Y0065350D03*
X0064100Y0065350D03*
X0074100Y0065350D03*
X0064100Y0075350D03*
X0024100Y0075350D03*
X0014100Y0065350D03*
X0024100Y0055350D03*
X0014100Y0045350D03*
X0044100Y0045350D03*
X0054100Y0045350D03*
X0064100Y0045350D03*
X0074100Y0045350D03*
X0064100Y0035350D03*
X0064100Y0025350D03*
X0074100Y0025350D03*
X0054100Y0025350D03*
X0044100Y0025350D03*
X0049100Y0010350D03*
X0059100Y0010350D03*
X0069100Y0010350D03*
X0089100Y0010350D03*
X0109100Y0010350D03*
X0104100Y0025350D03*
X0114100Y0025350D03*
X0124100Y0025350D03*
X0134100Y0025350D03*
X0124100Y0035350D03*
X0114100Y0045350D03*
X0104100Y0035350D03*
X0134100Y0045350D03*
X0164100Y0045350D03*
X0014100Y0085350D03*
D17*
X0164100Y0085350D02*
X0169100Y0085350D01*
X0172850Y0089100D01*
X0191600Y0089100D01*
X0192850Y0087850D01*
X0192850Y0031600D01*
X0204100Y0020350D01*
X0232850Y0020350D01*
X0242850Y0010350D01*
X0242850Y0025975D01*
X0263475Y0046600D01*
X0267850Y0046600D01*
X0272800Y0051550D01*
X0272800Y0053475D01*
X0272800Y0031600D01*
X0285300Y0019100D01*
X0312850Y0019100D01*
X0312850Y0010350D01*
X0312850Y0019100D02*
X0319100Y0025350D01*
X0319100Y0034100D01*
X0324100Y0039100D01*
X0341600Y0039100D01*
X0341600Y0020350D01*
X0341600Y0039100D02*
X0345350Y0039100D01*
X0350350Y0044100D01*
X0350350Y0072850D01*
X0350350Y0115350D01*
X0345350Y0115350D01*
X0338475Y0122225D01*
X0338475Y0157850D01*
X0337850Y0157225D01*
X0311600Y0157225D01*
X0307225Y0160350D02*
X0307225Y0153850D01*
X0323850Y0137225D01*
X0323850Y0133475D01*
X0288850Y0098475D01*
X0257225Y0098475D01*
X0223725Y0131975D01*
X0221850Y0131975D01*
X0221850Y0137225D01*
X0209100Y0151600D02*
X0202850Y0145350D01*
X0202850Y0114100D01*
X0224725Y0092225D01*
X0257225Y0092225D01*
X0224925Y0059925D01*
X0221800Y0059925D01*
X0221800Y0053475D01*
X0209100Y0039100D02*
X0205350Y0042850D01*
X0205350Y0096600D01*
X0200350Y0101600D01*
X0172850Y0101600D01*
X0169100Y0105350D01*
X0164100Y0105350D01*
X0231600Y0106600D02*
X0239100Y0106600D01*
X0247225Y0098475D01*
X0257225Y0092225D02*
X0288475Y0092225D01*
X0323475Y0057225D01*
X0323475Y0053800D01*
X0323800Y0053475D01*
X0311600Y0076600D02*
X0297850Y0090350D01*
X0297850Y0092850D01*
X0308475Y0092850D01*
X0308475Y0096600D01*
X0323850Y0130100D02*
X0323850Y0133475D01*
X0338475Y0157850D02*
X0338475Y0167225D01*
X0341600Y0170350D01*
X0312850Y0165975D02*
X0307225Y0160350D01*
X0312850Y0165975D02*
X0312850Y0180350D01*
X0272850Y0137225D02*
X0258475Y0151600D01*
X0209100Y0151600D01*
X0209100Y0039100D02*
X0216600Y0039100D01*
X0220350Y0035350D01*
X0267850Y0025350D02*
X0272800Y0030300D01*
X0272800Y0031600D01*
D18*
X0267850Y0046600D03*
X0220350Y0035350D03*
X0272850Y0077850D03*
X0297850Y0092850D03*
X0308475Y0096600D03*
X0315350Y0095975D03*
X0310350Y0086600D03*
X0311600Y0076600D03*
X0350350Y0072850D03*
X0345350Y0115350D03*
X0311600Y0157225D03*
X0231600Y0106600D03*
X0247225Y0098475D03*
D19*
X0164100Y0105350D02*
X0164100Y0115350D01*
X0164100Y0125350D01*
X0164100Y0135350D01*
X0164100Y0145350D01*
X0164100Y0085350D02*
X0164100Y0075350D01*
X0164100Y0065350D01*
X0164100Y0055350D01*
X0164100Y0045350D01*
M02*
